ISO-10303-21;
HEADER;
FILE_DESCRIPTION(('FreeCAD Model'),'2;1');
FILE_NAME('Open CASCADE Shape Model','2026-10-06T19:39:34',('FreeCAD'),(
    'FreeCAD'),'Open CASCADE STEP processor 8.0','FreeCAD','Unknown');
FILE_SCHEMA(('AUTOMOTIVE_DESIGN { 1 0 10303 214 1 1 1 1 }'));
ENDSEC;
DATA;
#1 = APPLICATION_PROTOCOL_DEFINITION('international standard',
  'automotive_design',2000,#2);
#2 = APPLICATION_CONTEXT(
  'core data for automotive mechanical design processes');
#3 = SHAPE_DEFINITION_REPRESENTATION(#4,#10);
#4 = PRODUCT_DEFINITION_SHAPE('','',#5);
#5 = PRODUCT_DEFINITION('design','',#6,#9);
#6 = PRODUCT_DEFINITION_FORMATION('','',#7);
#7 = PRODUCT('Open CASCADE STEP translator 8.0 17',
  'Open CASCADE STEP translator 8.0 17','',(#8));
#8 = PRODUCT_CONTEXT('',#2,'mechanical');
#9 = PRODUCT_DEFINITION_CONTEXT('part definition',#2,'design');
#10 = ADVANCED_BREP_SHAPE_REPRESENTATION('',(#11,#15),#1453);
#11 = AXIS2_PLACEMENT_3D('',#12,#13,#14);
#12 = CARTESIAN_POINT('',(0.,0.,0.));
#13 = DIRECTION('',(0.,0.,1.));
#14 = DIRECTION('',(1.,0.,-0.));
#15 = MANIFOLD_SOLID_BREP('',#16);
#16 = CLOSED_SHELL('',(#17,#68,#108,#133,#160,#185,#210,#230,#255,#280,
    #334,#359,#435,#475,#500,#533,#558,#639,#663,#743,#767,#812,#946,
    #963,#980,#1000,#1026,#1043,#1060,#1072,#1097,#1122,#1153,#1177,
    #1201,#1218,#1235,#1252,#1264,#1289,#1314,#1338,#1363,#1388,#1405,
    #1417,#1429,#1441));
#17 = ADVANCED_FACE('',(#18),#63,.F.);
#18 = FACE_BOUND('',#19,.F.);
#19 = EDGE_LOOP('',(#20,#30,#37,#38,#47,#56));
#20 = ORIENTED_EDGE('',*,*,#21,.F.);
#21 = EDGE_CURVE('',#22,#24,#26,.T.);
#22 = VERTEX_POINT('',#23);
#23 = CARTESIAN_POINT('',(4.252522580545,17.,0.));
#24 = VERTEX_POINT('',#25);
#25 = CARTESIAN_POINT('',(7.,18.,0.));
#26 = LINE('',#27,#28);
#27 = CARTESIAN_POINT('',(4.252522580545,17.,0.));
#28 = VECTOR('',#29,1.);
#29 = DIRECTION('',(0.939692620786,0.342020143326,0.));
#30 = ORIENTED_EDGE('',*,*,#31,.T.);
#31 = EDGE_CURVE('',#22,#22,#32,.T.);
#32 = CIRCLE('',#33,17.);
#33 = AXIS2_PLACEMENT_3D('',#34,#35,#36);
#34 = CARTESIAN_POINT('',(4.252522580545,0.,0.));
#35 = DIRECTION('',(1.,0.,0.));
#36 = DIRECTION('',(0.,1.,0.));
#37 = ORIENTED_EDGE('',*,*,#21,.T.);
#38 = ORIENTED_EDGE('',*,*,#39,.F.);
#39 = EDGE_CURVE('',#40,#24,#42,.T.);
#40 = VERTEX_POINT('',#41);
#41 = CARTESIAN_POINT('',(7.,-17.85357107135,-2.291287847478));
#42 = CIRCLE('',#43,18.);
#43 = AXIS2_PLACEMENT_3D('',#44,#45,#46);
#44 = CARTESIAN_POINT('',(7.,0.,0.));
#45 = DIRECTION('',(1.,0.,0.));
#46 = DIRECTION('',(0.,1.,0.));
#47 = ORIENTED_EDGE('',*,*,#48,.F.);
#48 = EDGE_CURVE('',#49,#40,#51,.T.);
#49 = VERTEX_POINT('',#50);
#50 = CARTESIAN_POINT('',(7.,-17.85357107135,2.291287847478));
#51 = CIRCLE('',#52,18.);
#52 = AXIS2_PLACEMENT_3D('',#53,#54,#55);
#53 = CARTESIAN_POINT('',(7.,0.,0.));
#54 = DIRECTION('',(1.,0.,0.));
#55 = DIRECTION('',(0.,1.,0.));
#56 = ORIENTED_EDGE('',*,*,#57,.F.);
#57 = EDGE_CURVE('',#24,#49,#58,.T.);
#58 = CIRCLE('',#59,18.);
#59 = AXIS2_PLACEMENT_3D('',#60,#61,#62);
#60 = CARTESIAN_POINT('',(7.,0.,0.));
#61 = DIRECTION('',(1.,0.,0.));
#62 = DIRECTION('',(0.,1.,0.));
#63 = CONICAL_SURFACE('',#64,17.,0.349065850399);
#64 = AXIS2_PLACEMENT_3D('',#65,#66,#67);
#65 = CARTESIAN_POINT('',(4.252522580545,0.,0.));
#66 = DIRECTION('',(1.,0.,0.));
#67 = DIRECTION('',(0.,1.,0.));
#68 = ADVANCED_FACE('',(#69,#98),#103,.T.);
#69 = FACE_BOUND('',#70,.T.);
#70 = EDGE_LOOP('',(#71,#82,#91));
#71 = ORIENTED_EDGE('',*,*,#72,.T.);
#72 = EDGE_CURVE('',#73,#75,#77,.T.);
#73 = VERTEX_POINT('',#74);
#74 = CARTESIAN_POINT('',(7.,-17.85357107135,-7.063285354565));
#75 = VERTEX_POINT('',#76);
#76 = CARTESIAN_POINT('',(7.,19.2,0.));
#77 = CIRCLE('',#78,19.2);
#78 = AXIS2_PLACEMENT_3D('',#79,#80,#81);
#79 = CARTESIAN_POINT('',(7.,0.,0.));
#80 = DIRECTION('',(1.,0.,0.));
#81 = DIRECTION('',(0.,1.,0.));
#82 = ORIENTED_EDGE('',*,*,#83,.T.);
#83 = EDGE_CURVE('',#75,#84,#86,.T.);
#84 = VERTEX_POINT('',#85);
#85 = CARTESIAN_POINT('',(7.,-17.85357107135,7.063285354565));
#86 = CIRCLE('',#87,19.2);
#87 = AXIS2_PLACEMENT_3D('',#88,#89,#90);
#88 = CARTESIAN_POINT('',(7.,0.,0.));
#89 = DIRECTION('',(1.,0.,0.));
#90 = DIRECTION('',(0.,1.,0.));
#91 = ORIENTED_EDGE('',*,*,#92,.T.);
#92 = EDGE_CURVE('',#84,#73,#93,.T.);
#93 = CIRCLE('',#94,19.2);
#94 = AXIS2_PLACEMENT_3D('',#95,#96,#97);
#95 = CARTESIAN_POINT('',(7.,0.,0.));
#96 = DIRECTION('',(1.,0.,0.));
#97 = DIRECTION('',(0.,1.,0.));
#98 = FACE_BOUND('',#99,.F.);
#99 = EDGE_LOOP('',(#100,#101,#102));
#100 = ORIENTED_EDGE('',*,*,#57,.T.);
#101 = ORIENTED_EDGE('',*,*,#48,.T.);
#102 = ORIENTED_EDGE('',*,*,#39,.T.);
#103 = PLANE('',#104);
#104 = AXIS2_PLACEMENT_3D('',#105,#106,#107);
#105 = CARTESIAN_POINT('',(7.,0.,0.));
#106 = DIRECTION('',(1.,0.,0.));
#107 = DIRECTION('',(0.,1.,0.));
#108 = ADVANCED_FACE('',(#109),#128,.F.);
#109 = FACE_BOUND('',#110,.F.);
#110 = EDGE_LOOP('',(#111,#120,#126,#127));
#111 = ORIENTED_EDGE('',*,*,#112,.T.);
#112 = EDGE_CURVE('',#113,#113,#115,.T.);
#113 = VERTEX_POINT('',#114);
#114 = CARTESIAN_POINT('',(0.6,17.,0.));
#115 = CIRCLE('',#116,17.);
#116 = AXIS2_PLACEMENT_3D('',#117,#118,#119);
#117 = CARTESIAN_POINT('',(0.6,0.,0.));
#118 = DIRECTION('',(1.,0.,0.));
#119 = DIRECTION('',(0.,1.,0.));
#120 = ORIENTED_EDGE('',*,*,#121,.T.);
#121 = EDGE_CURVE('',#113,#22,#122,.T.);
#122 = LINE('',#123,#124);
#123 = CARTESIAN_POINT('',(0.6,17.,0.));
#124 = VECTOR('',#125,1.);
#125 = DIRECTION('',(1.,0.,0.));
#126 = ORIENTED_EDGE('',*,*,#31,.F.);
#127 = ORIENTED_EDGE('',*,*,#121,.F.);
#128 = CYLINDRICAL_SURFACE('',#129,17.);
#129 = AXIS2_PLACEMENT_3D('',#130,#131,#132);
#130 = CARTESIAN_POINT('',(0.6,0.,0.));
#131 = DIRECTION('',(1.,0.,0.));
#132 = DIRECTION('',(0.,1.,0.));
#133 = ADVANCED_FACE('',(#134),#155,.T.);
#134 = FACE_BOUND('',#135,.F.);
#135 = EDGE_LOOP('',(#136,#144,#145,#146,#147,#148));
#136 = ORIENTED_EDGE('',*,*,#137,.F.);
#137 = EDGE_CURVE('',#75,#138,#140,.T.);
#138 = VERTEX_POINT('',#139);
#139 = CARTESIAN_POINT('',(6.7,19.5,0.));
#140 = LINE('',#141,#142);
#141 = CARTESIAN_POINT('',(7.,19.2,0.));
#142 = VECTOR('',#143,1.);
#143 = DIRECTION('',(-0.707106781187,0.707106781187,0.));
#144 = ORIENTED_EDGE('',*,*,#83,.T.);
#145 = ORIENTED_EDGE('',*,*,#92,.T.);
#146 = ORIENTED_EDGE('',*,*,#72,.T.);
#147 = ORIENTED_EDGE('',*,*,#137,.T.);
#148 = ORIENTED_EDGE('',*,*,#149,.F.);
#149 = EDGE_CURVE('',#138,#138,#150,.T.);
#150 = CIRCLE('',#151,19.5);
#151 = AXIS2_PLACEMENT_3D('',#152,#153,#154);
#152 = CARTESIAN_POINT('',(6.7,0.,0.));
#153 = DIRECTION('',(1.,0.,0.));
#154 = DIRECTION('',(0.,1.,0.));
#155 = CONICAL_SURFACE('',#156,19.2,0.785398163397);
#156 = AXIS2_PLACEMENT_3D('',#157,#158,#159);
#157 = CARTESIAN_POINT('',(7.,0.,0.));
#158 = DIRECTION('',(-1.,-0.,-0.));
#159 = DIRECTION('',(0.,1.,0.));
#160 = ADVANCED_FACE('',(#161),#180,.F.);
#161 = FACE_BOUND('',#162,.F.);
#162 = EDGE_LOOP('',(#163,#171,#178,#179));
#163 = ORIENTED_EDGE('',*,*,#164,.F.);
#164 = EDGE_CURVE('',#165,#113,#167,.T.);
#165 = VERTEX_POINT('',#166);
#166 = CARTESIAN_POINT('',(0.,16.4,0.));
#167 = LINE('',#168,#169);
#168 = CARTESIAN_POINT('',(0.,16.4,0.));
#169 = VECTOR('',#170,1.);
#170 = DIRECTION('',(0.707106781187,0.707106781187,0.));
#171 = ORIENTED_EDGE('',*,*,#172,.T.);
#172 = EDGE_CURVE('',#165,#165,#173,.T.);
#173 = CIRCLE('',#174,16.4);
#174 = AXIS2_PLACEMENT_3D('',#175,#176,#177);
#175 = CARTESIAN_POINT('',(0.,0.,0.));
#176 = DIRECTION('',(1.,0.,0.));
#177 = DIRECTION('',(0.,1.,0.));
#178 = ORIENTED_EDGE('',*,*,#164,.T.);
#179 = ORIENTED_EDGE('',*,*,#112,.F.);
#180 = CONICAL_SURFACE('',#181,16.4,0.785398163397);
#181 = AXIS2_PLACEMENT_3D('',#182,#183,#184);
#182 = CARTESIAN_POINT('',(0.,0.,0.));
#183 = DIRECTION('',(1.,0.,0.));
#184 = DIRECTION('',(0.,1.,0.));
#185 = ADVANCED_FACE('',(#186),#205,.T.);
#186 = FACE_BOUND('',#187,.F.);
#187 = EDGE_LOOP('',(#188,#189,#197,#204));
#188 = ORIENTED_EDGE('',*,*,#149,.T.);
#189 = ORIENTED_EDGE('',*,*,#190,.T.);
#190 = EDGE_CURVE('',#138,#191,#193,.T.);
#191 = VERTEX_POINT('',#192);
#192 = CARTESIAN_POINT('',(0.6,19.5,0.));
#193 = LINE('',#194,#195);
#194 = CARTESIAN_POINT('',(6.7,19.5,0.));
#195 = VECTOR('',#196,1.);
#196 = DIRECTION('',(-1.,0.,0.));
#197 = ORIENTED_EDGE('',*,*,#198,.F.);
#198 = EDGE_CURVE('',#191,#191,#199,.T.);
#199 = CIRCLE('',#200,19.5);
#200 = AXIS2_PLACEMENT_3D('',#201,#202,#203);
#201 = CARTESIAN_POINT('',(0.6,0.,0.));
#202 = DIRECTION('',(1.,0.,0.));
#203 = DIRECTION('',(0.,1.,0.));
#204 = ORIENTED_EDGE('',*,*,#190,.F.);
#205 = CYLINDRICAL_SURFACE('',#206,19.5);
#206 = AXIS2_PLACEMENT_3D('',#207,#208,#209);
#207 = CARTESIAN_POINT('',(6.7,0.,0.));
#208 = DIRECTION('',(-1.,-0.,-0.));
#209 = DIRECTION('',(0.,1.,0.));
#210 = ADVANCED_FACE('',(#211,#214),#225,.T.);
#211 = FACE_BOUND('',#212,.T.);
#212 = EDGE_LOOP('',(#213));
#213 = ORIENTED_EDGE('',*,*,#172,.T.);
#214 = FACE_BOUND('',#215,.T.);
#215 = EDGE_LOOP('',(#216));
#216 = ORIENTED_EDGE('',*,*,#217,.F.);
#217 = EDGE_CURVE('',#218,#218,#220,.T.);
#218 = VERTEX_POINT('',#219);
#219 = CARTESIAN_POINT('',(0.,13.6,0.));
#220 = CIRCLE('',#221,13.6);
#221 = AXIS2_PLACEMENT_3D('',#222,#223,#224);
#222 = CARTESIAN_POINT('',(4.E-17,0.,0.));
#223 = DIRECTION('',(1.,0.,0.));
#224 = DIRECTION('',(0.,1.,0.));
#225 = PLANE('',#226);
#226 = AXIS2_PLACEMENT_3D('',#227,#228,#229);
#227 = CARTESIAN_POINT('',(0.,7.451E-14,4.168E-14));
#228 = DIRECTION('',(1.,0.,0.));
#229 = DIRECTION('',(0.,0.,1.));
#230 = ADVANCED_FACE('',(#231),#250,.T.);
#231 = FACE_BOUND('',#232,.F.);
#232 = EDGE_LOOP('',(#233,#241,#242,#243));
#233 = ORIENTED_EDGE('',*,*,#234,.F.);
#234 = EDGE_CURVE('',#191,#235,#237,.T.);
#235 = VERTEX_POINT('',#236);
#236 = CARTESIAN_POINT('',(0.,20.1,0.));
#237 = LINE('',#238,#239);
#238 = CARTESIAN_POINT('',(0.6,19.5,0.));
#239 = VECTOR('',#240,1.);
#240 = DIRECTION('',(-0.707106781187,0.707106781187,0.));
#241 = ORIENTED_EDGE('',*,*,#198,.T.);
#242 = ORIENTED_EDGE('',*,*,#234,.T.);
#243 = ORIENTED_EDGE('',*,*,#244,.F.);
#244 = EDGE_CURVE('',#235,#235,#245,.T.);
#245 = CIRCLE('',#246,20.1);
#246 = AXIS2_PLACEMENT_3D('',#247,#248,#249);
#247 = CARTESIAN_POINT('',(0.,0.,0.));
#248 = DIRECTION('',(1.,0.,0.));
#249 = DIRECTION('',(0.,1.,0.));
#250 = CONICAL_SURFACE('',#251,19.5,0.785398163397);
#251 = AXIS2_PLACEMENT_3D('',#252,#253,#254);
#252 = CARTESIAN_POINT('',(0.6,0.,0.));
#253 = DIRECTION('',(-1.,-0.,-0.));
#254 = DIRECTION('',(0.,1.,0.));
#255 = ADVANCED_FACE('',(#256),#275,.T.);
#256 = FACE_BOUND('',#257,.F.);
#257 = EDGE_LOOP('',(#258,#266,#273,#274));
#258 = ORIENTED_EDGE('',*,*,#259,.F.);
#259 = EDGE_CURVE('',#260,#218,#262,.T.);
#260 = VERTEX_POINT('',#261);
#261 = CARTESIAN_POINT('',(0.6,13.,0.));
#262 = LINE('',#263,#264);
#263 = CARTESIAN_POINT('',(0.6,13.,0.));
#264 = VECTOR('',#265,1.);
#265 = DIRECTION('',(-0.707106781187,0.707106781187,0.));
#266 = ORIENTED_EDGE('',*,*,#267,.T.);
#267 = EDGE_CURVE('',#260,#260,#268,.T.);
#268 = CIRCLE('',#269,13.);
#269 = AXIS2_PLACEMENT_3D('',#270,#271,#272);
#270 = CARTESIAN_POINT('',(0.6,0.,0.));
#271 = DIRECTION('',(1.,0.,0.));
#272 = DIRECTION('',(0.,1.,0.));
#273 = ORIENTED_EDGE('',*,*,#259,.T.);
#274 = ORIENTED_EDGE('',*,*,#217,.F.);
#275 = CONICAL_SURFACE('',#276,13.,0.785398163397);
#276 = AXIS2_PLACEMENT_3D('',#277,#278,#279);
#277 = CARTESIAN_POINT('',(0.6,0.,0.));
#278 = DIRECTION('',(-1.,-0.,-0.));
#279 = DIRECTION('',(0.,1.,0.));
#280 = ADVANCED_FACE('',(#281,#326),#329,.T.);
#281 = FACE_BOUND('',#282,.T.);
#282 = EDGE_LOOP('',(#283,#294,#303,#311,#320));
#283 = ORIENTED_EDGE('',*,*,#284,.T.);
#284 = EDGE_CURVE('',#285,#287,#289,.T.);
#285 = VERTEX_POINT('',#286);
#286 = CARTESIAN_POINT('',(0.,11.273863607376,22.313672924068));
#287 = VERTEX_POINT('',#288);
#288 = CARTESIAN_POINT('',(0.,25.,0.));
#289 = CIRCLE('',#290,25.);
#290 = AXIS2_PLACEMENT_3D('',#291,#292,#293);
#291 = CARTESIAN_POINT('',(0.,0.,0.));
#292 = DIRECTION('',(1.,0.,0.));
#293 = DIRECTION('',(0.,1.,0.));
#294 = ORIENTED_EDGE('',*,*,#295,.T.);
#295 = EDGE_CURVE('',#287,#296,#298,.T.);
#296 = VERTEX_POINT('',#297);
#297 = CARTESIAN_POINT('',(0.,22.313672924068,11.273863607376));
#298 = CIRCLE('',#299,25.);
#299 = AXIS2_PLACEMENT_3D('',#300,#301,#302);
#300 = CARTESIAN_POINT('',(0.,0.,0.));
#301 = DIRECTION('',(1.,0.,0.));
#302 = DIRECTION('',(0.,1.,0.));
#303 = ORIENTED_EDGE('',*,*,#304,.F.);
#304 = EDGE_CURVE('',#305,#296,#307,.T.);
#305 = VERTEX_POINT('',#306);
#306 = CARTESIAN_POINT('',(0.,22.273863607376,11.273863607376));
#307 = LINE('',#308,#309);
#308 = CARTESIAN_POINT('',(0.,15.568465901844,11.273863607376));
#309 = VECTOR('',#310,1.);
#310 = DIRECTION('',(0.,1.,0.));
#311 = ORIENTED_EDGE('',*,*,#312,.F.);
#312 = EDGE_CURVE('',#313,#305,#315,.T.);
#313 = VERTEX_POINT('',#314);
#314 = CARTESIAN_POINT('',(0.,11.273863607376,22.273863607376));
#315 = CIRCLE('',#316,11.);
#316 = AXIS2_PLACEMENT_3D('',#317,#318,#319);
#317 = CARTESIAN_POINT('',(0.,22.273863607376,22.273863607376));
#318 = DIRECTION('',(1.,0.,0.));
#319 = DIRECTION('',(0.,1.,0.));
#320 = ORIENTED_EDGE('',*,*,#321,.F.);
#321 = EDGE_CURVE('',#285,#313,#322,.T.);
#322 = LINE('',#323,#324);
#323 = CARTESIAN_POINT('',(0.,11.273863607376,15.568465901844));
#324 = VECTOR('',#325,1.);
#325 = DIRECTION('',(0.,0.,-1.));
#326 = FACE_BOUND('',#327,.T.);
#327 = EDGE_LOOP('',(#328));
#328 = ORIENTED_EDGE('',*,*,#244,.F.);
#329 = PLANE('',#330);
#330 = AXIS2_PLACEMENT_3D('',#331,#332,#333);
#331 = CARTESIAN_POINT('',(0.,7.451E-14,4.168E-14));
#332 = DIRECTION('',(1.,0.,0.));
#333 = DIRECTION('',(0.,0.,1.));
#334 = ADVANCED_FACE('',(#335),#354,.T.);
#335 = FACE_BOUND('',#336,.F.);
#336 = EDGE_LOOP('',(#337,#346,#352,#353));
#337 = ORIENTED_EDGE('',*,*,#338,.T.);
#338 = EDGE_CURVE('',#339,#339,#341,.T.);
#339 = VERTEX_POINT('',#340);
#340 = CARTESIAN_POINT('',(2.7,13.,0.));
#341 = CIRCLE('',#342,13.);
#342 = AXIS2_PLACEMENT_3D('',#343,#344,#345);
#343 = CARTESIAN_POINT('',(2.7,0.,0.));
#344 = DIRECTION('',(1.,0.,0.));
#345 = DIRECTION('',(0.,1.,0.));
#346 = ORIENTED_EDGE('',*,*,#347,.T.);
#347 = EDGE_CURVE('',#339,#260,#348,.T.);
#348 = LINE('',#349,#350);
#349 = CARTESIAN_POINT('',(2.7,13.,0.));
#350 = VECTOR('',#351,1.);
#351 = DIRECTION('',(-1.,0.,0.));
#352 = ORIENTED_EDGE('',*,*,#267,.F.);
#353 = ORIENTED_EDGE('',*,*,#347,.F.);
#354 = CYLINDRICAL_SURFACE('',#355,13.);
#355 = AXIS2_PLACEMENT_3D('',#356,#357,#358);
#356 = CARTESIAN_POINT('',(2.7,0.,0.));
#357 = DIRECTION('',(-1.,-0.,-0.));
#358 = DIRECTION('',(0.,1.,0.));
#359 = ADVANCED_FACE('',(#360),#430,.F.);
#360 = FACE_BOUND('',#361,.T.);
#361 = EDGE_LOOP('',(#362,#373,#382,#388,#389,#390,#398,#407,#415,#424)
  );
#362 = ORIENTED_EDGE('',*,*,#363,.T.);
#363 = EDGE_CURVE('',#364,#366,#368,.T.);
#364 = VERTEX_POINT('',#365);
#365 = CARTESIAN_POINT('',(12.,-17.85357107135,-17.5));
#366 = VERTEX_POINT('',#367);
#367 = CARTESIAN_POINT('',(12.,25.,0.));
#368 = CIRCLE('',#369,25.);
#369 = AXIS2_PLACEMENT_3D('',#370,#371,#372);
#370 = CARTESIAN_POINT('',(12.,0.,0.));
#371 = DIRECTION('',(1.,0.,0.));
#372 = DIRECTION('',(0.,1.,0.));
#373 = ORIENTED_EDGE('',*,*,#374,.T.);
#374 = EDGE_CURVE('',#366,#375,#377,.T.);
#375 = VERTEX_POINT('',#376);
#376 = CARTESIAN_POINT('',(12.,22.313672924068,11.273863607376));
#377 = CIRCLE('',#378,25.);
#378 = AXIS2_PLACEMENT_3D('',#379,#380,#381);
#379 = CARTESIAN_POINT('',(12.,0.,0.));
#380 = DIRECTION('',(1.,0.,0.));
#381 = DIRECTION('',(0.,1.,0.));
#382 = ORIENTED_EDGE('',*,*,#383,.T.);
#383 = EDGE_CURVE('',#375,#296,#384,.T.);
#384 = LINE('',#385,#386);
#385 = CARTESIAN_POINT('',(0.,22.313672924068,11.273863607376));
#386 = VECTOR('',#387,1.);
#387 = DIRECTION('',(-1.,-0.,-0.));
#388 = ORIENTED_EDGE('',*,*,#295,.F.);
#389 = ORIENTED_EDGE('',*,*,#284,.F.);
#390 = ORIENTED_EDGE('',*,*,#391,.F.);
#391 = EDGE_CURVE('',#392,#285,#394,.T.);
#392 = VERTEX_POINT('',#393);
#393 = CARTESIAN_POINT('',(12.,11.273863607376,22.313672924068));
#394 = LINE('',#395,#396);
#395 = CARTESIAN_POINT('',(0.,11.273863607376,22.313672924068));
#396 = VECTOR('',#397,1.);
#397 = DIRECTION('',(-1.,-0.,-0.));
#398 = ORIENTED_EDGE('',*,*,#399,.T.);
#399 = EDGE_CURVE('',#392,#400,#402,.T.);
#400 = VERTEX_POINT('',#401);
#401 = CARTESIAN_POINT('',(12.,-17.85357107135,17.5));
#402 = CIRCLE('',#403,25.);
#403 = AXIS2_PLACEMENT_3D('',#404,#405,#406);
#404 = CARTESIAN_POINT('',(12.,0.,0.));
#405 = DIRECTION('',(1.,0.,0.));
#406 = DIRECTION('',(0.,1.,0.));
#407 = ORIENTED_EDGE('',*,*,#408,.T.);
#408 = EDGE_CURVE('',#400,#409,#411,.T.);
#409 = VERTEX_POINT('',#410);
#410 = CARTESIAN_POINT('',(7.,-17.85357107135,17.5));
#411 = LINE('',#412,#413);
#412 = CARTESIAN_POINT('',(12.,-17.85357107135,17.5));
#413 = VECTOR('',#414,1.);
#414 = DIRECTION('',(-1.,-0.,-0.));
#415 = ORIENTED_EDGE('',*,*,#416,.F.);
#416 = EDGE_CURVE('',#417,#409,#419,.T.);
#417 = VERTEX_POINT('',#418);
#418 = CARTESIAN_POINT('',(7.,-17.85357107135,-17.5));
#419 = CIRCLE('',#420,25.);
#420 = AXIS2_PLACEMENT_3D('',#421,#422,#423);
#421 = CARTESIAN_POINT('',(7.,0.,0.));
#422 = DIRECTION('',(-1.,0.,0.));
#423 = DIRECTION('',(0.,1.,0.));
#424 = ORIENTED_EDGE('',*,*,#425,.F.);
#425 = EDGE_CURVE('',#364,#417,#426,.T.);
#426 = LINE('',#427,#428);
#427 = CARTESIAN_POINT('',(12.,-17.85357107135,-17.5));
#428 = VECTOR('',#429,1.);
#429 = DIRECTION('',(-1.,-0.,-0.));
#430 = CYLINDRICAL_SURFACE('',#431,25.);
#431 = AXIS2_PLACEMENT_3D('',#432,#433,#434);
#432 = CARTESIAN_POINT('',(0.,0.,0.));
#433 = DIRECTION('',(-1.,-0.,-0.));
#434 = DIRECTION('',(0.,1.,0.));
#435 = ADVANCED_FACE('',(#436),#470,.F.);
#436 = FACE_BOUND('',#437,.F.);
#437 = EDGE_LOOP('',(#438,#446,#447,#448,#456,#464));
#438 = ORIENTED_EDGE('',*,*,#439,.F.);
#439 = EDGE_CURVE('',#313,#440,#442,.T.);
#440 = VERTEX_POINT('',#441);
#441 = CARTESIAN_POINT('',(-5.,11.273863607376,22.273863607376));
#442 = LINE('',#443,#444);
#443 = CARTESIAN_POINT('',(0.,11.273863607376,22.273863607376));
#444 = VECTOR('',#445,1.);
#445 = DIRECTION('',(-1.,-0.,-0.));
#446 = ORIENTED_EDGE('',*,*,#321,.F.);
#447 = ORIENTED_EDGE('',*,*,#391,.F.);
#448 = ORIENTED_EDGE('',*,*,#449,.F.);
#449 = EDGE_CURVE('',#450,#392,#452,.T.);
#450 = VERTEX_POINT('',#451);
#451 = CARTESIAN_POINT('',(12.,11.273863607376,40.));
#452 = LINE('',#453,#454);
#453 = CARTESIAN_POINT('',(12.,11.273863607376,15.568465901844));
#454 = VECTOR('',#455,1.);
#455 = DIRECTION('',(0.,0.,-1.));
#456 = ORIENTED_EDGE('',*,*,#457,.F.);
#457 = EDGE_CURVE('',#458,#450,#460,.T.);
#458 = VERTEX_POINT('',#459);
#459 = CARTESIAN_POINT('',(-5.,11.273863607376,40.));
#460 = LINE('',#461,#462);
#461 = CARTESIAN_POINT('',(0.,11.273863607376,40.));
#462 = VECTOR('',#463,1.);
#463 = DIRECTION('',(1.,0.,0.));
#464 = ORIENTED_EDGE('',*,*,#465,.T.);
#465 = EDGE_CURVE('',#458,#440,#466,.T.);
#466 = LINE('',#467,#468);
#467 = CARTESIAN_POINT('',(-5.,11.273863607376,15.568465901844));
#468 = VECTOR('',#469,1.);
#469 = DIRECTION('',(0.,0.,-1.));
#470 = PLANE('',#471);
#471 = AXIS2_PLACEMENT_3D('',#472,#473,#474);
#472 = CARTESIAN_POINT('',(9.5E-16,11.273863607376,31.136931803688));
#473 = DIRECTION('',(-0.,-1.,-0.));
#474 = DIRECTION('',(0.,0.,-1.));
#475 = ADVANCED_FACE('',(#476),#495,.F.);
#476 = FACE_BOUND('',#477,.F.);
#477 = EDGE_LOOP('',(#478,#479,#480,#489));
#478 = ORIENTED_EDGE('',*,*,#312,.F.);
#479 = ORIENTED_EDGE('',*,*,#439,.T.);
#480 = ORIENTED_EDGE('',*,*,#481,.T.);
#481 = EDGE_CURVE('',#440,#482,#484,.T.);
#482 = VERTEX_POINT('',#483);
#483 = CARTESIAN_POINT('',(-5.,22.273863607376,11.273863607376));
#484 = CIRCLE('',#485,11.);
#485 = AXIS2_PLACEMENT_3D('',#486,#487,#488);
#486 = CARTESIAN_POINT('',(-5.,22.273863607376,22.273863607376));
#487 = DIRECTION('',(1.,0.,0.));
#488 = DIRECTION('',(0.,1.,0.));
#489 = ORIENTED_EDGE('',*,*,#490,.T.);
#490 = EDGE_CURVE('',#482,#305,#491,.T.);
#491 = LINE('',#492,#493);
#492 = CARTESIAN_POINT('',(0.,22.273863607376,11.273863607376));
#493 = VECTOR('',#494,1.);
#494 = DIRECTION('',(1.,0.,0.));
#495 = CYLINDRICAL_SURFACE('',#496,11.);
#496 = AXIS2_PLACEMENT_3D('',#497,#498,#499);
#497 = CARTESIAN_POINT('',(0.,22.273863607376,22.273863607376));
#498 = DIRECTION('',(1.,0.,0.));
#499 = DIRECTION('',(0.,1.,0.));
#500 = ADVANCED_FACE('',(#501),#528,.F.);
#501 = FACE_BOUND('',#502,.F.);
#502 = EDGE_LOOP('',(#503,#513,#519,#520,#521,#522));
#503 = ORIENTED_EDGE('',*,*,#504,.F.);
#504 = EDGE_CURVE('',#505,#507,#509,.T.);
#505 = VERTEX_POINT('',#506);
#506 = CARTESIAN_POINT('',(12.,40.,11.273863607376));
#507 = VERTEX_POINT('',#508);
#508 = CARTESIAN_POINT('',(-5.,40.,11.273863607376));
#509 = LINE('',#510,#511);
#510 = CARTESIAN_POINT('',(0.,40.,11.273863607376));
#511 = VECTOR('',#512,1.);
#512 = DIRECTION('',(-1.,-0.,-0.));
#513 = ORIENTED_EDGE('',*,*,#514,.F.);
#514 = EDGE_CURVE('',#375,#505,#515,.T.);
#515 = LINE('',#516,#517);
#516 = CARTESIAN_POINT('',(12.,15.568465901844,11.273863607376));
#517 = VECTOR('',#518,1.);
#518 = DIRECTION('',(0.,1.,0.));
#519 = ORIENTED_EDGE('',*,*,#383,.T.);
#520 = ORIENTED_EDGE('',*,*,#304,.F.);
#521 = ORIENTED_EDGE('',*,*,#490,.F.);
#522 = ORIENTED_EDGE('',*,*,#523,.T.);
#523 = EDGE_CURVE('',#482,#507,#524,.T.);
#524 = LINE('',#525,#526);
#525 = CARTESIAN_POINT('',(-5.,15.568465901844,11.273863607376));
#526 = VECTOR('',#527,1.);
#527 = DIRECTION('',(0.,1.,0.));
#528 = PLANE('',#529);
#529 = AXIS2_PLACEMENT_3D('',#530,#531,#532);
#530 = CARTESIAN_POINT('',(0.,31.136931803688,11.273863607376));
#531 = DIRECTION('',(-0.,-0.,-1.));
#532 = DIRECTION('',(-1.,0.,0.));
#533 = ADVANCED_FACE('',(#534),#553,.T.);
#534 = FACE_BOUND('',#535,.F.);
#535 = EDGE_LOOP('',(#536,#545,#551,#552));
#536 = ORIENTED_EDGE('',*,*,#537,.T.);
#537 = EDGE_CURVE('',#538,#538,#540,.T.);
#538 = VERTEX_POINT('',#539);
#539 = CARTESIAN_POINT('',(3.,12.7,0.));
#540 = CIRCLE('',#541,12.7);
#541 = AXIS2_PLACEMENT_3D('',#542,#543,#544);
#542 = CARTESIAN_POINT('',(3.,0.,0.));
#543 = DIRECTION('',(1.,0.,0.));
#544 = DIRECTION('',(0.,1.,0.));
#545 = ORIENTED_EDGE('',*,*,#546,.T.);
#546 = EDGE_CURVE('',#538,#339,#547,.T.);
#547 = LINE('',#548,#549);
#548 = CARTESIAN_POINT('',(3.,12.7,0.));
#549 = VECTOR('',#550,1.);
#550 = DIRECTION('',(-0.707106781187,0.707106781187,0.));
#551 = ORIENTED_EDGE('',*,*,#338,.F.);
#552 = ORIENTED_EDGE('',*,*,#546,.F.);
#553 = CONICAL_SURFACE('',#554,12.7,0.785398163397);
#554 = AXIS2_PLACEMENT_3D('',#555,#556,#557);
#555 = CARTESIAN_POINT('',(3.,0.,0.));
#556 = DIRECTION('',(-1.,-0.,-0.));
#557 = DIRECTION('',(0.,1.,0.));
#558 = ADVANCED_FACE('',(#559,#612,#623),#634,.T.);
#559 = FACE_BOUND('',#560,.T.);
#560 = EDGE_LOOP('',(#561,#571,#580,#588,#597,#603,#604,#605,#606));
#561 = ORIENTED_EDGE('',*,*,#562,.T.);
#562 = EDGE_CURVE('',#563,#565,#567,.T.);
#563 = VERTEX_POINT('',#564);
#564 = CARTESIAN_POINT('',(12.,-40.,-17.5));
#565 = VERTEX_POINT('',#566);
#566 = CARTESIAN_POINT('',(12.,-40.,-37.));
#567 = LINE('',#568,#569);
#568 = CARTESIAN_POINT('',(12.,-40.,37.));
#569 = VECTOR('',#570,1.);
#570 = DIRECTION('',(0.,0.,-1.));
#571 = ORIENTED_EDGE('',*,*,#572,.T.);
#572 = EDGE_CURVE('',#565,#573,#575,.T.);
#573 = VERTEX_POINT('',#574);
#574 = CARTESIAN_POINT('',(12.,-37.,-40.));
#575 = CIRCLE('',#576,3.);
#576 = AXIS2_PLACEMENT_3D('',#577,#578,#579);
#577 = CARTESIAN_POINT('',(12.,-37.,-37.));
#578 = DIRECTION('',(1.,0.,0.));
#579 = DIRECTION('',(0.,1.,0.));
#580 = ORIENTED_EDGE('',*,*,#581,.T.);
#581 = EDGE_CURVE('',#573,#582,#584,.T.);
#582 = VERTEX_POINT('',#583);
#583 = CARTESIAN_POINT('',(12.,37.,-40.));
#584 = LINE('',#585,#586);
#585 = CARTESIAN_POINT('',(12.,-37.,-40.));
#586 = VECTOR('',#587,1.);
#587 = DIRECTION('',(0.,1.,0.));
#588 = ORIENTED_EDGE('',*,*,#589,.T.);
#589 = EDGE_CURVE('',#582,#590,#592,.T.);
#590 = VERTEX_POINT('',#591);
#591 = CARTESIAN_POINT('',(12.,40.,-37.));
#592 = CIRCLE('',#593,3.);
#593 = AXIS2_PLACEMENT_3D('',#594,#595,#596);
#594 = CARTESIAN_POINT('',(12.,37.,-37.));
#595 = DIRECTION('',(1.,0.,0.));
#596 = DIRECTION('',(0.,1.,0.));
#597 = ORIENTED_EDGE('',*,*,#598,.T.);
#598 = EDGE_CURVE('',#590,#505,#599,.T.);
#599 = LINE('',#600,#601);
#600 = CARTESIAN_POINT('',(12.,40.,-37.));
#601 = VECTOR('',#602,1.);
#602 = DIRECTION('',(0.,0.,1.));
#603 = ORIENTED_EDGE('',*,*,#514,.F.);
#604 = ORIENTED_EDGE('',*,*,#374,.F.);
#605 = ORIENTED_EDGE('',*,*,#363,.F.);
#606 = ORIENTED_EDGE('',*,*,#607,.F.);
#607 = EDGE_CURVE('',#563,#364,#608,.T.);
#608 = LINE('',#609,#610);
#609 = CARTESIAN_POINT('',(12.,-41.,-17.5));
#610 = VECTOR('',#611,1.);
#611 = DIRECTION('',(0.,1.,0.));
#612 = FACE_BOUND('',#613,.T.);
#613 = EDGE_LOOP('',(#614));
#614 = ORIENTED_EDGE('',*,*,#615,.F.);
#615 = EDGE_CURVE('',#616,#616,#618,.T.);
#616 = VERTEX_POINT('',#617);
#617 = CARTESIAN_POINT('',(12.,29.999999999948,-33.99999999998));
#618 = CIRCLE('',#619,4.);
#619 = AXIS2_PLACEMENT_3D('',#620,#621,#622);
#620 = CARTESIAN_POINT('',(12.,29.999999999948,-29.99999999998));
#621 = DIRECTION('',(1.,-0.,0.));
#622 = DIRECTION('',(0.,0.,-1.));
#623 = FACE_BOUND('',#624,.T.);
#624 = EDGE_LOOP('',(#625));
#625 = ORIENTED_EDGE('',*,*,#626,.F.);
#626 = EDGE_CURVE('',#627,#627,#629,.T.);
#627 = VERTEX_POINT('',#628);
#628 = CARTESIAN_POINT('',(12.,-29.99999999997,-33.99999999998));
#629 = CIRCLE('',#630,4.);
#630 = AXIS2_PLACEMENT_3D('',#631,#632,#633);
#631 = CARTESIAN_POINT('',(12.,-29.99999999997,-29.99999999998));
#632 = DIRECTION('',(1.,-0.,0.));
#633 = DIRECTION('',(0.,0.,-1.));
#634 = PLANE('',#635);
#635 = AXIS2_PLACEMENT_3D('',#636,#637,#638);
#636 = CARTESIAN_POINT('',(12.,-1.02E-15,-1.83E-15));
#637 = DIRECTION('',(1.,0.,0.));
#638 = DIRECTION('',(0.,0.,1.));
#639 = ADVANCED_FACE('',(#640),#658,.F.);
#640 = FACE_BOUND('',#641,.F.);
#641 = EDGE_LOOP('',(#642,#643,#651,#657));
#642 = ORIENTED_EDGE('',*,*,#607,.F.);
#643 = ORIENTED_EDGE('',*,*,#644,.F.);
#644 = EDGE_CURVE('',#645,#563,#647,.T.);
#645 = VERTEX_POINT('',#646);
#646 = CARTESIAN_POINT('',(7.,-40.,-17.5));
#647 = LINE('',#648,#649);
#648 = CARTESIAN_POINT('',(7.75,-40.,-17.5));
#649 = VECTOR('',#650,1.);
#650 = DIRECTION('',(1.,-2.093E-14,0.));
#651 = ORIENTED_EDGE('',*,*,#652,.T.);
#652 = EDGE_CURVE('',#645,#417,#653,.T.);
#653 = LINE('',#654,#655);
#654 = CARTESIAN_POINT('',(7.,-41.,-17.5));
#655 = VECTOR('',#656,1.);
#656 = DIRECTION('',(0.,1.,0.));
#657 = ORIENTED_EDGE('',*,*,#425,.F.);
#658 = PLANE('',#659);
#659 = AXIS2_PLACEMENT_3D('',#660,#661,#662);
#660 = CARTESIAN_POINT('',(12.,-41.,-17.5));
#661 = DIRECTION('',(0.,0.,-1.));
#662 = DIRECTION('',(0.,1.,0.));
#663 = ADVANCED_FACE('',(#664,#682,#716,#727),#738,.T.);
#664 = FACE_BOUND('',#665,.T.);
#665 = EDGE_LOOP('',(#666,#674,#675,#676));
#666 = ORIENTED_EDGE('',*,*,#667,.F.);
#667 = EDGE_CURVE('',#645,#668,#670,.T.);
#668 = VERTEX_POINT('',#669);
#669 = CARTESIAN_POINT('',(7.,-40.,17.5));
#670 = LINE('',#671,#672);
#671 = CARTESIAN_POINT('',(7.,-40.,9.205E-14));
#672 = VECTOR('',#673,1.);
#673 = DIRECTION('',(0.,0.,1.));
#674 = ORIENTED_EDGE('',*,*,#652,.T.);
#675 = ORIENTED_EDGE('',*,*,#416,.T.);
#676 = ORIENTED_EDGE('',*,*,#677,.T.);
#677 = EDGE_CURVE('',#409,#668,#678,.T.);
#678 = LINE('',#679,#680);
#679 = CARTESIAN_POINT('',(7.,-17.85357107135,17.5));
#680 = VECTOR('',#681,1.);
#681 = DIRECTION('',(0.,-1.,0.));
#682 = FACE_BOUND('',#683,.T.);
#683 = EDGE_LOOP('',(#684,#694,#702,#710));
#684 = ORIENTED_EDGE('',*,*,#685,.F.);
#685 = EDGE_CURVE('',#686,#688,#690,.T.);
#686 = VERTEX_POINT('',#687);
#687 = CARTESIAN_POINT('',(7.,-37.,-7.));
#688 = VERTEX_POINT('',#689);
#689 = CARTESIAN_POINT('',(7.,-34.5,-7.));
#690 = LINE('',#691,#692);
#691 = CARTESIAN_POINT('',(7.,-37.,-7.));
#692 = VECTOR('',#693,1.);
#693 = DIRECTION('',(0.,1.,0.));
#694 = ORIENTED_EDGE('',*,*,#695,.F.);
#695 = EDGE_CURVE('',#696,#686,#698,.T.);
#696 = VERTEX_POINT('',#697);
#697 = CARTESIAN_POINT('',(7.,-37.,7.));
#698 = LINE('',#699,#700);
#699 = CARTESIAN_POINT('',(7.,-37.,7.));
#700 = VECTOR('',#701,1.);
#701 = DIRECTION('',(0.,0.,-1.));
#702 = ORIENTED_EDGE('',*,*,#703,.F.);
#703 = EDGE_CURVE('',#704,#696,#706,.T.);
#704 = VERTEX_POINT('',#705);
#705 = CARTESIAN_POINT('',(7.,-34.5,7.));
#706 = LINE('',#707,#708);
#707 = CARTESIAN_POINT('',(7.,-34.5,7.));
#708 = VECTOR('',#709,1.);
#709 = DIRECTION('',(0.,-1.,0.));
#710 = ORIENTED_EDGE('',*,*,#711,.F.);
#711 = EDGE_CURVE('',#688,#704,#712,.T.);
#712 = LINE('',#713,#714);
#713 = CARTESIAN_POINT('',(7.,-34.5,-7.));
#714 = VECTOR('',#715,1.);
#715 = DIRECTION('',(0.,0.,1.));
#716 = FACE_BOUND('',#717,.T.);
#717 = EDGE_LOOP('',(#718));
#718 = ORIENTED_EDGE('',*,*,#719,.F.);
#719 = EDGE_CURVE('',#720,#720,#722,.T.);
#720 = VERTEX_POINT('',#721);
#721 = CARTESIAN_POINT('',(7.,-36.,-13.95));
#722 = CIRCLE('',#723,1.45);
#723 = AXIS2_PLACEMENT_3D('',#724,#725,#726);
#724 = CARTESIAN_POINT('',(7.,-36.,-12.5));
#725 = DIRECTION('',(1.,-0.,0.));
#726 = DIRECTION('',(0.,0.,-1.));
#727 = FACE_BOUND('',#728,.T.);
#728 = EDGE_LOOP('',(#729));
#729 = ORIENTED_EDGE('',*,*,#730,.F.);
#730 = EDGE_CURVE('',#731,#731,#733,.T.);
#731 = VERTEX_POINT('',#732);
#732 = CARTESIAN_POINT('',(7.,-36.,11.05));
#733 = CIRCLE('',#734,1.45);
#734 = AXIS2_PLACEMENT_3D('',#735,#736,#737);
#735 = CARTESIAN_POINT('',(7.,-36.,12.5));
#736 = DIRECTION('',(1.,-0.,0.));
#737 = DIRECTION('',(0.,0.,-1.));
#738 = PLANE('',#739);
#739 = AXIS2_PLACEMENT_3D('',#740,#741,#742);
#740 = CARTESIAN_POINT('',(7.,-29.42678553567,-4.9E-16));
#741 = DIRECTION('',(1.,0.,0.));
#742 = DIRECTION('',(0.,0.,1.));
#743 = ADVANCED_FACE('',(#744),#762,.F.);
#744 = FACE_BOUND('',#745,.F.);
#745 = EDGE_LOOP('',(#746,#754,#755,#756));
#746 = ORIENTED_EDGE('',*,*,#747,.F.);
#747 = EDGE_CURVE('',#400,#748,#750,.T.);
#748 = VERTEX_POINT('',#749);
#749 = CARTESIAN_POINT('',(12.,-40.,17.5));
#750 = LINE('',#751,#752);
#751 = CARTESIAN_POINT('',(12.,-17.85357107135,17.5));
#752 = VECTOR('',#753,1.);
#753 = DIRECTION('',(0.,-1.,0.));
#754 = ORIENTED_EDGE('',*,*,#408,.T.);
#755 = ORIENTED_EDGE('',*,*,#677,.T.);
#756 = ORIENTED_EDGE('',*,*,#757,.F.);
#757 = EDGE_CURVE('',#748,#668,#758,.T.);
#758 = LINE('',#759,#760);
#759 = CARTESIAN_POINT('',(7.75,-40.,17.5));
#760 = VECTOR('',#761,1.);
#761 = DIRECTION('',(-1.,2.093E-14,0.));
#762 = PLANE('',#763);
#763 = AXIS2_PLACEMENT_3D('',#764,#765,#766);
#764 = CARTESIAN_POINT('',(12.,-17.85357107135,17.5));
#765 = DIRECTION('',(0.,0.,1.));
#766 = DIRECTION('',(0.,-1.,0.));
#767 = ADVANCED_FACE('',(#768,#796),#807,.T.);
#768 = FACE_BOUND('',#769,.T.);
#769 = EDGE_LOOP('',(#770,#778,#779,#780,#781,#789));
#770 = ORIENTED_EDGE('',*,*,#771,.T.);
#771 = EDGE_CURVE('',#772,#748,#774,.T.);
#772 = VERTEX_POINT('',#773);
#773 = CARTESIAN_POINT('',(12.,-40.,37.));
#774 = LINE('',#775,#776);
#775 = CARTESIAN_POINT('',(12.,-40.,37.));
#776 = VECTOR('',#777,1.);
#777 = DIRECTION('',(0.,0.,-1.));
#778 = ORIENTED_EDGE('',*,*,#747,.F.);
#779 = ORIENTED_EDGE('',*,*,#399,.F.);
#780 = ORIENTED_EDGE('',*,*,#449,.F.);
#781 = ORIENTED_EDGE('',*,*,#782,.T.);
#782 = EDGE_CURVE('',#450,#783,#785,.T.);
#783 = VERTEX_POINT('',#784);
#784 = CARTESIAN_POINT('',(12.,-37.,40.));
#785 = LINE('',#786,#787);
#786 = CARTESIAN_POINT('',(12.,37.,40.));
#787 = VECTOR('',#788,1.);
#788 = DIRECTION('',(0.,-1.,0.));
#789 = ORIENTED_EDGE('',*,*,#790,.T.);
#790 = EDGE_CURVE('',#783,#772,#791,.T.);
#791 = CIRCLE('',#792,3.);
#792 = AXIS2_PLACEMENT_3D('',#793,#794,#795);
#793 = CARTESIAN_POINT('',(12.,-37.,37.));
#794 = DIRECTION('',(1.,0.,0.));
#795 = DIRECTION('',(0.,1.,0.));
#796 = FACE_BOUND('',#797,.T.);
#797 = EDGE_LOOP('',(#798));
#798 = ORIENTED_EDGE('',*,*,#799,.F.);
#799 = EDGE_CURVE('',#800,#800,#802,.T.);
#800 = VERTEX_POINT('',#801);
#801 = CARTESIAN_POINT('',(12.,-29.99999999997,25.999999999985));
#802 = CIRCLE('',#803,4.);
#803 = AXIS2_PLACEMENT_3D('',#804,#805,#806);
#804 = CARTESIAN_POINT('',(12.,-29.99999999997,29.999999999985));
#805 = DIRECTION('',(1.,-0.,0.));
#806 = DIRECTION('',(0.,0.,-1.));
#807 = PLANE('',#808);
#808 = AXIS2_PLACEMENT_3D('',#809,#810,#811);
#809 = CARTESIAN_POINT('',(12.,-1.02E-15,-1.83E-15));
#810 = DIRECTION('',(1.,0.,0.));
#811 = DIRECTION('',(0.,0.,1.));
#812 = ADVANCED_FACE('',(#813,#875,#886,#897,#908,#919,#930),#941,.F.);
#813 = FACE_BOUND('',#814,.F.);
#814 = EDGE_LOOP('',(#815,#826,#834,#843,#849,#850,#851,#852,#860,#869)
  );
#815 = ORIENTED_EDGE('',*,*,#816,.T.);
#816 = EDGE_CURVE('',#817,#819,#821,.T.);
#817 = VERTEX_POINT('',#818);
#818 = CARTESIAN_POINT('',(-5.,-40.,-37.));
#819 = VERTEX_POINT('',#820);
#820 = CARTESIAN_POINT('',(-5.,-37.,-40.));
#821 = CIRCLE('',#822,3.);
#822 = AXIS2_PLACEMENT_3D('',#823,#824,#825);
#823 = CARTESIAN_POINT('',(-5.,-37.,-37.));
#824 = DIRECTION('',(1.,0.,0.));
#825 = DIRECTION('',(0.,1.,0.));
#826 = ORIENTED_EDGE('',*,*,#827,.T.);
#827 = EDGE_CURVE('',#819,#828,#830,.T.);
#828 = VERTEX_POINT('',#829);
#829 = CARTESIAN_POINT('',(-5.,37.,-40.));
#830 = LINE('',#831,#832);
#831 = CARTESIAN_POINT('',(-5.,-37.,-40.));
#832 = VECTOR('',#833,1.);
#833 = DIRECTION('',(0.,1.,0.));
#834 = ORIENTED_EDGE('',*,*,#835,.T.);
#835 = EDGE_CURVE('',#828,#836,#838,.T.);
#836 = VERTEX_POINT('',#837);
#837 = CARTESIAN_POINT('',(-5.,40.,-37.));
#838 = CIRCLE('',#839,3.);
#839 = AXIS2_PLACEMENT_3D('',#840,#841,#842);
#840 = CARTESIAN_POINT('',(-5.,37.,-37.));
#841 = DIRECTION('',(1.,0.,0.));
#842 = DIRECTION('',(0.,1.,0.));
#843 = ORIENTED_EDGE('',*,*,#844,.T.);
#844 = EDGE_CURVE('',#836,#507,#845,.T.);
#845 = LINE('',#846,#847);
#846 = CARTESIAN_POINT('',(-5.,40.,-37.));
#847 = VECTOR('',#848,1.);
#848 = DIRECTION('',(0.,0.,1.));
#849 = ORIENTED_EDGE('',*,*,#523,.F.);
#850 = ORIENTED_EDGE('',*,*,#481,.F.);
#851 = ORIENTED_EDGE('',*,*,#465,.F.);
#852 = ORIENTED_EDGE('',*,*,#853,.T.);
#853 = EDGE_CURVE('',#458,#854,#856,.T.);
#854 = VERTEX_POINT('',#855);
#855 = CARTESIAN_POINT('',(-5.,-37.,40.));
#856 = LINE('',#857,#858);
#857 = CARTESIAN_POINT('',(-5.,37.,40.));
#858 = VECTOR('',#859,1.);
#859 = DIRECTION('',(0.,-1.,0.));
#860 = ORIENTED_EDGE('',*,*,#861,.T.);
#861 = EDGE_CURVE('',#854,#862,#864,.T.);
#862 = VERTEX_POINT('',#863);
#863 = CARTESIAN_POINT('',(-5.,-40.,37.000000000001));
#864 = CIRCLE('',#865,3.);
#865 = AXIS2_PLACEMENT_3D('',#866,#867,#868);
#866 = CARTESIAN_POINT('',(-5.,-37.,37.));
#867 = DIRECTION('',(1.,0.,0.));
#868 = DIRECTION('',(0.,1.,0.));
#869 = ORIENTED_EDGE('',*,*,#870,.T.);
#870 = EDGE_CURVE('',#862,#817,#871,.T.);
#871 = LINE('',#872,#873);
#872 = CARTESIAN_POINT('',(-5.,-40.,37.000000000001));
#873 = VECTOR('',#874,1.);
#874 = DIRECTION('',(0.,0.,-1.));
#875 = FACE_BOUND('',#876,.F.);
#876 = EDGE_LOOP('',(#877));
#877 = ORIENTED_EDGE('',*,*,#878,.T.);
#878 = EDGE_CURVE('',#879,#879,#881,.T.);
#879 = VERTEX_POINT('',#880);
#880 = CARTESIAN_POINT('',(-5.,29.999999999948,-32.24999999998));
#881 = CIRCLE('',#882,2.25);
#882 = AXIS2_PLACEMENT_3D('',#883,#884,#885);
#883 = CARTESIAN_POINT('',(-5.,29.999999999948,-29.99999999998));
#884 = DIRECTION('',(-1.,-0.,-0.));
#885 = DIRECTION('',(0.,0.,-1.));
#886 = FACE_BOUND('',#887,.F.);
#887 = EDGE_LOOP('',(#888));
#888 = ORIENTED_EDGE('',*,*,#889,.F.);
#889 = EDGE_CURVE('',#890,#890,#892,.T.);
#890 = VERTEX_POINT('',#891);
#891 = CARTESIAN_POINT('',(-5.,12.,-3.E-15));
#892 = CIRCLE('',#893,12.);
#893 = AXIS2_PLACEMENT_3D('',#894,#895,#896);
#894 = CARTESIAN_POINT('',(-5.,0.,0.));
#895 = DIRECTION('',(1.,0.,0.));
#896 = DIRECTION('',(0.,1.,0.));
#897 = FACE_BOUND('',#898,.F.);
#898 = EDGE_LOOP('',(#899));
#899 = ORIENTED_EDGE('',*,*,#900,.T.);
#900 = EDGE_CURVE('',#901,#901,#903,.T.);
#901 = VERTEX_POINT('',#902);
#902 = CARTESIAN_POINT('',(-5.,-29.99999999997,-32.24999999998));
#903 = CIRCLE('',#904,2.25);
#904 = AXIS2_PLACEMENT_3D('',#905,#906,#907);
#905 = CARTESIAN_POINT('',(-5.,-29.99999999997,-29.99999999998));
#906 = DIRECTION('',(-1.,-0.,-0.));
#907 = DIRECTION('',(0.,0.,-1.));
#908 = FACE_BOUND('',#909,.F.);
#909 = EDGE_LOOP('',(#910));
#910 = ORIENTED_EDGE('',*,*,#911,.T.);
#911 = EDGE_CURVE('',#912,#912,#914,.T.);
#912 = VERTEX_POINT('',#913);
#913 = CARTESIAN_POINT('',(-5.,-36.,-13.95));
#914 = CIRCLE('',#915,1.45);
#915 = AXIS2_PLACEMENT_3D('',#916,#917,#918);
#916 = CARTESIAN_POINT('',(-5.,-36.,-12.5));
#917 = DIRECTION('',(-1.,-0.,-0.));
#918 = DIRECTION('',(0.,0.,-1.));
#919 = FACE_BOUND('',#920,.F.);
#920 = EDGE_LOOP('',(#921));
#921 = ORIENTED_EDGE('',*,*,#922,.T.);
#922 = EDGE_CURVE('',#923,#923,#925,.T.);
#923 = VERTEX_POINT('',#924);
#924 = CARTESIAN_POINT('',(-5.,-36.,11.05));
#925 = CIRCLE('',#926,1.45);
#926 = AXIS2_PLACEMENT_3D('',#927,#928,#929);
#927 = CARTESIAN_POINT('',(-5.,-36.,12.5));
#928 = DIRECTION('',(-1.,-0.,-0.));
#929 = DIRECTION('',(0.,0.,-1.));
#930 = FACE_BOUND('',#931,.F.);
#931 = EDGE_LOOP('',(#932));
#932 = ORIENTED_EDGE('',*,*,#933,.T.);
#933 = EDGE_CURVE('',#934,#934,#936,.T.);
#934 = VERTEX_POINT('',#935);
#935 = CARTESIAN_POINT('',(-5.,-29.99999999997,27.749999999985));
#936 = CIRCLE('',#937,2.25);
#937 = AXIS2_PLACEMENT_3D('',#938,#939,#940);
#938 = CARTESIAN_POINT('',(-5.,-29.99999999997,29.999999999985));
#939 = DIRECTION('',(-1.,-0.,-0.));
#940 = DIRECTION('',(0.,0.,-1.));
#941 = PLANE('',#942);
#942 = AXIS2_PLACEMENT_3D('',#943,#944,#945);
#943 = CARTESIAN_POINT('',(-5.,7.451E-14,4.168E-14));
#944 = DIRECTION('',(1.,0.,0.));
#945 = DIRECTION('',(0.,0.,1.));
#946 = ADVANCED_FACE('',(#947),#958,.T.);
#947 = FACE_BOUND('',#948,.T.);
#948 = EDGE_LOOP('',(#949,#950,#951,#957));
#949 = ORIENTED_EDGE('',*,*,#457,.F.);
#950 = ORIENTED_EDGE('',*,*,#853,.T.);
#951 = ORIENTED_EDGE('',*,*,#952,.F.);
#952 = EDGE_CURVE('',#783,#854,#953,.T.);
#953 = LINE('',#954,#955);
#954 = CARTESIAN_POINT('',(0.,-37.,40.));
#955 = VECTOR('',#956,1.);
#956 = DIRECTION('',(-1.,-0.,-0.));
#957 = ORIENTED_EDGE('',*,*,#782,.F.);
#958 = PLANE('',#959);
#959 = AXIS2_PLACEMENT_3D('',#960,#961,#962);
#960 = CARTESIAN_POINT('',(3.5,-6.87E-15,40.));
#961 = DIRECTION('',(0.,0.,1.));
#962 = DIRECTION('',(1.,0.,0.));
#963 = ADVANCED_FACE('',(#964),#975,.T.);
#964 = FACE_BOUND('',#965,.T.);
#965 = EDGE_LOOP('',(#966,#972,#973,#974));
#966 = ORIENTED_EDGE('',*,*,#967,.F.);
#967 = EDGE_CURVE('',#836,#590,#968,.T.);
#968 = LINE('',#969,#970);
#969 = CARTESIAN_POINT('',(0.,40.,-37.));
#970 = VECTOR('',#971,1.);
#971 = DIRECTION('',(1.,0.,0.));
#972 = ORIENTED_EDGE('',*,*,#844,.T.);
#973 = ORIENTED_EDGE('',*,*,#504,.F.);
#974 = ORIENTED_EDGE('',*,*,#598,.F.);
#975 = PLANE('',#976);
#976 = AXIS2_PLACEMENT_3D('',#977,#978,#979);
#977 = CARTESIAN_POINT('',(3.5,40.,2.28E-14));
#978 = DIRECTION('',(0.,1.,0.));
#979 = DIRECTION('',(0.,0.,1.));
#980 = ADVANCED_FACE('',(#981,#992),#995,.T.);
#981 = FACE_BOUND('',#982,.F.);
#982 = EDGE_LOOP('',(#983));
#983 = ORIENTED_EDGE('',*,*,#984,.T.);
#984 = EDGE_CURVE('',#985,#985,#987,.T.);
#985 = VERTEX_POINT('',#986);
#986 = CARTESIAN_POINT('',(3.,12.3,0.));
#987 = CIRCLE('',#988,12.3);
#988 = AXIS2_PLACEMENT_3D('',#989,#990,#991);
#989 = CARTESIAN_POINT('',(3.,0.,0.));
#990 = DIRECTION('',(1.,0.,0.));
#991 = DIRECTION('',(0.,1.,0.));
#992 = FACE_BOUND('',#993,.F.);
#993 = EDGE_LOOP('',(#994));
#994 = ORIENTED_EDGE('',*,*,#537,.F.);
#995 = PLANE('',#996);
#996 = AXIS2_PLACEMENT_3D('',#997,#998,#999);
#997 = CARTESIAN_POINT('',(3.,0.,0.));
#998 = DIRECTION('',(1.,0.,0.));
#999 = DIRECTION('',(0.,1.,0.));
#1000 = ADVANCED_FACE('',(#1001),#1021,.T.);
#1001 = FACE_BOUND('',#1002,.T.);
#1002 = EDGE_LOOP('',(#1003,#1009,#1010,#1016,#1017,#1018,#1019,#1020));
#1003 = ORIENTED_EDGE('',*,*,#1004,.F.);
#1004 = EDGE_CURVE('',#862,#772,#1005,.T.);
#1005 = LINE('',#1006,#1007);
#1006 = CARTESIAN_POINT('',(0.,-40.,37.));
#1007 = VECTOR('',#1008,1.);
#1008 = DIRECTION('',(1.,0.,0.));
#1009 = ORIENTED_EDGE('',*,*,#870,.T.);
#1010 = ORIENTED_EDGE('',*,*,#1011,.F.);
#1011 = EDGE_CURVE('',#565,#817,#1012,.T.);
#1012 = LINE('',#1013,#1014);
#1013 = CARTESIAN_POINT('',(0.,-40.,-37.));
#1014 = VECTOR('',#1015,1.);
#1015 = DIRECTION('',(-1.,-0.,-0.));
#1016 = ORIENTED_EDGE('',*,*,#562,.F.);
#1017 = ORIENTED_EDGE('',*,*,#644,.F.);
#1018 = ORIENTED_EDGE('',*,*,#667,.T.);
#1019 = ORIENTED_EDGE('',*,*,#757,.F.);
#1020 = ORIENTED_EDGE('',*,*,#771,.F.);
#1021 = PLANE('',#1022);
#1022 = AXIS2_PLACEMENT_3D('',#1023,#1024,#1025);
#1023 = CARTESIAN_POINT('',(3.5,-40.,1.8458E-13));
#1024 = DIRECTION('',(-2.093E-14,-1.,-0.));
#1025 = DIRECTION('',(-1.,2.093E-14,0.));
#1026 = ADVANCED_FACE('',(#1027),#1038,.T.);
#1027 = FACE_BOUND('',#1028,.T.);
#1028 = EDGE_LOOP('',(#1029,#1030,#1036,#1037));
#1029 = ORIENTED_EDGE('',*,*,#589,.F.);
#1030 = ORIENTED_EDGE('',*,*,#1031,.T.);
#1031 = EDGE_CURVE('',#582,#828,#1032,.T.);
#1032 = LINE('',#1033,#1034);
#1033 = CARTESIAN_POINT('',(0.,37.,-40.));
#1034 = VECTOR('',#1035,1.);
#1035 = DIRECTION('',(-1.,-0.,-0.));
#1036 = ORIENTED_EDGE('',*,*,#835,.T.);
#1037 = ORIENTED_EDGE('',*,*,#967,.T.);
#1038 = CYLINDRICAL_SURFACE('',#1039,3.);
#1039 = AXIS2_PLACEMENT_3D('',#1040,#1041,#1042);
#1040 = CARTESIAN_POINT('',(0.,37.,-37.));
#1041 = DIRECTION('',(1.,0.,0.));
#1042 = DIRECTION('',(0.,1.,0.));
#1043 = ADVANCED_FACE('',(#1044),#1055,.T.);
#1044 = FACE_BOUND('',#1045,.T.);
#1045 = EDGE_LOOP('',(#1046,#1047,#1048,#1049));
#1046 = ORIENTED_EDGE('',*,*,#827,.T.);
#1047 = ORIENTED_EDGE('',*,*,#1031,.F.);
#1048 = ORIENTED_EDGE('',*,*,#581,.F.);
#1049 = ORIENTED_EDGE('',*,*,#1050,.F.);
#1050 = EDGE_CURVE('',#819,#573,#1051,.T.);
#1051 = LINE('',#1052,#1053);
#1052 = CARTESIAN_POINT('',(0.,-37.,-40.));
#1053 = VECTOR('',#1054,1.);
#1054 = DIRECTION('',(1.,0.,0.));
#1055 = PLANE('',#1056);
#1056 = AXIS2_PLACEMENT_3D('',#1057,#1058,#1059);
#1057 = CARTESIAN_POINT('',(3.5,7.18E-15,-40.));
#1058 = DIRECTION('',(-0.,-0.,-1.));
#1059 = DIRECTION('',(-1.,0.,0.));
#1060 = ADVANCED_FACE('',(#1061),#1067,.T.);
#1061 = FACE_BOUND('',#1062,.T.);
#1062 = EDGE_LOOP('',(#1063,#1064,#1065,#1066));
#1063 = ORIENTED_EDGE('',*,*,#572,.F.);
#1064 = ORIENTED_EDGE('',*,*,#1011,.T.);
#1065 = ORIENTED_EDGE('',*,*,#816,.T.);
#1066 = ORIENTED_EDGE('',*,*,#1050,.T.);
#1067 = CYLINDRICAL_SURFACE('',#1068,3.);
#1068 = AXIS2_PLACEMENT_3D('',#1069,#1070,#1071);
#1069 = CARTESIAN_POINT('',(0.,-37.,-37.));
#1070 = DIRECTION('',(1.,0.,0.));
#1071 = DIRECTION('',(0.,1.,0.));
#1072 = ADVANCED_FACE('',(#1073),#1092,.F.);
#1073 = FACE_BOUND('',#1074,.T.);
#1074 = EDGE_LOOP('',(#1075,#1083,#1084,#1085));
#1075 = ORIENTED_EDGE('',*,*,#1076,.F.);
#1076 = EDGE_CURVE('',#616,#1077,#1079,.T.);
#1077 = VERTEX_POINT('',#1078);
#1078 = CARTESIAN_POINT('',(7.6,29.999999999948,-33.99999999998));
#1079 = LINE('',#1080,#1081);
#1080 = CARTESIAN_POINT('',(12.,29.999999999948,-33.99999999998));
#1081 = VECTOR('',#1082,1.);
#1082 = DIRECTION('',(-1.,0.,0.));
#1083 = ORIENTED_EDGE('',*,*,#615,.T.);
#1084 = ORIENTED_EDGE('',*,*,#1076,.T.);
#1085 = ORIENTED_EDGE('',*,*,#1086,.F.);
#1086 = EDGE_CURVE('',#1077,#1077,#1087,.T.);
#1087 = CIRCLE('',#1088,4.);
#1088 = AXIS2_PLACEMENT_3D('',#1089,#1090,#1091);
#1089 = CARTESIAN_POINT('',(7.6,29.999999999948,-29.99999999998));
#1090 = DIRECTION('',(1.,-0.,0.));
#1091 = DIRECTION('',(0.,0.,-1.));
#1092 = CYLINDRICAL_SURFACE('',#1093,4.);
#1093 = AXIS2_PLACEMENT_3D('',#1094,#1095,#1096);
#1094 = CARTESIAN_POINT('',(12.,29.999999999948,-29.99999999998));
#1095 = DIRECTION('',(-1.,-0.,-0.));
#1096 = DIRECTION('',(0.,0.,-1.));
#1097 = ADVANCED_FACE('',(#1098),#1117,.F.);
#1098 = FACE_BOUND('',#1099,.T.);
#1099 = EDGE_LOOP('',(#1100,#1108,#1109,#1110));
#1100 = ORIENTED_EDGE('',*,*,#1101,.F.);
#1101 = EDGE_CURVE('',#627,#1102,#1104,.T.);
#1102 = VERTEX_POINT('',#1103);
#1103 = CARTESIAN_POINT('',(7.6,-29.99999999997,-33.99999999998));
#1104 = LINE('',#1105,#1106);
#1105 = CARTESIAN_POINT('',(12.,-29.99999999997,-33.99999999998));
#1106 = VECTOR('',#1107,1.);
#1107 = DIRECTION('',(-1.,0.,0.));
#1108 = ORIENTED_EDGE('',*,*,#626,.T.);
#1109 = ORIENTED_EDGE('',*,*,#1101,.T.);
#1110 = ORIENTED_EDGE('',*,*,#1111,.F.);
#1111 = EDGE_CURVE('',#1102,#1102,#1112,.T.);
#1112 = CIRCLE('',#1113,4.);
#1113 = AXIS2_PLACEMENT_3D('',#1114,#1115,#1116);
#1114 = CARTESIAN_POINT('',(7.6,-29.99999999997,-29.99999999998));
#1115 = DIRECTION('',(1.,-0.,0.));
#1116 = DIRECTION('',(0.,0.,-1.));
#1117 = CYLINDRICAL_SURFACE('',#1118,4.);
#1118 = AXIS2_PLACEMENT_3D('',#1119,#1120,#1121);
#1119 = CARTESIAN_POINT('',(12.,-29.99999999997,-29.99999999998));
#1120 = DIRECTION('',(-1.,-0.,-0.));
#1121 = DIRECTION('',(0.,0.,-1.));
#1122 = ADVANCED_FACE('',(#1123),#1148,.F.);
#1123 = FACE_BOUND('',#1124,.F.);
#1124 = EDGE_LOOP('',(#1125,#1133,#1141,#1147));
#1125 = ORIENTED_EDGE('',*,*,#1126,.T.);
#1126 = EDGE_CURVE('',#686,#1127,#1129,.T.);
#1127 = VERTEX_POINT('',#1128);
#1128 = CARTESIAN_POINT('',(14.,-37.,-7.));
#1129 = LINE('',#1130,#1131);
#1130 = CARTESIAN_POINT('',(7.,-37.,-7.));
#1131 = VECTOR('',#1132,1.);
#1132 = DIRECTION('',(1.,0.,0.));
#1133 = ORIENTED_EDGE('',*,*,#1134,.T.);
#1134 = EDGE_CURVE('',#1127,#1135,#1137,.T.);
#1135 = VERTEX_POINT('',#1136);
#1136 = CARTESIAN_POINT('',(14.,-34.5,-7.));
#1137 = LINE('',#1138,#1139);
#1138 = CARTESIAN_POINT('',(14.,-37.,-7.));
#1139 = VECTOR('',#1140,1.);
#1140 = DIRECTION('',(0.,1.,0.));
#1141 = ORIENTED_EDGE('',*,*,#1142,.F.);
#1142 = EDGE_CURVE('',#688,#1135,#1143,.T.);
#1143 = LINE('',#1144,#1145);
#1144 = CARTESIAN_POINT('',(7.,-34.5,-7.));
#1145 = VECTOR('',#1146,1.);
#1146 = DIRECTION('',(1.,0.,0.));
#1147 = ORIENTED_EDGE('',*,*,#685,.F.);
#1148 = PLANE('',#1149);
#1149 = AXIS2_PLACEMENT_3D('',#1150,#1151,#1152);
#1150 = CARTESIAN_POINT('',(7.,-37.,-7.));
#1151 = DIRECTION('',(0.,0.,1.));
#1152 = DIRECTION('',(0.,1.,0.));
#1153 = ADVANCED_FACE('',(#1154),#1172,.F.);
#1154 = FACE_BOUND('',#1155,.F.);
#1155 = EDGE_LOOP('',(#1156,#1157,#1165,#1171));
#1156 = ORIENTED_EDGE('',*,*,#1142,.T.);
#1157 = ORIENTED_EDGE('',*,*,#1158,.T.);
#1158 = EDGE_CURVE('',#1135,#1159,#1161,.T.);
#1159 = VERTEX_POINT('',#1160);
#1160 = CARTESIAN_POINT('',(14.,-34.5,7.));
#1161 = LINE('',#1162,#1163);
#1162 = CARTESIAN_POINT('',(14.,-34.5,-7.));
#1163 = VECTOR('',#1164,1.);
#1164 = DIRECTION('',(0.,0.,1.));
#1165 = ORIENTED_EDGE('',*,*,#1166,.F.);
#1166 = EDGE_CURVE('',#704,#1159,#1167,.T.);
#1167 = LINE('',#1168,#1169);
#1168 = CARTESIAN_POINT('',(7.,-34.5,7.));
#1169 = VECTOR('',#1170,1.);
#1170 = DIRECTION('',(1.,0.,0.));
#1171 = ORIENTED_EDGE('',*,*,#711,.F.);
#1172 = PLANE('',#1173);
#1173 = AXIS2_PLACEMENT_3D('',#1174,#1175,#1176);
#1174 = CARTESIAN_POINT('',(7.,-34.5,-7.));
#1175 = DIRECTION('',(0.,-1.,0.));
#1176 = DIRECTION('',(0.,0.,1.));
#1177 = ADVANCED_FACE('',(#1178),#1196,.F.);
#1178 = FACE_BOUND('',#1179,.F.);
#1179 = EDGE_LOOP('',(#1180,#1181,#1189,#1195));
#1180 = ORIENTED_EDGE('',*,*,#1166,.T.);
#1181 = ORIENTED_EDGE('',*,*,#1182,.T.);
#1182 = EDGE_CURVE('',#1159,#1183,#1185,.T.);
#1183 = VERTEX_POINT('',#1184);
#1184 = CARTESIAN_POINT('',(14.,-37.,7.));
#1185 = LINE('',#1186,#1187);
#1186 = CARTESIAN_POINT('',(14.,-34.5,7.));
#1187 = VECTOR('',#1188,1.);
#1188 = DIRECTION('',(0.,-1.,0.));
#1189 = ORIENTED_EDGE('',*,*,#1190,.F.);
#1190 = EDGE_CURVE('',#696,#1183,#1191,.T.);
#1191 = LINE('',#1192,#1193);
#1192 = CARTESIAN_POINT('',(7.,-37.,7.));
#1193 = VECTOR('',#1194,1.);
#1194 = DIRECTION('',(1.,0.,0.));
#1195 = ORIENTED_EDGE('',*,*,#703,.F.);
#1196 = PLANE('',#1197);
#1197 = AXIS2_PLACEMENT_3D('',#1198,#1199,#1200);
#1198 = CARTESIAN_POINT('',(7.,-34.5,7.));
#1199 = DIRECTION('',(0.,0.,-1.));
#1200 = DIRECTION('',(0.,-1.,0.));
#1201 = ADVANCED_FACE('',(#1202),#1213,.F.);
#1202 = FACE_BOUND('',#1203,.F.);
#1203 = EDGE_LOOP('',(#1204,#1205,#1211,#1212));
#1204 = ORIENTED_EDGE('',*,*,#1190,.T.);
#1205 = ORIENTED_EDGE('',*,*,#1206,.T.);
#1206 = EDGE_CURVE('',#1183,#1127,#1207,.T.);
#1207 = LINE('',#1208,#1209);
#1208 = CARTESIAN_POINT('',(14.,-37.,7.));
#1209 = VECTOR('',#1210,1.);
#1210 = DIRECTION('',(0.,0.,-1.));
#1211 = ORIENTED_EDGE('',*,*,#1126,.F.);
#1212 = ORIENTED_EDGE('',*,*,#695,.F.);
#1213 = PLANE('',#1214);
#1214 = AXIS2_PLACEMENT_3D('',#1215,#1216,#1217);
#1215 = CARTESIAN_POINT('',(7.,-37.,7.));
#1216 = DIRECTION('',(0.,1.,0.));
#1217 = DIRECTION('',(0.,0.,-1.));
#1218 = ADVANCED_FACE('',(#1219),#1230,.F.);
#1219 = FACE_BOUND('',#1220,.T.);
#1220 = EDGE_LOOP('',(#1221,#1227,#1228,#1229));
#1221 = ORIENTED_EDGE('',*,*,#1222,.F.);
#1222 = EDGE_CURVE('',#720,#912,#1223,.T.);
#1223 = LINE('',#1224,#1225);
#1224 = CARTESIAN_POINT('',(7.,-36.,-13.95));
#1225 = VECTOR('',#1226,1.);
#1226 = DIRECTION('',(-1.,0.,6.E-17));
#1227 = ORIENTED_EDGE('',*,*,#719,.T.);
#1228 = ORIENTED_EDGE('',*,*,#1222,.T.);
#1229 = ORIENTED_EDGE('',*,*,#911,.T.);
#1230 = CYLINDRICAL_SURFACE('',#1231,1.45);
#1231 = AXIS2_PLACEMENT_3D('',#1232,#1233,#1234);
#1232 = CARTESIAN_POINT('',(7.,-36.,-12.5));
#1233 = DIRECTION('',(-1.,-0.,-0.));
#1234 = DIRECTION('',(0.,0.,-1.));
#1235 = ADVANCED_FACE('',(#1236),#1247,.F.);
#1236 = FACE_BOUND('',#1237,.T.);
#1237 = EDGE_LOOP('',(#1238,#1244,#1245,#1246));
#1238 = ORIENTED_EDGE('',*,*,#1239,.F.);
#1239 = EDGE_CURVE('',#731,#923,#1240,.T.);
#1240 = LINE('',#1241,#1242);
#1241 = CARTESIAN_POINT('',(7.,-36.,11.05));
#1242 = VECTOR('',#1243,1.);
#1243 = DIRECTION('',(-1.,0.,6.E-17));
#1244 = ORIENTED_EDGE('',*,*,#730,.T.);
#1245 = ORIENTED_EDGE('',*,*,#1239,.T.);
#1246 = ORIENTED_EDGE('',*,*,#922,.T.);
#1247 = CYLINDRICAL_SURFACE('',#1248,1.45);
#1248 = AXIS2_PLACEMENT_3D('',#1249,#1250,#1251);
#1249 = CARTESIAN_POINT('',(7.,-36.,12.5));
#1250 = DIRECTION('',(-1.,-0.,-0.));
#1251 = DIRECTION('',(0.,0.,-1.));
#1252 = ADVANCED_FACE('',(#1253),#1259,.T.);
#1253 = FACE_BOUND('',#1254,.T.);
#1254 = EDGE_LOOP('',(#1255,#1256,#1257,#1258));
#1255 = ORIENTED_EDGE('',*,*,#790,.F.);
#1256 = ORIENTED_EDGE('',*,*,#952,.T.);
#1257 = ORIENTED_EDGE('',*,*,#861,.T.);
#1258 = ORIENTED_EDGE('',*,*,#1004,.T.);
#1259 = CYLINDRICAL_SURFACE('',#1260,3.);
#1260 = AXIS2_PLACEMENT_3D('',#1261,#1262,#1263);
#1261 = CARTESIAN_POINT('',(0.,-37.,37.));
#1262 = DIRECTION('',(1.,0.,0.));
#1263 = DIRECTION('',(0.,1.,0.));
#1264 = ADVANCED_FACE('',(#1265),#1284,.F.);
#1265 = FACE_BOUND('',#1266,.T.);
#1266 = EDGE_LOOP('',(#1267,#1275,#1276,#1277));
#1267 = ORIENTED_EDGE('',*,*,#1268,.F.);
#1268 = EDGE_CURVE('',#800,#1269,#1271,.T.);
#1269 = VERTEX_POINT('',#1270);
#1270 = CARTESIAN_POINT('',(7.6,-29.99999999997,25.999999999985));
#1271 = LINE('',#1272,#1273);
#1272 = CARTESIAN_POINT('',(12.,-29.99999999997,25.999999999985));
#1273 = VECTOR('',#1274,1.);
#1274 = DIRECTION('',(-1.,0.,0.));
#1275 = ORIENTED_EDGE('',*,*,#799,.T.);
#1276 = ORIENTED_EDGE('',*,*,#1268,.T.);
#1277 = ORIENTED_EDGE('',*,*,#1278,.F.);
#1278 = EDGE_CURVE('',#1269,#1269,#1279,.T.);
#1279 = CIRCLE('',#1280,4.);
#1280 = AXIS2_PLACEMENT_3D('',#1281,#1282,#1283);
#1281 = CARTESIAN_POINT('',(7.6,-29.99999999997,29.999999999985));
#1282 = DIRECTION('',(1.,-0.,0.));
#1283 = DIRECTION('',(0.,0.,-1.));
#1284 = CYLINDRICAL_SURFACE('',#1285,4.);
#1285 = AXIS2_PLACEMENT_3D('',#1286,#1287,#1288);
#1286 = CARTESIAN_POINT('',(12.,-29.99999999997,29.999999999985));
#1287 = DIRECTION('',(-1.,-0.,-0.));
#1288 = DIRECTION('',(0.,0.,-1.));
#1289 = ADVANCED_FACE('',(#1290),#1309,.F.);
#1290 = FACE_BOUND('',#1291,.T.);
#1291 = EDGE_LOOP('',(#1292,#1300,#1307,#1308));
#1292 = ORIENTED_EDGE('',*,*,#1293,.F.);
#1293 = EDGE_CURVE('',#1294,#879,#1296,.T.);
#1294 = VERTEX_POINT('',#1295);
#1295 = CARTESIAN_POINT('',(7.6,29.999999999948,-32.24999999998));
#1296 = LINE('',#1297,#1298);
#1297 = CARTESIAN_POINT('',(7.6,29.999999999948,-32.24999999998));
#1298 = VECTOR('',#1299,1.);
#1299 = DIRECTION('',(-1.,0.,6.E-17));
#1300 = ORIENTED_EDGE('',*,*,#1301,.T.);
#1301 = EDGE_CURVE('',#1294,#1294,#1302,.T.);
#1302 = CIRCLE('',#1303,2.25);
#1303 = AXIS2_PLACEMENT_3D('',#1304,#1305,#1306);
#1304 = CARTESIAN_POINT('',(7.6,29.999999999948,-29.99999999998));
#1305 = DIRECTION('',(1.,-0.,0.));
#1306 = DIRECTION('',(0.,0.,-1.));
#1307 = ORIENTED_EDGE('',*,*,#1293,.T.);
#1308 = ORIENTED_EDGE('',*,*,#878,.T.);
#1309 = CYLINDRICAL_SURFACE('',#1310,2.25);
#1310 = AXIS2_PLACEMENT_3D('',#1311,#1312,#1313);
#1311 = CARTESIAN_POINT('',(7.6,29.999999999948,-29.99999999998));
#1312 = DIRECTION('',(-1.,-0.,-0.));
#1313 = DIRECTION('',(0.,0.,-1.));
#1314 = ADVANCED_FACE('',(#1315),#1333,.F.);
#1315 = FACE_BOUND('',#1316,.F.);
#1316 = EDGE_LOOP('',(#1317,#1326,#1331,#1332));
#1317 = ORIENTED_EDGE('',*,*,#1318,.F.);
#1318 = EDGE_CURVE('',#1319,#1319,#1321,.T.);
#1319 = VERTEX_POINT('',#1320);
#1320 = CARTESIAN_POINT('',(2.7,12.,0.));
#1321 = CIRCLE('',#1322,12.);
#1322 = AXIS2_PLACEMENT_3D('',#1323,#1324,#1325);
#1323 = CARTESIAN_POINT('',(2.7,0.,0.));
#1324 = DIRECTION('',(1.,0.,0.));
#1325 = DIRECTION('',(0.,1.,0.));
#1326 = ORIENTED_EDGE('',*,*,#1327,.F.);
#1327 = EDGE_CURVE('',#890,#1319,#1328,.T.);
#1328 = B_SPLINE_CURVE_WITH_KNOTS('',1,(#1329,#1330),.UNSPECIFIED.,.F.,
  .F.,(2,2),(-5.,2.7),.PIECEWISE_BEZIER_KNOTS.);
#1329 = CARTESIAN_POINT('',(-5.,12.,-2.94E-15));
#1330 = CARTESIAN_POINT('',(2.7,12.,-2.94E-15));
#1331 = ORIENTED_EDGE('',*,*,#889,.T.);
#1332 = ORIENTED_EDGE('',*,*,#1327,.T.);
#1333 = CYLINDRICAL_SURFACE('',#1334,12.);
#1334 = AXIS2_PLACEMENT_3D('',#1335,#1336,#1337);
#1335 = CARTESIAN_POINT('',(0.,0.,0.));
#1336 = DIRECTION('',(1.,0.,0.));
#1337 = DIRECTION('',(0.,1.,0.));
#1338 = ADVANCED_FACE('',(#1339),#1358,.F.);
#1339 = FACE_BOUND('',#1340,.T.);
#1340 = EDGE_LOOP('',(#1341,#1349,#1356,#1357));
#1341 = ORIENTED_EDGE('',*,*,#1342,.F.);
#1342 = EDGE_CURVE('',#1343,#901,#1345,.T.);
#1343 = VERTEX_POINT('',#1344);
#1344 = CARTESIAN_POINT('',(7.6,-29.99999999997,-32.24999999998));
#1345 = LINE('',#1346,#1347);
#1346 = CARTESIAN_POINT('',(7.6,-29.99999999997,-32.24999999998));
#1347 = VECTOR('',#1348,1.);
#1348 = DIRECTION('',(-1.,0.,6.E-17));
#1349 = ORIENTED_EDGE('',*,*,#1350,.T.);
#1350 = EDGE_CURVE('',#1343,#1343,#1351,.T.);
#1351 = CIRCLE('',#1352,2.25);
#1352 = AXIS2_PLACEMENT_3D('',#1353,#1354,#1355);
#1353 = CARTESIAN_POINT('',(7.6,-29.99999999997,-29.99999999998));
#1354 = DIRECTION('',(1.,-0.,0.));
#1355 = DIRECTION('',(0.,0.,-1.));
#1356 = ORIENTED_EDGE('',*,*,#1342,.T.);
#1357 = ORIENTED_EDGE('',*,*,#900,.T.);
#1358 = CYLINDRICAL_SURFACE('',#1359,2.25);
#1359 = AXIS2_PLACEMENT_3D('',#1360,#1361,#1362);
#1360 = CARTESIAN_POINT('',(7.6,-29.99999999997,-29.99999999998));
#1361 = DIRECTION('',(-1.,-0.,-0.));
#1362 = DIRECTION('',(0.,0.,-1.));
#1363 = ADVANCED_FACE('',(#1364),#1383,.F.);
#1364 = FACE_BOUND('',#1365,.T.);
#1365 = EDGE_LOOP('',(#1366,#1374,#1381,#1382));
#1366 = ORIENTED_EDGE('',*,*,#1367,.F.);
#1367 = EDGE_CURVE('',#1368,#934,#1370,.T.);
#1368 = VERTEX_POINT('',#1369);
#1369 = CARTESIAN_POINT('',(7.6,-29.99999999997,27.749999999985));
#1370 = LINE('',#1371,#1372);
#1371 = CARTESIAN_POINT('',(7.6,-29.99999999997,27.749999999985));
#1372 = VECTOR('',#1373,1.);
#1373 = DIRECTION('',(-1.,0.,6.E-17));
#1374 = ORIENTED_EDGE('',*,*,#1375,.T.);
#1375 = EDGE_CURVE('',#1368,#1368,#1376,.T.);
#1376 = CIRCLE('',#1377,2.25);
#1377 = AXIS2_PLACEMENT_3D('',#1378,#1379,#1380);
#1378 = CARTESIAN_POINT('',(7.6,-29.99999999997,29.999999999985));
#1379 = DIRECTION('',(1.,-0.,0.));
#1380 = DIRECTION('',(0.,0.,-1.));
#1381 = ORIENTED_EDGE('',*,*,#1367,.T.);
#1382 = ORIENTED_EDGE('',*,*,#933,.T.);
#1383 = CYLINDRICAL_SURFACE('',#1384,2.25);
#1384 = AXIS2_PLACEMENT_3D('',#1385,#1386,#1387);
#1385 = CARTESIAN_POINT('',(7.6,-29.99999999997,29.999999999985));
#1386 = DIRECTION('',(-1.,-0.,-0.));
#1387 = DIRECTION('',(0.,0.,-1.));
#1388 = ADVANCED_FACE('',(#1389),#1400,.F.);
#1389 = FACE_BOUND('',#1390,.F.);
#1390 = EDGE_LOOP('',(#1391,#1397,#1398,#1399));
#1391 = ORIENTED_EDGE('',*,*,#1392,.F.);
#1392 = EDGE_CURVE('',#1319,#985,#1393,.T.);
#1393 = LINE('',#1394,#1395);
#1394 = CARTESIAN_POINT('',(2.7,12.,0.));
#1395 = VECTOR('',#1396,1.);
#1396 = DIRECTION('',(0.707106781187,0.707106781187,0.));
#1397 = ORIENTED_EDGE('',*,*,#1318,.T.);
#1398 = ORIENTED_EDGE('',*,*,#1392,.T.);
#1399 = ORIENTED_EDGE('',*,*,#984,.F.);
#1400 = CONICAL_SURFACE('',#1401,12.,0.785398163397);
#1401 = AXIS2_PLACEMENT_3D('',#1402,#1403,#1404);
#1402 = CARTESIAN_POINT('',(2.7,0.,0.));
#1403 = DIRECTION('',(1.,0.,0.));
#1404 = DIRECTION('',(0.,1.,0.));
#1405 = ADVANCED_FACE('',(#1406,#1409),#1412,.T.);
#1406 = FACE_BOUND('',#1407,.T.);
#1407 = EDGE_LOOP('',(#1408));
#1408 = ORIENTED_EDGE('',*,*,#1086,.T.);
#1409 = FACE_BOUND('',#1410,.T.);
#1410 = EDGE_LOOP('',(#1411));
#1411 = ORIENTED_EDGE('',*,*,#1301,.F.);
#1412 = PLANE('',#1413);
#1413 = AXIS2_PLACEMENT_3D('',#1414,#1415,#1416);
#1414 = CARTESIAN_POINT('',(7.6,29.999999999948,-29.99999999998));
#1415 = DIRECTION('',(1.,0.,0.));
#1416 = DIRECTION('',(0.,0.,-1.));
#1417 = ADVANCED_FACE('',(#1418,#1421),#1424,.T.);
#1418 = FACE_BOUND('',#1419,.T.);
#1419 = EDGE_LOOP('',(#1420));
#1420 = ORIENTED_EDGE('',*,*,#1111,.T.);
#1421 = FACE_BOUND('',#1422,.T.);
#1422 = EDGE_LOOP('',(#1423));
#1423 = ORIENTED_EDGE('',*,*,#1350,.F.);
#1424 = PLANE('',#1425);
#1425 = AXIS2_PLACEMENT_3D('',#1426,#1427,#1428);
#1426 = CARTESIAN_POINT('',(7.6,-29.99999999997,-29.99999999998));
#1427 = DIRECTION('',(1.,0.,0.));
#1428 = DIRECTION('',(0.,0.,-1.));
#1429 = ADVANCED_FACE('',(#1430),#1436,.T.);
#1430 = FACE_BOUND('',#1431,.T.);
#1431 = EDGE_LOOP('',(#1432,#1433,#1434,#1435));
#1432 = ORIENTED_EDGE('',*,*,#1134,.T.);
#1433 = ORIENTED_EDGE('',*,*,#1158,.T.);
#1434 = ORIENTED_EDGE('',*,*,#1182,.T.);
#1435 = ORIENTED_EDGE('',*,*,#1206,.T.);
#1436 = PLANE('',#1437);
#1437 = AXIS2_PLACEMENT_3D('',#1438,#1439,#1440);
#1438 = CARTESIAN_POINT('',(14.,-35.75,0.));
#1439 = DIRECTION('',(1.,0.,0.));
#1440 = DIRECTION('',(0.,0.,1.));
#1441 = ADVANCED_FACE('',(#1442,#1445),#1448,.T.);
#1442 = FACE_BOUND('',#1443,.T.);
#1443 = EDGE_LOOP('',(#1444));
#1444 = ORIENTED_EDGE('',*,*,#1278,.T.);
#1445 = FACE_BOUND('',#1446,.T.);
#1446 = EDGE_LOOP('',(#1447));
#1447 = ORIENTED_EDGE('',*,*,#1375,.F.);
#1448 = PLANE('',#1449);
#1449 = AXIS2_PLACEMENT_3D('',#1450,#1451,#1452);
#1450 = CARTESIAN_POINT('',(7.6,-29.99999999997,29.999999999985));
#1451 = DIRECTION('',(1.,0.,0.));
#1452 = DIRECTION('',(0.,0.,-1.));
#1453 = ( GEOMETRIC_REPRESENTATION_CONTEXT(3) 
GLOBAL_UNCERTAINTY_ASSIGNED_CONTEXT((#1457)) 
GLOBAL_UNIT_ASSIGNED_CONTEXT((#1454,#1455,#1456)) REPRESENTATION_CONTEXT
('Context #1','3D Context with UNIT and UNCERTAINTY') );
#1454 = ( LENGTH_UNIT() NAMED_UNIT(*) SI_UNIT(.MILLI.,.METRE.) );
#1455 = ( NAMED_UNIT(*) PLANE_ANGLE_UNIT() SI_UNIT($,.RADIAN.) );
#1456 = ( NAMED_UNIT(*) SI_UNIT($,.STERADIAN.) SOLID_ANGLE_UNIT() );
#1457 = UNCERTAINTY_MEASURE_WITH_UNIT(LENGTH_MEASURE(2.E-05),#1454,
  'distance_accuracy_value','confusion accuracy');
#1458 = PRODUCT_RELATED_PRODUCT_CATEGORY('part',$,(#7));
ENDSEC;
END-ISO-10303-21;
