ISO-10303-21;
HEADER;
FILE_DESCRIPTION(('FreeCAD Model'),'2;1');
FILE_NAME('Open CASCADE Shape Model','2026-10-09T13:17:34',('FreeCAD'),(
    'FreeCAD'),'Open CASCADE STEP processor 8.0','FreeCAD','Unknown');
FILE_SCHEMA(('AUTOMOTIVE_DESIGN { 1 0 10303 214 1 1 1 1 }'));
ENDSEC;
DATA;
#1 = APPLICATION_PROTOCOL_DEFINITION('international standard',
  'automotive_design',2000,#2);
#2 = APPLICATION_CONTEXT(
  'core data for automotive mechanical design processes');
#3 = SHAPE_DEFINITION_REPRESENTATION(#4,#10);
#4 = PRODUCT_DEFINITION_SHAPE('','',#5);
#5 = PRODUCT_DEFINITION('design','',#6,#9);
#6 = PRODUCT_DEFINITION_FORMATION('','',#7);
#7 = PRODUCT('Open CASCADE STEP translator 8.0 1',
  'Open CASCADE STEP translator 8.0 1','',(#8));
#8 = PRODUCT_CONTEXT('',#2,'mechanical');
#9 = PRODUCT_DEFINITION_CONTEXT('part definition',#2,'design');
#10 = ADVANCED_BREP_SHAPE_REPRESENTATION('',(#11,#15),#1439);
#11 = AXIS2_PLACEMENT_3D('',#12,#13,#14);
#12 = CARTESIAN_POINT('',(0.,0.,0.));
#13 = DIRECTION('',(0.,0.,1.));
#14 = DIRECTION('',(1.,0.,-0.));
#15 = MANIFOLD_SOLID_BREP('',#16);
#16 = CLOSED_SHELL('',(#17,#59,#90,#123,#154,#187,#218,#251,#272,#493,
    #525,#549,#574,#598,#638,#663,#695,#727,#759,#783,#807,#825,#873,
    #905,#929,#953,#971,#1003,#1027,#1052,#1069,#1117,#1149,#1173,#1198,
    #1215,#1236,#1267,#1300,#1350,#1367,#1384,#1413,#1427));
#17 = ADVANCED_FACE('',(#18),#54,.T.);
#18 = FACE_BOUND('',#19,.F.);
#19 = EDGE_LOOP('',(#20,#30,#39,#47));
#20 = ORIENTED_EDGE('',*,*,#21,.T.);
#21 = EDGE_CURVE('',#22,#24,#26,.T.);
#22 = VERTEX_POINT('',#23);
#23 = CARTESIAN_POINT('',(7.,-55.99999999999,15.700000000013));
#24 = VERTEX_POINT('',#25);
#25 = CARTESIAN_POINT('',(20.,-55.99999999999,15.700000000013));
#26 = LINE('',#27,#28);
#27 = CARTESIAN_POINT('',(7.,-55.99999999999,15.700000000013));
#28 = VECTOR('',#29,1.);
#29 = DIRECTION('',(1.,-1.3E-16,-5.E-17));
#30 = ORIENTED_EDGE('',*,*,#31,.T.);
#31 = EDGE_CURVE('',#24,#32,#34,.T.);
#32 = VERTEX_POINT('',#33);
#33 = CARTESIAN_POINT('',(20.,-57.49999999999,17.200000000005));
#34 = CIRCLE('',#35,1.499999999994);
#35 = AXIS2_PLACEMENT_3D('',#36,#37,#38);
#36 = CARTESIAN_POINT('',(20.,-57.49999999999,15.700000000011));
#37 = DIRECTION('',(1.,0.,0.));
#38 = DIRECTION('',(0.,1.,0.));
#39 = ORIENTED_EDGE('',*,*,#40,.F.);
#40 = EDGE_CURVE('',#41,#32,#43,.T.);
#41 = VERTEX_POINT('',#42);
#42 = CARTESIAN_POINT('',(7.,-57.49999999999,17.200000000005));
#43 = LINE('',#44,#45);
#44 = CARTESIAN_POINT('',(7.,-57.49999999999,17.200000000005));
#45 = VECTOR('',#46,1.);
#46 = DIRECTION('',(1.,-1.3E-16,-5.E-17));
#47 = ORIENTED_EDGE('',*,*,#48,.F.);
#48 = EDGE_CURVE('',#22,#41,#49,.T.);
#49 = CIRCLE('',#50,1.499999999994);
#50 = AXIS2_PLACEMENT_3D('',#51,#52,#53);
#51 = CARTESIAN_POINT('',(7.,-57.49999999999,15.700000000011));
#52 = DIRECTION('',(1.,0.,0.));
#53 = DIRECTION('',(0.,1.,0.));
#54 = CYLINDRICAL_SURFACE('',#55,1.499999999994);
#55 = AXIS2_PLACEMENT_3D('',#56,#57,#58);
#56 = CARTESIAN_POINT('',(7.,-57.49999999999,15.700000000011));
#57 = DIRECTION('',(-1.,-5.E-17,-1.3E-16));
#58 = DIRECTION('',(-5.E-17,1.,-1.3E-16));
#59 = ADVANCED_FACE('',(#60),#85,.F.);
#60 = FACE_BOUND('',#61,.F.);
#61 = EDGE_LOOP('',(#62,#63,#71,#79));
#62 = ORIENTED_EDGE('',*,*,#40,.T.);
#63 = ORIENTED_EDGE('',*,*,#64,.T.);
#64 = EDGE_CURVE('',#32,#65,#67,.T.);
#65 = VERTEX_POINT('',#66);
#66 = CARTESIAN_POINT('',(20.,-58.50000000001,17.200000000005));
#67 = LINE('',#68,#69);
#68 = CARTESIAN_POINT('',(20.,-57.49999999999,17.200000000005));
#69 = VECTOR('',#70,1.);
#70 = DIRECTION('',(0.,-1.,0.));
#71 = ORIENTED_EDGE('',*,*,#72,.F.);
#72 = EDGE_CURVE('',#73,#65,#75,.T.);
#73 = VERTEX_POINT('',#74);
#74 = CARTESIAN_POINT('',(7.,-58.50000000001,17.200000000005));
#75 = LINE('',#76,#77);
#76 = CARTESIAN_POINT('',(7.,-58.50000000001,17.200000000005));
#77 = VECTOR('',#78,1.);
#78 = DIRECTION('',(1.,-1.3E-16,-5.E-17));
#79 = ORIENTED_EDGE('',*,*,#80,.F.);
#80 = EDGE_CURVE('',#41,#73,#81,.T.);
#81 = LINE('',#82,#83);
#82 = CARTESIAN_POINT('',(7.,-57.49999999999,17.200000000005));
#83 = VECTOR('',#84,1.);
#84 = DIRECTION('',(0.,-1.,0.));
#85 = PLANE('',#86);
#86 = AXIS2_PLACEMENT_3D('',#87,#88,#89);
#87 = CARTESIAN_POINT('',(7.,-57.49999999999,17.200000000005));
#88 = DIRECTION('',(-5.E-17,-1.3E-16,-1.));
#89 = DIRECTION('',(5.E-17,-1.,1.3E-16));
#90 = ADVANCED_FACE('',(#91),#118,.T.);
#91 = FACE_BOUND('',#92,.F.);
#92 = EDGE_LOOP('',(#93,#94,#103,#111));
#93 = ORIENTED_EDGE('',*,*,#72,.T.);
#94 = ORIENTED_EDGE('',*,*,#95,.T.);
#95 = EDGE_CURVE('',#65,#96,#98,.T.);
#96 = VERTEX_POINT('',#97);
#97 = CARTESIAN_POINT('',(20.,-60.,15.700000000013));
#98 = CIRCLE('',#99,1.499999999994);
#99 = AXIS2_PLACEMENT_3D('',#100,#101,#102);
#100 = CARTESIAN_POINT('',(20.,-58.5,15.700000000011));
#101 = DIRECTION('',(1.,0.,0.));
#102 = DIRECTION('',(0.,1.,0.));
#103 = ORIENTED_EDGE('',*,*,#104,.F.);
#104 = EDGE_CURVE('',#105,#96,#107,.T.);
#105 = VERTEX_POINT('',#106);
#106 = CARTESIAN_POINT('',(7.,-60.,15.700000000013));
#107 = LINE('',#108,#109);
#108 = CARTESIAN_POINT('',(7.,-60.,15.700000000013));
#109 = VECTOR('',#110,1.);
#110 = DIRECTION('',(1.,-1.3E-16,-5.E-17));
#111 = ORIENTED_EDGE('',*,*,#112,.F.);
#112 = EDGE_CURVE('',#73,#105,#113,.T.);
#113 = CIRCLE('',#114,1.499999999994);
#114 = AXIS2_PLACEMENT_3D('',#115,#116,#117);
#115 = CARTESIAN_POINT('',(7.,-58.5,15.700000000011));
#116 = DIRECTION('',(1.,0.,0.));
#117 = DIRECTION('',(0.,1.,0.));
#118 = CYLINDRICAL_SURFACE('',#119,1.499999999994);
#119 = AXIS2_PLACEMENT_3D('',#120,#121,#122);
#120 = CARTESIAN_POINT('',(7.,-58.5,15.700000000011));
#121 = DIRECTION('',(-1.,-5.E-17,-1.3E-16));
#122 = DIRECTION('',(-5.E-17,1.,-1.3E-16));
#123 = ADVANCED_FACE('',(#124),#149,.T.);
#124 = FACE_BOUND('',#125,.T.);
#125 = EDGE_LOOP('',(#126,#127,#135,#143));
#126 = ORIENTED_EDGE('',*,*,#104,.F.);
#127 = ORIENTED_EDGE('',*,*,#128,.F.);
#128 = EDGE_CURVE('',#129,#105,#131,.T.);
#129 = VERTEX_POINT('',#130);
#130 = CARTESIAN_POINT('',(7.,-60.,-15.70000000001));
#131 = LINE('',#132,#133);
#132 = CARTESIAN_POINT('',(7.,-60.,5.211E-14));
#133 = VECTOR('',#134,1.);
#134 = DIRECTION('',(-8.5E-16,1.5E-16,1.));
#135 = ORIENTED_EDGE('',*,*,#136,.T.);
#136 = EDGE_CURVE('',#129,#137,#139,.T.);
#137 = VERTEX_POINT('',#138);
#138 = CARTESIAN_POINT('',(20.,-60.,-15.70000000001));
#139 = LINE('',#140,#141);
#140 = CARTESIAN_POINT('',(7.,-60.,-15.70000000001));
#141 = VECTOR('',#142,1.);
#142 = DIRECTION('',(1.,-3.1E-16,6.1E-16));
#143 = ORIENTED_EDGE('',*,*,#144,.T.);
#144 = EDGE_CURVE('',#137,#96,#145,.T.);
#145 = LINE('',#146,#147);
#146 = CARTESIAN_POINT('',(20.,-60.,-15.70000000001));
#147 = VECTOR('',#148,1.);
#148 = DIRECTION('',(-5.5E-16,-1.6E-16,1.));
#149 = PLANE('',#150);
#150 = AXIS2_PLACEMENT_3D('',#151,#152,#153);
#151 = CARTESIAN_POINT('',(13.5,-60.,1.983E-14));
#152 = DIRECTION('',(-4.383E-14,-1.,9.54E-15));
#153 = DIRECTION('',(-1.,4.383E-14,3.359264018242E-44));
#154 = ADVANCED_FACE('',(#155),#182,.T.);
#155 = FACE_BOUND('',#156,.T.);
#156 = EDGE_LOOP('',(#157,#167,#174,#175));
#157 = ORIENTED_EDGE('',*,*,#158,.T.);
#158 = EDGE_CURVE('',#159,#161,#163,.T.);
#159 = VERTEX_POINT('',#160);
#160 = CARTESIAN_POINT('',(7.,-58.50000000001,-17.2));
#161 = VERTEX_POINT('',#162);
#162 = CARTESIAN_POINT('',(20.,-58.50000000001,-17.2));
#163 = LINE('',#164,#165);
#164 = CARTESIAN_POINT('',(7.,-58.50000000001,-17.2));
#165 = VECTOR('',#166,1.);
#166 = DIRECTION('',(1.,-3.1E-16,6.1E-16));
#167 = ORIENTED_EDGE('',*,*,#168,.T.);
#168 = EDGE_CURVE('',#161,#137,#169,.T.);
#169 = CIRCLE('',#170,1.499999999994);
#170 = AXIS2_PLACEMENT_3D('',#171,#172,#173);
#171 = CARTESIAN_POINT('',(20.,-58.5,-15.70000000001));
#172 = DIRECTION('',(-1.,-3.5E-16,-4.8E-16));
#173 = DIRECTION('',(-3.5E-16,1.,-1.3E-16));
#174 = ORIENTED_EDGE('',*,*,#136,.F.);
#175 = ORIENTED_EDGE('',*,*,#176,.F.);
#176 = EDGE_CURVE('',#159,#129,#177,.T.);
#177 = CIRCLE('',#178,1.499999999994);
#178 = AXIS2_PLACEMENT_3D('',#179,#180,#181);
#179 = CARTESIAN_POINT('',(7.,-58.5,-15.70000000001));
#180 = DIRECTION('',(-1.,-3.5E-16,-4.8E-16));
#181 = DIRECTION('',(-3.5E-16,1.,-1.3E-16));
#182 = CYLINDRICAL_SURFACE('',#183,1.499999999994);
#183 = AXIS2_PLACEMENT_3D('',#184,#185,#186);
#184 = CARTESIAN_POINT('',(7.,-58.5,-15.70000000001));
#185 = DIRECTION('',(-1.,1.3E-16,-4.3E-16));
#186 = DIRECTION('',(1.3E-16,1.,-8.E-17));
#187 = ADVANCED_FACE('',(#188),#213,.F.);
#188 = FACE_BOUND('',#189,.T.);
#189 = EDGE_LOOP('',(#190,#200,#206,#207));
#190 = ORIENTED_EDGE('',*,*,#191,.T.);
#191 = EDGE_CURVE('',#192,#194,#196,.T.);
#192 = VERTEX_POINT('',#193);
#193 = CARTESIAN_POINT('',(7.,-57.49999999999,-17.2));
#194 = VERTEX_POINT('',#195);
#195 = CARTESIAN_POINT('',(20.,-57.49999999999,-17.2));
#196 = LINE('',#197,#198);
#197 = CARTESIAN_POINT('',(7.,-57.49999999999,-17.2));
#198 = VECTOR('',#199,1.);
#199 = DIRECTION('',(1.,-3.1E-16,6.1E-16));
#200 = ORIENTED_EDGE('',*,*,#201,.T.);
#201 = EDGE_CURVE('',#194,#161,#202,.T.);
#202 = LINE('',#203,#204);
#203 = CARTESIAN_POINT('',(20.,-57.49999999999,-17.2));
#204 = VECTOR('',#205,1.);
#205 = DIRECTION('',(3.5E-16,-1.,1.3E-16));
#206 = ORIENTED_EDGE('',*,*,#158,.F.);
#207 = ORIENTED_EDGE('',*,*,#208,.F.);
#208 = EDGE_CURVE('',#192,#159,#209,.T.);
#209 = LINE('',#210,#211);
#210 = CARTESIAN_POINT('',(7.,-57.49999999999,-17.2));
#211 = VECTOR('',#212,1.);
#212 = DIRECTION('',(3.5E-16,-1.,1.3E-16));
#213 = PLANE('',#214);
#214 = AXIS2_PLACEMENT_3D('',#215,#216,#217);
#215 = CARTESIAN_POINT('',(7.,-57.49999999999,-17.2));
#216 = DIRECTION('',(-6.1E-16,8.E-17,1.));
#217 = DIRECTION('',(-2.2E-16,1.,-8.E-17));
#218 = ADVANCED_FACE('',(#219),#246,.T.);
#219 = FACE_BOUND('',#220,.T.);
#220 = EDGE_LOOP('',(#221,#231,#238,#239));
#221 = ORIENTED_EDGE('',*,*,#222,.T.);
#222 = EDGE_CURVE('',#223,#225,#227,.T.);
#223 = VERTEX_POINT('',#224);
#224 = CARTESIAN_POINT('',(7.,-55.99999999999,-15.70000000001));
#225 = VERTEX_POINT('',#226);
#226 = CARTESIAN_POINT('',(20.,-55.99999999999,-15.70000000001));
#227 = LINE('',#228,#229);
#228 = CARTESIAN_POINT('',(7.,-55.99999999999,-15.70000000001));
#229 = VECTOR('',#230,1.);
#230 = DIRECTION('',(1.,-3.1E-16,6.1E-16));
#231 = ORIENTED_EDGE('',*,*,#232,.T.);
#232 = EDGE_CURVE('',#225,#194,#233,.T.);
#233 = CIRCLE('',#234,1.499999999994);
#234 = AXIS2_PLACEMENT_3D('',#235,#236,#237);
#235 = CARTESIAN_POINT('',(20.,-57.49999999999,-15.70000000001));
#236 = DIRECTION('',(-1.,-3.5E-16,-4.8E-16));
#237 = DIRECTION('',(-3.5E-16,1.,-1.3E-16));
#238 = ORIENTED_EDGE('',*,*,#191,.F.);
#239 = ORIENTED_EDGE('',*,*,#240,.F.);
#240 = EDGE_CURVE('',#223,#192,#241,.T.);
#241 = CIRCLE('',#242,1.499999999994);
#242 = AXIS2_PLACEMENT_3D('',#243,#244,#245);
#243 = CARTESIAN_POINT('',(7.,-57.49999999999,-15.70000000001));
#244 = DIRECTION('',(-1.,-3.5E-16,-4.8E-16));
#245 = DIRECTION('',(-3.5E-16,1.,-1.3E-16));
#246 = CYLINDRICAL_SURFACE('',#247,1.499999999994);
#247 = AXIS2_PLACEMENT_3D('',#248,#249,#250);
#248 = CARTESIAN_POINT('',(7.,-57.49999999999,-15.70000000001));
#249 = DIRECTION('',(-1.,1.3E-16,-4.3E-16));
#250 = DIRECTION('',(1.3E-16,1.,-8.E-17));
#251 = ADVANCED_FACE('',(#252),#267,.T.);
#252 = FACE_BOUND('',#253,.T.);
#253 = EDGE_LOOP('',(#254,#255,#256,#257,#258,#259,#260,#261));
#254 = ORIENTED_EDGE('',*,*,#31,.T.);
#255 = ORIENTED_EDGE('',*,*,#64,.T.);
#256 = ORIENTED_EDGE('',*,*,#95,.T.);
#257 = ORIENTED_EDGE('',*,*,#144,.F.);
#258 = ORIENTED_EDGE('',*,*,#168,.F.);
#259 = ORIENTED_EDGE('',*,*,#201,.F.);
#260 = ORIENTED_EDGE('',*,*,#232,.F.);
#261 = ORIENTED_EDGE('',*,*,#262,.F.);
#262 = EDGE_CURVE('',#24,#225,#263,.T.);
#263 = LINE('',#264,#265);
#264 = CARTESIAN_POINT('',(20.,-55.99999999999,2.18E-14));
#265 = VECTOR('',#266,1.);
#266 = DIRECTION('',(5.5E-16,1.6E-16,-1.));
#267 = PLANE('',#268);
#268 = AXIS2_PLACEMENT_3D('',#269,#270,#271);
#269 = CARTESIAN_POINT('',(20.,-58.,1.706E-14));
#270 = DIRECTION('',(1.,4.1E-16,1.22E-15));
#271 = DIRECTION('',(-1.22E-15,2.590714496218E-47,1.));
#272 = ADVANCED_FACE('',(#273,#416,#452),#488,.T.);
#273 = FACE_BOUND('',#274,.T.);
#274 = EDGE_LOOP('',(#275,#276,#277,#278,#279,#287,#296,#304,#313,#321,
    #329,#338,#347,#356,#365,#373,#381,#390,#398,#407,#413,#414,#415));
#275 = ORIENTED_EDGE('',*,*,#128,.T.);
#276 = ORIENTED_EDGE('',*,*,#112,.F.);
#277 = ORIENTED_EDGE('',*,*,#80,.F.);
#278 = ORIENTED_EDGE('',*,*,#48,.F.);
#279 = ORIENTED_EDGE('',*,*,#280,.F.);
#280 = EDGE_CURVE('',#281,#22,#283,.T.);
#281 = VERTEX_POINT('',#282);
#282 = CARTESIAN_POINT('',(7.,-55.99999999998,9.500000000062));
#283 = LINE('',#284,#285);
#284 = CARTESIAN_POINT('',(7.,-55.99999999999,0.));
#285 = VECTOR('',#286,1.);
#286 = DIRECTION('',(0.,0.,1.));
#287 = ORIENTED_EDGE('',*,*,#288,.T.);
#288 = EDGE_CURVE('',#281,#289,#291,.T.);
#289 = VERTEX_POINT('',#290);
#290 = CARTESIAN_POINT('',(7.,-54.00000000001,7.500000000012));
#291 = CIRCLE('',#292,1.999999999997);
#292 = AXIS2_PLACEMENT_3D('',#293,#294,#295);
#293 = CARTESIAN_POINT('',(7.,-53.99999999998,9.500000000009));
#294 = DIRECTION('',(1.,0.,0.));
#295 = DIRECTION('',(0.,1.,0.));
#296 = ORIENTED_EDGE('',*,*,#297,.T.);
#297 = EDGE_CURVE('',#289,#298,#300,.T.);
#298 = VERTEX_POINT('',#299);
#299 = CARTESIAN_POINT('',(7.,-40.99999999999,7.5));
#300 = LINE('',#301,#302);
#301 = CARTESIAN_POINT('',(7.,-59.,7.5));
#302 = VECTOR('',#303,1.);
#303 = DIRECTION('',(0.,1.,-1.367E-14));
#304 = ORIENTED_EDGE('',*,*,#305,.T.);
#305 = EDGE_CURVE('',#298,#306,#308,.T.);
#306 = VERTEX_POINT('',#307);
#307 = CARTESIAN_POINT('',(7.,-40.,8.499999999999));
#308 = CIRCLE('',#309,0.999999999999);
#309 = AXIS2_PLACEMENT_3D('',#310,#311,#312);
#310 = CARTESIAN_POINT('',(7.,-40.99999999999,8.499999999999));
#311 = DIRECTION('',(1.,0.,0.));
#312 = DIRECTION('',(0.,1.,0.));
#313 = ORIENTED_EDGE('',*,*,#314,.T.);
#314 = EDGE_CURVE('',#306,#315,#317,.T.);
#315 = VERTEX_POINT('',#316);
#316 = CARTESIAN_POINT('',(7.,-40.,17.2));
#317 = LINE('',#318,#319);
#318 = CARTESIAN_POINT('',(7.,-40.,8.499999999999));
#319 = VECTOR('',#320,1.);
#320 = DIRECTION('',(0.,-8.17E-15,1.));
#321 = ORIENTED_EDGE('',*,*,#322,.T.);
#322 = EDGE_CURVE('',#315,#323,#325,.T.);
#323 = VERTEX_POINT('',#324);
#324 = CARTESIAN_POINT('',(7.,-15.6144164156,17.200000000001));
#325 = LINE('',#326,#327);
#326 = CARTESIAN_POINT('',(7.,-40.,17.2));
#327 = VECTOR('',#328,1.);
#328 = DIRECTION('',(0.,1.,0.));
#329 = ORIENTED_EDGE('',*,*,#330,.F.);
#330 = EDGE_CURVE('',#331,#323,#333,.T.);
#331 = VERTEX_POINT('',#332);
#332 = CARTESIAN_POINT('',(7.,-14.92044235268,15.480000000003));
#333 = CIRCLE('',#334,0.999999999999);
#334 = AXIS2_PLACEMENT_3D('',#335,#336,#337);
#335 = CARTESIAN_POINT('',(7.,-15.6144164156,16.200000000002));
#336 = DIRECTION('',(1.,0.,0.));
#337 = DIRECTION('',(0.,1.,0.));
#338 = ORIENTED_EDGE('',*,*,#339,.T.);
#339 = EDGE_CURVE('',#331,#340,#342,.T.);
#340 = VERTEX_POINT('',#341);
#341 = CARTESIAN_POINT('',(7.,-21.49999999999,1.E-14));
#342 = CIRCLE('',#343,21.499999999999);
#343 = AXIS2_PLACEMENT_3D('',#344,#345,#346);
#344 = CARTESIAN_POINT('',(7.,3.8083E-13,-3.6993E-13));
#345 = DIRECTION('',(1.,0.,0.));
#346 = DIRECTION('',(0.,1.,0.));
#347 = ORIENTED_EDGE('',*,*,#348,.F.);
#348 = EDGE_CURVE('',#349,#340,#351,.T.);
#349 = VERTEX_POINT('',#350);
#350 = CARTESIAN_POINT('',(7.,-14.92044235268,-15.48));
#351 = CIRCLE('',#352,21.499999999999);
#352 = AXIS2_PLACEMENT_3D('',#353,#354,#355);
#353 = CARTESIAN_POINT('',(7.,3.8083E-13,3.7576E-13));
#354 = DIRECTION('',(-1.,-3.5E-16,-4.8E-16));
#355 = DIRECTION('',(-3.5E-16,1.,-1.3E-16));
#356 = ORIENTED_EDGE('',*,*,#357,.T.);
#357 = EDGE_CURVE('',#349,#358,#360,.T.);
#358 = VERTEX_POINT('',#359);
#359 = CARTESIAN_POINT('',(7.,-15.6144164156,-17.2));
#360 = CIRCLE('',#361,0.999999999999);
#361 = AXIS2_PLACEMENT_3D('',#362,#363,#364);
#362 = CARTESIAN_POINT('',(7.,-15.6144164156,-16.2));
#363 = DIRECTION('',(-1.,-3.5E-16,-4.8E-16));
#364 = DIRECTION('',(-3.5E-16,1.,-1.3E-16));
#365 = ORIENTED_EDGE('',*,*,#366,.F.);
#366 = EDGE_CURVE('',#367,#358,#369,.T.);
#367 = VERTEX_POINT('',#368);
#368 = CARTESIAN_POINT('',(7.,-40.,-17.2));
#369 = LINE('',#370,#371);
#370 = CARTESIAN_POINT('',(7.,-40.,-17.2));
#371 = VECTOR('',#372,1.);
#372 = DIRECTION('',(-3.5E-16,1.,-1.3E-16));
#373 = ORIENTED_EDGE('',*,*,#374,.F.);
#374 = EDGE_CURVE('',#375,#367,#377,.T.);
#375 = VERTEX_POINT('',#376);
#376 = CARTESIAN_POINT('',(7.,-40.,-8.499999999999));
#377 = LINE('',#378,#379);
#378 = CARTESIAN_POINT('',(7.,-40.,-8.499999999999));
#379 = VECTOR('',#380,1.);
#380 = DIRECTION('',(4.8E-16,-8.3E-15,-1.));
#381 = ORIENTED_EDGE('',*,*,#382,.F.);
#382 = EDGE_CURVE('',#383,#375,#385,.T.);
#383 = VERTEX_POINT('',#384);
#384 = CARTESIAN_POINT('',(7.,-40.99999999999,-7.5));
#385 = CIRCLE('',#386,0.999999999999);
#386 = AXIS2_PLACEMENT_3D('',#387,#388,#389);
#387 = CARTESIAN_POINT('',(7.,-40.99999999999,-8.499999999999));
#388 = DIRECTION('',(-1.,-3.5E-16,-4.8E-16));
#389 = DIRECTION('',(-3.5E-16,1.,-1.3E-16));
#390 = ORIENTED_EDGE('',*,*,#391,.F.);
#391 = EDGE_CURVE('',#392,#383,#394,.T.);
#392 = VERTEX_POINT('',#393);
#393 = CARTESIAN_POINT('',(7.,-54.00000000001,-7.500000000012));
#394 = LINE('',#395,#396);
#395 = CARTESIAN_POINT('',(7.,-59.,-7.5));
#396 = VECTOR('',#397,1.);
#397 = DIRECTION('',(-3.5E-16,1.,1.354E-14));
#398 = ORIENTED_EDGE('',*,*,#399,.F.);
#399 = EDGE_CURVE('',#400,#392,#402,.T.);
#400 = VERTEX_POINT('',#401);
#401 = CARTESIAN_POINT('',(7.,-55.99999999998,-9.500000000062));
#402 = CIRCLE('',#403,1.999999999997);
#403 = AXIS2_PLACEMENT_3D('',#404,#405,#406);
#404 = CARTESIAN_POINT('',(7.,-53.99999999998,-9.500000000009));
#405 = DIRECTION('',(-1.,-3.5E-16,-4.8E-16));
#406 = DIRECTION('',(-3.5E-16,1.,-1.3E-16));
#407 = ORIENTED_EDGE('',*,*,#408,.T.);
#408 = EDGE_CURVE('',#400,#223,#409,.T.);
#409 = LINE('',#410,#411);
#410 = CARTESIAN_POINT('',(7.,-55.99999999999,1.308E-14));
#411 = VECTOR('',#412,1.);
#412 = DIRECTION('',(4.8E-16,-1.3E-16,-1.));
#413 = ORIENTED_EDGE('',*,*,#240,.T.);
#414 = ORIENTED_EDGE('',*,*,#208,.T.);
#415 = ORIENTED_EDGE('',*,*,#176,.T.);
#416 = FACE_BOUND('',#417,.T.);
#417 = EDGE_LOOP('',(#418,#429,#437,#446));
#418 = ORIENTED_EDGE('',*,*,#419,.F.);
#419 = EDGE_CURVE('',#420,#422,#424,.T.);
#420 = VERTEX_POINT('',#421);
#421 = CARTESIAN_POINT('',(7.,-32.5,-10.75));
#422 = VERTEX_POINT('',#423);
#423 = CARTESIAN_POINT('',(7.,-32.5,-14.25));
#424 = CIRCLE('',#425,1.75);
#425 = AXIS2_PLACEMENT_3D('',#426,#427,#428);
#426 = CARTESIAN_POINT('',(7.,-32.5,-12.5));
#427 = DIRECTION('',(-1.,-3.5E-16,-4.8E-16));
#428 = DIRECTION('',(-3.5E-16,1.,-1.3E-16));
#429 = ORIENTED_EDGE('',*,*,#430,.T.);
#430 = EDGE_CURVE('',#420,#431,#433,.T.);
#431 = VERTEX_POINT('',#432);
#432 = CARTESIAN_POINT('',(7.,-36.,-10.75));
#433 = LINE('',#434,#435);
#434 = CARTESIAN_POINT('',(7.,-32.5,-10.75));
#435 = VECTOR('',#436,1.);
#436 = DIRECTION('',(3.5E-16,-1.,1.3E-16));
#437 = ORIENTED_EDGE('',*,*,#438,.F.);
#438 = EDGE_CURVE('',#439,#431,#441,.T.);
#439 = VERTEX_POINT('',#440);
#440 = CARTESIAN_POINT('',(7.,-36.,-14.25));
#441 = CIRCLE('',#442,1.75);
#442 = AXIS2_PLACEMENT_3D('',#443,#444,#445);
#443 = CARTESIAN_POINT('',(7.,-36.,-12.5));
#444 = DIRECTION('',(-1.,-3.5E-16,-4.8E-16));
#445 = DIRECTION('',(-3.5E-16,1.,-1.3E-16));
#446 = ORIENTED_EDGE('',*,*,#447,.T.);
#447 = EDGE_CURVE('',#439,#422,#448,.T.);
#448 = LINE('',#449,#450);
#449 = CARTESIAN_POINT('',(7.,-36.,-14.25));
#450 = VECTOR('',#451,1.);
#451 = DIRECTION('',(-3.5E-16,1.,-1.3E-16));
#452 = FACE_BOUND('',#453,.T.);
#453 = EDGE_LOOP('',(#454,#465,#473,#482));
#454 = ORIENTED_EDGE('',*,*,#455,.T.);
#455 = EDGE_CURVE('',#456,#458,#460,.T.);
#456 = VERTEX_POINT('',#457);
#457 = CARTESIAN_POINT('',(7.,-32.5,10.75));
#458 = VERTEX_POINT('',#459);
#459 = CARTESIAN_POINT('',(7.,-32.5,14.25));
#460 = CIRCLE('',#461,1.75);
#461 = AXIS2_PLACEMENT_3D('',#462,#463,#464);
#462 = CARTESIAN_POINT('',(7.,-32.5,12.5));
#463 = DIRECTION('',(1.,0.,0.));
#464 = DIRECTION('',(0.,1.,0.));
#465 = ORIENTED_EDGE('',*,*,#466,.F.);
#466 = EDGE_CURVE('',#467,#458,#469,.T.);
#467 = VERTEX_POINT('',#468);
#468 = CARTESIAN_POINT('',(7.,-36.,14.25));
#469 = LINE('',#470,#471);
#470 = CARTESIAN_POINT('',(7.,-36.,14.25));
#471 = VECTOR('',#472,1.);
#472 = DIRECTION('',(0.,1.,0.));
#473 = ORIENTED_EDGE('',*,*,#474,.T.);
#474 = EDGE_CURVE('',#467,#475,#477,.T.);
#475 = VERTEX_POINT('',#476);
#476 = CARTESIAN_POINT('',(7.,-36.,10.75));
#477 = CIRCLE('',#478,1.75);
#478 = AXIS2_PLACEMENT_3D('',#479,#480,#481);
#479 = CARTESIAN_POINT('',(7.,-36.,12.5));
#480 = DIRECTION('',(1.,0.,0.));
#481 = DIRECTION('',(0.,1.,0.));
#482 = ORIENTED_EDGE('',*,*,#483,.F.);
#483 = EDGE_CURVE('',#456,#475,#484,.T.);
#484 = LINE('',#485,#486);
#485 = CARTESIAN_POINT('',(7.,-32.5,10.75));
#486 = VECTOR('',#487,1.);
#487 = DIRECTION('',(0.,-1.,0.));
#488 = PLANE('',#489);
#489 = AXIS2_PLACEMENT_3D('',#490,#491,#492);
#490 = CARTESIAN_POINT('',(7.,-39.44608922789,2.075E-14));
#491 = DIRECTION('',(-1.,-3.6E-16,-1.07E-15));
#492 = DIRECTION('',(1.07E-15,-9.803693778136E-48,-1.));
#493 = ADVANCED_FACE('',(#494),#520,.F.);
#494 = FACE_BOUND('',#495,.T.);
#495 = EDGE_LOOP('',(#496,#504,#513,#519));
#496 = ORIENTED_EDGE('',*,*,#497,.T.);
#497 = EDGE_CURVE('',#281,#498,#500,.T.);
#498 = VERTEX_POINT('',#499);
#499 = CARTESIAN_POINT('',(14.,-55.99999999998,9.500000000062));
#500 = LINE('',#501,#502);
#501 = CARTESIAN_POINT('',(7.,-55.99999999998,9.500000000062));
#502 = VECTOR('',#503,1.);
#503 = DIRECTION('',(1.,-1.3E-16,-5.E-17));
#504 = ORIENTED_EDGE('',*,*,#505,.T.);
#505 = EDGE_CURVE('',#498,#506,#508,.T.);
#506 = VERTEX_POINT('',#507);
#507 = CARTESIAN_POINT('',(14.,-54.00000000001,7.500000000012));
#508 = CIRCLE('',#509,1.999999999997);
#509 = AXIS2_PLACEMENT_3D('',#510,#511,#512);
#510 = CARTESIAN_POINT('',(14.,-53.99999999998,9.500000000009));
#511 = DIRECTION('',(1.,0.,0.));
#512 = DIRECTION('',(0.,1.,0.));
#513 = ORIENTED_EDGE('',*,*,#514,.F.);
#514 = EDGE_CURVE('',#289,#506,#515,.T.);
#515 = LINE('',#516,#517);
#516 = CARTESIAN_POINT('',(7.,-54.00000000001,7.500000000012));
#517 = VECTOR('',#518,1.);
#518 = DIRECTION('',(1.,-1.3E-16,-5.E-17));
#519 = ORIENTED_EDGE('',*,*,#288,.F.);
#520 = CYLINDRICAL_SURFACE('',#521,1.999999999997);
#521 = AXIS2_PLACEMENT_3D('',#522,#523,#524);
#522 = CARTESIAN_POINT('',(7.,-53.99999999998,9.500000000009));
#523 = DIRECTION('',(-1.,-5.E-17,-1.3E-16));
#524 = DIRECTION('',(-5.E-17,1.,-1.3E-16));
#525 = ADVANCED_FACE('',(#526),#544,.T.);
#526 = FACE_BOUND('',#527,.T.);
#527 = EDGE_LOOP('',(#528,#529,#530,#538));
#528 = ORIENTED_EDGE('',*,*,#297,.F.);
#529 = ORIENTED_EDGE('',*,*,#514,.T.);
#530 = ORIENTED_EDGE('',*,*,#531,.F.);
#531 = EDGE_CURVE('',#532,#506,#534,.T.);
#532 = VERTEX_POINT('',#533);
#533 = CARTESIAN_POINT('',(14.,-41.,7.5));
#534 = LINE('',#535,#536);
#535 = CARTESIAN_POINT('',(14.,-41.,7.5));
#536 = VECTOR('',#537,1.);
#537 = DIRECTION('',(0.,-1.,5.E-17));
#538 = ORIENTED_EDGE('',*,*,#539,.F.);
#539 = EDGE_CURVE('',#298,#532,#540,.T.);
#540 = LINE('',#541,#542);
#541 = CARTESIAN_POINT('',(12.,-41.,7.5));
#542 = VECTOR('',#543,1.);
#543 = DIRECTION('',(1.,-1.3E-16,-5.E-17));
#544 = PLANE('',#545);
#545 = AXIS2_PLACEMENT_3D('',#546,#547,#548);
#546 = CARTESIAN_POINT('',(10.5,-50.,7.5));
#547 = DIRECTION('',(1.99E-15,7.96E-15,1.));
#548 = DIRECTION('',(8.835304568438E-46,1.,-7.96E-15));
#549 = ADVANCED_FACE('',(#550),#569,.F.);
#550 = FACE_BOUND('',#551,.T.);
#551 = EDGE_LOOP('',(#552,#561,#567,#568));
#552 = ORIENTED_EDGE('',*,*,#553,.T.);
#553 = EDGE_CURVE('',#532,#554,#556,.T.);
#554 = VERTEX_POINT('',#555);
#555 = CARTESIAN_POINT('',(14.,-40.,8.5));
#556 = CIRCLE('',#557,1.);
#557 = AXIS2_PLACEMENT_3D('',#558,#559,#560);
#558 = CARTESIAN_POINT('',(14.,-41.,8.5));
#559 = DIRECTION('',(1.,0.,0.));
#560 = DIRECTION('',(0.,1.,0.));
#561 = ORIENTED_EDGE('',*,*,#562,.F.);
#562 = EDGE_CURVE('',#306,#554,#563,.T.);
#563 = LINE('',#564,#565);
#564 = CARTESIAN_POINT('',(7.,-40.,8.499999999999));
#565 = VECTOR('',#566,1.);
#566 = DIRECTION('',(1.,-2.6E-16,2.E-17));
#567 = ORIENTED_EDGE('',*,*,#305,.F.);
#568 = ORIENTED_EDGE('',*,*,#539,.T.);
#569 = CYLINDRICAL_SURFACE('',#570,0.999999999999);
#570 = AXIS2_PLACEMENT_3D('',#571,#572,#573);
#571 = CARTESIAN_POINT('',(7.,-40.99999999999,8.499999999999));
#572 = DIRECTION('',(-1.,8.E-17,-1.9E-16));
#573 = DIRECTION('',(8.E-17,1.,-3.7E-16));
#574 = ADVANCED_FACE('',(#575),#593,.T.);
#575 = FACE_BOUND('',#576,.T.);
#576 = EDGE_LOOP('',(#577,#578,#586,#592));
#577 = ORIENTED_EDGE('',*,*,#562,.T.);
#578 = ORIENTED_EDGE('',*,*,#579,.F.);
#579 = EDGE_CURVE('',#580,#554,#582,.T.);
#580 = VERTEX_POINT('',#581);
#581 = CARTESIAN_POINT('',(14.,-40.,17.2));
#582 = LINE('',#583,#584);
#583 = CARTESIAN_POINT('',(14.,-40.,17.2));
#584 = VECTOR('',#585,1.);
#585 = DIRECTION('',(0.,-8.2E-16,-1.));
#586 = ORIENTED_EDGE('',*,*,#587,.F.);
#587 = EDGE_CURVE('',#315,#580,#588,.T.);
#588 = LINE('',#589,#590);
#589 = CARTESIAN_POINT('',(12.,-40.,17.2));
#590 = VECTOR('',#591,1.);
#591 = DIRECTION('',(1.,-1.3E-16,-5.E-17));
#592 = ORIENTED_EDGE('',*,*,#314,.F.);
#593 = PLANE('',#594);
#594 = AXIS2_PLACEMENT_3D('',#595,#596,#597);
#595 = CARTESIAN_POINT('',(10.5,-40.,12.85));
#596 = DIRECTION('',(-5.36E-15,-1.,-5.31E-15));
#597 = DIRECTION('',(-1.,5.36E-15,-1.783920877431E-45));
#598 = ADVANCED_FACE('',(#599),#633,.T.);
#599 = FACE_BOUND('',#600,.T.);
#600 = EDGE_LOOP('',(#601,#602,#610,#618,#626,#632));
#601 = ORIENTED_EDGE('',*,*,#587,.T.);
#602 = ORIENTED_EDGE('',*,*,#603,.F.);
#603 = EDGE_CURVE('',#604,#580,#606,.T.);
#604 = VERTEX_POINT('',#605);
#605 = CARTESIAN_POINT('',(14.,-26.44999999998,17.200000000018));
#606 = LINE('',#607,#608);
#607 = CARTESIAN_POINT('',(14.,-26.44999999998,17.200000000018));
#608 = VECTOR('',#609,1.);
#609 = DIRECTION('',(0.,-1.,-1.33325E-12));
#610 = ORIENTED_EDGE('',*,*,#611,.F.);
#611 = EDGE_CURVE('',#612,#604,#614,.T.);
#612 = VERTEX_POINT('',#613);
#613 = CARTESIAN_POINT('',(12.,-26.44999999998,17.200000000018));
#614 = LINE('',#615,#616);
#615 = CARTESIAN_POINT('',(12.,-26.44999999998,17.200000000018));
#616 = VECTOR('',#617,1.);
#617 = DIRECTION('',(1.,-1.3E-16,-5.E-17));
#618 = ORIENTED_EDGE('',*,*,#619,.T.);
#619 = EDGE_CURVE('',#612,#620,#622,.T.);
#620 = VERTEX_POINT('',#621);
#621 = CARTESIAN_POINT('',(12.,-15.6144164156,17.200000000001));
#622 = LINE('',#623,#624);
#623 = CARTESIAN_POINT('',(12.,-40.,17.2));
#624 = VECTOR('',#625,1.);
#625 = DIRECTION('',(0.,1.,0.));
#626 = ORIENTED_EDGE('',*,*,#627,.F.);
#627 = EDGE_CURVE('',#323,#620,#628,.T.);
#628 = LINE('',#629,#630);
#629 = CARTESIAN_POINT('',(7.,-15.6144164156,17.200000000001));
#630 = VECTOR('',#631,1.);
#631 = DIRECTION('',(1.,-1.3E-16,-5.E-17));
#632 = ORIENTED_EDGE('',*,*,#322,.F.);
#633 = PLANE('',#634);
#634 = AXIS2_PLACEMENT_3D('',#635,#636,#637);
#635 = CARTESIAN_POINT('',(10.154759212769,-28.15244899503,
    17.200000000003));
#636 = DIRECTION('',(-1.00075E-12,-6.85E-14,1.));
#637 = DIRECTION('',(1.,0.,1.00075E-12));
#638 = ADVANCED_FACE('',(#639),#658,.T.);
#639 = FACE_BOUND('',#640,.F.);
#640 = EDGE_LOOP('',(#641,#649,#656,#657));
#641 = ORIENTED_EDGE('',*,*,#642,.T.);
#642 = EDGE_CURVE('',#331,#643,#645,.T.);
#643 = VERTEX_POINT('',#644);
#644 = CARTESIAN_POINT('',(12.,-14.92044235268,15.480000000003));
#645 = LINE('',#646,#647);
#646 = CARTESIAN_POINT('',(7.,-14.92044235268,15.480000000003));
#647 = VECTOR('',#648,1.);
#648 = DIRECTION('',(1.,-1.3E-16,-5.E-17));
#649 = ORIENTED_EDGE('',*,*,#650,.T.);
#650 = EDGE_CURVE('',#643,#620,#651,.T.);
#651 = CIRCLE('',#652,0.999999999999);
#652 = AXIS2_PLACEMENT_3D('',#653,#654,#655);
#653 = CARTESIAN_POINT('',(12.,-15.6144164156,16.200000000002));
#654 = DIRECTION('',(1.,0.,0.));
#655 = DIRECTION('',(0.,1.,0.));
#656 = ORIENTED_EDGE('',*,*,#627,.F.);
#657 = ORIENTED_EDGE('',*,*,#330,.F.);
#658 = CYLINDRICAL_SURFACE('',#659,0.999999999999);
#659 = AXIS2_PLACEMENT_3D('',#660,#661,#662);
#660 = CARTESIAN_POINT('',(7.,-15.6144164156,16.200000000002));
#661 = DIRECTION('',(-1.,-5.E-17,-1.3E-16));
#662 = DIRECTION('',(-5.E-17,1.,-1.3E-16));
#663 = ADVANCED_FACE('',(#664),#690,.T.);
#664 = FACE_BOUND('',#665,.T.);
#665 = EDGE_LOOP('',(#666,#674,#683,#689));
#666 = ORIENTED_EDGE('',*,*,#667,.T.);
#667 = EDGE_CURVE('',#349,#668,#670,.T.);
#668 = VERTEX_POINT('',#669);
#669 = CARTESIAN_POINT('',(12.,-14.92044235268,-15.48));
#670 = LINE('',#671,#672);
#671 = CARTESIAN_POINT('',(7.,-14.92044235268,-15.48));
#672 = VECTOR('',#673,1.);
#673 = DIRECTION('',(1.,-3.1E-16,6.1E-16));
#674 = ORIENTED_EDGE('',*,*,#675,.T.);
#675 = EDGE_CURVE('',#668,#676,#678,.T.);
#676 = VERTEX_POINT('',#677);
#677 = CARTESIAN_POINT('',(12.,-15.6144164156,-17.2));
#678 = CIRCLE('',#679,0.999999999999);
#679 = AXIS2_PLACEMENT_3D('',#680,#681,#682);
#680 = CARTESIAN_POINT('',(12.,-15.6144164156,-16.2));
#681 = DIRECTION('',(-1.,-3.5E-16,-4.8E-16));
#682 = DIRECTION('',(-3.5E-16,1.,-1.3E-16));
#683 = ORIENTED_EDGE('',*,*,#684,.F.);
#684 = EDGE_CURVE('',#358,#676,#685,.T.);
#685 = LINE('',#686,#687);
#686 = CARTESIAN_POINT('',(7.,-15.6144164156,-17.2));
#687 = VECTOR('',#688,1.);
#688 = DIRECTION('',(1.,-3.1E-16,6.1E-16));
#689 = ORIENTED_EDGE('',*,*,#357,.F.);
#690 = CYLINDRICAL_SURFACE('',#691,0.999999999999);
#691 = AXIS2_PLACEMENT_3D('',#692,#693,#694);
#692 = CARTESIAN_POINT('',(7.,-15.6144164156,-16.2));
#693 = DIRECTION('',(-1.,1.3E-16,-4.3E-16));
#694 = DIRECTION('',(1.3E-16,1.,-8.E-17));
#695 = ADVANCED_FACE('',(#696),#722,.F.);
#696 = FACE_BOUND('',#697,.F.);
#697 = EDGE_LOOP('',(#698,#706,#715,#721));
#698 = ORIENTED_EDGE('',*,*,#699,.T.);
#699 = EDGE_CURVE('',#400,#700,#702,.T.);
#700 = VERTEX_POINT('',#701);
#701 = CARTESIAN_POINT('',(14.,-55.99999999998,-9.500000000062));
#702 = LINE('',#703,#704);
#703 = CARTESIAN_POINT('',(7.,-55.99999999998,-9.500000000062));
#704 = VECTOR('',#705,1.);
#705 = DIRECTION('',(1.,-3.1E-16,6.1E-16));
#706 = ORIENTED_EDGE('',*,*,#707,.T.);
#707 = EDGE_CURVE('',#700,#708,#710,.T.);
#708 = VERTEX_POINT('',#709);
#709 = CARTESIAN_POINT('',(14.,-54.00000000001,-7.500000000012));
#710 = CIRCLE('',#711,1.999999999997);
#711 = AXIS2_PLACEMENT_3D('',#712,#713,#714);
#712 = CARTESIAN_POINT('',(14.,-53.99999999998,-9.500000000009));
#713 = DIRECTION('',(-1.,-3.5E-16,-4.8E-16));
#714 = DIRECTION('',(-3.5E-16,1.,-1.3E-16));
#715 = ORIENTED_EDGE('',*,*,#716,.F.);
#716 = EDGE_CURVE('',#392,#708,#717,.T.);
#717 = LINE('',#718,#719);
#718 = CARTESIAN_POINT('',(7.,-54.00000000001,-7.500000000012));
#719 = VECTOR('',#720,1.);
#720 = DIRECTION('',(1.,-3.5E-16,3.7E-16));
#721 = ORIENTED_EDGE('',*,*,#399,.F.);
#722 = CYLINDRICAL_SURFACE('',#723,1.999999999997);
#723 = AXIS2_PLACEMENT_3D('',#724,#725,#726);
#724 = CARTESIAN_POINT('',(7.,-53.99999999998,-9.500000000009));
#725 = DIRECTION('',(-1.,1.3E-16,-4.3E-16));
#726 = DIRECTION('',(1.3E-16,1.,-8.E-17));
#727 = ADVANCED_FACE('',(#728),#754,.F.);
#728 = FACE_BOUND('',#729,.F.);
#729 = EDGE_LOOP('',(#730,#738,#747,#753));
#730 = ORIENTED_EDGE('',*,*,#731,.T.);
#731 = EDGE_CURVE('',#420,#732,#734,.T.);
#732 = VERTEX_POINT('',#733);
#733 = CARTESIAN_POINT('',(12.,-32.5,-10.75));
#734 = LINE('',#735,#736);
#735 = CARTESIAN_POINT('',(7.,-32.5,-10.75));
#736 = VECTOR('',#737,1.);
#737 = DIRECTION('',(1.,-3.1E-16,6.1E-16));
#738 = ORIENTED_EDGE('',*,*,#739,.T.);
#739 = EDGE_CURVE('',#732,#740,#742,.T.);
#740 = VERTEX_POINT('',#741);
#741 = CARTESIAN_POINT('',(12.,-32.5,-14.25));
#742 = CIRCLE('',#743,1.75);
#743 = AXIS2_PLACEMENT_3D('',#744,#745,#746);
#744 = CARTESIAN_POINT('',(12.,-32.5,-12.5));
#745 = DIRECTION('',(-1.,-3.5E-16,-4.8E-16));
#746 = DIRECTION('',(-3.5E-16,1.,-1.3E-16));
#747 = ORIENTED_EDGE('',*,*,#748,.F.);
#748 = EDGE_CURVE('',#422,#740,#749,.T.);
#749 = LINE('',#750,#751);
#750 = CARTESIAN_POINT('',(7.,-32.5,-14.25));
#751 = VECTOR('',#752,1.);
#752 = DIRECTION('',(1.,-3.1E-16,6.1E-16));
#753 = ORIENTED_EDGE('',*,*,#419,.F.);
#754 = CYLINDRICAL_SURFACE('',#755,1.75);
#755 = AXIS2_PLACEMENT_3D('',#756,#757,#758);
#756 = CARTESIAN_POINT('',(7.,-32.5,-12.5));
#757 = DIRECTION('',(-1.,1.3E-16,-4.3E-16));
#758 = DIRECTION('',(1.3E-16,1.,-8.E-17));
#759 = ADVANCED_FACE('',(#760),#778,.F.);
#760 = FACE_BOUND('',#761,.T.);
#761 = EDGE_LOOP('',(#762,#763,#771,#777));
#762 = ORIENTED_EDGE('',*,*,#731,.T.);
#763 = ORIENTED_EDGE('',*,*,#764,.T.);
#764 = EDGE_CURVE('',#732,#765,#767,.T.);
#765 = VERTEX_POINT('',#766);
#766 = CARTESIAN_POINT('',(12.,-36.,-10.75));
#767 = LINE('',#768,#769);
#768 = CARTESIAN_POINT('',(12.,-32.5,-10.75));
#769 = VECTOR('',#770,1.);
#770 = DIRECTION('',(3.5E-16,-1.,1.3E-16));
#771 = ORIENTED_EDGE('',*,*,#772,.F.);
#772 = EDGE_CURVE('',#431,#765,#773,.T.);
#773 = LINE('',#774,#775);
#774 = CARTESIAN_POINT('',(7.,-36.,-10.75));
#775 = VECTOR('',#776,1.);
#776 = DIRECTION('',(1.,-3.1E-16,6.1E-16));
#777 = ORIENTED_EDGE('',*,*,#430,.F.);
#778 = PLANE('',#779);
#779 = AXIS2_PLACEMENT_3D('',#780,#781,#782);
#780 = CARTESIAN_POINT('',(7.,-32.5,-10.75));
#781 = DIRECTION('',(-6.1E-16,8.E-17,1.));
#782 = DIRECTION('',(-2.2E-16,1.,-8.E-17));
#783 = ADVANCED_FACE('',(#784),#802,.F.);
#784 = FACE_BOUND('',#785,.T.);
#785 = EDGE_LOOP('',(#786,#794,#800,#801));
#786 = ORIENTED_EDGE('',*,*,#787,.T.);
#787 = EDGE_CURVE('',#439,#788,#790,.T.);
#788 = VERTEX_POINT('',#789);
#789 = CARTESIAN_POINT('',(12.,-36.,-14.25));
#790 = LINE('',#791,#792);
#791 = CARTESIAN_POINT('',(7.,-36.,-14.25));
#792 = VECTOR('',#793,1.);
#793 = DIRECTION('',(1.,-3.1E-16,6.1E-16));
#794 = ORIENTED_EDGE('',*,*,#795,.T.);
#795 = EDGE_CURVE('',#788,#740,#796,.T.);
#796 = LINE('',#797,#798);
#797 = CARTESIAN_POINT('',(12.,-36.,-14.25));
#798 = VECTOR('',#799,1.);
#799 = DIRECTION('',(-3.5E-16,1.,-1.3E-16));
#800 = ORIENTED_EDGE('',*,*,#748,.F.);
#801 = ORIENTED_EDGE('',*,*,#447,.F.);
#802 = PLANE('',#803);
#803 = AXIS2_PLACEMENT_3D('',#804,#805,#806);
#804 = CARTESIAN_POINT('',(7.,-36.,-14.25));
#805 = DIRECTION('',(6.1E-16,-8.E-17,-1.));
#806 = DIRECTION('',(2.2E-16,-1.,8.E-17));
#807 = ADVANCED_FACE('',(#808),#820,.F.);
#808 = FACE_BOUND('',#809,.F.);
#809 = EDGE_LOOP('',(#810,#811,#818,#819));
#810 = ORIENTED_EDGE('',*,*,#787,.T.);
#811 = ORIENTED_EDGE('',*,*,#812,.T.);
#812 = EDGE_CURVE('',#788,#765,#813,.T.);
#813 = CIRCLE('',#814,1.75);
#814 = AXIS2_PLACEMENT_3D('',#815,#816,#817);
#815 = CARTESIAN_POINT('',(12.,-36.,-12.5));
#816 = DIRECTION('',(-1.,-3.5E-16,-4.8E-16));
#817 = DIRECTION('',(-3.5E-16,1.,-1.3E-16));
#818 = ORIENTED_EDGE('',*,*,#772,.F.);
#819 = ORIENTED_EDGE('',*,*,#438,.F.);
#820 = CYLINDRICAL_SURFACE('',#821,1.75);
#821 = AXIS2_PLACEMENT_3D('',#822,#823,#824);
#822 = CARTESIAN_POINT('',(7.,-36.,-12.5));
#823 = DIRECTION('',(-1.,1.3E-16,-4.3E-16));
#824 = DIRECTION('',(1.3E-16,1.,-8.E-17));
#825 = ADVANCED_FACE('',(#826,#862),#868,.T.);
#826 = FACE_BOUND('',#827,.F.);
#827 = EDGE_LOOP('',(#828,#838,#847,#855));
#828 = ORIENTED_EDGE('',*,*,#829,.F.);
#829 = EDGE_CURVE('',#830,#832,#834,.T.);
#830 = VERTEX_POINT('',#831);
#831 = CARTESIAN_POINT('',(12.,-32.5,-9.5));
#832 = VERTEX_POINT('',#833);
#833 = CARTESIAN_POINT('',(12.,-36.,-9.5));
#834 = LINE('',#835,#836);
#835 = CARTESIAN_POINT('',(12.,-32.5,-9.5));
#836 = VECTOR('',#837,1.);
#837 = DIRECTION('',(3.5E-16,-1.,1.3E-16));
#838 = ORIENTED_EDGE('',*,*,#839,.T.);
#839 = EDGE_CURVE('',#830,#840,#842,.T.);
#840 = VERTEX_POINT('',#841);
#841 = CARTESIAN_POINT('',(12.,-32.5,-15.5));
#842 = CIRCLE('',#843,3.);
#843 = AXIS2_PLACEMENT_3D('',#844,#845,#846);
#844 = CARTESIAN_POINT('',(12.,-32.5,-12.5));
#845 = DIRECTION('',(-1.,-3.5E-16,-4.8E-16));
#846 = DIRECTION('',(-3.5E-16,1.,-1.3E-16));
#847 = ORIENTED_EDGE('',*,*,#848,.F.);
#848 = EDGE_CURVE('',#849,#840,#851,.T.);
#849 = VERTEX_POINT('',#850);
#850 = CARTESIAN_POINT('',(12.,-36.,-15.5));
#851 = LINE('',#852,#853);
#852 = CARTESIAN_POINT('',(12.,-36.,-15.5));
#853 = VECTOR('',#854,1.);
#854 = DIRECTION('',(-3.5E-16,1.,-1.3E-16));
#855 = ORIENTED_EDGE('',*,*,#856,.T.);
#856 = EDGE_CURVE('',#849,#832,#857,.T.);
#857 = CIRCLE('',#858,3.);
#858 = AXIS2_PLACEMENT_3D('',#859,#860,#861);
#859 = CARTESIAN_POINT('',(12.,-36.,-12.5));
#860 = DIRECTION('',(-1.,-3.5E-16,-4.8E-16));
#861 = DIRECTION('',(-3.5E-16,1.,-1.3E-16));
#862 = FACE_BOUND('',#863,.F.);
#863 = EDGE_LOOP('',(#864,#865,#866,#867));
#864 = ORIENTED_EDGE('',*,*,#739,.F.);
#865 = ORIENTED_EDGE('',*,*,#764,.T.);
#866 = ORIENTED_EDGE('',*,*,#812,.F.);
#867 = ORIENTED_EDGE('',*,*,#795,.T.);
#868 = PLANE('',#869);
#869 = AXIS2_PLACEMENT_3D('',#870,#871,#872);
#870 = CARTESIAN_POINT('',(12.,-36.73079048984,-8.130835344574));
#871 = DIRECTION('',(1.,-3.5E-16,4.8E-16));
#872 = DIRECTION('',(-4.8E-16,1.3E-16,1.));
#873 = ADVANCED_FACE('',(#874),#900,.F.);
#874 = FACE_BOUND('',#875,.F.);
#875 = EDGE_LOOP('',(#876,#884,#893,#899));
#876 = ORIENTED_EDGE('',*,*,#877,.T.);
#877 = EDGE_CURVE('',#830,#878,#880,.T.);
#878 = VERTEX_POINT('',#879);
#879 = CARTESIAN_POINT('',(14.,-32.5,-9.5));
#880 = LINE('',#881,#882);
#881 = CARTESIAN_POINT('',(12.,-32.5,-9.5));
#882 = VECTOR('',#883,1.);
#883 = DIRECTION('',(1.,-3.1E-16,6.1E-16));
#884 = ORIENTED_EDGE('',*,*,#885,.T.);
#885 = EDGE_CURVE('',#878,#886,#888,.T.);
#886 = VERTEX_POINT('',#887);
#887 = CARTESIAN_POINT('',(14.,-32.5,-15.5));
#888 = CIRCLE('',#889,3.);
#889 = AXIS2_PLACEMENT_3D('',#890,#891,#892);
#890 = CARTESIAN_POINT('',(14.,-32.5,-12.5));
#891 = DIRECTION('',(-1.,-3.5E-16,-4.8E-16));
#892 = DIRECTION('',(-3.5E-16,1.,-1.3E-16));
#893 = ORIENTED_EDGE('',*,*,#894,.F.);
#894 = EDGE_CURVE('',#840,#886,#895,.T.);
#895 = LINE('',#896,#897);
#896 = CARTESIAN_POINT('',(12.,-32.5,-15.5));
#897 = VECTOR('',#898,1.);
#898 = DIRECTION('',(1.,-3.1E-16,6.1E-16));
#899 = ORIENTED_EDGE('',*,*,#839,.F.);
#900 = CYLINDRICAL_SURFACE('',#901,3.);
#901 = AXIS2_PLACEMENT_3D('',#902,#903,#904);
#902 = CARTESIAN_POINT('',(12.,-32.5,-12.5));
#903 = DIRECTION('',(-1.,1.3E-16,-4.3E-16));
#904 = DIRECTION('',(1.3E-16,1.,-8.E-17));
#905 = ADVANCED_FACE('',(#906),#924,.F.);
#906 = FACE_BOUND('',#907,.T.);
#907 = EDGE_LOOP('',(#908,#909,#917,#923));
#908 = ORIENTED_EDGE('',*,*,#877,.T.);
#909 = ORIENTED_EDGE('',*,*,#910,.T.);
#910 = EDGE_CURVE('',#878,#911,#913,.T.);
#911 = VERTEX_POINT('',#912);
#912 = CARTESIAN_POINT('',(14.,-36.,-9.5));
#913 = LINE('',#914,#915);
#914 = CARTESIAN_POINT('',(14.,-32.5,-9.5));
#915 = VECTOR('',#916,1.);
#916 = DIRECTION('',(3.5E-16,-1.,1.3E-16));
#917 = ORIENTED_EDGE('',*,*,#918,.F.);
#918 = EDGE_CURVE('',#832,#911,#919,.T.);
#919 = LINE('',#920,#921);
#920 = CARTESIAN_POINT('',(12.,-36.,-9.5));
#921 = VECTOR('',#922,1.);
#922 = DIRECTION('',(1.,-3.1E-16,6.1E-16));
#923 = ORIENTED_EDGE('',*,*,#829,.F.);
#924 = PLANE('',#925);
#925 = AXIS2_PLACEMENT_3D('',#926,#927,#928);
#926 = CARTESIAN_POINT('',(12.,-32.5,-9.5));
#927 = DIRECTION('',(-6.1E-16,8.E-17,1.));
#928 = DIRECTION('',(-2.2E-16,1.,-8.E-17));
#929 = ADVANCED_FACE('',(#930),#948,.F.);
#930 = FACE_BOUND('',#931,.T.);
#931 = EDGE_LOOP('',(#932,#940,#946,#947));
#932 = ORIENTED_EDGE('',*,*,#933,.T.);
#933 = EDGE_CURVE('',#849,#934,#936,.T.);
#934 = VERTEX_POINT('',#935);
#935 = CARTESIAN_POINT('',(14.,-36.,-15.5));
#936 = LINE('',#937,#938);
#937 = CARTESIAN_POINT('',(12.,-36.,-15.5));
#938 = VECTOR('',#939,1.);
#939 = DIRECTION('',(1.,-3.1E-16,6.1E-16));
#940 = ORIENTED_EDGE('',*,*,#941,.T.);
#941 = EDGE_CURVE('',#934,#886,#942,.T.);
#942 = LINE('',#943,#944);
#943 = CARTESIAN_POINT('',(14.,-36.,-15.5));
#944 = VECTOR('',#945,1.);
#945 = DIRECTION('',(-3.5E-16,1.,-1.3E-16));
#946 = ORIENTED_EDGE('',*,*,#894,.F.);
#947 = ORIENTED_EDGE('',*,*,#848,.F.);
#948 = PLANE('',#949);
#949 = AXIS2_PLACEMENT_3D('',#950,#951,#952);
#950 = CARTESIAN_POINT('',(12.,-36.,-15.5));
#951 = DIRECTION('',(6.1E-16,-8.E-17,-1.));
#952 = DIRECTION('',(2.2E-16,-1.,8.E-17));
#953 = ADVANCED_FACE('',(#954),#966,.F.);
#954 = FACE_BOUND('',#955,.F.);
#955 = EDGE_LOOP('',(#956,#957,#964,#965));
#956 = ORIENTED_EDGE('',*,*,#933,.T.);
#957 = ORIENTED_EDGE('',*,*,#958,.T.);
#958 = EDGE_CURVE('',#934,#911,#959,.T.);
#959 = CIRCLE('',#960,3.);
#960 = AXIS2_PLACEMENT_3D('',#961,#962,#963);
#961 = CARTESIAN_POINT('',(14.,-36.,-12.5));
#962 = DIRECTION('',(-1.,-3.5E-16,-4.8E-16));
#963 = DIRECTION('',(-3.5E-16,1.,-1.3E-16));
#964 = ORIENTED_EDGE('',*,*,#918,.F.);
#965 = ORIENTED_EDGE('',*,*,#856,.F.);
#966 = CYLINDRICAL_SURFACE('',#967,3.);
#967 = AXIS2_PLACEMENT_3D('',#968,#969,#970);
#968 = CARTESIAN_POINT('',(12.,-36.,-12.5));
#969 = DIRECTION('',(-1.,1.3E-16,-4.3E-16));
#970 = DIRECTION('',(1.3E-16,1.,-8.E-17));
#971 = ADVANCED_FACE('',(#972),#998,.F.);
#972 = FACE_BOUND('',#973,.T.);
#973 = EDGE_LOOP('',(#974,#982,#991,#997));
#974 = ORIENTED_EDGE('',*,*,#975,.T.);
#975 = EDGE_CURVE('',#456,#976,#978,.T.);
#976 = VERTEX_POINT('',#977);
#977 = CARTESIAN_POINT('',(12.,-32.5,10.75));
#978 = LINE('',#979,#980);
#979 = CARTESIAN_POINT('',(7.,-32.5,10.75));
#980 = VECTOR('',#981,1.);
#981 = DIRECTION('',(1.,-1.3E-16,-5.E-17));
#982 = ORIENTED_EDGE('',*,*,#983,.T.);
#983 = EDGE_CURVE('',#976,#984,#986,.T.);
#984 = VERTEX_POINT('',#985);
#985 = CARTESIAN_POINT('',(12.,-32.5,14.25));
#986 = CIRCLE('',#987,1.75);
#987 = AXIS2_PLACEMENT_3D('',#988,#989,#990);
#988 = CARTESIAN_POINT('',(12.,-32.5,12.5));
#989 = DIRECTION('',(1.,0.,0.));
#990 = DIRECTION('',(0.,1.,0.));
#991 = ORIENTED_EDGE('',*,*,#992,.F.);
#992 = EDGE_CURVE('',#458,#984,#993,.T.);
#993 = LINE('',#994,#995);
#994 = CARTESIAN_POINT('',(7.,-32.5,14.25));
#995 = VECTOR('',#996,1.);
#996 = DIRECTION('',(1.,-1.3E-16,-5.E-17));
#997 = ORIENTED_EDGE('',*,*,#455,.F.);
#998 = CYLINDRICAL_SURFACE('',#999,1.75);
#999 = AXIS2_PLACEMENT_3D('',#1000,#1001,#1002);
#1000 = CARTESIAN_POINT('',(7.,-32.5,12.5));
#1001 = DIRECTION('',(-1.,-5.E-17,-1.3E-16));
#1002 = DIRECTION('',(-5.E-17,1.,-1.3E-16));
#1003 = ADVANCED_FACE('',(#1004),#1022,.F.);
#1004 = FACE_BOUND('',#1005,.F.);
#1005 = EDGE_LOOP('',(#1006,#1014,#1020,#1021));
#1006 = ORIENTED_EDGE('',*,*,#1007,.T.);
#1007 = EDGE_CURVE('',#467,#1008,#1010,.T.);
#1008 = VERTEX_POINT('',#1009);
#1009 = CARTESIAN_POINT('',(12.,-36.,14.25));
#1010 = LINE('',#1011,#1012);
#1011 = CARTESIAN_POINT('',(7.,-36.,14.25));
#1012 = VECTOR('',#1013,1.);
#1013 = DIRECTION('',(1.,-1.3E-16,-5.E-17));
#1014 = ORIENTED_EDGE('',*,*,#1015,.T.);
#1015 = EDGE_CURVE('',#1008,#984,#1016,.T.);
#1016 = LINE('',#1017,#1018);
#1017 = CARTESIAN_POINT('',(12.,-36.,14.25));
#1018 = VECTOR('',#1019,1.);
#1019 = DIRECTION('',(0.,1.,0.));
#1020 = ORIENTED_EDGE('',*,*,#992,.F.);
#1021 = ORIENTED_EDGE('',*,*,#466,.F.);
#1022 = PLANE('',#1023);
#1023 = AXIS2_PLACEMENT_3D('',#1024,#1025,#1026);
#1024 = CARTESIAN_POINT('',(7.,-36.,14.25));
#1025 = DIRECTION('',(5.E-17,1.3E-16,1.));
#1026 = DIRECTION('',(-5.E-17,1.,-1.3E-16));
#1027 = ADVANCED_FACE('',(#1028),#1047,.F.);
#1028 = FACE_BOUND('',#1029,.T.);
#1029 = EDGE_LOOP('',(#1030,#1031,#1040,#1046));
#1030 = ORIENTED_EDGE('',*,*,#1007,.T.);
#1031 = ORIENTED_EDGE('',*,*,#1032,.T.);
#1032 = EDGE_CURVE('',#1008,#1033,#1035,.T.);
#1033 = VERTEX_POINT('',#1034);
#1034 = CARTESIAN_POINT('',(12.,-36.,10.75));
#1035 = CIRCLE('',#1036,1.75);
#1036 = AXIS2_PLACEMENT_3D('',#1037,#1038,#1039);
#1037 = CARTESIAN_POINT('',(12.,-36.,12.5));
#1038 = DIRECTION('',(1.,0.,0.));
#1039 = DIRECTION('',(0.,1.,0.));
#1040 = ORIENTED_EDGE('',*,*,#1041,.F.);
#1041 = EDGE_CURVE('',#475,#1033,#1042,.T.);
#1042 = LINE('',#1043,#1044);
#1043 = CARTESIAN_POINT('',(7.,-36.,10.75));
#1044 = VECTOR('',#1045,1.);
#1045 = DIRECTION('',(1.,-1.3E-16,-5.E-17));
#1046 = ORIENTED_EDGE('',*,*,#474,.F.);
#1047 = CYLINDRICAL_SURFACE('',#1048,1.75);
#1048 = AXIS2_PLACEMENT_3D('',#1049,#1050,#1051);
#1049 = CARTESIAN_POINT('',(7.,-36.,12.5));
#1050 = DIRECTION('',(-1.,-5.E-17,-1.3E-16));
#1051 = DIRECTION('',(-5.E-17,1.,-1.3E-16));
#1052 = ADVANCED_FACE('',(#1053),#1064,.F.);
#1053 = FACE_BOUND('',#1054,.F.);
#1054 = EDGE_LOOP('',(#1055,#1056,#1062,#1063));
#1055 = ORIENTED_EDGE('',*,*,#975,.T.);
#1056 = ORIENTED_EDGE('',*,*,#1057,.T.);
#1057 = EDGE_CURVE('',#976,#1033,#1058,.T.);
#1058 = LINE('',#1059,#1060);
#1059 = CARTESIAN_POINT('',(12.,-32.5,10.75));
#1060 = VECTOR('',#1061,1.);
#1061 = DIRECTION('',(0.,-1.,0.));
#1062 = ORIENTED_EDGE('',*,*,#1041,.F.);
#1063 = ORIENTED_EDGE('',*,*,#483,.F.);
#1064 = PLANE('',#1065);
#1065 = AXIS2_PLACEMENT_3D('',#1066,#1067,#1068);
#1066 = CARTESIAN_POINT('',(7.,-32.5,10.75));
#1067 = DIRECTION('',(-5.E-17,-1.3E-16,-1.));
#1068 = DIRECTION('',(5.E-17,-1.,1.3E-16));
#1069 = ADVANCED_FACE('',(#1070,#1106),#1112,.T.);
#1070 = FACE_BOUND('',#1071,.T.);
#1071 = EDGE_LOOP('',(#1072,#1082,#1091,#1099));
#1072 = ORIENTED_EDGE('',*,*,#1073,.F.);
#1073 = EDGE_CURVE('',#1074,#1076,#1078,.T.);
#1074 = VERTEX_POINT('',#1075);
#1075 = CARTESIAN_POINT('',(12.,-32.5,9.5));
#1076 = VERTEX_POINT('',#1077);
#1077 = CARTESIAN_POINT('',(12.,-36.,9.5));
#1078 = LINE('',#1079,#1080);
#1079 = CARTESIAN_POINT('',(12.,-32.5,9.5));
#1080 = VECTOR('',#1081,1.);
#1081 = DIRECTION('',(0.,-1.,0.));
#1082 = ORIENTED_EDGE('',*,*,#1083,.T.);
#1083 = EDGE_CURVE('',#1074,#1084,#1086,.T.);
#1084 = VERTEX_POINT('',#1085);
#1085 = CARTESIAN_POINT('',(12.,-32.5,15.5));
#1086 = CIRCLE('',#1087,3.);
#1087 = AXIS2_PLACEMENT_3D('',#1088,#1089,#1090);
#1088 = CARTESIAN_POINT('',(12.,-32.5,12.5));
#1089 = DIRECTION('',(1.,0.,0.));
#1090 = DIRECTION('',(0.,1.,0.));
#1091 = ORIENTED_EDGE('',*,*,#1092,.F.);
#1092 = EDGE_CURVE('',#1093,#1084,#1095,.T.);
#1093 = VERTEX_POINT('',#1094);
#1094 = CARTESIAN_POINT('',(12.,-36.,15.5));
#1095 = LINE('',#1096,#1097);
#1096 = CARTESIAN_POINT('',(12.,-36.,15.5));
#1097 = VECTOR('',#1098,1.);
#1098 = DIRECTION('',(0.,1.,0.));
#1099 = ORIENTED_EDGE('',*,*,#1100,.T.);
#1100 = EDGE_CURVE('',#1093,#1076,#1101,.T.);
#1101 = CIRCLE('',#1102,3.);
#1102 = AXIS2_PLACEMENT_3D('',#1103,#1104,#1105);
#1103 = CARTESIAN_POINT('',(12.,-36.,12.5));
#1104 = DIRECTION('',(1.,0.,0.));
#1105 = DIRECTION('',(0.,1.,0.));
#1106 = FACE_BOUND('',#1107,.T.);
#1107 = EDGE_LOOP('',(#1108,#1109,#1110,#1111));
#1108 = ORIENTED_EDGE('',*,*,#983,.F.);
#1109 = ORIENTED_EDGE('',*,*,#1057,.T.);
#1110 = ORIENTED_EDGE('',*,*,#1032,.F.);
#1111 = ORIENTED_EDGE('',*,*,#1015,.T.);
#1112 = PLANE('',#1113);
#1113 = AXIS2_PLACEMENT_3D('',#1114,#1115,#1116);
#1114 = CARTESIAN_POINT('',(12.,-36.73079048984,8.130835344574));
#1115 = DIRECTION('',(1.,0.,0.));
#1116 = DIRECTION('',(0.,0.,1.));
#1117 = ADVANCED_FACE('',(#1118),#1144,.F.);
#1118 = FACE_BOUND('',#1119,.T.);
#1119 = EDGE_LOOP('',(#1120,#1128,#1137,#1143));
#1120 = ORIENTED_EDGE('',*,*,#1121,.T.);
#1121 = EDGE_CURVE('',#1074,#1122,#1124,.T.);
#1122 = VERTEX_POINT('',#1123);
#1123 = CARTESIAN_POINT('',(14.,-32.5,9.5));
#1124 = LINE('',#1125,#1126);
#1125 = CARTESIAN_POINT('',(12.,-32.5,9.5));
#1126 = VECTOR('',#1127,1.);
#1127 = DIRECTION('',(1.,-1.3E-16,-5.E-17));
#1128 = ORIENTED_EDGE('',*,*,#1129,.T.);
#1129 = EDGE_CURVE('',#1122,#1130,#1132,.T.);
#1130 = VERTEX_POINT('',#1131);
#1131 = CARTESIAN_POINT('',(14.,-32.5,15.5));
#1132 = CIRCLE('',#1133,3.);
#1133 = AXIS2_PLACEMENT_3D('',#1134,#1135,#1136);
#1134 = CARTESIAN_POINT('',(14.,-32.5,12.5));
#1135 = DIRECTION('',(1.,0.,0.));
#1136 = DIRECTION('',(0.,1.,0.));
#1137 = ORIENTED_EDGE('',*,*,#1138,.F.);
#1138 = EDGE_CURVE('',#1084,#1130,#1139,.T.);
#1139 = LINE('',#1140,#1141);
#1140 = CARTESIAN_POINT('',(12.,-32.5,15.5));
#1141 = VECTOR('',#1142,1.);
#1142 = DIRECTION('',(1.,-1.3E-16,-5.E-17));
#1143 = ORIENTED_EDGE('',*,*,#1083,.F.);
#1144 = CYLINDRICAL_SURFACE('',#1145,3.);
#1145 = AXIS2_PLACEMENT_3D('',#1146,#1147,#1148);
#1146 = CARTESIAN_POINT('',(12.,-32.5,12.5));
#1147 = DIRECTION('',(-1.,-5.E-17,-1.3E-16));
#1148 = DIRECTION('',(-5.E-17,1.,-1.3E-16));
#1149 = ADVANCED_FACE('',(#1150),#1168,.F.);
#1150 = FACE_BOUND('',#1151,.F.);
#1151 = EDGE_LOOP('',(#1152,#1153,#1161,#1167));
#1152 = ORIENTED_EDGE('',*,*,#1121,.T.);
#1153 = ORIENTED_EDGE('',*,*,#1154,.T.);
#1154 = EDGE_CURVE('',#1122,#1155,#1157,.T.);
#1155 = VERTEX_POINT('',#1156);
#1156 = CARTESIAN_POINT('',(14.,-36.,9.5));
#1157 = LINE('',#1158,#1159);
#1158 = CARTESIAN_POINT('',(14.,-32.5,9.5));
#1159 = VECTOR('',#1160,1.);
#1160 = DIRECTION('',(0.,-1.,0.));
#1161 = ORIENTED_EDGE('',*,*,#1162,.F.);
#1162 = EDGE_CURVE('',#1076,#1155,#1163,.T.);
#1163 = LINE('',#1164,#1165);
#1164 = CARTESIAN_POINT('',(12.,-36.,9.5));
#1165 = VECTOR('',#1166,1.);
#1166 = DIRECTION('',(1.,-1.3E-16,-5.E-17));
#1167 = ORIENTED_EDGE('',*,*,#1073,.F.);
#1168 = PLANE('',#1169);
#1169 = AXIS2_PLACEMENT_3D('',#1170,#1171,#1172);
#1170 = CARTESIAN_POINT('',(12.,-32.5,9.5));
#1171 = DIRECTION('',(-5.E-17,-1.3E-16,-1.));
#1172 = DIRECTION('',(5.E-17,-1.,1.3E-16));
#1173 = ADVANCED_FACE('',(#1174),#1193,.F.);
#1174 = FACE_BOUND('',#1175,.T.);
#1175 = EDGE_LOOP('',(#1176,#1184,#1191,#1192));
#1176 = ORIENTED_EDGE('',*,*,#1177,.T.);
#1177 = EDGE_CURVE('',#1093,#1178,#1180,.T.);
#1178 = VERTEX_POINT('',#1179);
#1179 = CARTESIAN_POINT('',(14.,-36.,15.5));
#1180 = LINE('',#1181,#1182);
#1181 = CARTESIAN_POINT('',(12.,-36.,15.5));
#1182 = VECTOR('',#1183,1.);
#1183 = DIRECTION('',(1.,-1.3E-16,-5.E-17));
#1184 = ORIENTED_EDGE('',*,*,#1185,.T.);
#1185 = EDGE_CURVE('',#1178,#1155,#1186,.T.);
#1186 = CIRCLE('',#1187,3.);
#1187 = AXIS2_PLACEMENT_3D('',#1188,#1189,#1190);
#1188 = CARTESIAN_POINT('',(14.,-36.,12.5));
#1189 = DIRECTION('',(1.,0.,0.));
#1190 = DIRECTION('',(0.,1.,0.));
#1191 = ORIENTED_EDGE('',*,*,#1162,.F.);
#1192 = ORIENTED_EDGE('',*,*,#1100,.F.);
#1193 = CYLINDRICAL_SURFACE('',#1194,3.);
#1194 = AXIS2_PLACEMENT_3D('',#1195,#1196,#1197);
#1195 = CARTESIAN_POINT('',(12.,-36.,12.5));
#1196 = DIRECTION('',(-1.,-5.E-17,-1.3E-16));
#1197 = DIRECTION('',(-5.E-17,1.,-1.3E-16));
#1198 = ADVANCED_FACE('',(#1199),#1210,.F.);
#1199 = FACE_BOUND('',#1200,.F.);
#1200 = EDGE_LOOP('',(#1201,#1202,#1208,#1209));
#1201 = ORIENTED_EDGE('',*,*,#1177,.T.);
#1202 = ORIENTED_EDGE('',*,*,#1203,.T.);
#1203 = EDGE_CURVE('',#1178,#1130,#1204,.T.);
#1204 = LINE('',#1205,#1206);
#1205 = CARTESIAN_POINT('',(14.,-36.,15.5));
#1206 = VECTOR('',#1207,1.);
#1207 = DIRECTION('',(0.,1.,0.));
#1208 = ORIENTED_EDGE('',*,*,#1138,.F.);
#1209 = ORIENTED_EDGE('',*,*,#1092,.F.);
#1210 = PLANE('',#1211);
#1211 = AXIS2_PLACEMENT_3D('',#1212,#1213,#1214);
#1212 = CARTESIAN_POINT('',(12.,-36.,15.5));
#1213 = DIRECTION('',(5.E-17,1.3E-16,1.));
#1214 = DIRECTION('',(-5.E-17,1.,-1.3E-16));
#1215 = ADVANCED_FACE('',(#1216),#1231,.T.);
#1216 = FACE_BOUND('',#1217,.T.);
#1217 = EDGE_LOOP('',(#1218,#1219,#1220,#1221,#1222,#1223,#1224,#1225));
#1218 = ORIENTED_EDGE('',*,*,#497,.F.);
#1219 = ORIENTED_EDGE('',*,*,#280,.T.);
#1220 = ORIENTED_EDGE('',*,*,#21,.T.);
#1221 = ORIENTED_EDGE('',*,*,#262,.T.);
#1222 = ORIENTED_EDGE('',*,*,#222,.F.);
#1223 = ORIENTED_EDGE('',*,*,#408,.F.);
#1224 = ORIENTED_EDGE('',*,*,#699,.T.);
#1225 = ORIENTED_EDGE('',*,*,#1226,.T.);
#1226 = EDGE_CURVE('',#700,#498,#1227,.T.);
#1227 = LINE('',#1228,#1229);
#1228 = CARTESIAN_POINT('',(14.,-55.99999999999,-3.961290700267));
#1229 = VECTOR('',#1230,1.);
#1230 = DIRECTION('',(-1.9E-16,1.9E-16,1.));
#1231 = PLANE('',#1232);
#1232 = AXIS2_PLACEMENT_3D('',#1233,#1234,#1235);
#1233 = CARTESIAN_POINT('',(14.38521400779,-55.99999999999,1.706E-14));
#1234 = DIRECTION('',(2.1538E-13,1.,-1.22E-15));
#1235 = DIRECTION('',(1.,-2.1538E-13,5.635743938822E-45));
#1236 = ADVANCED_FACE('',(#1237),#1262,.T.);
#1237 = FACE_BOUND('',#1238,.T.);
#1238 = EDGE_LOOP('',(#1239,#1240,#1248,#1256));
#1239 = ORIENTED_EDGE('',*,*,#374,.T.);
#1240 = ORIENTED_EDGE('',*,*,#1241,.T.);
#1241 = EDGE_CURVE('',#367,#1242,#1244,.T.);
#1242 = VERTEX_POINT('',#1243);
#1243 = CARTESIAN_POINT('',(14.,-40.,-17.2));
#1244 = LINE('',#1245,#1246);
#1245 = CARTESIAN_POINT('',(7.,-40.,-17.2));
#1246 = VECTOR('',#1247,1.);
#1247 = DIRECTION('',(1.,-3.5E-16,3.7E-16));
#1248 = ORIENTED_EDGE('',*,*,#1249,.T.);
#1249 = EDGE_CURVE('',#1242,#1250,#1252,.T.);
#1250 = VERTEX_POINT('',#1251);
#1251 = CARTESIAN_POINT('',(14.,-40.,-8.5));
#1252 = LINE('',#1253,#1254);
#1253 = CARTESIAN_POINT('',(14.,-40.,-17.2));
#1254 = VECTOR('',#1255,1.);
#1255 = DIRECTION('',(-4.8E-16,-6.9E-16,1.));
#1256 = ORIENTED_EDGE('',*,*,#1257,.F.);
#1257 = EDGE_CURVE('',#375,#1250,#1258,.T.);
#1258 = LINE('',#1259,#1260);
#1259 = CARTESIAN_POINT('',(12.,-40.,-8.5));
#1260 = VECTOR('',#1261,1.);
#1261 = DIRECTION('',(1.,-3.5E-16,3.7E-16));
#1262 = PLANE('',#1263);
#1263 = AXIS2_PLACEMENT_3D('',#1264,#1265,#1266);
#1264 = CARTESIAN_POINT('',(10.5,-40.,-12.85));
#1265 = DIRECTION('',(-6.28E-15,-1.,5.31E-15));
#1266 = DIRECTION('',(-1.,6.28E-15,-1.704895098322E-46));
#1267 = ADVANCED_FACE('',(#1268),#1295,.T.);
#1268 = FACE_BOUND('',#1269,.T.);
#1269 = EDGE_LOOP('',(#1270,#1271,#1272,#1273,#1281,#1289));
#1270 = ORIENTED_EDGE('',*,*,#1241,.F.);
#1271 = ORIENTED_EDGE('',*,*,#366,.T.);
#1272 = ORIENTED_EDGE('',*,*,#684,.T.);
#1273 = ORIENTED_EDGE('',*,*,#1274,.F.);
#1274 = EDGE_CURVE('',#1275,#676,#1277,.T.);
#1275 = VERTEX_POINT('',#1276);
#1276 = CARTESIAN_POINT('',(12.,-26.44999999998,-17.20000000001));
#1277 = LINE('',#1278,#1279);
#1278 = CARTESIAN_POINT('',(12.,-40.,-17.2));
#1279 = VECTOR('',#1280,1.);
#1280 = DIRECTION('',(-3.5E-16,1.,-1.3E-16));
#1281 = ORIENTED_EDGE('',*,*,#1282,.T.);
#1282 = EDGE_CURVE('',#1275,#1283,#1285,.T.);
#1283 = VERTEX_POINT('',#1284);
#1284 = CARTESIAN_POINT('',(14.,-26.44999999998,-17.20000000001));
#1285 = LINE('',#1286,#1287);
#1286 = CARTESIAN_POINT('',(12.,-26.44999999998,-17.20000000001));
#1287 = VECTOR('',#1288,1.);
#1288 = DIRECTION('',(1.,-3.1E-16,6.1E-16));
#1289 = ORIENTED_EDGE('',*,*,#1290,.T.);
#1290 = EDGE_CURVE('',#1283,#1242,#1291,.T.);
#1291 = LINE('',#1292,#1293);
#1292 = CARTESIAN_POINT('',(14.,-26.44999999998,-17.20000000001));
#1293 = VECTOR('',#1294,1.);
#1294 = DIRECTION('',(3.5E-16,-1.,1.33338E-12));
#1295 = PLANE('',#1296);
#1296 = AXIS2_PLACEMENT_3D('',#1297,#1298,#1299);
#1297 = CARTESIAN_POINT('',(10.154759212769,-28.15244899503,-17.2));
#1298 = DIRECTION('',(-1.00149E-12,-6.886E-14,-1.));
#1299 = DIRECTION('',(-1.,0.,1.00149E-12));
#1300 = ADVANCED_FACE('',(#1301,#1333,#1339),#1345,.T.);
#1301 = FACE_BOUND('',#1302,.T.);
#1302 = EDGE_LOOP('',(#1303,#1304,#1305,#1306,#1307,#1308,#1309,#1310,
    #1318,#1325,#1326,#1327));
#1303 = ORIENTED_EDGE('',*,*,#603,.T.);
#1304 = ORIENTED_EDGE('',*,*,#579,.T.);
#1305 = ORIENTED_EDGE('',*,*,#553,.F.);
#1306 = ORIENTED_EDGE('',*,*,#531,.T.);
#1307 = ORIENTED_EDGE('',*,*,#505,.F.);
#1308 = ORIENTED_EDGE('',*,*,#1226,.F.);
#1309 = ORIENTED_EDGE('',*,*,#707,.T.);
#1310 = ORIENTED_EDGE('',*,*,#1311,.F.);
#1311 = EDGE_CURVE('',#1312,#708,#1314,.T.);
#1312 = VERTEX_POINT('',#1313);
#1313 = CARTESIAN_POINT('',(14.,-41.,-7.5));
#1314 = LINE('',#1315,#1316);
#1315 = CARTESIAN_POINT('',(14.,-41.,-7.5));
#1316 = VECTOR('',#1317,1.);
#1317 = DIRECTION('',(3.5E-16,-1.,8.E-17));
#1318 = ORIENTED_EDGE('',*,*,#1319,.T.);
#1319 = EDGE_CURVE('',#1312,#1250,#1320,.T.);
#1320 = CIRCLE('',#1321,1.);
#1321 = AXIS2_PLACEMENT_3D('',#1322,#1323,#1324);
#1322 = CARTESIAN_POINT('',(14.,-41.,-8.5));
#1323 = DIRECTION('',(-1.,-3.5E-16,-4.8E-16));
#1324 = DIRECTION('',(-3.5E-16,1.,-1.3E-16));
#1325 = ORIENTED_EDGE('',*,*,#1249,.F.);
#1326 = ORIENTED_EDGE('',*,*,#1290,.F.);
#1327 = ORIENTED_EDGE('',*,*,#1328,.F.);
#1328 = EDGE_CURVE('',#604,#1283,#1329,.T.);
#1329 = LINE('',#1330,#1331);
#1330 = CARTESIAN_POINT('',(14.,-26.44999999998,1.278E-14));
#1331 = VECTOR('',#1332,1.);
#1332 = DIRECTION('',(5.5E-16,-5.E-17,-1.));
#1333 = FACE_BOUND('',#1334,.T.);
#1334 = EDGE_LOOP('',(#1335,#1336,#1337,#1338));
#1335 = ORIENTED_EDGE('',*,*,#885,.T.);
#1336 = ORIENTED_EDGE('',*,*,#941,.F.);
#1337 = ORIENTED_EDGE('',*,*,#958,.T.);
#1338 = ORIENTED_EDGE('',*,*,#910,.F.);
#1339 = FACE_BOUND('',#1340,.T.);
#1340 = EDGE_LOOP('',(#1341,#1342,#1343,#1344));
#1341 = ORIENTED_EDGE('',*,*,#1129,.F.);
#1342 = ORIENTED_EDGE('',*,*,#1154,.T.);
#1343 = ORIENTED_EDGE('',*,*,#1185,.F.);
#1344 = ORIENTED_EDGE('',*,*,#1203,.T.);
#1345 = PLANE('',#1346);
#1346 = AXIS2_PLACEMENT_3D('',#1347,#1348,#1349);
#1347 = CARTESIAN_POINT('',(14.,-39.58820783106,1.749E-14));
#1348 = DIRECTION('',(1.,2.6E-16,1.03E-15));
#1349 = DIRECTION('',(-1.03E-15,-1.670593043527E-47,1.));
#1350 = ADVANCED_FACE('',(#1351),#1362,.T.);
#1351 = FACE_BOUND('',#1352,.T.);
#1352 = EDGE_LOOP('',(#1353,#1354,#1360,#1361));
#1353 = ORIENTED_EDGE('',*,*,#391,.T.);
#1354 = ORIENTED_EDGE('',*,*,#1355,.T.);
#1355 = EDGE_CURVE('',#383,#1312,#1356,.T.);
#1356 = LINE('',#1357,#1358);
#1357 = CARTESIAN_POINT('',(7.,-40.99999999999,-7.5));
#1358 = VECTOR('',#1359,1.);
#1359 = DIRECTION('',(1.,-3.5E-16,3.7E-16));
#1360 = ORIENTED_EDGE('',*,*,#1311,.T.);
#1361 = ORIENTED_EDGE('',*,*,#716,.F.);
#1362 = PLANE('',#1363);
#1363 = AXIS2_PLACEMENT_3D('',#1364,#1365,#1366);
#1364 = CARTESIAN_POINT('',(10.5,-47.5,-7.500000000002));
#1365 = DIRECTION('',(-4.77E-15,3.2782E-13,-1.));
#1366 = DIRECTION('',(-4.82903137448E-44,-1.,-3.2782E-13));
#1367 = ADVANCED_FACE('',(#1368),#1379,.T.);
#1368 = FACE_BOUND('',#1369,.T.);
#1369 = EDGE_LOOP('',(#1370,#1371,#1372,#1373));
#1370 = ORIENTED_EDGE('',*,*,#611,.T.);
#1371 = ORIENTED_EDGE('',*,*,#1328,.T.);
#1372 = ORIENTED_EDGE('',*,*,#1282,.F.);
#1373 = ORIENTED_EDGE('',*,*,#1374,.F.);
#1374 = EDGE_CURVE('',#612,#1275,#1375,.T.);
#1375 = LINE('',#1376,#1377);
#1376 = CARTESIAN_POINT('',(12.,-26.44999999998,1.169E-14));
#1377 = VECTOR('',#1378,1.);
#1378 = DIRECTION('',(5.5E-16,-5.E-17,-1.));
#1379 = PLANE('',#1380);
#1380 = AXIS2_PLACEMENT_3D('',#1381,#1382,#1383);
#1381 = CARTESIAN_POINT('',(13.,-26.44999999998,1.562E-14));
#1382 = DIRECTION('',(8.4E-16,1.,-4.3E-16));
#1383 = DIRECTION('',(1.,-8.4E-16,2.129024592143E-47));
#1384 = ADVANCED_FACE('',(#1385),#1408,.T.);
#1385 = FACE_BOUND('',#1386,.T.);
#1386 = EDGE_LOOP('',(#1387,#1388,#1389,#1390,#1399,#1406,#1407));
#1387 = ORIENTED_EDGE('',*,*,#1374,.T.);
#1388 = ORIENTED_EDGE('',*,*,#1274,.T.);
#1389 = ORIENTED_EDGE('',*,*,#675,.F.);
#1390 = ORIENTED_EDGE('',*,*,#1391,.T.);
#1391 = EDGE_CURVE('',#668,#1392,#1394,.T.);
#1392 = VERTEX_POINT('',#1393);
#1393 = CARTESIAN_POINT('',(12.,-21.49999999999,1.2E-14));
#1394 = CIRCLE('',#1395,21.499999999999);
#1395 = AXIS2_PLACEMENT_3D('',#1396,#1397,#1398);
#1396 = CARTESIAN_POINT('',(12.,3.7983E-13,3.7993E-13));
#1397 = DIRECTION('',(-1.,-3.5E-16,-4.8E-16));
#1398 = DIRECTION('',(-3.5E-16,1.,-1.3E-16));
#1399 = ORIENTED_EDGE('',*,*,#1400,.F.);
#1400 = EDGE_CURVE('',#643,#1392,#1401,.T.);
#1401 = CIRCLE('',#1402,21.499999999999);
#1402 = AXIS2_PLACEMENT_3D('',#1403,#1404,#1405);
#1403 = CARTESIAN_POINT('',(12.,3.7983E-13,-3.6993E-13));
#1404 = DIRECTION('',(1.,0.,0.));
#1405 = DIRECTION('',(0.,1.,0.));
#1406 = ORIENTED_EDGE('',*,*,#650,.T.);
#1407 = ORIENTED_EDGE('',*,*,#619,.F.);
#1408 = PLANE('',#1409);
#1409 = AXIS2_PLACEMENT_3D('',#1410,#1411,#1412);
#1410 = CARTESIAN_POINT('',(12.,-22.00991035206,2.046E-14));
#1411 = DIRECTION('',(1.,3.9E-16,7.3E-16));
#1412 = DIRECTION('',(-7.3E-16,-1.432075567583E-47,1.));
#1413 = ADVANCED_FACE('',(#1414),#1422,.F.);
#1414 = FACE_BOUND('',#1415,.T.);
#1415 = EDGE_LOOP('',(#1416,#1417,#1418,#1419,#1420,#1421));
#1416 = ORIENTED_EDGE('',*,*,#1391,.F.);
#1417 = ORIENTED_EDGE('',*,*,#667,.F.);
#1418 = ORIENTED_EDGE('',*,*,#348,.T.);
#1419 = ORIENTED_EDGE('',*,*,#339,.F.);
#1420 = ORIENTED_EDGE('',*,*,#642,.T.);
#1421 = ORIENTED_EDGE('',*,*,#1400,.T.);
#1422 = CYLINDRICAL_SURFACE('',#1423,21.499999999999);
#1423 = AXIS2_PLACEMENT_3D('',#1424,#1425,#1426);
#1424 = CARTESIAN_POINT('',(7.,3.7721E-13,-3.689E-13));
#1425 = DIRECTION('',(-1.,3.4E-16,-3.2E-16));
#1426 = DIRECTION('',(3.4E-16,1.,-8.5E-16));
#1427 = ADVANCED_FACE('',(#1428),#1434,.F.);
#1428 = FACE_BOUND('',#1429,.F.);
#1429 = EDGE_LOOP('',(#1430,#1431,#1432,#1433));
#1430 = ORIENTED_EDGE('',*,*,#1257,.F.);
#1431 = ORIENTED_EDGE('',*,*,#382,.F.);
#1432 = ORIENTED_EDGE('',*,*,#1355,.T.);
#1433 = ORIENTED_EDGE('',*,*,#1319,.T.);
#1434 = CYLINDRICAL_SURFACE('',#1435,0.999999999999);
#1435 = AXIS2_PLACEMENT_3D('',#1436,#1437,#1438);
#1436 = CARTESIAN_POINT('',(7.,-40.99999999999,-8.499999999999));
#1437 = DIRECTION('',(-1.,1.8E-16,-1.9E-16));
#1438 = DIRECTION('',(1.8E-16,1.,-2.E-17));
#1439 = ( GEOMETRIC_REPRESENTATION_CONTEXT(3) 
GLOBAL_UNCERTAINTY_ASSIGNED_CONTEXT((#1443)) 
GLOBAL_UNIT_ASSIGNED_CONTEXT((#1440,#1441,#1442)) REPRESENTATION_CONTEXT
('Context #1','3D Context with UNIT and UNCERTAINTY') );
#1440 = ( LENGTH_UNIT() NAMED_UNIT(*) SI_UNIT(.MILLI.,.METRE.) );
#1441 = ( NAMED_UNIT(*) PLANE_ANGLE_UNIT() SI_UNIT($,.RADIAN.) );
#1442 = ( NAMED_UNIT(*) SI_UNIT($,.STERADIAN.) SOLID_ANGLE_UNIT() );
#1443 = UNCERTAINTY_MEASURE_WITH_UNIT(LENGTH_MEASURE(2.E-05),#1440,
  'distance_accuracy_value','confusion accuracy');
#1444 = PRODUCT_RELATED_PRODUCT_CATEGORY('part',$,(#7));
ENDSEC;
END-ISO-10303-21;
