ISO-10303-21;
HEADER;
FILE_DESCRIPTION(('FreeCAD Model'),'2;1');
FILE_NAME('Open CASCADE Shape Model','2026-10-06T20:35:11',('FreeCAD'),(
    'FreeCAD'),'Open CASCADE STEP processor 8.0','FreeCAD','Unknown');
FILE_SCHEMA(('AUTOMOTIVE_DESIGN { 1 0 10303 214 1 1 1 1 }'));
ENDSEC;
DATA;
#1 = APPLICATION_PROTOCOL_DEFINITION('international standard',
  'automotive_design',2000,#2);
#2 = APPLICATION_CONTEXT(
  'core data for automotive mechanical design processes');
#3 = SHAPE_DEFINITION_REPRESENTATION(#4,#10);
#4 = PRODUCT_DEFINITION_SHAPE('','',#5);
#5 = PRODUCT_DEFINITION('design','',#6,#9);
#6 = PRODUCT_DEFINITION_FORMATION('','',#7);
#7 = PRODUCT('Open CASCADE STEP translator 8.0 42',
  'Open CASCADE STEP translator 8.0 42','',(#8));
#8 = PRODUCT_CONTEXT('',#2,'mechanical');
#9 = PRODUCT_DEFINITION_CONTEXT('part definition',#2,'design');
#10 = ADVANCED_BREP_SHAPE_REPRESENTATION('',(#11,#15),#1027);
#11 = AXIS2_PLACEMENT_3D('',#12,#13,#14);
#12 = CARTESIAN_POINT('',(0.,0.,0.));
#13 = DIRECTION('',(0.,0.,1.));
#14 = DIRECTION('',(1.,0.,-0.));
#15 = MANIFOLD_SOLID_BREP('',#16);
#16 = CLOSED_SHELL('',(#17,#57,#90,#123,#232,#419,#436,#453,#470,#487,
    #499,#524,#546,#563,#580,#592,#617,#648,#672,#696,#720,#744,#761,
    #792,#816,#840,#864,#888,#905,#925,#945,#970,#995,#1011));
#17 = ADVANCED_FACE('',(#18),#52,.F.);
#18 = FACE_BOUND('',#19,.F.);
#19 = EDGE_LOOP('',(#20,#30,#38,#46));
#20 = ORIENTED_EDGE('',*,*,#21,.T.);
#21 = EDGE_CURVE('',#22,#24,#26,.T.);
#22 = VERTEX_POINT('',#23);
#23 = CARTESIAN_POINT('',(-61.72012387245,133.75000000002,1.095588715397
    ));
#24 = VERTEX_POINT('',#25);
#25 = CARTESIAN_POINT('',(-73.90564094188,133.75000000002,
    -0.508665041188));
#26 = LINE('',#27,#28);
#27 = CARTESIAN_POINT('',(-61.72012387245,133.75000000002,1.095588715397
    ));
#28 = VECTOR('',#29,1.);
#29 = DIRECTION('',(-0.991444861374,6.040778529202E-16,-0.13052619222));
#30 = ORIENTED_EDGE('',*,*,#31,.T.);
#31 = EDGE_CURVE('',#24,#32,#34,.T.);
#32 = VERTEX_POINT('',#33);
#33 = CARTESIAN_POINT('',(-73.90564094188,229.24999999997,
    -0.508665041188));
#34 = LINE('',#35,#36);
#35 = CARTESIAN_POINT('',(-73.90564094188,133.75000000002,
    -0.508665041188));
#36 = VECTOR('',#37,1.);
#37 = DIRECTION('',(-1.818801604236E-15,1.,1.257300195663E-15));
#38 = ORIENTED_EDGE('',*,*,#39,.F.);
#39 = EDGE_CURVE('',#40,#32,#42,.T.);
#40 = VERTEX_POINT('',#41);
#41 = CARTESIAN_POINT('',(-61.72012387245,229.24999999997,1.095588715397
    ));
#42 = LINE('',#43,#44);
#43 = CARTESIAN_POINT('',(-61.72012387245,229.24999999997,1.095588715397
    ));
#44 = VECTOR('',#45,1.);
#45 = DIRECTION('',(-0.991444861374,6.040778529202E-16,-0.13052619222));
#46 = ORIENTED_EDGE('',*,*,#47,.F.);
#47 = EDGE_CURVE('',#22,#40,#48,.T.);
#48 = LINE('',#49,#50);
#49 = CARTESIAN_POINT('',(-61.72012387245,133.75000000002,1.095588715398
    ));
#50 = VECTOR('',#51,1.);
#51 = DIRECTION('',(-1.818801604236E-15,1.,1.257300195663E-15));
#52 = PLANE('',#53);
#53 = AXIS2_PLACEMENT_3D('',#54,#55,#56);
#54 = CARTESIAN_POINT('',(-61.72012387245,133.75000000002,1.095588715398
    ));
#55 = DIRECTION('',(0.13052619222,-7.442829467791E-16,-0.991444861374));
#56 = DIRECTION('',(-1.666954949063E-15,1.,1.092666364345E-15));
#57 = ADVANCED_FACE('',(#58),#85,.T.);
#58 = FACE_BOUND('',#59,.F.);
#59 = EDGE_LOOP('',(#60,#70,#77,#78));
#60 = ORIENTED_EDGE('',*,*,#61,.T.);
#61 = EDGE_CURVE('',#62,#64,#66,.T.);
#62 = VERTEX_POINT('',#63);
#63 = CARTESIAN_POINT('',(-61.32854529578,130.75,-1.878745868745));
#64 = VERTEX_POINT('',#65);
#65 = CARTESIAN_POINT('',(-73.51406236522,130.75,-3.482999625331));
#66 = LINE('',#67,#68);
#67 = CARTESIAN_POINT('',(-61.32854529578,130.75,-1.878745868745));
#68 = VECTOR('',#69,1.);
#69 = DIRECTION('',(-0.991444861374,6.040778529202E-16,-0.13052619222));
#70 = ORIENTED_EDGE('',*,*,#71,.T.);
#71 = EDGE_CURVE('',#64,#24,#72,.T.);
#72 = CIRCLE('',#73,3.000000000012);
#73 = AXIS2_PLACEMENT_3D('',#74,#75,#76);
#74 = CARTESIAN_POINT('',(-73.51406236522,133.75000000001,
    -3.482999625323));
#75 = DIRECTION('',(-0.991444861374,-1.639130897361E-15,-0.13052619222)
  );
#76 = DIRECTION('',(-1.818801604236E-15,1.,1.257300195663E-15));
#77 = ORIENTED_EDGE('',*,*,#21,.F.);
#78 = ORIENTED_EDGE('',*,*,#79,.F.);
#79 = EDGE_CURVE('',#62,#22,#80,.T.);
#80 = CIRCLE('',#81,3.000000000012);
#81 = AXIS2_PLACEMENT_3D('',#82,#83,#84);
#82 = CARTESIAN_POINT('',(-61.32854529578,133.75000000001,
    -1.878745868737));
#83 = DIRECTION('',(-0.991444861374,-1.639130897361E-15,-0.13052619222)
  );
#84 = DIRECTION('',(-1.818801604236E-15,1.,1.257300195663E-15));
#85 = CYLINDRICAL_SURFACE('',#86,3.000000000012);
#86 = AXIS2_PLACEMENT_3D('',#87,#88,#89);
#87 = CARTESIAN_POINT('',(-61.32854529578,133.75000000001,
    -1.878745868737));
#88 = DIRECTION('',(0.991444861374,-2.406041298029E-16,0.13052619222));
#89 = DIRECTION('',(-1.666954949063E-15,1.,1.092666364345E-15));
#90 = ADVANCED_FACE('',(#91),#118,.T.);
#91 = FACE_BOUND('',#92,.F.);
#92 = EDGE_LOOP('',(#93,#94,#103,#111));
#93 = ORIENTED_EDGE('',*,*,#39,.T.);
#94 = ORIENTED_EDGE('',*,*,#95,.T.);
#95 = EDGE_CURVE('',#32,#96,#98,.T.);
#96 = VERTEX_POINT('',#97);
#97 = CARTESIAN_POINT('',(-73.51406236522,232.24999999999,-3.48299962533
    ));
#98 = CIRCLE('',#99,3.000000000012);
#99 = AXIS2_PLACEMENT_3D('',#100,#101,#102);
#100 = CARTESIAN_POINT('',(-73.51406236522,229.24999999998,
    -3.482999625323));
#101 = DIRECTION('',(-0.991444861374,-1.639130897361E-15,-0.13052619222)
  );
#102 = DIRECTION('',(-1.818801604236E-15,1.,1.257300195663E-15));
#103 = ORIENTED_EDGE('',*,*,#104,.F.);
#104 = EDGE_CURVE('',#105,#96,#107,.T.);
#105 = VERTEX_POINT('',#106);
#106 = CARTESIAN_POINT('',(-61.32854529578,232.24999999999,
    -1.878745868745));
#107 = LINE('',#108,#109);
#108 = CARTESIAN_POINT('',(-61.32854529578,232.24999999999,
    -1.878745868745));
#109 = VECTOR('',#110,1.);
#110 = DIRECTION('',(-0.991444861374,6.040778529202E-16,-0.13052619222)
  );
#111 = ORIENTED_EDGE('',*,*,#112,.F.);
#112 = EDGE_CURVE('',#40,#105,#113,.T.);
#113 = CIRCLE('',#114,3.000000000012);
#114 = AXIS2_PLACEMENT_3D('',#115,#116,#117);
#115 = CARTESIAN_POINT('',(-61.32854529578,229.24999999998,
    -1.878745868737));
#116 = DIRECTION('',(-0.991444861374,-1.639130897361E-15,-0.13052619222)
  );
#117 = DIRECTION('',(-1.818801604236E-15,1.,1.257300195663E-15));
#118 = CYLINDRICAL_SURFACE('',#119,3.000000000012);
#119 = AXIS2_PLACEMENT_3D('',#120,#121,#122);
#120 = CARTESIAN_POINT('',(-61.32854529578,229.24999999998,
    -1.878745868737));
#121 = DIRECTION('',(0.991444861374,-2.406041298029E-16,0.13052619222));
#122 = DIRECTION('',(-1.666954949063E-15,1.,1.092666364345E-15));
#123 = ADVANCED_FACE('',(#124,#169,#180,#216),#227,.T.);
#124 = FACE_BOUND('',#125,.T.);
#125 = EDGE_LOOP('',(#126,#127,#128,#136,#145,#153,#162,#168));
#126 = ORIENTED_EDGE('',*,*,#47,.F.);
#127 = ORIENTED_EDGE('',*,*,#79,.F.);
#128 = ORIENTED_EDGE('',*,*,#129,.F.);
#129 = EDGE_CURVE('',#130,#62,#132,.T.);
#130 = VERTEX_POINT('',#131);
#131 = CARTESIAN_POINT('',(-59.50117860471,130.75,-15.75897392793));
#132 = LINE('',#133,#134);
#133 = CARTESIAN_POINT('',(-59.50117860471,130.75,-15.75897392793));
#134 = VECTOR('',#135,1.);
#135 = DIRECTION('',(-0.13052619222,1.083491431544E-15,0.991444861374));
#136 = ORIENTED_EDGE('',*,*,#137,.F.);
#137 = EDGE_CURVE('',#138,#130,#140,.T.);
#138 = VERTEX_POINT('',#139);
#139 = CARTESIAN_POINT('',(-59.10960002805,133.75000000002,
    -18.73330851207));
#140 = CIRCLE('',#141,3.000000000012);
#141 = AXIS2_PLACEMENT_3D('',#142,#143,#144);
#142 = CARTESIAN_POINT('',(-59.50117860471,133.75000000001,
    -15.75897392793));
#143 = DIRECTION('',(-0.991444861374,-1.639130897361E-15,-0.13052619222)
  );
#144 = DIRECTION('',(-1.818801604236E-15,1.,1.257300195663E-15));
#145 = ORIENTED_EDGE('',*,*,#146,.F.);
#146 = EDGE_CURVE('',#147,#138,#149,.T.);
#147 = VERTEX_POINT('',#148);
#148 = CARTESIAN_POINT('',(-59.10960002805,229.24999999997,
    -18.73330851207));
#149 = LINE('',#150,#151);
#150 = CARTESIAN_POINT('',(-59.10960002805,229.24999999997,
    -18.73330851207));
#151 = VECTOR('',#152,1.);
#152 = DIRECTION('',(1.818801604236E-15,-1.,-1.257300195663E-15));
#153 = ORIENTED_EDGE('',*,*,#154,.F.);
#154 = EDGE_CURVE('',#155,#147,#157,.T.);
#155 = VERTEX_POINT('',#156);
#156 = CARTESIAN_POINT('',(-59.50117860471,232.24999999999,
    -15.75897392793));
#157 = CIRCLE('',#158,3.000000000012);
#158 = AXIS2_PLACEMENT_3D('',#159,#160,#161);
#159 = CARTESIAN_POINT('',(-59.50117860471,229.24999999998,
    -15.75897392793));
#160 = DIRECTION('',(-0.991444861374,-1.639130897361E-15,-0.13052619222)
  );
#161 = DIRECTION('',(-1.818801604236E-15,1.,1.257300195663E-15));
#162 = ORIENTED_EDGE('',*,*,#163,.F.);
#163 = EDGE_CURVE('',#105,#155,#164,.T.);
#164 = LINE('',#165,#166);
#165 = CARTESIAN_POINT('',(-61.32854529578,232.24999999999,
    -1.878745868745));
#166 = VECTOR('',#167,1.);
#167 = DIRECTION('',(0.13052619222,-1.083491431544E-15,-0.991444861374)
  );
#168 = ORIENTED_EDGE('',*,*,#112,.F.);
#169 = FACE_BOUND('',#170,.T.);
#170 = EDGE_LOOP('',(#171));
#171 = ORIENTED_EDGE('',*,*,#172,.T.);
#172 = EDGE_CURVE('',#173,#173,#175,.T.);
#173 = VERTEX_POINT('',#174);
#174 = CARTESIAN_POINT('',(-60.41486195025,231.25,-8.818859898338));
#175 = CIRCLE('',#176,8.);
#176 = AXIS2_PLACEMENT_3D('',#177,#178,#179);
#177 = CARTESIAN_POINT('',(-60.41486195025,223.25,-8.818859898338));
#178 = DIRECTION('',(-0.991444861374,-3.337072740107E-16,-0.13052619222)
  );
#179 = DIRECTION('',(-3.637603208472E-16,1.,2.064032238031E-16));
#180 = FACE_BOUND('',#181,.T.);
#181 = EDGE_LOOP('',(#182,#192,#201,#209));
#182 = ORIENTED_EDGE('',*,*,#183,.F.);
#183 = EDGE_CURVE('',#184,#186,#188,.T.);
#184 = VERTEX_POINT('',#185);
#185 = CARTESIAN_POINT('',(-59.63170479693,156.24999999998,
    -14.76752906658));
#186 = VERTEX_POINT('',#187);
#187 = CARTESIAN_POINT('',(-59.63170479693,206.75000000001,
    -14.76752906658));
#188 = LINE('',#189,#190);
#189 = CARTESIAN_POINT('',(-59.63170479693,181.5,-14.76752906658));
#190 = VECTOR('',#191,1.);
#191 = DIRECTION('',(-4.331742661237E-16,1.,1.9726470454E-16));
#192 = ORIENTED_EDGE('',*,*,#193,.T.);
#193 = EDGE_CURVE('',#184,#194,#196,.T.);
#194 = VERTEX_POINT('',#195);
#195 = CARTESIAN_POINT('',(-61.19801910357,156.24999999998,
    -2.870190730095));
#196 = CIRCLE('',#197,6.);
#197 = AXIS2_PLACEMENT_3D('',#198,#199,#200);
#198 = CARTESIAN_POINT('',(-60.41486195025,156.25,-8.818859898338));
#199 = DIRECTION('',(-0.991444861374,-5.310046209729E-16,-0.13052619222)
  );
#200 = DIRECTION('',(-5.756739865217E-16,1.,3.044936354505E-16));
#201 = ORIENTED_EDGE('',*,*,#202,.F.);
#202 = EDGE_CURVE('',#203,#194,#205,.T.);
#203 = VERTEX_POINT('',#204);
#204 = CARTESIAN_POINT('',(-61.19801910357,206.75000000001,
    -2.870190730095));
#205 = LINE('',#206,#207);
#206 = CARTESIAN_POINT('',(-61.19801910357,181.5,-2.870190730095));
#207 = VECTOR('',#208,1.);
#208 = DIRECTION('',(4.331742661237E-16,-1.,-1.9726470454E-16));
#209 = ORIENTED_EDGE('',*,*,#210,.T.);
#210 = EDGE_CURVE('',#203,#186,#211,.T.);
#211 = CIRCLE('',#212,6.);
#212 = AXIS2_PLACEMENT_3D('',#213,#214,#215);
#213 = CARTESIAN_POINT('',(-60.41486195025,206.75,-8.818859898338));
#214 = DIRECTION('',(-0.991444861374,-5.310046209729E-16,-0.13052619222)
  );
#215 = DIRECTION('',(-5.756739865217E-16,1.,3.044936354505E-16));
#216 = FACE_BOUND('',#217,.T.);
#217 = EDGE_LOOP('',(#218));
#218 = ORIENTED_EDGE('',*,*,#219,.T.);
#219 = EDGE_CURVE('',#220,#220,#222,.T.);
#220 = VERTEX_POINT('',#221);
#221 = CARTESIAN_POINT('',(-60.41486195025,147.75,-8.818859898338));
#222 = CIRCLE('',#223,8.);
#223 = AXIS2_PLACEMENT_3D('',#224,#225,#226);
#224 = CARTESIAN_POINT('',(-60.41486195025,139.75,-8.818859898338));
#225 = DIRECTION('',(-0.991444861374,-3.337072740107E-16,-0.13052619222)
  );
#226 = DIRECTION('',(-3.637603208472E-16,1.,2.064032238031E-16));
#227 = PLANE('',#228);
#228 = AXIS2_PLACEMENT_3D('',#229,#230,#231);
#229 = CARTESIAN_POINT('',(-60.41486195025,181.5,-8.818859898337));
#230 = DIRECTION('',(0.991444861374,-5.523260990827E-16,0.13052619222));
#231 = DIRECTION('',(-0.13052619222,1.045131666277E-15,0.991444861374));
#232 = ADVANCED_FACE('',(#233,#278,#328,#364),#414,.F.);
#233 = FACE_BOUND('',#234,.F.);
#234 = EDGE_LOOP('',(#235,#236,#237,#245,#254,#262,#271,#277));
#235 = ORIENTED_EDGE('',*,*,#31,.F.);
#236 = ORIENTED_EDGE('',*,*,#71,.F.);
#237 = ORIENTED_EDGE('',*,*,#238,.F.);
#238 = EDGE_CURVE('',#239,#64,#241,.T.);
#239 = VERTEX_POINT('',#240);
#240 = CARTESIAN_POINT('',(-71.68669567415,130.75,-17.36322768451));
#241 = LINE('',#242,#243);
#242 = CARTESIAN_POINT('',(-71.68669567415,130.75,-17.36322768451));
#243 = VECTOR('',#244,1.);
#244 = DIRECTION('',(-0.13052619222,1.083491431544E-15,0.991444861374));
#245 = ORIENTED_EDGE('',*,*,#246,.F.);
#246 = EDGE_CURVE('',#247,#239,#249,.T.);
#247 = VERTEX_POINT('',#248);
#248 = CARTESIAN_POINT('',(-71.29511709748,133.75000000002,
    -20.33756226865));
#249 = CIRCLE('',#250,3.000000000012);
#250 = AXIS2_PLACEMENT_3D('',#251,#252,#253);
#251 = CARTESIAN_POINT('',(-71.68669567415,133.75000000001,
    -17.36322768452));
#252 = DIRECTION('',(-0.991444861374,-1.639130897361E-15,-0.13052619222)
  );
#253 = DIRECTION('',(-1.818801604236E-15,1.,1.257300195663E-15));
#254 = ORIENTED_EDGE('',*,*,#255,.F.);
#255 = EDGE_CURVE('',#256,#247,#258,.T.);
#256 = VERTEX_POINT('',#257);
#257 = CARTESIAN_POINT('',(-71.29511709748,229.24999999997,
    -20.33756226865));
#258 = LINE('',#259,#260);
#259 = CARTESIAN_POINT('',(-71.29511709748,229.24999999997,
    -20.33756226865));
#260 = VECTOR('',#261,1.);
#261 = DIRECTION('',(1.818801604236E-15,-1.,-1.257300195663E-15));
#262 = ORIENTED_EDGE('',*,*,#263,.F.);
#263 = EDGE_CURVE('',#264,#256,#266,.T.);
#264 = VERTEX_POINT('',#265);
#265 = CARTESIAN_POINT('',(-71.68669567415,232.24999999999,
    -17.36322768451));
#266 = CIRCLE('',#267,3.000000000012);
#267 = AXIS2_PLACEMENT_3D('',#268,#269,#270);
#268 = CARTESIAN_POINT('',(-71.68669567415,229.24999999998,
    -17.36322768452));
#269 = DIRECTION('',(-0.991444861374,-1.639130897361E-15,-0.13052619222)
  );
#270 = DIRECTION('',(-1.818801604236E-15,1.,1.257300195663E-15));
#271 = ORIENTED_EDGE('',*,*,#272,.F.);
#272 = EDGE_CURVE('',#96,#264,#273,.T.);
#273 = LINE('',#274,#275);
#274 = CARTESIAN_POINT('',(-73.51406236522,232.24999999999,
    -3.48299962533));
#275 = VECTOR('',#276,1.);
#276 = DIRECTION('',(0.13052619222,-1.083491431544E-15,-0.991444861374)
  );
#277 = ORIENTED_EDGE('',*,*,#95,.F.);
#278 = FACE_BOUND('',#279,.F.);
#279 = EDGE_LOOP('',(#280,#290,#298,#306,#314,#322));
#280 = ORIENTED_EDGE('',*,*,#281,.T.);
#281 = EDGE_CURVE('',#282,#284,#286,.T.);
#282 = VERTEX_POINT('',#283);
#283 = CARTESIAN_POINT('',(-73.07027331168,225.32846096908,
    -6.853912153977));
#284 = VERTEX_POINT('',#285);
#285 = CARTESIAN_POINT('',(-72.60037901968,227.40692193816,
    -10.42311365492));
#286 = LINE('',#287,#288);
#287 = CARTESIAN_POINT('',(-73.07027331168,225.32846096908,
    -6.853912153977));
#288 = VECTOR('',#289,1.);
#289 = DIRECTION('',(0.113038998322,0.5,-0.858616436401));
#290 = ORIENTED_EDGE('',*,*,#291,.T.);
#291 = EDGE_CURVE('',#284,#292,#294,.T.);
#292 = VERTEX_POINT('',#293);
#293 = CARTESIAN_POINT('',(-72.13048472769,225.32846096908,
    -13.99231515586));
#294 = LINE('',#295,#296);
#295 = CARTESIAN_POINT('',(-72.60037901968,227.40692193816,
    -10.42311365492));
#296 = VECTOR('',#297,1.);
#297 = DIRECTION('',(0.113038998322,-0.5,-0.858616436401));
#298 = ORIENTED_EDGE('',*,*,#299,.T.);
#299 = EDGE_CURVE('',#292,#300,#302,.T.);
#300 = VERTEX_POINT('',#301);
#301 = CARTESIAN_POINT('',(-72.13048472769,221.17153903091,
    -13.99231515586));
#302 = LINE('',#303,#304);
#303 = CARTESIAN_POINT('',(-72.13048472769,225.32846096908,
    -13.99231515586));
#304 = VECTOR('',#305,1.);
#305 = DIRECTION('',(1.147058073038E-15,-1.,-1.155520926184E-15));
#306 = ORIENTED_EDGE('',*,*,#307,.T.);
#307 = EDGE_CURVE('',#300,#308,#310,.T.);
#308 = VERTEX_POINT('',#309);
#309 = CARTESIAN_POINT('',(-72.60037901968,219.09307806183,
    -10.42311365492));
#310 = LINE('',#311,#312);
#311 = CARTESIAN_POINT('',(-72.13048472769,221.17153903091,
    -13.99231515586));
#312 = VECTOR('',#313,1.);
#313 = DIRECTION('',(-0.113038998322,-0.5,0.858616436401));
#314 = ORIENTED_EDGE('',*,*,#315,.T.);
#315 = EDGE_CURVE('',#308,#316,#318,.T.);
#316 = VERTEX_POINT('',#317);
#317 = CARTESIAN_POINT('',(-73.07027331168,221.17153903091,
    -6.853912153977));
#318 = LINE('',#319,#320);
#319 = CARTESIAN_POINT('',(-72.60037901968,219.09307806183,
    -10.42311365492));
#320 = VECTOR('',#321,1.);
#321 = DIRECTION('',(-0.113038998322,0.5,0.858616436401));
#322 = ORIENTED_EDGE('',*,*,#323,.T.);
#323 = EDGE_CURVE('',#316,#282,#324,.T.);
#324 = LINE('',#325,#326);
#325 = CARTESIAN_POINT('',(-73.07027331168,221.17153903091,
    -6.853912153977));
#326 = VECTOR('',#327,1.);
#327 = DIRECTION('',(-1.091280962542E-15,1.,7.318517097329E-16));
#328 = FACE_BOUND('',#329,.F.);
#329 = EDGE_LOOP('',(#330,#340,#349,#357));
#330 = ORIENTED_EDGE('',*,*,#331,.F.);
#331 = EDGE_CURVE('',#332,#334,#336,.T.);
#332 = VERTEX_POINT('',#333);
#333 = CARTESIAN_POINT('',(-71.81722186636,156.24999999998,
    -16.37178282316));
#334 = VERTEX_POINT('',#335);
#335 = CARTESIAN_POINT('',(-71.81722186636,206.75000000001,
    -16.37178282316));
#336 = LINE('',#337,#338);
#337 = CARTESIAN_POINT('',(-71.81722186636,181.5,-16.37178282316));
#338 = VECTOR('',#339,1.);
#339 = DIRECTION('',(-4.331742661237E-16,1.,1.9726470454E-16));
#340 = ORIENTED_EDGE('',*,*,#341,.T.);
#341 = EDGE_CURVE('',#332,#342,#344,.T.);
#342 = VERTEX_POINT('',#343);
#343 = CARTESIAN_POINT('',(-73.383536173,156.24999999998,-4.47444448668)
  );
#344 = CIRCLE('',#345,6.);
#345 = AXIS2_PLACEMENT_3D('',#346,#347,#348);
#346 = CARTESIAN_POINT('',(-72.60037901968,156.25,-10.42311365492));
#347 = DIRECTION('',(-0.991444861374,-5.310046209729E-16,-0.13052619222)
  );
#348 = DIRECTION('',(-5.756739865217E-16,1.,3.044936354505E-16));
#349 = ORIENTED_EDGE('',*,*,#350,.F.);
#350 = EDGE_CURVE('',#351,#342,#353,.T.);
#351 = VERTEX_POINT('',#352);
#352 = CARTESIAN_POINT('',(-73.383536173,206.75000000001,-4.47444448668)
  );
#353 = LINE('',#354,#355);
#354 = CARTESIAN_POINT('',(-73.383536173,181.5,-4.47444448668));
#355 = VECTOR('',#356,1.);
#356 = DIRECTION('',(4.331742661237E-16,-1.,-1.9726470454E-16));
#357 = ORIENTED_EDGE('',*,*,#358,.T.);
#358 = EDGE_CURVE('',#351,#334,#359,.T.);
#359 = CIRCLE('',#360,6.);
#360 = AXIS2_PLACEMENT_3D('',#361,#362,#363);
#361 = CARTESIAN_POINT('',(-72.60037901968,206.75,-10.42311365492));
#362 = DIRECTION('',(-0.991444861374,-5.310046209729E-16,-0.13052619222)
  );
#363 = DIRECTION('',(-5.756739865217E-16,1.,3.044936354505E-16));
#364 = FACE_BOUND('',#365,.F.);
#365 = EDGE_LOOP('',(#366,#376,#384,#392,#400,#408));
#366 = ORIENTED_EDGE('',*,*,#367,.T.);
#367 = EDGE_CURVE('',#368,#370,#372,.T.);
#368 = VERTEX_POINT('',#369);
#369 = CARTESIAN_POINT('',(-73.07027331168,141.82846096908,
    -6.853912153977));
#370 = VERTEX_POINT('',#371);
#371 = CARTESIAN_POINT('',(-72.60037901968,143.90692193816,
    -10.42311365492));
#372 = LINE('',#373,#374);
#373 = CARTESIAN_POINT('',(-73.07027331168,141.82846096908,
    -6.853912153977));
#374 = VECTOR('',#375,1.);
#375 = DIRECTION('',(0.113038998322,0.5,-0.858616436401));
#376 = ORIENTED_EDGE('',*,*,#377,.T.);
#377 = EDGE_CURVE('',#370,#378,#380,.T.);
#378 = VERTEX_POINT('',#379);
#379 = CARTESIAN_POINT('',(-72.13048472769,141.82846096908,
    -13.99231515586));
#380 = LINE('',#381,#382);
#381 = CARTESIAN_POINT('',(-72.60037901968,143.90692193816,
    -10.42311365492));
#382 = VECTOR('',#383,1.);
#383 = DIRECTION('',(0.113038998322,-0.5,-0.858616436401));
#384 = ORIENTED_EDGE('',*,*,#385,.T.);
#385 = EDGE_CURVE('',#378,#386,#388,.T.);
#386 = VERTEX_POINT('',#387);
#387 = CARTESIAN_POINT('',(-72.13048472769,137.67153903091,
    -13.99231515586));
#388 = LINE('',#389,#390);
#389 = CARTESIAN_POINT('',(-72.13048472769,141.82846096908,
    -13.99231515586));
#390 = VECTOR('',#391,1.);
#391 = DIRECTION('',(1.147058073038E-15,-1.,-1.155520926184E-15));
#392 = ORIENTED_EDGE('',*,*,#393,.T.);
#393 = EDGE_CURVE('',#386,#394,#396,.T.);
#394 = VERTEX_POINT('',#395);
#395 = CARTESIAN_POINT('',(-72.60037901968,135.59307806183,
    -10.42311365492));
#396 = LINE('',#397,#398);
#397 = CARTESIAN_POINT('',(-72.13048472769,137.67153903091,
    -13.99231515586));
#398 = VECTOR('',#399,1.);
#399 = DIRECTION('',(-0.113038998322,-0.5,0.858616436401));
#400 = ORIENTED_EDGE('',*,*,#401,.T.);
#401 = EDGE_CURVE('',#394,#402,#404,.T.);
#402 = VERTEX_POINT('',#403);
#403 = CARTESIAN_POINT('',(-73.07027331168,137.67153903091,
    -6.853912153977));
#404 = LINE('',#405,#406);
#405 = CARTESIAN_POINT('',(-72.60037901968,135.59307806183,
    -10.42311365492));
#406 = VECTOR('',#407,1.);
#407 = DIRECTION('',(-0.113038998322,0.5,0.858616436401));
#408 = ORIENTED_EDGE('',*,*,#409,.T.);
#409 = EDGE_CURVE('',#402,#368,#410,.T.);
#410 = LINE('',#411,#412);
#411 = CARTESIAN_POINT('',(-73.07027331168,137.67153903091,
    -6.853912153977));
#412 = VECTOR('',#413,1.);
#413 = DIRECTION('',(-1.091280962542E-15,1.,7.318517097329E-16));
#414 = PLANE('',#415);
#415 = AXIS2_PLACEMENT_3D('',#416,#417,#418);
#416 = CARTESIAN_POINT('',(-72.60037901968,181.5,-10.42311365492));
#417 = DIRECTION('',(0.991444861374,-5.523260990827E-16,0.13052619222));
#418 = DIRECTION('',(-0.13052619222,1.045131666277E-15,0.991444861374));
#419 = ADVANCED_FACE('',(#420),#431,.F.);
#420 = FACE_BOUND('',#421,.F.);
#421 = EDGE_LOOP('',(#422,#428,#429,#430));
#422 = ORIENTED_EDGE('',*,*,#423,.T.);
#423 = EDGE_CURVE('',#130,#239,#424,.T.);
#424 = LINE('',#425,#426);
#425 = CARTESIAN_POINT('',(-59.50117860471,130.75,-15.75897392793));
#426 = VECTOR('',#427,1.);
#427 = DIRECTION('',(-0.991444861374,6.040778529202E-16,-0.13052619222)
  );
#428 = ORIENTED_EDGE('',*,*,#238,.T.);
#429 = ORIENTED_EDGE('',*,*,#61,.F.);
#430 = ORIENTED_EDGE('',*,*,#129,.F.);
#431 = PLANE('',#432);
#432 = AXIS2_PLACEMENT_3D('',#433,#434,#435);
#433 = CARTESIAN_POINT('',(-59.50117860471,130.75,-15.75897392793));
#434 = DIRECTION('',(-1.286770828333E-15,1.,9.89561619408E-16));
#435 = DIRECTION('',(-0.13052619222,8.961296019518E-16,0.991444861374));
#436 = ADVANCED_FACE('',(#437),#448,.F.);
#437 = FACE_BOUND('',#438,.F.);
#438 = EDGE_LOOP('',(#439,#440,#441,#447));
#439 = ORIENTED_EDGE('',*,*,#104,.T.);
#440 = ORIENTED_EDGE('',*,*,#272,.T.);
#441 = ORIENTED_EDGE('',*,*,#442,.F.);
#442 = EDGE_CURVE('',#155,#264,#443,.T.);
#443 = LINE('',#444,#445);
#444 = CARTESIAN_POINT('',(-59.50117860471,232.24999999999,
    -15.75897392793));
#445 = VECTOR('',#446,1.);
#446 = DIRECTION('',(-0.991444861374,6.040778529202E-16,-0.13052619222)
  );
#447 = ORIENTED_EDGE('',*,*,#163,.F.);
#448 = PLANE('',#449);
#449 = AXIS2_PLACEMENT_3D('',#450,#451,#452);
#450 = CARTESIAN_POINT('',(-61.32854529578,232.24999999999,
    -1.878745868745));
#451 = DIRECTION('',(1.286770828333E-15,-1.,-9.89561619408E-16));
#452 = DIRECTION('',(0.13052619222,-8.961296019518E-16,-0.991444861374)
  );
#453 = ADVANCED_FACE('',(#454),#465,.T.);
#454 = FACE_BOUND('',#455,.F.);
#455 = EDGE_LOOP('',(#456,#462,#463,#464));
#456 = ORIENTED_EDGE('',*,*,#457,.T.);
#457 = EDGE_CURVE('',#138,#247,#458,.T.);
#458 = LINE('',#459,#460);
#459 = CARTESIAN_POINT('',(-59.10960002805,133.75000000002,
    -18.73330851207));
#460 = VECTOR('',#461,1.);
#461 = DIRECTION('',(-0.991444861374,6.040778529202E-16,-0.13052619222)
  );
#462 = ORIENTED_EDGE('',*,*,#246,.T.);
#463 = ORIENTED_EDGE('',*,*,#423,.F.);
#464 = ORIENTED_EDGE('',*,*,#137,.F.);
#465 = CYLINDRICAL_SURFACE('',#466,3.000000000012);
#466 = AXIS2_PLACEMENT_3D('',#467,#468,#469);
#467 = CARTESIAN_POINT('',(-59.50117860471,133.75000000001,
    -15.75897392793));
#468 = DIRECTION('',(0.991444861374,-2.406041298029E-16,0.13052619222));
#469 = DIRECTION('',(-1.666954949063E-15,1.,1.092666364345E-15));
#470 = ADVANCED_FACE('',(#471),#482,.T.);
#471 = FACE_BOUND('',#472,.F.);
#472 = EDGE_LOOP('',(#473,#474,#475,#481));
#473 = ORIENTED_EDGE('',*,*,#442,.T.);
#474 = ORIENTED_EDGE('',*,*,#263,.T.);
#475 = ORIENTED_EDGE('',*,*,#476,.F.);
#476 = EDGE_CURVE('',#147,#256,#477,.T.);
#477 = LINE('',#478,#479);
#478 = CARTESIAN_POINT('',(-59.10960002805,229.24999999997,
    -18.73330851207));
#479 = VECTOR('',#480,1.);
#480 = DIRECTION('',(-0.991444861374,6.040778529202E-16,-0.13052619222)
  );
#481 = ORIENTED_EDGE('',*,*,#154,.F.);
#482 = CYLINDRICAL_SURFACE('',#483,3.000000000012);
#483 = AXIS2_PLACEMENT_3D('',#484,#485,#486);
#484 = CARTESIAN_POINT('',(-59.50117860471,229.24999999998,
    -15.75897392793));
#485 = DIRECTION('',(0.991444861374,-2.406041298029E-16,0.13052619222));
#486 = DIRECTION('',(-1.666954949063E-15,1.,1.092666364345E-15));
#487 = ADVANCED_FACE('',(#488),#494,.F.);
#488 = FACE_BOUND('',#489,.F.);
#489 = EDGE_LOOP('',(#490,#491,#492,#493));
#490 = ORIENTED_EDGE('',*,*,#476,.T.);
#491 = ORIENTED_EDGE('',*,*,#255,.T.);
#492 = ORIENTED_EDGE('',*,*,#457,.F.);
#493 = ORIENTED_EDGE('',*,*,#146,.F.);
#494 = PLANE('',#495);
#495 = AXIS2_PLACEMENT_3D('',#496,#497,#498);
#496 = CARTESIAN_POINT('',(-59.10960002805,229.24999999997,
    -18.73330851207));
#497 = DIRECTION('',(-0.13052619222,7.442829467791E-16,0.991444861374));
#498 = DIRECTION('',(1.666954949063E-15,-1.,-1.092666364345E-15));
#499 = ADVANCED_FACE('',(#500),#519,.F.);
#500 = FACE_BOUND('',#501,.T.);
#501 = EDGE_LOOP('',(#502,#510,#517,#518));
#502 = ORIENTED_EDGE('',*,*,#503,.T.);
#503 = EDGE_CURVE('',#173,#504,#506,.T.);
#504 = VERTEX_POINT('',#505);
#505 = CARTESIAN_POINT('',(-61.40630681162,231.25,-8.949386090558));
#506 = LINE('',#507,#508);
#507 = CARTESIAN_POINT('',(-60.41486195025,231.25,-8.818859898338));
#508 = VECTOR('',#509,1.);
#509 = DIRECTION('',(-0.991444861374,1.631530099626E-16,-0.13052619222)
  );
#510 = ORIENTED_EDGE('',*,*,#511,.T.);
#511 = EDGE_CURVE('',#504,#504,#512,.T.);
#512 = CIRCLE('',#513,8.);
#513 = AXIS2_PLACEMENT_3D('',#514,#515,#516);
#514 = CARTESIAN_POINT('',(-61.40630681162,223.25,-8.949386090558));
#515 = DIRECTION('',(-0.991444861374,-3.337072740107E-16,-0.13052619222)
  );
#516 = DIRECTION('',(-3.637603208472E-16,1.,2.064032238031E-16));
#517 = ORIENTED_EDGE('',*,*,#503,.F.);
#518 = ORIENTED_EDGE('',*,*,#172,.F.);
#519 = CYLINDRICAL_SURFACE('',#520,8.);
#520 = AXIS2_PLACEMENT_3D('',#521,#522,#523);
#521 = CARTESIAN_POINT('',(-60.41486195025,223.25,-8.818859898338));
#522 = DIRECTION('',(0.991444861374,2.003207131547E-16,0.13052619222));
#523 = DIRECTION('',(-2.119136656745E-16,1.,5.282209617965E-17));
#524 = ADVANCED_FACE('',(#525),#541,.F.);
#525 = FACE_BOUND('',#526,.F.);
#526 = EDGE_LOOP('',(#527,#533,#534,#540));
#527 = ORIENTED_EDGE('',*,*,#528,.F.);
#528 = EDGE_CURVE('',#186,#334,#529,.T.);
#529 = LINE('',#530,#531);
#530 = CARTESIAN_POINT('',(-59.63170479693,206.75000000001,
    -14.76752906658));
#531 = VECTOR('',#532,1.);
#532 = DIRECTION('',(-0.991444861374,2.744662211972E-16,-0.13052619222)
  );
#533 = ORIENTED_EDGE('',*,*,#183,.F.);
#534 = ORIENTED_EDGE('',*,*,#535,.F.);
#535 = EDGE_CURVE('',#332,#184,#536,.T.);
#536 = LINE('',#537,#538);
#537 = CARTESIAN_POINT('',(-59.63170479693,156.24999999998,
    -14.76752906658));
#538 = VECTOR('',#539,1.);
#539 = DIRECTION('',(0.991444861374,-2.744662211972E-16,0.13052619222));
#540 = ORIENTED_EDGE('',*,*,#331,.T.);
#541 = PLANE('',#542);
#542 = AXIS2_PLACEMENT_3D('',#543,#544,#545);
#543 = CARTESIAN_POINT('',(-59.63170479693,181.5,-14.76752906658));
#544 = DIRECTION('',(0.13052619222,-2.263035662356E-16,-0.991444861374)
  );
#545 = DIRECTION('',(-0.991444861374,1.082898450422E-16,-0.13052619222)
  );
#546 = ADVANCED_FACE('',(#547),#558,.F.);
#547 = FACE_BOUND('',#548,.F.);
#548 = EDGE_LOOP('',(#549,#550,#551,#552));
#549 = ORIENTED_EDGE('',*,*,#341,.F.);
#550 = ORIENTED_EDGE('',*,*,#535,.T.);
#551 = ORIENTED_EDGE('',*,*,#193,.T.);
#552 = ORIENTED_EDGE('',*,*,#553,.T.);
#553 = EDGE_CURVE('',#194,#342,#554,.T.);
#554 = LINE('',#555,#556);
#555 = CARTESIAN_POINT('',(-61.19801910357,156.24999999998,
    -2.870190730095));
#556 = VECTOR('',#557,1.);
#557 = DIRECTION('',(-0.991444861374,2.744662211972E-16,-0.13052619222)
  );
#558 = CYLINDRICAL_SURFACE('',#559,6.);
#559 = AXIS2_PLACEMENT_3D('',#560,#561,#562);
#560 = CARTESIAN_POINT('',(-60.41486195025,156.25,-8.818859898338));
#561 = DIRECTION('',(-0.991444861374,-8.900750192008E-17,-0.13052619222)
  );
#562 = DIRECTION('',(-5.756739865217E-16,1.,3.044936354505E-16));
#563 = ADVANCED_FACE('',(#564),#575,.F.);
#564 = FACE_BOUND('',#565,.F.);
#565 = EDGE_LOOP('',(#566,#567,#573,#574));
#566 = ORIENTED_EDGE('',*,*,#358,.F.);
#567 = ORIENTED_EDGE('',*,*,#568,.T.);
#568 = EDGE_CURVE('',#351,#203,#569,.T.);
#569 = LINE('',#570,#571);
#570 = CARTESIAN_POINT('',(-61.19801910357,206.75000000001,
    -2.870190730095));
#571 = VECTOR('',#572,1.);
#572 = DIRECTION('',(0.991444861374,-2.744662211972E-16,0.13052619222));
#573 = ORIENTED_EDGE('',*,*,#210,.T.);
#574 = ORIENTED_EDGE('',*,*,#528,.T.);
#575 = CYLINDRICAL_SURFACE('',#576,6.);
#576 = AXIS2_PLACEMENT_3D('',#577,#578,#579);
#577 = CARTESIAN_POINT('',(-60.41486195025,206.75,-8.818859898338));
#578 = DIRECTION('',(-0.991444861374,-8.900750192008E-17,-0.13052619222)
  );
#579 = DIRECTION('',(-5.756739865217E-16,1.,3.044936354505E-16));
#580 = ADVANCED_FACE('',(#581),#587,.F.);
#581 = FACE_BOUND('',#582,.F.);
#582 = EDGE_LOOP('',(#583,#584,#585,#586));
#583 = ORIENTED_EDGE('',*,*,#553,.F.);
#584 = ORIENTED_EDGE('',*,*,#202,.F.);
#585 = ORIENTED_EDGE('',*,*,#568,.F.);
#586 = ORIENTED_EDGE('',*,*,#350,.T.);
#587 = PLANE('',#588);
#588 = AXIS2_PLACEMENT_3D('',#589,#590,#591);
#589 = CARTESIAN_POINT('',(-61.19801910357,181.5,-2.870190730095));
#590 = DIRECTION('',(-0.13052619222,2.263035662356E-16,0.991444861374));
#591 = DIRECTION('',(0.991444861374,-1.082898450422E-16,0.13052619222));
#592 = ADVANCED_FACE('',(#593),#612,.F.);
#593 = FACE_BOUND('',#594,.T.);
#594 = EDGE_LOOP('',(#595,#603,#610,#611));
#595 = ORIENTED_EDGE('',*,*,#596,.T.);
#596 = EDGE_CURVE('',#220,#597,#599,.T.);
#597 = VERTEX_POINT('',#598);
#598 = CARTESIAN_POINT('',(-61.40630681162,147.75,-8.949386090558));
#599 = LINE('',#600,#601);
#600 = CARTESIAN_POINT('',(-60.41486195025,147.75,-8.818859898338));
#601 = VECTOR('',#602,1.);
#602 = DIRECTION('',(-0.991444861374,1.631530099626E-16,-0.13052619222)
  );
#603 = ORIENTED_EDGE('',*,*,#604,.T.);
#604 = EDGE_CURVE('',#597,#597,#605,.T.);
#605 = CIRCLE('',#606,8.);
#606 = AXIS2_PLACEMENT_3D('',#607,#608,#609);
#607 = CARTESIAN_POINT('',(-61.40630681162,139.75,-8.949386090558));
#608 = DIRECTION('',(-0.991444861374,-3.337072740107E-16,-0.13052619222)
  );
#609 = DIRECTION('',(-3.637603208472E-16,1.,2.064032238031E-16));
#610 = ORIENTED_EDGE('',*,*,#596,.F.);
#611 = ORIENTED_EDGE('',*,*,#219,.F.);
#612 = CYLINDRICAL_SURFACE('',#613,8.);
#613 = AXIS2_PLACEMENT_3D('',#614,#615,#616);
#614 = CARTESIAN_POINT('',(-60.41486195025,139.75,-8.818859898338));
#615 = DIRECTION('',(0.991444861374,2.003207131547E-16,0.13052619222));
#616 = DIRECTION('',(-2.119136656745E-16,1.,5.282209617965E-17));
#617 = ADVANCED_FACE('',(#618),#643,.F.);
#618 = FACE_BOUND('',#619,.F.);
#619 = EDGE_LOOP('',(#620,#628,#636,#642));
#620 = ORIENTED_EDGE('',*,*,#621,.T.);
#621 = EDGE_CURVE('',#282,#622,#624,.T.);
#622 = VERTEX_POINT('',#623);
#623 = CARTESIAN_POINT('',(-69.69936078301,225.32846096908,
    -6.410123100429));
#624 = LINE('',#625,#626);
#625 = CARTESIAN_POINT('',(-73.07027331168,225.32846096908,
    -6.853912153977));
#626 = VECTOR('',#627,1.);
#627 = DIRECTION('',(0.991444861374,-3.843367651049E-16,0.13052619222));
#628 = ORIENTED_EDGE('',*,*,#629,.T.);
#629 = EDGE_CURVE('',#622,#630,#632,.T.);
#630 = VERTEX_POINT('',#631);
#631 = CARTESIAN_POINT('',(-69.22946649101,227.40692193816,
    -9.979324601375));
#632 = LINE('',#633,#634);
#633 = CARTESIAN_POINT('',(-69.69936078301,225.32846096908,
    -6.410123100429));
#634 = VECTOR('',#635,1.);
#635 = DIRECTION('',(0.113038998322,0.5,-0.858616436401));
#636 = ORIENTED_EDGE('',*,*,#637,.F.);
#637 = EDGE_CURVE('',#284,#630,#638,.T.);
#638 = LINE('',#639,#640);
#639 = CARTESIAN_POINT('',(-72.60037901968,227.40692193816,
    -10.42311365492));
#640 = VECTOR('',#641,1.);
#641 = DIRECTION('',(0.991444861374,-3.843367651049E-16,0.13052619222));
#642 = ORIENTED_EDGE('',*,*,#281,.F.);
#643 = PLANE('',#644);
#644 = AXIS2_PLACEMENT_3D('',#645,#646,#647);
#645 = CARTESIAN_POINT('',(-73.07027331168,225.32846096908,
    -6.853912153977));
#646 = DIRECTION('',(-6.526309611003E-02,0.866025403784,0.495722430687)
  );
#647 = DIRECTION('',(0.113038998322,0.5,-0.858616436401));
#648 = ADVANCED_FACE('',(#649),#667,.F.);
#649 = FACE_BOUND('',#650,.F.);
#650 = EDGE_LOOP('',(#651,#659,#665,#666));
#651 = ORIENTED_EDGE('',*,*,#652,.T.);
#652 = EDGE_CURVE('',#316,#653,#655,.T.);
#653 = VERTEX_POINT('',#654);
#654 = CARTESIAN_POINT('',(-69.69936078301,221.17153903091,
    -6.410123100429));
#655 = LINE('',#656,#657);
#656 = CARTESIAN_POINT('',(-73.07027331168,221.17153903091,
    -6.853912153977));
#657 = VECTOR('',#658,1.);
#658 = DIRECTION('',(0.991444861374,-3.843367651049E-16,0.13052619222));
#659 = ORIENTED_EDGE('',*,*,#660,.T.);
#660 = EDGE_CURVE('',#653,#622,#661,.T.);
#661 = LINE('',#662,#663);
#662 = CARTESIAN_POINT('',(-69.69936078301,221.17153903091,
    -6.410123100429));
#663 = VECTOR('',#664,1.);
#664 = DIRECTION('',(-1.091280962542E-15,1.,7.318517097329E-16));
#665 = ORIENTED_EDGE('',*,*,#621,.F.);
#666 = ORIENTED_EDGE('',*,*,#323,.F.);
#667 = PLANE('',#668);
#668 = AXIS2_PLACEMENT_3D('',#669,#670,#671);
#669 = CARTESIAN_POINT('',(-73.07027331168,221.17153903091,
    -6.853912153977));
#670 = DIRECTION('',(-0.13052619222,3.156890141249E-16,0.991444861374));
#671 = DIRECTION('',(-9.394343073689E-16,1.,5.672178784154E-16));
#672 = ADVANCED_FACE('',(#673),#691,.F.);
#673 = FACE_BOUND('',#674,.F.);
#674 = EDGE_LOOP('',(#675,#676,#684,#690));
#675 = ORIENTED_EDGE('',*,*,#637,.T.);
#676 = ORIENTED_EDGE('',*,*,#677,.T.);
#677 = EDGE_CURVE('',#630,#678,#680,.T.);
#678 = VERTEX_POINT('',#679);
#679 = CARTESIAN_POINT('',(-68.75957219902,225.32846096908,
    -13.54852610232));
#680 = LINE('',#681,#682);
#681 = CARTESIAN_POINT('',(-69.22946649101,227.40692193816,
    -9.979324601375));
#682 = VECTOR('',#683,1.);
#683 = DIRECTION('',(0.113038998322,-0.5,-0.858616436401));
#684 = ORIENTED_EDGE('',*,*,#685,.F.);
#685 = EDGE_CURVE('',#292,#678,#686,.T.);
#686 = LINE('',#687,#688);
#687 = CARTESIAN_POINT('',(-72.13048472769,225.32846096908,
    -13.99231515586));
#688 = VECTOR('',#689,1.);
#689 = DIRECTION('',(0.991444861374,-3.843367651049E-16,0.13052619222));
#690 = ORIENTED_EDGE('',*,*,#291,.F.);
#691 = PLANE('',#692);
#692 = AXIS2_PLACEMENT_3D('',#693,#694,#695);
#693 = CARTESIAN_POINT('',(-72.60037901968,227.40692193816,
    -10.42311365492));
#694 = DIRECTION('',(6.526309611003E-02,0.866025403784,-0.495722430687)
  );
#695 = DIRECTION('',(0.113038998322,-0.5,-0.858616436401));
#696 = ADVANCED_FACE('',(#697),#715,.F.);
#697 = FACE_BOUND('',#698,.F.);
#698 = EDGE_LOOP('',(#699,#707,#713,#714));
#699 = ORIENTED_EDGE('',*,*,#700,.T.);
#700 = EDGE_CURVE('',#308,#701,#703,.T.);
#701 = VERTEX_POINT('',#702);
#702 = CARTESIAN_POINT('',(-69.22946649101,219.09307806183,
    -9.979324601375));
#703 = LINE('',#704,#705);
#704 = CARTESIAN_POINT('',(-72.60037901968,219.09307806183,
    -10.42311365492));
#705 = VECTOR('',#706,1.);
#706 = DIRECTION('',(0.991444861374,-3.843367651049E-16,0.13052619222));
#707 = ORIENTED_EDGE('',*,*,#708,.T.);
#708 = EDGE_CURVE('',#701,#653,#709,.T.);
#709 = LINE('',#710,#711);
#710 = CARTESIAN_POINT('',(-69.22946649101,219.09307806183,
    -9.979324601375));
#711 = VECTOR('',#712,1.);
#712 = DIRECTION('',(-0.113038998322,0.5,0.858616436401));
#713 = ORIENTED_EDGE('',*,*,#652,.F.);
#714 = ORIENTED_EDGE('',*,*,#315,.F.);
#715 = PLANE('',#716);
#716 = AXIS2_PLACEMENT_3D('',#717,#718,#719);
#717 = CARTESIAN_POINT('',(-72.60037901968,219.09307806183,
    -10.42311365492));
#718 = DIRECTION('',(-6.526309611003E-02,-0.866025403784,0.495722430687)
  );
#719 = DIRECTION('',(-0.113038998322,0.5,0.858616436401));
#720 = ADVANCED_FACE('',(#721),#739,.F.);
#721 = FACE_BOUND('',#722,.F.);
#722 = EDGE_LOOP('',(#723,#724,#732,#738));
#723 = ORIENTED_EDGE('',*,*,#685,.T.);
#724 = ORIENTED_EDGE('',*,*,#725,.T.);
#725 = EDGE_CURVE('',#678,#726,#728,.T.);
#726 = VERTEX_POINT('',#727);
#727 = CARTESIAN_POINT('',(-68.75957219902,221.17153903091,
    -13.54852610232));
#728 = LINE('',#729,#730);
#729 = CARTESIAN_POINT('',(-68.75957219902,225.32846096908,
    -13.54852610232));
#730 = VECTOR('',#731,1.);
#731 = DIRECTION('',(1.147058073038E-15,-1.,-1.155520926184E-15));
#732 = ORIENTED_EDGE('',*,*,#733,.F.);
#733 = EDGE_CURVE('',#300,#726,#734,.T.);
#734 = LINE('',#735,#736);
#735 = CARTESIAN_POINT('',(-72.13048472769,221.17153903091,
    -13.99231515586));
#736 = VECTOR('',#737,1.);
#737 = DIRECTION('',(0.991444861374,-3.843367651049E-16,0.13052619222));
#738 = ORIENTED_EDGE('',*,*,#299,.F.);
#739 = PLANE('',#740);
#740 = AXIS2_PLACEMENT_3D('',#741,#742,#743);
#741 = CARTESIAN_POINT('',(-72.13048472769,225.32846096908,
    -13.99231515586));
#742 = DIRECTION('',(0.13052619222,1.116360272937E-16,-0.991444861374));
#743 = DIRECTION('',(9.952114178655E-16,-1.,-9.908870948662E-16));
#744 = ADVANCED_FACE('',(#745),#756,.F.);
#745 = FACE_BOUND('',#746,.F.);
#746 = EDGE_LOOP('',(#747,#748,#754,#755));
#747 = ORIENTED_EDGE('',*,*,#733,.T.);
#748 = ORIENTED_EDGE('',*,*,#749,.T.);
#749 = EDGE_CURVE('',#726,#701,#750,.T.);
#750 = LINE('',#751,#752);
#751 = CARTESIAN_POINT('',(-68.75957219902,221.17153903091,
    -13.54852610232));
#752 = VECTOR('',#753,1.);
#753 = DIRECTION('',(-0.113038998322,-0.5,0.858616436401));
#754 = ORIENTED_EDGE('',*,*,#700,.F.);
#755 = ORIENTED_EDGE('',*,*,#307,.F.);
#756 = PLANE('',#757);
#757 = AXIS2_PLACEMENT_3D('',#758,#759,#760);
#758 = CARTESIAN_POINT('',(-72.13048472769,221.17153903091,
    -13.99231515586));
#759 = DIRECTION('',(6.526309611003E-02,-0.866025403784,-0.495722430687)
  );
#760 = DIRECTION('',(-0.113038998322,-0.5,0.858616436401));
#761 = ADVANCED_FACE('',(#762),#787,.F.);
#762 = FACE_BOUND('',#763,.F.);
#763 = EDGE_LOOP('',(#764,#772,#780,#786));
#764 = ORIENTED_EDGE('',*,*,#765,.T.);
#765 = EDGE_CURVE('',#368,#766,#768,.T.);
#766 = VERTEX_POINT('',#767);
#767 = CARTESIAN_POINT('',(-69.69936078301,141.82846096908,
    -6.410123100429));
#768 = LINE('',#769,#770);
#769 = CARTESIAN_POINT('',(-73.07027331168,141.82846096908,
    -6.853912153977));
#770 = VECTOR('',#771,1.);
#771 = DIRECTION('',(0.991444861374,-3.843367651049E-16,0.13052619222));
#772 = ORIENTED_EDGE('',*,*,#773,.T.);
#773 = EDGE_CURVE('',#766,#774,#776,.T.);
#774 = VERTEX_POINT('',#775);
#775 = CARTESIAN_POINT('',(-69.22946649101,143.90692193816,
    -9.979324601375));
#776 = LINE('',#777,#778);
#777 = CARTESIAN_POINT('',(-69.69936078301,141.82846096908,
    -6.410123100429));
#778 = VECTOR('',#779,1.);
#779 = DIRECTION('',(0.113038998322,0.5,-0.858616436401));
#780 = ORIENTED_EDGE('',*,*,#781,.F.);
#781 = EDGE_CURVE('',#370,#774,#782,.T.);
#782 = LINE('',#783,#784);
#783 = CARTESIAN_POINT('',(-72.60037901968,143.90692193816,
    -10.42311365492));
#784 = VECTOR('',#785,1.);
#785 = DIRECTION('',(0.991444861374,-3.843367651049E-16,0.13052619222));
#786 = ORIENTED_EDGE('',*,*,#367,.F.);
#787 = PLANE('',#788);
#788 = AXIS2_PLACEMENT_3D('',#789,#790,#791);
#789 = CARTESIAN_POINT('',(-73.07027331168,141.82846096908,
    -6.853912153977));
#790 = DIRECTION('',(-6.526309611003E-02,0.866025403784,0.495722430687)
  );
#791 = DIRECTION('',(0.113038998322,0.5,-0.858616436401));
#792 = ADVANCED_FACE('',(#793),#811,.F.);
#793 = FACE_BOUND('',#794,.F.);
#794 = EDGE_LOOP('',(#795,#803,#809,#810));
#795 = ORIENTED_EDGE('',*,*,#796,.T.);
#796 = EDGE_CURVE('',#402,#797,#799,.T.);
#797 = VERTEX_POINT('',#798);
#798 = CARTESIAN_POINT('',(-69.69936078301,137.67153903091,
    -6.410123100429));
#799 = LINE('',#800,#801);
#800 = CARTESIAN_POINT('',(-73.07027331168,137.67153903091,
    -6.853912153977));
#801 = VECTOR('',#802,1.);
#802 = DIRECTION('',(0.991444861374,-3.843367651049E-16,0.13052619222));
#803 = ORIENTED_EDGE('',*,*,#804,.T.);
#804 = EDGE_CURVE('',#797,#766,#805,.T.);
#805 = LINE('',#806,#807);
#806 = CARTESIAN_POINT('',(-69.69936078301,137.67153903091,
    -6.410123100429));
#807 = VECTOR('',#808,1.);
#808 = DIRECTION('',(-1.091280962542E-15,1.,7.318517097329E-16));
#809 = ORIENTED_EDGE('',*,*,#765,.F.);
#810 = ORIENTED_EDGE('',*,*,#409,.F.);
#811 = PLANE('',#812);
#812 = AXIS2_PLACEMENT_3D('',#813,#814,#815);
#813 = CARTESIAN_POINT('',(-73.07027331168,137.67153903091,
    -6.853912153977));
#814 = DIRECTION('',(-0.13052619222,3.156890141249E-16,0.991444861374));
#815 = DIRECTION('',(-9.394343073689E-16,1.,5.672178784154E-16));
#816 = ADVANCED_FACE('',(#817),#835,.F.);
#817 = FACE_BOUND('',#818,.F.);
#818 = EDGE_LOOP('',(#819,#820,#828,#834));
#819 = ORIENTED_EDGE('',*,*,#781,.T.);
#820 = ORIENTED_EDGE('',*,*,#821,.T.);
#821 = EDGE_CURVE('',#774,#822,#824,.T.);
#822 = VERTEX_POINT('',#823);
#823 = CARTESIAN_POINT('',(-68.75957219902,141.82846096908,
    -13.54852610232));
#824 = LINE('',#825,#826);
#825 = CARTESIAN_POINT('',(-69.22946649101,143.90692193816,
    -9.979324601375));
#826 = VECTOR('',#827,1.);
#827 = DIRECTION('',(0.113038998322,-0.5,-0.858616436401));
#828 = ORIENTED_EDGE('',*,*,#829,.F.);
#829 = EDGE_CURVE('',#378,#822,#830,.T.);
#830 = LINE('',#831,#832);
#831 = CARTESIAN_POINT('',(-72.13048472769,141.82846096908,
    -13.99231515586));
#832 = VECTOR('',#833,1.);
#833 = DIRECTION('',(0.991444861374,-3.843367651049E-16,0.13052619222));
#834 = ORIENTED_EDGE('',*,*,#377,.F.);
#835 = PLANE('',#836);
#836 = AXIS2_PLACEMENT_3D('',#837,#838,#839);
#837 = CARTESIAN_POINT('',(-72.60037901968,143.90692193816,
    -10.42311365492));
#838 = DIRECTION('',(6.526309611003E-02,0.866025403784,-0.495722430687)
  );
#839 = DIRECTION('',(0.113038998322,-0.5,-0.858616436401));
#840 = ADVANCED_FACE('',(#841),#859,.F.);
#841 = FACE_BOUND('',#842,.F.);
#842 = EDGE_LOOP('',(#843,#851,#857,#858));
#843 = ORIENTED_EDGE('',*,*,#844,.T.);
#844 = EDGE_CURVE('',#394,#845,#847,.T.);
#845 = VERTEX_POINT('',#846);
#846 = CARTESIAN_POINT('',(-69.22946649101,135.59307806183,
    -9.979324601375));
#847 = LINE('',#848,#849);
#848 = CARTESIAN_POINT('',(-72.60037901968,135.59307806183,
    -10.42311365492));
#849 = VECTOR('',#850,1.);
#850 = DIRECTION('',(0.991444861374,-3.843367651049E-16,0.13052619222));
#851 = ORIENTED_EDGE('',*,*,#852,.T.);
#852 = EDGE_CURVE('',#845,#797,#853,.T.);
#853 = LINE('',#854,#855);
#854 = CARTESIAN_POINT('',(-69.22946649101,135.59307806183,
    -9.979324601375));
#855 = VECTOR('',#856,1.);
#856 = DIRECTION('',(-0.113038998322,0.5,0.858616436401));
#857 = ORIENTED_EDGE('',*,*,#796,.F.);
#858 = ORIENTED_EDGE('',*,*,#401,.F.);
#859 = PLANE('',#860);
#860 = AXIS2_PLACEMENT_3D('',#861,#862,#863);
#861 = CARTESIAN_POINT('',(-72.60037901968,135.59307806183,
    -10.42311365492));
#862 = DIRECTION('',(-6.526309611003E-02,-0.866025403784,0.495722430687)
  );
#863 = DIRECTION('',(-0.113038998322,0.5,0.858616436401));
#864 = ADVANCED_FACE('',(#865),#883,.F.);
#865 = FACE_BOUND('',#866,.F.);
#866 = EDGE_LOOP('',(#867,#868,#876,#882));
#867 = ORIENTED_EDGE('',*,*,#829,.T.);
#868 = ORIENTED_EDGE('',*,*,#869,.T.);
#869 = EDGE_CURVE('',#822,#870,#872,.T.);
#870 = VERTEX_POINT('',#871);
#871 = CARTESIAN_POINT('',(-68.75957219902,137.67153903091,
    -13.54852610232));
#872 = LINE('',#873,#874);
#873 = CARTESIAN_POINT('',(-68.75957219902,141.82846096908,
    -13.54852610232));
#874 = VECTOR('',#875,1.);
#875 = DIRECTION('',(1.147058073038E-15,-1.,-1.155520926184E-15));
#876 = ORIENTED_EDGE('',*,*,#877,.F.);
#877 = EDGE_CURVE('',#386,#870,#878,.T.);
#878 = LINE('',#879,#880);
#879 = CARTESIAN_POINT('',(-72.13048472769,137.67153903091,
    -13.99231515586));
#880 = VECTOR('',#881,1.);
#881 = DIRECTION('',(0.991444861374,-3.843367651049E-16,0.13052619222));
#882 = ORIENTED_EDGE('',*,*,#385,.F.);
#883 = PLANE('',#884);
#884 = AXIS2_PLACEMENT_3D('',#885,#886,#887);
#885 = CARTESIAN_POINT('',(-72.13048472769,141.82846096908,
    -13.99231515586));
#886 = DIRECTION('',(0.13052619222,1.116360272937E-16,-0.991444861374));
#887 = DIRECTION('',(9.952114178655E-16,-1.,-9.908870948662E-16));
#888 = ADVANCED_FACE('',(#889),#900,.F.);
#889 = FACE_BOUND('',#890,.F.);
#890 = EDGE_LOOP('',(#891,#892,#898,#899));
#891 = ORIENTED_EDGE('',*,*,#877,.T.);
#892 = ORIENTED_EDGE('',*,*,#893,.T.);
#893 = EDGE_CURVE('',#870,#845,#894,.T.);
#894 = LINE('',#895,#896);
#895 = CARTESIAN_POINT('',(-68.75957219902,137.67153903091,
    -13.54852610232));
#896 = VECTOR('',#897,1.);
#897 = DIRECTION('',(-0.113038998322,-0.5,0.858616436401));
#898 = ORIENTED_EDGE('',*,*,#844,.F.);
#899 = ORIENTED_EDGE('',*,*,#393,.F.);
#900 = PLANE('',#901);
#901 = AXIS2_PLACEMENT_3D('',#902,#903,#904);
#902 = CARTESIAN_POINT('',(-72.13048472769,137.67153903091,
    -13.99231515586));
#903 = DIRECTION('',(6.526309611003E-02,-0.866025403784,-0.495722430687)
  );
#904 = DIRECTION('',(-0.113038998322,-0.5,0.858616436401));
#905 = ADVANCED_FACE('',(#906,#909),#920,.T.);
#906 = FACE_BOUND('',#907,.T.);
#907 = EDGE_LOOP('',(#908));
#908 = ORIENTED_EDGE('',*,*,#511,.F.);
#909 = FACE_BOUND('',#910,.T.);
#910 = EDGE_LOOP('',(#911));
#911 = ORIENTED_EDGE('',*,*,#912,.T.);
#912 = EDGE_CURVE('',#913,#913,#915,.T.);
#913 = VERTEX_POINT('',#914);
#914 = CARTESIAN_POINT('',(-61.40630681162,225.5,-8.949386090558));
#915 = CIRCLE('',#916,2.25);
#916 = AXIS2_PLACEMENT_3D('',#917,#918,#919);
#917 = CARTESIAN_POINT('',(-61.40630681162,223.25,-8.949386090558));
#918 = DIRECTION('',(-0.991444861374,-2.590652595535E-16,-0.13052619222)
  );
#919 = DIRECTION('',(-3.162076687179E-16,1.,4.170596552148E-16));
#920 = PLANE('',#921);
#921 = AXIS2_PLACEMENT_3D('',#922,#923,#924);
#922 = CARTESIAN_POINT('',(-61.40630681162,181.5,-8.949386090558));
#923 = DIRECTION('',(0.991444861374,-1.116200237114E-16,0.13052619222));
#924 = DIRECTION('',(-0.13052619222,1.953678758676E-16,0.991444861374));
#925 = ADVANCED_FACE('',(#926,#929),#940,.T.);
#926 = FACE_BOUND('',#927,.T.);
#927 = EDGE_LOOP('',(#928));
#928 = ORIENTED_EDGE('',*,*,#604,.F.);
#929 = FACE_BOUND('',#930,.T.);
#930 = EDGE_LOOP('',(#931));
#931 = ORIENTED_EDGE('',*,*,#932,.T.);
#932 = EDGE_CURVE('',#933,#933,#935,.T.);
#933 = VERTEX_POINT('',#934);
#934 = CARTESIAN_POINT('',(-61.40630681162,142.,-8.949386090558));
#935 = CIRCLE('',#936,2.25);
#936 = AXIS2_PLACEMENT_3D('',#937,#938,#939);
#937 = CARTESIAN_POINT('',(-61.40630681162,139.75,-8.949386090558));
#938 = DIRECTION('',(-0.991444861374,-2.590652595535E-16,-0.13052619222)
  );
#939 = DIRECTION('',(-3.162076687179E-16,1.,4.170596552148E-16));
#940 = PLANE('',#941);
#941 = AXIS2_PLACEMENT_3D('',#942,#943,#944);
#942 = CARTESIAN_POINT('',(-61.40630681162,181.5,-8.949386090558));
#943 = DIRECTION('',(0.991444861374,-1.116200237114E-16,0.13052619222));
#944 = DIRECTION('',(-0.13052619222,1.953678758676E-16,0.991444861374));
#945 = ADVANCED_FACE('',(#946,#954),#965,.F.);
#946 = FACE_BOUND('',#947,.F.);
#947 = EDGE_LOOP('',(#948,#949,#950,#951,#952,#953));
#948 = ORIENTED_EDGE('',*,*,#677,.F.);
#949 = ORIENTED_EDGE('',*,*,#629,.F.);
#950 = ORIENTED_EDGE('',*,*,#660,.F.);
#951 = ORIENTED_EDGE('',*,*,#708,.F.);
#952 = ORIENTED_EDGE('',*,*,#749,.F.);
#953 = ORIENTED_EDGE('',*,*,#725,.F.);
#954 = FACE_BOUND('',#955,.F.);
#955 = EDGE_LOOP('',(#956));
#956 = ORIENTED_EDGE('',*,*,#957,.T.);
#957 = EDGE_CURVE('',#958,#958,#960,.T.);
#958 = VERTEX_POINT('',#959);
#959 = CARTESIAN_POINT('',(-69.22946649101,225.5,-9.979324601375));
#960 = CIRCLE('',#961,2.25);
#961 = AXIS2_PLACEMENT_3D('',#962,#963,#964);
#962 = CARTESIAN_POINT('',(-69.22946649101,223.25,-9.979324601375));
#963 = DIRECTION('',(-0.991444861374,-8.759802640588E-16,-0.13052619222)
  );
#964 = DIRECTION('',(-9.7419897505E-16,1.,6.886303980938E-16));
#965 = PLANE('',#966);
#966 = AXIS2_PLACEMENT_3D('',#967,#968,#969);
#967 = CARTESIAN_POINT('',(-69.22946649101,181.5,-9.979324601375));
#968 = DIRECTION('',(0.991444861374,-3.341060736872E-16,0.13052619222));
#969 = DIRECTION('',(-0.13052619222,6.409404015092E-16,0.991444861374));
#970 = ADVANCED_FACE('',(#971,#979),#990,.F.);
#971 = FACE_BOUND('',#972,.F.);
#972 = EDGE_LOOP('',(#973,#974,#975,#976,#977,#978));
#973 = ORIENTED_EDGE('',*,*,#821,.F.);
#974 = ORIENTED_EDGE('',*,*,#773,.F.);
#975 = ORIENTED_EDGE('',*,*,#804,.F.);
#976 = ORIENTED_EDGE('',*,*,#852,.F.);
#977 = ORIENTED_EDGE('',*,*,#893,.F.);
#978 = ORIENTED_EDGE('',*,*,#869,.F.);
#979 = FACE_BOUND('',#980,.F.);
#980 = EDGE_LOOP('',(#981));
#981 = ORIENTED_EDGE('',*,*,#982,.T.);
#982 = EDGE_CURVE('',#983,#983,#985,.T.);
#983 = VERTEX_POINT('',#984);
#984 = CARTESIAN_POINT('',(-69.22946649101,142.,-9.979324601375));
#985 = CIRCLE('',#986,2.25);
#986 = AXIS2_PLACEMENT_3D('',#987,#988,#989);
#987 = CARTESIAN_POINT('',(-69.22946649101,139.75,-9.979324601375));
#988 = DIRECTION('',(-0.991444861374,-8.759802640588E-16,-0.13052619222)
  );
#989 = DIRECTION('',(-9.7419897505E-16,1.,6.886303980938E-16));
#990 = PLANE('',#991);
#991 = AXIS2_PLACEMENT_3D('',#992,#993,#994);
#992 = CARTESIAN_POINT('',(-69.22946649101,181.5,-9.979324601375));
#993 = DIRECTION('',(0.991444861374,-3.341060736872E-16,0.13052619222));
#994 = DIRECTION('',(-0.13052619222,6.409404015092E-16,0.991444861374));
#995 = ADVANCED_FACE('',(#996),#1006,.F.);
#996 = FACE_BOUND('',#997,.F.);
#997 = EDGE_LOOP('',(#998,#999,#1004,#1005));
#998 = ORIENTED_EDGE('',*,*,#912,.T.);
#999 = ORIENTED_EDGE('',*,*,#1000,.T.);
#1000 = EDGE_CURVE('',#913,#958,#1001,.T.);
#1001 = B_SPLINE_CURVE_WITH_KNOTS('',1,(#1002,#1003),.UNSPECIFIED.,.F.,
  .F.,(2,2),(-211.6720283727,211.67202837279),.PIECEWISE_BEZIER_KNOTS.);
#1002 = CARTESIAN_POINT('',(149.44628287652,225.5,18.809883964659));
#1003 = CARTESIAN_POINT('',(-270.276006777,225.5,-36.44760376133));
#1004 = ORIENTED_EDGE('',*,*,#957,.F.);
#1005 = ORIENTED_EDGE('',*,*,#1000,.F.);
#1006 = CYLINDRICAL_SURFACE('',#1007,2.25);
#1007 = AXIS2_PLACEMENT_3D('',#1008,#1009,#1010);
#1008 = CARTESIAN_POINT('',(-60.41486195025,223.25,-8.818859898338));
#1009 = DIRECTION('',(-0.991444861374,1.326250825052E-16,-0.13052619222)
  );
#1010 = DIRECTION('',(-1.303194628216E-15,1.,8.299421213803E-16));
#1011 = ADVANCED_FACE('',(#1012),#1022,.F.);
#1012 = FACE_BOUND('',#1013,.F.);
#1013 = EDGE_LOOP('',(#1014,#1019,#1020,#1021));
#1014 = ORIENTED_EDGE('',*,*,#1015,.T.);
#1015 = EDGE_CURVE('',#933,#983,#1016,.T.);
#1016 = B_SPLINE_CURVE_WITH_KNOTS('',1,(#1017,#1018),.UNSPECIFIED.,.F.,
  .F.,(2,2),(-211.6720283727,211.67202837279),.PIECEWISE_BEZIER_KNOTS.);
#1017 = CARTESIAN_POINT('',(149.44628287652,142.,18.809883964658));
#1018 = CARTESIAN_POINT('',(-270.276006777,142.,-36.44760376133));
#1019 = ORIENTED_EDGE('',*,*,#982,.F.);
#1020 = ORIENTED_EDGE('',*,*,#1015,.F.);
#1021 = ORIENTED_EDGE('',*,*,#932,.T.);
#1022 = CYLINDRICAL_SURFACE('',#1023,2.25);
#1023 = AXIS2_PLACEMENT_3D('',#1024,#1025,#1026);
#1024 = CARTESIAN_POINT('',(-60.41486195025,139.75,-8.818859898338));
#1025 = DIRECTION('',(-0.991444861374,1.326250825052E-16,-0.13052619222)
  );
#1026 = DIRECTION('',(-1.303194628216E-15,1.,8.299421213803E-16));
#1027 = ( GEOMETRIC_REPRESENTATION_CONTEXT(3) 
GLOBAL_UNCERTAINTY_ASSIGNED_CONTEXT((#1031)) 
GLOBAL_UNIT_ASSIGNED_CONTEXT((#1028,#1029,#1030)) REPRESENTATION_CONTEXT
('Context #1','3D Context with UNIT and UNCERTAINTY') );
#1028 = ( LENGTH_UNIT() NAMED_UNIT(*) SI_UNIT(.MILLI.,.METRE.) );
#1029 = ( NAMED_UNIT(*) PLANE_ANGLE_UNIT() SI_UNIT($,.RADIAN.) );
#1030 = ( NAMED_UNIT(*) SI_UNIT($,.STERADIAN.) SOLID_ANGLE_UNIT() );
#1031 = UNCERTAINTY_MEASURE_WITH_UNIT(LENGTH_MEASURE(5.E-07),#1028,
  'distance_accuracy_value','confusion accuracy');
#1032 = PRODUCT_RELATED_PRODUCT_CATEGORY('part',$,(#7));
ENDSEC;
END-ISO-10303-21;
