ISO-10303-21;
HEADER;
FILE_DESCRIPTION(('FreeCAD Model'),'2;1');
FILE_NAME('Open CASCADE Shape Model','2026-10-06T20:35:11',('FreeCAD'),(
    'FreeCAD'),'Open CASCADE STEP processor 8.0','FreeCAD','Unknown');
FILE_SCHEMA(('AUTOMOTIVE_DESIGN { 1 0 10303 214 1 1 1 1 }'));
ENDSEC;
DATA;
#1 = APPLICATION_PROTOCOL_DEFINITION('international standard',
  'automotive_design',2000,#2);
#2 = APPLICATION_CONTEXT(
  'core data for automotive mechanical design processes');
#3 = SHAPE_DEFINITION_REPRESENTATION(#4,#10);
#4 = PRODUCT_DEFINITION_SHAPE('','',#5);
#5 = PRODUCT_DEFINITION('design','',#6,#9);
#6 = PRODUCT_DEFINITION_FORMATION('','',#7);
#7 = PRODUCT('Open CASCADE STEP translator 8.0 43',
  'Open CASCADE STEP translator 8.0 43','',(#8));
#8 = PRODUCT_CONTEXT('',#2,'mechanical');
#9 = PRODUCT_DEFINITION_CONTEXT('part definition',#2,'design');
#10 = ADVANCED_BREP_SHAPE_REPRESENTATION('',(#11,#15),#151);
#11 = AXIS2_PLACEMENT_3D('',#12,#13,#14);
#12 = CARTESIAN_POINT('',(0.,0.,0.));
#13 = DIRECTION('',(0.,0.,1.));
#14 = DIRECTION('',(1.,0.,-0.));
#15 = MANIFOLD_SOLID_BREP('',#16);
#16 = CLOSED_SHELL('',(#17,#50,#70,#90,#115,#139));
#17 = ADVANCED_FACE('',(#18),#45,.T.);
#18 = FACE_BOUND('',#19,.F.);
#19 = EDGE_LOOP('',(#20,#30,#37,#38));
#20 = ORIENTED_EDGE('',*,*,#21,.T.);
#21 = EDGE_CURVE('',#22,#24,#26,.T.);
#22 = VERTEX_POINT('',#23);
#23 = CARTESIAN_POINT('',(-60.0182840057,147.7,-8.76664942145));
#24 = VERTEX_POINT('',#25);
#25 = CARTESIAN_POINT('',(-61.40630681162,147.7,-8.949386090558));
#26 = LINE('',#27,#28);
#27 = CARTESIAN_POINT('',(-60.0182840057,147.7,-8.76664942145));
#28 = VECTOR('',#29,1.);
#29 = DIRECTION('',(-0.991444861374,3.843367651049E-16,-0.13052619222));
#30 = ORIENTED_EDGE('',*,*,#31,.T.);
#31 = EDGE_CURVE('',#24,#24,#32,.T.);
#32 = CIRCLE('',#33,7.95);
#33 = AXIS2_PLACEMENT_3D('',#34,#35,#36);
#34 = CARTESIAN_POINT('',(-61.40630681162,139.75,-8.949386090558));
#35 = DIRECTION('',(-0.991444861374,-9.864190856857E-16,-0.13052619222)
  );
#36 = DIRECTION('',(-1.091280962542E-15,1.,7.318517097329E-16));
#37 = ORIENTED_EDGE('',*,*,#21,.F.);
#38 = ORIENTED_EDGE('',*,*,#39,.F.);
#39 = EDGE_CURVE('',#22,#22,#40,.T.);
#40 = CIRCLE('',#41,7.95);
#41 = AXIS2_PLACEMENT_3D('',#42,#43,#44);
#42 = CARTESIAN_POINT('',(-60.0182840057,139.75,-8.76664942145));
#43 = DIRECTION('',(-0.991444861374,-9.864190856857E-16,-0.13052619222)
  );
#44 = DIRECTION('',(-1.091280962542E-15,1.,7.318517097329E-16));
#45 = CYLINDRICAL_SURFACE('',#46,7.95);
#46 = AXIS2_PLACEMENT_3D('',#47,#48,#49);
#47 = CARTESIAN_POINT('',(-60.0182840057,139.75,-8.76664942145));
#48 = DIRECTION('',(0.991444861374,-2.086304198758E-17,0.13052619222));
#49 = DIRECTION('',(-9.394343073689E-16,1.,5.672178784154E-16));
#50 = ADVANCED_FACE('',(#51,#54),#65,.T.);
#51 = FACE_BOUND('',#52,.T.);
#52 = EDGE_LOOP('',(#53));
#53 = ORIENTED_EDGE('',*,*,#39,.F.);
#54 = FACE_BOUND('',#55,.T.);
#55 = EDGE_LOOP('',(#56));
#56 = ORIENTED_EDGE('',*,*,#57,.T.);
#57 = EDGE_CURVE('',#58,#58,#60,.T.);
#58 = VERTEX_POINT('',#59);
#59 = CARTESIAN_POINT('',(-60.0182840057,142.9,-8.76664942145));
#60 = CIRCLE('',#61,3.15);
#61 = AXIS2_PLACEMENT_3D('',#62,#63,#64);
#62 = CARTESIAN_POINT('',(-60.0182840057,139.75,-8.76664942145));
#63 = DIRECTION('',(-0.991444861374,-6.600631798482E-16,-0.13052619222)
  );
#64 = DIRECTION('',(-7.275206416944E-16,1.,4.69127466768E-16));
#65 = PLANE('',#66);
#66 = AXIS2_PLACEMENT_3D('',#67,#68,#69);
#67 = CARTESIAN_POINT('',(-60.0182840057,139.75,-8.76664942145));
#68 = DIRECTION('',(0.991444861374,-3.363585750543E-16,0.13052619222));
#69 = DIRECTION('',(-0.13052619222,6.131848258936E-16,0.991444861374));
#70 = ADVANCED_FACE('',(#71,#74),#85,.F.);
#71 = FACE_BOUND('',#72,.F.);
#72 = EDGE_LOOP('',(#73));
#73 = ORIENTED_EDGE('',*,*,#31,.F.);
#74 = FACE_BOUND('',#75,.F.);
#75 = EDGE_LOOP('',(#76));
#76 = ORIENTED_EDGE('',*,*,#77,.T.);
#77 = EDGE_CURVE('',#78,#78,#80,.T.);
#78 = VERTEX_POINT('',#79);
#79 = CARTESIAN_POINT('',(-61.40630681162,141.85,-8.949386090558));
#80 = CIRCLE('',#81,2.1);
#81 = AXIS2_PLACEMENT_3D('',#82,#83,#84);
#82 = CARTESIAN_POINT('',(-61.40630681162,139.75,-8.949386090558));
#83 = DIRECTION('',(-0.991444861374,-2.032060478085E-16,-0.13052619222)
  );
#84 = DIRECTION('',(-2.119136656745E-16,1.,5.282209617965E-17));
#85 = PLANE('',#86);
#86 = AXIS2_PLACEMENT_3D('',#87,#88,#89);
#87 = CARTESIAN_POINT('',(-61.40630681162,139.75,-8.949386090558));
#88 = DIRECTION('',(0.991444861374,-3.363585750543E-16,0.13052619222));
#89 = DIRECTION('',(-0.13052619222,6.131848258936E-16,0.991444861374));
#90 = ADVANCED_FACE('',(#91),#110,.T.);
#91 = FACE_BOUND('',#92,.T.);
#92 = EDGE_LOOP('',(#93,#101,#108,#109));
#93 = ORIENTED_EDGE('',*,*,#94,.T.);
#94 = EDGE_CURVE('',#58,#95,#97,.T.);
#95 = VERTEX_POINT('',#96);
#96 = CARTESIAN_POINT('',(-57.83710531067,142.9,-8.479491798565));
#97 = LINE('',#98,#99);
#98 = CARTESIAN_POINT('',(-60.0182840057,142.9,-8.76664942145));
#99 = VECTOR('',#100,1.);
#100 = DIRECTION('',(0.991444861374,-2.744662211972E-16,0.13052619222));
#101 = ORIENTED_EDGE('',*,*,#102,.T.);
#102 = EDGE_CURVE('',#95,#95,#103,.T.);
#103 = CIRCLE('',#104,3.15);
#104 = AXIS2_PLACEMENT_3D('',#105,#106,#107);
#105 = CARTESIAN_POINT('',(-57.83710531067,139.75,-8.479491798565));
#106 = DIRECTION('',(-0.991444861374,-6.600631798482E-16,-0.13052619222)
  );
#107 = DIRECTION('',(-7.275206416944E-16,1.,4.69127466768E-16));
#108 = ORIENTED_EDGE('',*,*,#94,.F.);
#109 = ORIENTED_EDGE('',*,*,#57,.F.);
#110 = CYLINDRICAL_SURFACE('',#111,3.15);
#111 = AXIS2_PLACEMENT_3D('',#112,#113,#114);
#112 = CARTESIAN_POINT('',(-60.0182840057,139.75,-8.76664942145));
#113 = DIRECTION('',(-0.991444861374,-8.900750192008E-17,-0.13052619222)
  );
#114 = DIRECTION('',(-5.756739865217E-16,1.,3.044936354505E-16));
#115 = ADVANCED_FACE('',(#116),#134,.F.);
#116 = FACE_BOUND('',#117,.F.);
#117 = EDGE_LOOP('',(#118,#119,#126,#133));
#118 = ORIENTED_EDGE('',*,*,#77,.F.);
#119 = ORIENTED_EDGE('',*,*,#120,.F.);
#120 = EDGE_CURVE('',#121,#78,#123,.T.);
#121 = VERTEX_POINT('',#122);
#122 = CARTESIAN_POINT('',(-57.83710531067,141.85,-8.479491798565));
#123 = B_SPLINE_CURVE_WITH_KNOTS('',1,(#124,#125),.UNSPECIFIED.,.F.,.F.,
  (2,2),(-46.60417584451,46.604175844512),.PIECEWISE_BEZIER_KNOTS.);
#124 = CARTESIAN_POINT('',(-14.20939129064,141.85,-2.7357942838));
#125 = CARTESIAN_POINT('',(-106.6203326098,141.85,-14.90192551287));
#126 = ORIENTED_EDGE('',*,*,#127,.T.);
#127 = EDGE_CURVE('',#121,#121,#128,.T.);
#128 = CIRCLE('',#129,2.1);
#129 = AXIS2_PLACEMENT_3D('',#130,#131,#132);
#130 = CARTESIAN_POINT('',(-57.83710531067,139.75,-8.479491798565));
#131 = DIRECTION('',(-0.991444861374,-2.032060478085E-16,-0.13052619222)
  );
#132 = DIRECTION('',(-2.119136656745E-16,1.,5.282209617965E-17));
#133 = ORIENTED_EDGE('',*,*,#120,.T.);
#134 = CYLINDRICAL_SURFACE('',#135,2.1);
#135 = AXIS2_PLACEMENT_3D('',#136,#137,#138);
#136 = CARTESIAN_POINT('',(-60.41486195025,139.75,-8.818859898338));
#137 = DIRECTION('',(-0.991444861374,-2.003207131547E-16,-0.13052619222)
  );
#138 = DIRECTION('',(-2.119136656745E-16,1.,5.282209617965E-17));
#139 = ADVANCED_FACE('',(#140,#143),#146,.T.);
#140 = FACE_BOUND('',#141,.T.);
#141 = EDGE_LOOP('',(#142));
#142 = ORIENTED_EDGE('',*,*,#102,.F.);
#143 = FACE_BOUND('',#144,.T.);
#144 = EDGE_LOOP('',(#145));
#145 = ORIENTED_EDGE('',*,*,#127,.T.);
#146 = PLANE('',#147);
#147 = AXIS2_PLACEMENT_3D('',#148,#149,#150);
#148 = CARTESIAN_POINT('',(-57.83710531067,139.75,-8.479491798565));
#149 = DIRECTION('',(0.991444861374,5.24604888742E-16,0.13052619222));
#150 = DIRECTION('',(-0.13052619222,4.179166858914E-16,0.991444861374));
#151 = ( GEOMETRIC_REPRESENTATION_CONTEXT(3) 
GLOBAL_UNCERTAINTY_ASSIGNED_CONTEXT((#155)) GLOBAL_UNIT_ASSIGNED_CONTEXT
((#152,#153,#154)) REPRESENTATION_CONTEXT('Context #1',
  '3D Context with UNIT and UNCERTAINTY') );
#152 = ( LENGTH_UNIT() NAMED_UNIT(*) SI_UNIT(.MILLI.,.METRE.) );
#153 = ( NAMED_UNIT(*) PLANE_ANGLE_UNIT() SI_UNIT($,.RADIAN.) );
#154 = ( NAMED_UNIT(*) SI_UNIT($,.STERADIAN.) SOLID_ANGLE_UNIT() );
#155 = UNCERTAINTY_MEASURE_WITH_UNIT(LENGTH_MEASURE(2.E-06),#152,
  'distance_accuracy_value','confusion accuracy');
#156 = PRODUCT_RELATED_PRODUCT_CATEGORY('part',$,(#7));
ENDSEC;
END-ISO-10303-21;
