ISO-10303-21;
HEADER;
FILE_DESCRIPTION(('FreeCAD Model'),'2;1');
FILE_NAME('Open CASCADE Shape Model','2026-10-07T21:01:19',(''),(''),
  'Open CASCADE STEP processor 8.0','FreeCAD','Unknown');
FILE_SCHEMA(('AUTOMOTIVE_DESIGN { 1 0 10303 214 1 1 1 1 }'));
ENDSEC;
DATA;
#1 = APPLICATION_PROTOCOL_DEFINITION('international standard',
  'automotive_design',2000,#2);
#2 = APPLICATION_CONTEXT(
  'core data for automotive mechanical design processes');
#3 = SHAPE_DEFINITION_REPRESENTATION(#4,#10);
#4 = PRODUCT_DEFINITION_SHAPE('','',#5);
#5 = PRODUCT_DEFINITION('design','',#6,#9);
#6 = PRODUCT_DEFINITION_FORMATION('','',#7);
#7 = PRODUCT('Gasket (TPU, print 2)','Gasket (TPU, print 2)','',(#8));
#8 = PRODUCT_CONTEXT('',#2,'mechanical');
#9 = PRODUCT_DEFINITION_CONTEXT('part definition',#2,'design');
#10 = ADVANCED_BREP_SHAPE_REPRESENTATION('',(#11,#15),#611);
#11 = AXIS2_PLACEMENT_3D('',#12,#13,#14);
#12 = CARTESIAN_POINT('',(0.,0.,0.));
#13 = DIRECTION('',(0.,0.,1.));
#14 = DIRECTION('',(1.,0.,-0.));
#15 = MANIFOLD_SOLID_BREP('',#16);
#16 = CLOSED_SHELL('',(#17,#57,#90,#123,#232,#341,#358,#375,#392,#409,
    #421,#446,#468,#485,#502,#514,#539,#563,#587,#599));
#17 = ADVANCED_FACE('',(#18),#52,.F.);
#18 = FACE_BOUND('',#19,.F.);
#19 = EDGE_LOOP('',(#20,#30,#38,#46));
#20 = ORIENTED_EDGE('',*,*,#21,.T.);
#21 = EDGE_CURVE('',#22,#24,#26,.T.);
#22 = VERTEX_POINT('',#23);
#23 = CARTESIAN_POINT('',(-61.32854529579,-31.84999999998,
    -1.878745868724));
#24 = VERTEX_POINT('',#25);
#25 = CARTESIAN_POINT('',(-62.31999015716,-31.84999999998,
    -2.009272060944));
#26 = LINE('',#27,#28);
#27 = CARTESIAN_POINT('',(-61.32854529579,-31.84999999998,
    -1.878745868724));
#28 = VECTOR('',#29,1.);
#29 = DIRECTION('',(-0.991444861374,4.960988056225E-16,-0.13052619222));
#30 = ORIENTED_EDGE('',*,*,#31,.T.);
#31 = EDGE_CURVE('',#24,#32,#34,.T.);
#32 = VERTEX_POINT('',#33);
#33 = CARTESIAN_POINT('',(-62.31999015716,63.649999999988,
    -2.009272060944));
#34 = LINE('',#35,#36);
#35 = CARTESIAN_POINT('',(-62.31999015716,-31.84999999998,
    -2.009272060944));
#36 = VECTOR('',#37,1.);
#37 = DIRECTION('',(-1.455041283389E-15,1.,9.945759526977E-16));
#38 = ORIENTED_EDGE('',*,*,#39,.F.);
#39 = EDGE_CURVE('',#40,#32,#42,.T.);
#40 = VERTEX_POINT('',#41);
#41 = CARTESIAN_POINT('',(-61.32854529579,63.649999999988,
    -1.878745868724));
#42 = LINE('',#43,#44);
#43 = CARTESIAN_POINT('',(-61.32854529579,63.649999999988,
    -1.878745868724));
#44 = VECTOR('',#45,1.);
#45 = DIRECTION('',(-0.991444861374,4.960988056225E-16,-0.13052619222));
#46 = ORIENTED_EDGE('',*,*,#47,.F.);
#47 = EDGE_CURVE('',#22,#40,#48,.T.);
#48 = LINE('',#49,#50);
#49 = CARTESIAN_POINT('',(-61.32854529579,-31.84999999998,
    -1.878745868724));
#50 = VECTOR('',#51,1.);
#51 = DIRECTION('',(-1.455041283389E-15,1.,9.945759526977E-16));
#52 = PLANE('',#53);
#53 = AXIS2_PLACEMENT_3D('',#54,#55,#56);
#54 = CARTESIAN_POINT('',(-61.32854529579,-31.84999999998,
    -1.878745868724));
#55 = DIRECTION('',(0.13052619222,-5.156186372978E-16,-0.991444861374));
#56 = DIRECTION('',(-1.303194628216E-15,1.,8.299421213803E-16));
#57 = ADVANCED_FACE('',(#58),#85,.T.);
#58 = FACE_BOUND('',#59,.F.);
#59 = EDGE_LOOP('',(#60,#70,#77,#78));
#60 = ORIENTED_EDGE('',*,*,#61,.T.);
#61 = EDGE_CURVE('',#62,#64,#66,.T.);
#62 = VERTEX_POINT('',#63);
#63 = CARTESIAN_POINT('',(-60.93696671912,-34.84999999999,
    -4.853080452857));
#64 = VERTEX_POINT('',#65);
#65 = CARTESIAN_POINT('',(-61.9284115805,-34.84999999999,-4.983606645077
    ));
#66 = LINE('',#67,#68);
#67 = CARTESIAN_POINT('',(-60.93696671912,-34.84999999999,
    -4.853080452857));
#68 = VECTOR('',#69,1.);
#69 = DIRECTION('',(-0.991444861374,4.960988056225E-16,-0.13052619222));
#70 = ORIENTED_EDGE('',*,*,#71,.T.);
#71 = EDGE_CURVE('',#64,#24,#72,.T.);
#72 = CIRCLE('',#73,3.000000000007);
#73 = AXIS2_PLACEMENT_3D('',#74,#75,#76);
#74 = CARTESIAN_POINT('',(-61.9284115805,-31.84999999999,-4.983606645072
    ));
#75 = DIRECTION('',(-0.991444861374,-1.312774991523E-15,-0.13052619222)
  );
#76 = DIRECTION('',(-1.455041283389E-15,1.,9.945759526977E-16));
#77 = ORIENTED_EDGE('',*,*,#21,.F.);
#78 = ORIENTED_EDGE('',*,*,#79,.F.);
#79 = EDGE_CURVE('',#62,#22,#80,.T.);
#80 = CIRCLE('',#81,3.000000000007);
#81 = AXIS2_PLACEMENT_3D('',#82,#83,#84);
#82 = CARTESIAN_POINT('',(-60.93696671913,-31.84999999999,
    -4.853080452852));
#83 = DIRECTION('',(-0.991444861374,-1.312774991523E-15,-0.13052619222)
  );
#84 = DIRECTION('',(-1.455041283389E-15,1.,9.945759526977E-16));
#85 = CYLINDRICAL_SURFACE('',#86,3.000000000007);
#86 = AXIS2_PLACEMENT_3D('',#87,#88,#89);
#87 = CARTESIAN_POINT('',(-60.93696671913,-31.84999999999,
    -4.853080452852));
#88 = DIRECTION('',(0.991444861374,-1.326250825052E-16,0.13052619222));
#89 = DIRECTION('',(-1.303194628216E-15,1.,8.299421213803E-16));
#90 = ADVANCED_FACE('',(#91),#118,.T.);
#91 = FACE_BOUND('',#92,.F.);
#92 = EDGE_LOOP('',(#93,#94,#103,#111));
#93 = ORIENTED_EDGE('',*,*,#39,.T.);
#94 = ORIENTED_EDGE('',*,*,#95,.T.);
#95 = EDGE_CURVE('',#32,#96,#98,.T.);
#96 = VERTEX_POINT('',#97);
#97 = CARTESIAN_POINT('',(-61.9284115805,66.649999999998,-4.983606645077
    ));
#98 = CIRCLE('',#99,3.000000000007);
#99 = AXIS2_PLACEMENT_3D('',#100,#101,#102);
#100 = CARTESIAN_POINT('',(-61.9284115805,63.649999999991,
    -4.983606645072));
#101 = DIRECTION('',(-0.991444861374,-1.312774991523E-15,-0.13052619222)
  );
#102 = DIRECTION('',(-1.455041283389E-15,1.,9.945759526977E-16));
#103 = ORIENTED_EDGE('',*,*,#104,.F.);
#104 = EDGE_CURVE('',#105,#96,#107,.T.);
#105 = VERTEX_POINT('',#106);
#106 = CARTESIAN_POINT('',(-60.93696671912,66.649999999998,
    -4.853080452857));
#107 = LINE('',#108,#109);
#108 = CARTESIAN_POINT('',(-60.93696671912,66.649999999998,
    -4.853080452857));
#109 = VECTOR('',#110,1.);
#110 = DIRECTION('',(-0.991444861374,4.960988056225E-16,-0.13052619222)
  );
#111 = ORIENTED_EDGE('',*,*,#112,.F.);
#112 = EDGE_CURVE('',#40,#105,#113,.T.);
#113 = CIRCLE('',#114,3.000000000007);
#114 = AXIS2_PLACEMENT_3D('',#115,#116,#117);
#115 = CARTESIAN_POINT('',(-60.93696671913,63.649999999991,
    -4.853080452852));
#116 = DIRECTION('',(-0.991444861374,-1.312774991523E-15,-0.13052619222)
  );
#117 = DIRECTION('',(-1.455041283389E-15,1.,9.945759526977E-16));
#118 = CYLINDRICAL_SURFACE('',#119,3.000000000007);
#119 = AXIS2_PLACEMENT_3D('',#120,#121,#122);
#120 = CARTESIAN_POINT('',(-60.93696671913,63.649999999991,
    -4.853080452852));
#121 = DIRECTION('',(0.991444861374,-1.326250825052E-16,0.13052619222));
#122 = DIRECTION('',(-1.303194628216E-15,1.,8.299421213803E-16));
#123 = ADVANCED_FACE('',(#124,#169,#180,#216),#227,.T.);
#124 = FACE_BOUND('',#125,.T.);
#125 = EDGE_LOOP('',(#126,#127,#128,#136,#145,#153,#162,#168));
#126 = ORIENTED_EDGE('',*,*,#47,.F.);
#127 = ORIENTED_EDGE('',*,*,#79,.F.);
#128 = ORIENTED_EDGE('',*,*,#129,.F.);
#129 = EDGE_CURVE('',#130,#62,#132,.T.);
#130 = VERTEX_POINT('',#131);
#131 = CARTESIAN_POINT('',(-59.89275718137,-34.84999999999,
    -12.78463934381));
#132 = LINE('',#133,#134);
#133 = CARTESIAN_POINT('',(-59.89275718137,-34.84999999999,
    -12.78463934381));
#134 = VECTOR('',#135,1.);
#135 = DIRECTION('',(-0.13052619222,8.691944652169E-16,0.991444861374));
#136 = ORIENTED_EDGE('',*,*,#137,.F.);
#137 = EDGE_CURVE('',#138,#130,#140,.T.);
#138 = VERTEX_POINT('',#139);
#139 = CARTESIAN_POINT('',(-59.50117860471,-31.84999999998,
    -15.75897392795));
#140 = CIRCLE('',#141,3.000000000007);
#141 = AXIS2_PLACEMENT_3D('',#142,#143,#144);
#142 = CARTESIAN_POINT('',(-59.89275718137,-31.84999999999,
    -12.78463934382));
#143 = DIRECTION('',(-0.991444861374,-1.312774991523E-15,-0.13052619222)
  );
#144 = DIRECTION('',(-1.455041283389E-15,1.,9.945759526977E-16));
#145 = ORIENTED_EDGE('',*,*,#146,.F.);
#146 = EDGE_CURVE('',#147,#138,#149,.T.);
#147 = VERTEX_POINT('',#148);
#148 = CARTESIAN_POINT('',(-59.50117860471,63.649999999988,
    -15.75897392795));
#149 = LINE('',#150,#151);
#150 = CARTESIAN_POINT('',(-59.50117860471,63.649999999988,
    -15.75897392795));
#151 = VECTOR('',#152,1.);
#152 = DIRECTION('',(1.455041283389E-15,-1.,-9.945759526977E-16));
#153 = ORIENTED_EDGE('',*,*,#154,.F.);
#154 = EDGE_CURVE('',#155,#147,#157,.T.);
#155 = VERTEX_POINT('',#156);
#156 = CARTESIAN_POINT('',(-59.89275718137,66.649999999998,
    -12.78463934381));
#157 = CIRCLE('',#158,3.000000000007);
#158 = AXIS2_PLACEMENT_3D('',#159,#160,#161);
#159 = CARTESIAN_POINT('',(-59.89275718137,63.649999999991,
    -12.78463934382));
#160 = DIRECTION('',(-0.991444861374,-1.312774991523E-15,-0.13052619222)
  );
#161 = DIRECTION('',(-1.455041283389E-15,1.,9.945759526977E-16));
#162 = ORIENTED_EDGE('',*,*,#163,.F.);
#163 = EDGE_CURVE('',#105,#155,#164,.T.);
#164 = LINE('',#165,#166);
#165 = CARTESIAN_POINT('',(-60.93696671912,66.649999999999,
    -4.853080452857));
#166 = VECTOR('',#167,1.);
#167 = DIRECTION('',(0.13052619222,-8.691944652169E-16,-0.991444861374)
  );
#168 = ORIENTED_EDGE('',*,*,#112,.F.);
#169 = FACE_BOUND('',#170,.T.);
#170 = EDGE_LOOP('',(#171));
#171 = ORIENTED_EDGE('',*,*,#172,.T.);
#172 = EDGE_CURVE('',#173,#173,#175,.T.);
#173 = VERTEX_POINT('',#174);
#174 = CARTESIAN_POINT('',(-60.41486195025,60.8,-8.818859898338));
#175 = CIRCLE('',#176,3.15);
#176 = AXIS2_PLACEMENT_3D('',#177,#178,#179);
#177 = CARTESIAN_POINT('',(-60.41486195025,57.65,-8.818859898338));
#178 = DIRECTION('',(-0.991444861374,-9.864190856857E-16,-0.13052619222)
  );
#179 = DIRECTION('',(-1.091280962542E-15,1.,7.318517097329E-16));
#180 = FACE_BOUND('',#181,.T.);
#181 = EDGE_LOOP('',(#182,#192,#201,#209));
#182 = ORIENTED_EDGE('',*,*,#183,.F.);
#183 = EDGE_CURVE('',#184,#186,#188,.T.);
#184 = VERTEX_POINT('',#185);
#185 = CARTESIAN_POINT('',(-59.89275718137,-14.69307806183,
    -12.78463934383));
#186 = VERTEX_POINT('',#187);
#187 = CARTESIAN_POINT('',(-59.89275718137,46.493078061835,
    -12.78463934383));
#188 = LINE('',#189,#190);
#189 = CARTESIAN_POINT('',(-59.89275718137,15.9,-12.78463934383));
#190 = VECTOR('',#191,1.);
#191 = DIRECTION('',(-1.092583422599E-16,1.,2.482414075245E-16));
#192 = ORIENTED_EDGE('',*,*,#193,.T.);
#193 = EDGE_CURVE('',#184,#194,#196,.T.);
#194 = VERTEX_POINT('',#195);
#195 = CARTESIAN_POINT('',(-60.93696671913,-14.69307806183,
    -4.853080452842));
#196 = CIRCLE('',#197,4.);
#197 = AXIS2_PLACEMENT_3D('',#198,#199,#200);
#198 = CARTESIAN_POINT('',(-60.41486195025,-14.69307806183,
    -8.818859898338));
#199 = DIRECTION('',(-0.991444861374,-2.032060478085E-16,-0.13052619222)
  );
#200 = DIRECTION('',(-2.119136656745E-16,1.,5.282209617965E-17));
#201 = ORIENTED_EDGE('',*,*,#202,.F.);
#202 = EDGE_CURVE('',#203,#194,#205,.T.);
#203 = VERTEX_POINT('',#204);
#204 = CARTESIAN_POINT('',(-60.93696671913,46.493078061835,
    -4.853080452842));
#205 = LINE('',#206,#207);
#206 = CARTESIAN_POINT('',(-60.93696671913,15.9,-4.853080452842));
#207 = VECTOR('',#208,1.);
#208 = DIRECTION('',(6.941394527656E-17,-1.,5.440683473085E-17));
#209 = ORIENTED_EDGE('',*,*,#210,.T.);
#210 = EDGE_CURVE('',#203,#186,#211,.T.);
#211 = CIRCLE('',#212,4.);
#212 = AXIS2_PLACEMENT_3D('',#213,#214,#215);
#213 = CARTESIAN_POINT('',(-60.41486195025,46.493078061835,
    -8.818859898338));
#214 = DIRECTION('',(-0.991444861374,-2.032060478085E-16,-0.13052619222)
  );
#215 = DIRECTION('',(-2.119136656745E-16,1.,5.282209617965E-17));
#216 = FACE_BOUND('',#217,.T.);
#217 = EDGE_LOOP('',(#218));
#218 = ORIENTED_EDGE('',*,*,#219,.T.);
#219 = EDGE_CURVE('',#220,#220,#222,.T.);
#220 = VERTEX_POINT('',#221);
#221 = CARTESIAN_POINT('',(-60.41486195025,-22.7,-8.818859898338));
#222 = CIRCLE('',#223,3.15);
#223 = AXIS2_PLACEMENT_3D('',#224,#225,#226);
#224 = CARTESIAN_POINT('',(-60.41486195025,-25.85,-8.818859898338));
#225 = DIRECTION('',(-0.991444861374,-9.864190856857E-16,-0.13052619222)
  );
#226 = DIRECTION('',(-1.091280962542E-15,1.,7.318517097329E-16));
#227 = PLANE('',#228);
#228 = AXIS2_PLACEMENT_3D('',#229,#230,#231);
#229 = CARTESIAN_POINT('',(-60.41486195025,15.9,-8.818859898337));
#230 = DIRECTION('',(0.991444861374,-4.452945610375E-16,0.13052619222));
#231 = DIRECTION('',(-0.13052619222,8.223454034559E-16,0.991444861374));
#232 = ADVANCED_FACE('',(#233,#278,#289,#325),#336,.F.);
#233 = FACE_BOUND('',#234,.F.);
#234 = EDGE_LOOP('',(#235,#236,#237,#245,#254,#262,#271,#277));
#235 = ORIENTED_EDGE('',*,*,#31,.F.);
#236 = ORIENTED_EDGE('',*,*,#71,.F.);
#237 = ORIENTED_EDGE('',*,*,#238,.F.);
#238 = EDGE_CURVE('',#239,#64,#241,.T.);
#239 = VERTEX_POINT('',#240);
#240 = CARTESIAN_POINT('',(-60.88420204274,-34.84999999999,
    -12.91516553603));
#241 = LINE('',#242,#243);
#242 = CARTESIAN_POINT('',(-60.88420204274,-34.84999999999,
    -12.91516553603));
#243 = VECTOR('',#244,1.);
#244 = DIRECTION('',(-0.13052619222,8.691944652169E-16,0.991444861374));
#245 = ORIENTED_EDGE('',*,*,#246,.F.);
#246 = EDGE_CURVE('',#247,#239,#249,.T.);
#247 = VERTEX_POINT('',#248);
#248 = CARTESIAN_POINT('',(-60.49262346608,-31.84999999998,
    -15.88950012017));
#249 = CIRCLE('',#250,3.000000000007);
#250 = AXIS2_PLACEMENT_3D('',#251,#252,#253);
#251 = CARTESIAN_POINT('',(-60.88420204274,-31.84999999999,
    -12.91516553604));
#252 = DIRECTION('',(-0.991444861374,-1.312774991523E-15,-0.13052619222)
  );
#253 = DIRECTION('',(-1.455041283389E-15,1.,9.945759526977E-16));
#254 = ORIENTED_EDGE('',*,*,#255,.F.);
#255 = EDGE_CURVE('',#256,#247,#258,.T.);
#256 = VERTEX_POINT('',#257);
#257 = CARTESIAN_POINT('',(-60.49262346608,63.649999999988,
    -15.88950012017));
#258 = LINE('',#259,#260);
#259 = CARTESIAN_POINT('',(-60.49262346608,63.649999999988,
    -15.88950012017));
#260 = VECTOR('',#261,1.);
#261 = DIRECTION('',(1.455041283389E-15,-1.,-9.945759526977E-16));
#262 = ORIENTED_EDGE('',*,*,#263,.F.);
#263 = EDGE_CURVE('',#264,#256,#266,.T.);
#264 = VERTEX_POINT('',#265);
#265 = CARTESIAN_POINT('',(-60.88420204274,66.649999999998,
    -12.91516553603));
#266 = CIRCLE('',#267,3.000000000007);
#267 = AXIS2_PLACEMENT_3D('',#268,#269,#270);
#268 = CARTESIAN_POINT('',(-60.88420204274,63.649999999991,
    -12.91516553604));
#269 = DIRECTION('',(-0.991444861374,-1.312774991523E-15,-0.13052619222)
  );
#270 = DIRECTION('',(-1.455041283389E-15,1.,9.945759526977E-16));
#271 = ORIENTED_EDGE('',*,*,#272,.F.);
#272 = EDGE_CURVE('',#96,#264,#273,.T.);
#273 = LINE('',#274,#275);
#274 = CARTESIAN_POINT('',(-61.9284115805,66.649999999999,
    -4.983606645077));
#275 = VECTOR('',#276,1.);
#276 = DIRECTION('',(0.13052619222,-8.691944652169E-16,-0.991444861374)
  );
#277 = ORIENTED_EDGE('',*,*,#95,.F.);
#278 = FACE_BOUND('',#279,.F.);
#279 = EDGE_LOOP('',(#280));
#280 = ORIENTED_EDGE('',*,*,#281,.T.);
#281 = EDGE_CURVE('',#282,#282,#284,.T.);
#282 = VERTEX_POINT('',#283);
#283 = CARTESIAN_POINT('',(-61.40630681162,59.75,-8.949386090558));
#284 = CIRCLE('',#285,2.1);
#285 = AXIS2_PLACEMENT_3D('',#286,#287,#288);
#286 = CARTESIAN_POINT('',(-61.40630681162,57.65,-8.949386090558));
#287 = DIRECTION('',(-0.991444861374,-5.310046209729E-16,-0.13052619222)
  );
#288 = DIRECTION('',(-5.756739865217E-16,1.,3.044936354505E-16));
#289 = FACE_BOUND('',#290,.F.);
#290 = EDGE_LOOP('',(#291,#301,#310,#318));
#291 = ORIENTED_EDGE('',*,*,#292,.F.);
#292 = EDGE_CURVE('',#293,#295,#297,.T.);
#293 = VERTEX_POINT('',#294);
#294 = CARTESIAN_POINT('',(-60.88420204274,-14.69307806183,
    -12.91516553605));
#295 = VERTEX_POINT('',#296);
#296 = CARTESIAN_POINT('',(-60.88420204274,46.493078061835,
    -12.91516553605));
#297 = LINE('',#298,#299);
#298 = CARTESIAN_POINT('',(-60.88420204274,15.9,-12.91516553605));
#299 = VECTOR('',#300,1.);
#300 = DIRECTION('',(-1.092583422599E-16,1.,2.482414075245E-16));
#301 = ORIENTED_EDGE('',*,*,#302,.T.);
#302 = EDGE_CURVE('',#293,#303,#305,.T.);
#303 = VERTEX_POINT('',#304);
#304 = CARTESIAN_POINT('',(-61.9284115805,-14.69307806183,
    -4.983606645062));
#305 = CIRCLE('',#306,4.);
#306 = AXIS2_PLACEMENT_3D('',#307,#308,#309);
#307 = CARTESIAN_POINT('',(-61.40630681162,-14.69307806183,
    -8.949386090558));
#308 = DIRECTION('',(-0.991444861374,-2.032060478085E-16,-0.13052619222)
  );
#309 = DIRECTION('',(-2.119136656745E-16,1.,5.282209617965E-17));
#310 = ORIENTED_EDGE('',*,*,#311,.F.);
#311 = EDGE_CURVE('',#312,#303,#314,.T.);
#312 = VERTEX_POINT('',#313);
#313 = CARTESIAN_POINT('',(-61.9284115805,46.493078061835,
    -4.983606645062));
#314 = LINE('',#315,#316);
#315 = CARTESIAN_POINT('',(-61.9284115805,15.9,-4.983606645062));
#316 = VECTOR('',#317,1.);
#317 = DIRECTION('',(6.941394527656E-17,-1.,5.440683473085E-17));
#318 = ORIENTED_EDGE('',*,*,#319,.T.);
#319 = EDGE_CURVE('',#312,#295,#320,.T.);
#320 = CIRCLE('',#321,4.);
#321 = AXIS2_PLACEMENT_3D('',#322,#323,#324);
#322 = CARTESIAN_POINT('',(-61.40630681162,46.493078061835,
    -8.949386090558));
#323 = DIRECTION('',(-0.991444861374,-2.032060478085E-16,-0.13052619222)
  );
#324 = DIRECTION('',(-2.119136656745E-16,1.,5.282209617965E-17));
#325 = FACE_BOUND('',#326,.F.);
#326 = EDGE_LOOP('',(#327));
#327 = ORIENTED_EDGE('',*,*,#328,.T.);
#328 = EDGE_CURVE('',#329,#329,#331,.T.);
#329 = VERTEX_POINT('',#330);
#330 = CARTESIAN_POINT('',(-61.40630681162,-23.75,-8.949386090558));
#331 = CIRCLE('',#332,2.1);
#332 = AXIS2_PLACEMENT_3D('',#333,#334,#335);
#333 = CARTESIAN_POINT('',(-61.40630681162,-25.85,-8.949386090558));
#334 = DIRECTION('',(-0.991444861374,-5.310046209729E-16,-0.13052619222)
  );
#335 = DIRECTION('',(-5.756739865217E-16,1.,3.044936354505E-16));
#336 = PLANE('',#337);
#337 = AXIS2_PLACEMENT_3D('',#338,#339,#340);
#338 = CARTESIAN_POINT('',(-61.40630681162,15.9,-8.949386090558));
#339 = DIRECTION('',(0.991444861374,-4.452945610375E-16,0.13052619222));
#340 = DIRECTION('',(-0.13052619222,8.223454034559E-16,0.991444861374));
#341 = ADVANCED_FACE('',(#342),#353,.F.);
#342 = FACE_BOUND('',#343,.F.);
#343 = EDGE_LOOP('',(#344,#350,#351,#352));
#344 = ORIENTED_EDGE('',*,*,#345,.T.);
#345 = EDGE_CURVE('',#130,#239,#346,.T.);
#346 = LINE('',#347,#348);
#347 = CARTESIAN_POINT('',(-59.89275718137,-34.84999999999,
    -12.78463934381));
#348 = VECTOR('',#349,1.);
#349 = DIRECTION('',(-0.991444861374,4.960988056225E-16,-0.13052619222)
  );
#350 = ORIENTED_EDGE('',*,*,#238,.T.);
#351 = ORIENTED_EDGE('',*,*,#61,.F.);
#352 = ORIENTED_EDGE('',*,*,#129,.F.);
#353 = PLANE('',#354);
#354 = AXIS2_PLACEMENT_3D('',#355,#356,#357);
#355 = CARTESIAN_POINT('',(-59.89275718137,-34.84999999999,
    -12.78463934381));
#356 = DIRECTION('',(-9.23010507486E-16,1.,7.268373764431E-16));
#357 = DIRECTION('',(-0.13052619222,6.674652924705E-16,0.991444861374));
#358 = ADVANCED_FACE('',(#359),#370,.F.);
#359 = FACE_BOUND('',#360,.F.);
#360 = EDGE_LOOP('',(#361,#362,#363,#369));
#361 = ORIENTED_EDGE('',*,*,#104,.T.);
#362 = ORIENTED_EDGE('',*,*,#272,.T.);
#363 = ORIENTED_EDGE('',*,*,#364,.F.);
#364 = EDGE_CURVE('',#155,#264,#365,.T.);
#365 = LINE('',#366,#367);
#366 = CARTESIAN_POINT('',(-59.89275718137,66.649999999998,
    -12.78463934381));
#367 = VECTOR('',#368,1.);
#368 = DIRECTION('',(-0.991444861374,4.960988056225E-16,-0.13052619222)
  );
#369 = ORIENTED_EDGE('',*,*,#163,.F.);
#370 = PLANE('',#371);
#371 = AXIS2_PLACEMENT_3D('',#372,#373,#374);
#372 = CARTESIAN_POINT('',(-60.93696671912,66.649999999999,
    -4.853080452857));
#373 = DIRECTION('',(9.23010507486E-16,-1.,-7.268373764431E-16));
#374 = DIRECTION('',(0.13052619222,-6.674652924705E-16,-0.991444861374)
  );
#375 = ADVANCED_FACE('',(#376),#387,.T.);
#376 = FACE_BOUND('',#377,.F.);
#377 = EDGE_LOOP('',(#378,#384,#385,#386));
#378 = ORIENTED_EDGE('',*,*,#379,.T.);
#379 = EDGE_CURVE('',#138,#247,#380,.T.);
#380 = LINE('',#381,#382);
#381 = CARTESIAN_POINT('',(-59.50117860471,-31.84999999998,
    -15.75897392795));
#382 = VECTOR('',#383,1.);
#383 = DIRECTION('',(-0.991444861374,4.960988056225E-16,-0.13052619222)
  );
#384 = ORIENTED_EDGE('',*,*,#246,.T.);
#385 = ORIENTED_EDGE('',*,*,#345,.F.);
#386 = ORIENTED_EDGE('',*,*,#137,.F.);
#387 = CYLINDRICAL_SURFACE('',#388,3.000000000007);
#388 = AXIS2_PLACEMENT_3D('',#389,#390,#391);
#389 = CARTESIAN_POINT('',(-59.89275718137,-31.84999999999,
    -12.78463934382));
#390 = DIRECTION('',(0.991444861374,-1.326250825052E-16,0.13052619222));
#391 = DIRECTION('',(-1.303194628216E-15,1.,8.299421213803E-16));
#392 = ADVANCED_FACE('',(#393),#404,.T.);
#393 = FACE_BOUND('',#394,.F.);
#394 = EDGE_LOOP('',(#395,#396,#397,#403));
#395 = ORIENTED_EDGE('',*,*,#364,.T.);
#396 = ORIENTED_EDGE('',*,*,#263,.T.);
#397 = ORIENTED_EDGE('',*,*,#398,.F.);
#398 = EDGE_CURVE('',#147,#256,#399,.T.);
#399 = LINE('',#400,#401);
#400 = CARTESIAN_POINT('',(-59.50117860471,63.649999999988,
    -15.75897392795));
#401 = VECTOR('',#402,1.);
#402 = DIRECTION('',(-0.991444861374,4.960988056225E-16,-0.13052619222)
  );
#403 = ORIENTED_EDGE('',*,*,#154,.F.);
#404 = CYLINDRICAL_SURFACE('',#405,3.000000000007);
#405 = AXIS2_PLACEMENT_3D('',#406,#407,#408);
#406 = CARTESIAN_POINT('',(-59.89275718137,63.649999999991,
    -12.78463934382));
#407 = DIRECTION('',(0.991444861374,-1.326250825052E-16,0.13052619222));
#408 = DIRECTION('',(-1.303194628216E-15,1.,8.299421213803E-16));
#409 = ADVANCED_FACE('',(#410),#416,.F.);
#410 = FACE_BOUND('',#411,.F.);
#411 = EDGE_LOOP('',(#412,#413,#414,#415));
#412 = ORIENTED_EDGE('',*,*,#398,.T.);
#413 = ORIENTED_EDGE('',*,*,#255,.T.);
#414 = ORIENTED_EDGE('',*,*,#379,.F.);
#415 = ORIENTED_EDGE('',*,*,#146,.F.);
#416 = PLANE('',#417);
#417 = AXIS2_PLACEMENT_3D('',#418,#419,#420);
#418 = CARTESIAN_POINT('',(-59.50117860471,63.649999999988,
    -15.75897392795));
#419 = DIRECTION('',(-0.13052619222,5.156186372978E-16,0.991444861374));
#420 = DIRECTION('',(1.303194628216E-15,-1.,-8.299421213803E-16));
#421 = ADVANCED_FACE('',(#422),#441,.T.);
#422 = FACE_BOUND('',#423,.T.);
#423 = EDGE_LOOP('',(#424,#432,#439,#440));
#424 = ORIENTED_EDGE('',*,*,#425,.T.);
#425 = EDGE_CURVE('',#173,#426,#428,.T.);
#426 = VERTEX_POINT('',#427);
#427 = CARTESIAN_POINT('',(-57.83710531067,60.8,-8.479491798565));
#428 = LINE('',#429,#430);
#429 = CARTESIAN_POINT('',(-60.41486195025,60.8,-8.818859898338));
#430 = VECTOR('',#431,1.);
#431 = DIRECTION('',(0.991444861374,-3.843367651049E-16,0.13052619222));
#432 = ORIENTED_EDGE('',*,*,#433,.T.);
#433 = EDGE_CURVE('',#426,#426,#434,.T.);
#434 = CIRCLE('',#435,3.15);
#435 = AXIS2_PLACEMENT_3D('',#436,#437,#438);
#436 = CARTESIAN_POINT('',(-57.83710531067,57.65,-8.479491798565));
#437 = DIRECTION('',(-0.991444861374,-9.864190856857E-16,-0.13052619222)
  );
#438 = DIRECTION('',(-1.091280962542E-15,1.,7.318517097329E-16));
#439 = ORIENTED_EDGE('',*,*,#425,.F.);
#440 = ORIENTED_EDGE('',*,*,#172,.F.);
#441 = CYLINDRICAL_SURFACE('',#442,3.15);
#442 = AXIS2_PLACEMENT_3D('',#443,#444,#445);
#443 = CARTESIAN_POINT('',(-60.41486195025,57.65,-8.818859898338));
#444 = DIRECTION('',(-0.991444861374,2.086304198758E-17,-0.13052619222)
  );
#445 = DIRECTION('',(-9.394343073689E-16,1.,5.672178784154E-16));
#446 = ADVANCED_FACE('',(#447),#463,.F.);
#447 = FACE_BOUND('',#448,.F.);
#448 = EDGE_LOOP('',(#449,#455,#456,#462));
#449 = ORIENTED_EDGE('',*,*,#450,.F.);
#450 = EDGE_CURVE('',#186,#295,#451,.T.);
#451 = LINE('',#452,#453);
#452 = CARTESIAN_POINT('',(-59.89275718137,46.493078061835,
    -12.78463934383));
#453 = VECTOR('',#454,1.);
#454 = DIRECTION('',(-0.991444861374,1.631530099626E-16,-0.13052619222)
  );
#455 = ORIENTED_EDGE('',*,*,#183,.F.);
#456 = ORIENTED_EDGE('',*,*,#457,.F.);
#457 = EDGE_CURVE('',#293,#184,#458,.T.);
#458 = LINE('',#459,#460);
#459 = CARTESIAN_POINT('',(-59.89275718137,-14.69307806183,
    -12.78463934383));
#460 = VECTOR('',#461,1.);
#461 = DIRECTION('',(0.991444861374,-1.631530099626E-16,0.13052619222));
#462 = ORIENTED_EDGE('',*,*,#292,.T.);
#463 = PLANE('',#464);
#464 = AXIS2_PLACEMENT_3D('',#465,#466,#467);
#465 = CARTESIAN_POINT('',(-59.89275718137,15.900000000001,
    -12.78463934383));
#466 = DIRECTION('',(0.13052619222,2.822950358172E-16,-0.991444861374));
#467 = DIRECTION('',(-3.984439698335E-17,1.,2.573799267875E-16));
#468 = ADVANCED_FACE('',(#469),#480,.F.);
#469 = FACE_BOUND('',#470,.F.);
#470 = EDGE_LOOP('',(#471,#472,#478,#479));
#471 = ORIENTED_EDGE('',*,*,#319,.F.);
#472 = ORIENTED_EDGE('',*,*,#473,.T.);
#473 = EDGE_CURVE('',#312,#203,#474,.T.);
#474 = LINE('',#475,#476);
#475 = CARTESIAN_POINT('',(-60.93696671913,46.493078061835,
    -4.853080452842));
#476 = VECTOR('',#477,1.);
#477 = DIRECTION('',(0.991444861374,-1.631530099626E-16,0.13052619222));
#478 = ORIENTED_EDGE('',*,*,#210,.T.);
#479 = ORIENTED_EDGE('',*,*,#450,.T.);
#480 = CYLINDRICAL_SURFACE('',#481,4.);
#481 = AXIS2_PLACEMENT_3D('',#482,#483,#484);
#482 = CARTESIAN_POINT('',(-60.41486195025,46.493078061835,
    -8.818859898338));
#483 = DIRECTION('',(-0.991444861374,-2.003207131547E-16,-0.13052619222)
  );
#484 = DIRECTION('',(-2.119136656745E-16,1.,5.282209617965E-17));
#485 = ADVANCED_FACE('',(#486),#497,.F.);
#486 = FACE_BOUND('',#487,.F.);
#487 = EDGE_LOOP('',(#488,#494,#495,#496));
#488 = ORIENTED_EDGE('',*,*,#489,.F.);
#489 = EDGE_CURVE('',#194,#303,#490,.T.);
#490 = LINE('',#491,#492);
#491 = CARTESIAN_POINT('',(-60.93696671913,-14.69307806183,
    -4.853080452842));
#492 = VECTOR('',#493,1.);
#493 = DIRECTION('',(-0.991444861374,1.631530099626E-16,-0.13052619222)
  );
#494 = ORIENTED_EDGE('',*,*,#202,.F.);
#495 = ORIENTED_EDGE('',*,*,#473,.F.);
#496 = ORIENTED_EDGE('',*,*,#311,.T.);
#497 = PLANE('',#498);
#498 = AXIS2_PLACEMENT_3D('',#499,#500,#501);
#499 = CARTESIAN_POINT('',(-60.93696671913,15.900000000001,
    -4.853080452842));
#500 = DIRECTION('',(-0.13052619222,2.296474619016E-17,0.991444861374));
#501 = DIRECTION('',(0.991444861374,3.023366192396E-18,0.13052619222));
#502 = ADVANCED_FACE('',(#503),#509,.F.);
#503 = FACE_BOUND('',#504,.F.);
#504 = EDGE_LOOP('',(#505,#506,#507,#508));
#505 = ORIENTED_EDGE('',*,*,#302,.F.);
#506 = ORIENTED_EDGE('',*,*,#457,.T.);
#507 = ORIENTED_EDGE('',*,*,#193,.T.);
#508 = ORIENTED_EDGE('',*,*,#489,.T.);
#509 = CYLINDRICAL_SURFACE('',#510,4.);
#510 = AXIS2_PLACEMENT_3D('',#511,#512,#513);
#511 = CARTESIAN_POINT('',(-60.41486195025,-14.69307806183,
    -8.818859898338));
#512 = DIRECTION('',(-0.991444861374,-2.003207131547E-16,-0.13052619222)
  );
#513 = DIRECTION('',(-2.119136656745E-16,1.,5.282209617965E-17));
#514 = ADVANCED_FACE('',(#515),#534,.T.);
#515 = FACE_BOUND('',#516,.T.);
#516 = EDGE_LOOP('',(#517,#525,#532,#533));
#517 = ORIENTED_EDGE('',*,*,#518,.T.);
#518 = EDGE_CURVE('',#220,#519,#521,.T.);
#519 = VERTEX_POINT('',#520);
#520 = CARTESIAN_POINT('',(-57.83710531067,-22.7,-8.479491798565));
#521 = LINE('',#522,#523);
#522 = CARTESIAN_POINT('',(-60.41486195025,-22.7,-8.818859898338));
#523 = VECTOR('',#524,1.);
#524 = DIRECTION('',(0.991444861374,-3.843367651049E-16,0.13052619222));
#525 = ORIENTED_EDGE('',*,*,#526,.T.);
#526 = EDGE_CURVE('',#519,#519,#527,.T.);
#527 = CIRCLE('',#528,3.15);
#528 = AXIS2_PLACEMENT_3D('',#529,#530,#531);
#529 = CARTESIAN_POINT('',(-57.83710531067,-25.85,-8.479491798565));
#530 = DIRECTION('',(-0.991444861374,-9.864190856857E-16,-0.13052619222)
  );
#531 = DIRECTION('',(-1.091280962542E-15,1.,7.318517097329E-16));
#532 = ORIENTED_EDGE('',*,*,#518,.F.);
#533 = ORIENTED_EDGE('',*,*,#219,.F.);
#534 = CYLINDRICAL_SURFACE('',#535,3.15);
#535 = AXIS2_PLACEMENT_3D('',#536,#537,#538);
#536 = CARTESIAN_POINT('',(-60.41486195025,-25.85,-8.818859898338));
#537 = DIRECTION('',(-0.991444861374,2.086304198758E-17,-0.13052619222)
  );
#538 = DIRECTION('',(-9.394343073689E-16,1.,5.672178784154E-16));
#539 = ADVANCED_FACE('',(#540),#558,.F.);
#540 = FACE_BOUND('',#541,.F.);
#541 = EDGE_LOOP('',(#542,#551,#556,#557));
#542 = ORIENTED_EDGE('',*,*,#543,.T.);
#543 = EDGE_CURVE('',#544,#544,#546,.T.);
#544 = VERTEX_POINT('',#545);
#545 = CARTESIAN_POINT('',(-57.83710531067,59.75,-8.479491798565));
#546 = CIRCLE('',#547,2.1);
#547 = AXIS2_PLACEMENT_3D('',#548,#549,#550);
#548 = CARTESIAN_POINT('',(-57.83710531067,57.65,-8.479491798565));
#549 = DIRECTION('',(-0.991444861374,-5.310046209729E-16,-0.13052619222)
  );
#550 = DIRECTION('',(-5.756739865217E-16,1.,3.044936354505E-16));
#551 = ORIENTED_EDGE('',*,*,#552,.T.);
#552 = EDGE_CURVE('',#544,#282,#553,.T.);
#553 = B_SPLINE_CURVE_WITH_KNOTS('',1,(#554,#555),.UNSPECIFIED.,.F.,.F.,
  (2,2),(-207.2100884921,207.21008849213),.PIECEWISE_BEZIER_KNOTS.);
#554 = CARTESIAN_POINT('',(145.02251551009,59.75,18.227483942121));
#555 = CARTESIAN_POINT('',(-265.8522394105,59.75,-35.86520373879));
#556 = ORIENTED_EDGE('',*,*,#281,.F.);
#557 = ORIENTED_EDGE('',*,*,#552,.F.);
#558 = CYLINDRICAL_SURFACE('',#559,2.1);
#559 = AXIS2_PLACEMENT_3D('',#560,#561,#562);
#560 = CARTESIAN_POINT('',(-60.41486195025,57.65,-8.818859898338));
#561 = DIRECTION('',(-0.991444861374,-8.900750192008E-17,-0.13052619222)
  );
#562 = DIRECTION('',(-5.756739865217E-16,1.,3.044936354505E-16));
#563 = ADVANCED_FACE('',(#564),#582,.F.);
#564 = FACE_BOUND('',#565,.F.);
#565 = EDGE_LOOP('',(#566,#575,#580,#581));
#566 = ORIENTED_EDGE('',*,*,#567,.T.);
#567 = EDGE_CURVE('',#568,#568,#570,.T.);
#568 = VERTEX_POINT('',#569);
#569 = CARTESIAN_POINT('',(-57.83710531067,-23.75,-8.479491798565));
#570 = CIRCLE('',#571,2.1);
#571 = AXIS2_PLACEMENT_3D('',#572,#573,#574);
#572 = CARTESIAN_POINT('',(-57.83710531067,-25.85,-8.479491798565));
#573 = DIRECTION('',(-0.991444861374,-5.310046209729E-16,-0.13052619222)
  );
#574 = DIRECTION('',(-5.756739865217E-16,1.,3.044936354505E-16));
#575 = ORIENTED_EDGE('',*,*,#576,.T.);
#576 = EDGE_CURVE('',#568,#329,#577,.T.);
#577 = B_SPLINE_CURVE_WITH_KNOTS('',1,(#578,#579),.UNSPECIFIED.,.F.,.F.,
  (2,2),(-207.2100884921,207.21008849213),.PIECEWISE_BEZIER_KNOTS.);
#578 = CARTESIAN_POINT('',(145.02251551009,-23.75,18.227483942121));
#579 = CARTESIAN_POINT('',(-265.8522394105,-23.75,-35.86520373879));
#580 = ORIENTED_EDGE('',*,*,#328,.F.);
#581 = ORIENTED_EDGE('',*,*,#576,.F.);
#582 = CYLINDRICAL_SURFACE('',#583,2.1);
#583 = AXIS2_PLACEMENT_3D('',#584,#585,#586);
#584 = CARTESIAN_POINT('',(-60.41486195025,-25.85,-8.818859898338));
#585 = DIRECTION('',(-0.991444861374,-8.900750192008E-17,-0.13052619222)
  );
#586 = DIRECTION('',(-5.756739865217E-16,1.,3.044936354505E-16));
#587 = ADVANCED_FACE('',(#588,#591),#594,.T.);
#588 = FACE_BOUND('',#589,.T.);
#589 = EDGE_LOOP('',(#590));
#590 = ORIENTED_EDGE('',*,*,#433,.F.);
#591 = FACE_BOUND('',#592,.T.);
#592 = EDGE_LOOP('',(#593));
#593 = ORIENTED_EDGE('',*,*,#543,.T.);
#594 = PLANE('',#595);
#595 = AXIS2_PLACEMENT_3D('',#596,#597,#598);
#596 = CARTESIAN_POINT('',(-57.83710531067,15.9,-8.479491798565));
#597 = DIRECTION('',(0.991444861374,-3.362101670562E-16,0.13052619222));
#598 = DIRECTION('',(-0.13052619222,6.129473730966E-16,0.991444861374));
#599 = ADVANCED_FACE('',(#600,#603),#606,.T.);
#600 = FACE_BOUND('',#601,.T.);
#601 = EDGE_LOOP('',(#602));
#602 = ORIENTED_EDGE('',*,*,#526,.F.);
#603 = FACE_BOUND('',#604,.T.);
#604 = EDGE_LOOP('',(#605));
#605 = ORIENTED_EDGE('',*,*,#567,.T.);
#606 = PLANE('',#607);
#607 = AXIS2_PLACEMENT_3D('',#608,#609,#610);
#608 = CARTESIAN_POINT('',(-57.83710531067,15.9,-8.479491798565));
#609 = DIRECTION('',(0.991444861374,-3.362101670562E-16,0.13052619222));
#610 = DIRECTION('',(-0.13052619222,6.129473730966E-16,0.991444861374));
#611 = ( GEOMETRIC_REPRESENTATION_CONTEXT(3) 
GLOBAL_UNCERTAINTY_ASSIGNED_CONTEXT((#615)) GLOBAL_UNIT_ASSIGNED_CONTEXT
((#612,#613,#614)) REPRESENTATION_CONTEXT('Context #1',
  '3D Context with UNIT and UNCERTAINTY') );
#612 = ( LENGTH_UNIT() NAMED_UNIT(*) SI_UNIT(.MILLI.,.METRE.) );
#613 = ( NAMED_UNIT(*) PLANE_ANGLE_UNIT() SI_UNIT($,.RADIAN.) );
#614 = ( NAMED_UNIT(*) SI_UNIT($,.STERADIAN.) SOLID_ANGLE_UNIT() );
#615 = UNCERTAINTY_MEASURE_WITH_UNIT(LENGTH_MEASURE(1.E-06),#612,
  'distance_accuracy_value','confusion accuracy');
#616 = PRODUCT_RELATED_PRODUCT_CATEGORY('part',$,(#7));
ENDSEC;
END-ISO-10303-21;
