ISO-10303-21;
HEADER;
FILE_DESCRIPTION(('FreeCAD Model'),'2;1');
FILE_NAME('Open CASCADE Shape Model','2026-10-08T09:52:44',('FreeCAD'),(
    'FreeCAD'),'Open CASCADE STEP processor 8.0','FreeCAD','Unknown');
FILE_SCHEMA(('AUTOMOTIVE_DESIGN { 1 0 10303 214 1 1 1 1 }'));
ENDSEC;
DATA;
#1 = APPLICATION_PROTOCOL_DEFINITION('international standard',
  'automotive_design',2000,#2);
#2 = APPLICATION_CONTEXT(
  'core data for automotive mechanical design processes');
#3 = SHAPE_DEFINITION_REPRESENTATION(#4,#10);
#4 = PRODUCT_DEFINITION_SHAPE('','',#5);
#5 = PRODUCT_DEFINITION('design','',#6,#9);
#6 = PRODUCT_DEFINITION_FORMATION('','',#7);
#7 = PRODUCT('Open CASCADE STEP translator 8.0 69',
  'Open CASCADE STEP translator 8.0 69','',(#8));
#8 = PRODUCT_CONTEXT('',#2,'mechanical');
#9 = PRODUCT_DEFINITION_CONTEXT('part definition',#2,'design');
#10 = ADVANCED_BREP_SHAPE_REPRESENTATION('',(#11,#15),#1111);
#11 = AXIS2_PLACEMENT_3D('',#12,#13,#14);
#12 = CARTESIAN_POINT('',(0.,0.,0.));
#13 = DIRECTION('',(0.,0.,1.));
#14 = DIRECTION('',(1.,0.,-0.));
#15 = MANIFOLD_SOLID_BREP('',#16);
#16 = CLOSED_SHELL('',(#17,#65,#104,#135,#166,#198,#222,#327,#360,#385,
    #402,#429,#470,#495,#520,#611,#635,#653,#684,#708,#732,#756,#780,
    #804,#828,#845,#857,#875,#887,#918,#942,#966,#990,#1014,#1038,#1062,
    #1079,#1095));
#17 = ADVANCED_FACE('',(#18),#60,.F.);
#18 = FACE_BOUND('',#19,.F.);
#19 = EDGE_LOOP('',(#20,#30,#38,#46,#54));
#20 = ORIENTED_EDGE('',*,*,#21,.T.);
#21 = EDGE_CURVE('',#22,#24,#26,.T.);
#22 = VERTEX_POINT('',#23);
#23 = CARTESIAN_POINT('',(-18.8,-23.,1.06581410364E-14));
#24 = VERTEX_POINT('',#25);
#25 = CARTESIAN_POINT('',(-0.692820323028,-23.,1.42108547152E-14));
#26 = LINE('',#27,#28);
#27 = CARTESIAN_POINT('',(-20.,-23.,2.544261098099E-14));
#28 = VECTOR('',#29,1.);
#29 = DIRECTION('',(1.,-7.401486830834E-16,-4.903485025428E-16));
#30 = ORIENTED_EDGE('',*,*,#31,.T.);
#31 = EDGE_CURVE('',#24,#32,#34,.T.);
#32 = VERTEX_POINT('',#33);
#33 = CARTESIAN_POINT('',(-0.692820323028,22.707179676972,
    -8.881784197001E-15));
#34 = LINE('',#35,#36);
#35 = CARTESIAN_POINT('',(-0.692820323028,-23.,1.447353630321E-14));
#36 = VECTOR('',#37,1.);
#37 = DIRECTION('',(-1.387778780781E-16,1.,-3.885780586188E-16));
#38 = ORIENTED_EDGE('',*,*,#39,.T.);
#39 = EDGE_CURVE('',#32,#40,#42,.T.);
#40 = VERTEX_POINT('',#41);
#41 = CARTESIAN_POINT('',(-1.2,23.,-3.552713678801E-15));
#42 = LINE('',#43,#44);
#43 = CARTESIAN_POINT('',(2.009292143521,21.14711431703,
    1.337472042407E-14));
#44 = VECTOR('',#45,1.);
#45 = DIRECTION('',(-0.866025403784,0.5,-2.027876411888E-16));
#46 = ORIENTED_EDGE('',*,*,#47,.F.);
#47 = EDGE_CURVE('',#48,#40,#50,.T.);
#48 = VERTEX_POINT('',#49);
#49 = CARTESIAN_POINT('',(-18.8,23.,1.7763568394E-14));
#50 = LINE('',#51,#52);
#51 = CARTESIAN_POINT('',(-20.,23.,-8.604228440845E-15));
#52 = VECTOR('',#53,1.);
#53 = DIRECTION('',(1.,-7.401486830834E-16,-4.903485025428E-16));
#54 = ORIENTED_EDGE('',*,*,#55,.F.);
#55 = EDGE_CURVE('',#22,#48,#56,.T.);
#56 = LINE('',#57,#58);
#57 = CARTESIAN_POINT('',(-18.8,-23.,1.030657041194E-14));
#58 = VECTOR('',#59,1.);
#59 = DIRECTION('',(-1.387778780781E-16,1.,-3.885780586188E-16));
#60 = PLANE('',#61);
#61 = AXIS2_PLACEMENT_3D('',#62,#63,#64);
#62 = CARTESIAN_POINT('',(-20.,-23.,2.544261098099E-14));
#63 = DIRECTION('',(-5.643633708511E-16,-3.145631903105E-16,1.));
#64 = DIRECTION('',(-4.903485025428E-16,1.,-7.401486830834E-16));
#65 = ADVANCED_FACE('',(#66),#99,.F.);
#66 = FACE_BOUND('',#67,.F.);
#67 = EDGE_LOOP('',(#68,#78,#86,#92,#93));
#68 = ORIENTED_EDGE('',*,*,#69,.T.);
#69 = EDGE_CURVE('',#70,#72,#74,.T.);
#70 = VERTEX_POINT('',#71);
#71 = CARTESIAN_POINT('',(-18.8,-23.,14.7));
#72 = VERTEX_POINT('',#73);
#73 = CARTESIAN_POINT('',(-1.2,-23.,14.7));
#74 = LINE('',#75,#76);
#75 = CARTESIAN_POINT('',(-20.,-23.,14.7));
#76 = VECTOR('',#77,1.);
#77 = DIRECTION('',(1.,-7.401486830834E-16,-4.903485025428E-16));
#78 = ORIENTED_EDGE('',*,*,#79,.F.);
#79 = EDGE_CURVE('',#80,#72,#82,.T.);
#80 = VERTEX_POINT('',#81);
#81 = CARTESIAN_POINT('',(-0.692820323028,-23.,14.407179676972));
#82 = LINE('',#83,#84);
#83 = CARTESIAN_POINT('',(-7.95,-23.,18.59711431703));
#84 = VECTOR('',#85,1.);
#85 = DIRECTION('',(-0.866025403784,1.384457512996E-16,0.5));
#86 = ORIENTED_EDGE('',*,*,#87,.T.);
#87 = EDGE_CURVE('',#80,#24,#88,.T.);
#88 = LINE('',#89,#90);
#89 = CARTESIAN_POINT('',(-0.692820323028,-23.,14.7));
#90 = VECTOR('',#91,1.);
#91 = DIRECTION('',(3.885780586188E-16,1.387778780781E-16,-1.));
#92 = ORIENTED_EDGE('',*,*,#21,.F.);
#93 = ORIENTED_EDGE('',*,*,#94,.F.);
#94 = EDGE_CURVE('',#70,#22,#95,.T.);
#95 = LINE('',#96,#97);
#96 = CARTESIAN_POINT('',(-18.8,-23.,14.7));
#97 = VECTOR('',#98,1.);
#98 = DIRECTION('',(3.885780586188E-16,1.387778780781E-16,-1.));
#99 = PLANE('',#100);
#100 = AXIS2_PLACEMENT_3D('',#101,#102,#103);
#101 = CARTESIAN_POINT('',(-20.,-23.,14.7));
#102 = DIRECTION('',(-3.145631903105E-16,1.,-5.643633708511E-16));
#103 = DIRECTION('',(7.401486830834E-16,4.903485025428E-16,-1.));
#104 = ADVANCED_FACE('',(#105),#130,.F.);
#105 = FACE_BOUND('',#106,.F.);
#106 = EDGE_LOOP('',(#107,#115,#123,#129));
#107 = ORIENTED_EDGE('',*,*,#108,.F.);
#108 = EDGE_CURVE('',#109,#24,#111,.T.);
#109 = VERTEX_POINT('',#110);
#110 = CARTESIAN_POINT('',(-8.881784197001E-15,-21.8,1.2));
#111 = LINE('',#112,#113);
#112 = CARTESIAN_POINT('',(1.323781688642,-19.50714285714,3.492857142857
    ));
#113 = VECTOR('',#114,1.);
#114 = DIRECTION('',(-0.377964473009,-0.654653670708,-0.654653670708));
#115 = ORIENTED_EDGE('',*,*,#116,.T.);
#116 = EDGE_CURVE('',#109,#117,#119,.T.);
#117 = VERTEX_POINT('',#118);
#118 = CARTESIAN_POINT('',(-5.329070518201E-15,22.307179676972,1.2));
#119 = LINE('',#120,#121);
#120 = CARTESIAN_POINT('',(-8.881784197001E-15,-23.,1.2));
#121 = VECTOR('',#122,1.);
#122 = DIRECTION('',(-1.387778780781E-16,1.,-3.885780586188E-16));
#123 = ORIENTED_EDGE('',*,*,#124,.T.);
#124 = EDGE_CURVE('',#117,#32,#125,.T.);
#125 = LINE('',#126,#127);
#126 = CARTESIAN_POINT('',(2.526232011644,20.848658945014,5.575562195875
    ));
#127 = VECTOR('',#128,1.);
#128 = DIRECTION('',(-0.480384461415,0.277350098113,-0.832050294338));
#129 = ORIENTED_EDGE('',*,*,#31,.F.);
#130 = PLANE('',#131);
#131 = AXIS2_PLACEMENT_3D('',#132,#133,#134);
#132 = CARTESIAN_POINT('',(-0.346410161514,-23.,0.6));
#133 = DIRECTION('',(-0.866025403784,3.186402460002E-16,0.5));
#134 = DIRECTION('',(7.299684312616E-17,1.,-5.108462509137E-16));
#135 = ADVANCED_FACE('',(#136),#161,.T.);
#136 = FACE_BOUND('',#137,.F.);
#137 = EDGE_LOOP('',(#138,#146,#147,#155));
#138 = ORIENTED_EDGE('',*,*,#139,.F.);
#139 = EDGE_CURVE('',#22,#140,#142,.T.);
#140 = VERTEX_POINT('',#141);
#141 = CARTESIAN_POINT('',(-20.,-22.30717967697,0.692820323028));
#142 = LINE('',#143,#144);
#143 = CARTESIAN_POINT('',(-21.82611468712,-21.25287187078,
    1.747128129211));
#144 = VECTOR('',#145,1.);
#145 = DIRECTION('',(-0.774596669241,0.4472135955,0.4472135955));
#146 = ORIENTED_EDGE('',*,*,#55,.T.);
#147 = ORIENTED_EDGE('',*,*,#148,.T.);
#148 = EDGE_CURVE('',#48,#149,#151,.T.);
#149 = VERTEX_POINT('',#150);
#150 = CARTESIAN_POINT('',(-20.,22.307179676972,0.692820323028));
#151 = LINE('',#152,#153);
#152 = CARTESIAN_POINT('',(-27.24743371481,18.122871870789,
    4.877128129211));
#153 = VECTOR('',#154,1.);
#154 = DIRECTION('',(-0.774596669241,-0.4472135955,0.4472135955));
#155 = ORIENTED_EDGE('',*,*,#156,.F.);
#156 = EDGE_CURVE('',#140,#149,#157,.T.);
#157 = LINE('',#158,#159);
#158 = CARTESIAN_POINT('',(-20.,-23.,0.692820323028));
#159 = VECTOR('',#160,1.);
#160 = DIRECTION('',(-1.387778780781E-16,1.,-3.885780586188E-16));
#161 = PLANE('',#162);
#162 = AXIS2_PLACEMENT_3D('',#163,#164,#165);
#163 = CARTESIAN_POINT('',(-19.4,-23.,0.346410161514));
#164 = DIRECTION('',(-0.5,2.458693749555E-16,-0.866025403784));
#165 = DIRECTION('',(-1.871105139777E-16,-1.,-1.758771940189E-16));
#166 = ADVANCED_FACE('',(#167),#193,.F.);
#167 = FACE_BOUND('',#168,.T.);
#168 = EDGE_LOOP('',(#169,#170,#171,#179,#187));
#169 = ORIENTED_EDGE('',*,*,#124,.T.);
#170 = ORIENTED_EDGE('',*,*,#39,.T.);
#171 = ORIENTED_EDGE('',*,*,#172,.T.);
#172 = EDGE_CURVE('',#40,#173,#175,.T.);
#173 = VERTEX_POINT('',#174);
#174 = CARTESIAN_POINT('',(-1.2,23.,14.7));
#175 = LINE('',#176,#177);
#176 = CARTESIAN_POINT('',(-1.2,23.,-1.068034549689E-14));
#177 = VECTOR('',#178,1.);
#178 = DIRECTION('',(-3.885780586188E-16,-1.387778780781E-16,1.));
#179 = ORIENTED_EDGE('',*,*,#180,.T.);
#180 = EDGE_CURVE('',#173,#181,#183,.T.);
#181 = VERTEX_POINT('',#182);
#182 = CARTESIAN_POINT('',(1.59872115546E-14,22.307179676972,
    14.007179676972));
#183 = LINE('',#184,#185);
#184 = CARTESIAN_POINT('',(1.826114687126,21.252871870789,
    12.952871870789));
#185 = VECTOR('',#186,1.);
#186 = DIRECTION('',(0.774596669241,-0.4472135955,-0.4472135955));
#187 = ORIENTED_EDGE('',*,*,#188,.F.);
#188 = EDGE_CURVE('',#117,#181,#189,.T.);
#189 = LINE('',#190,#191);
#190 = CARTESIAN_POINT('',(1.24344978758E-14,22.307179676972,
    -1.031019996087E-14));
#191 = VECTOR('',#192,1.);
#192 = DIRECTION('',(-3.885780586188E-16,-1.387778780781E-16,1.));
#193 = PLANE('',#194);
#194 = AXIS2_PLACEMENT_3D('',#195,#196,#197);
#195 = CARTESIAN_POINT('',(-0.6,22.653589838486,-1.049527272888E-14));
#196 = DIRECTION('',(-0.5,-0.866025403784,-3.860675153182E-18));
#197 = DIRECTION('',(2.332712975912E-16,-1.302213227806E-16,-1.));
#198 = ADVANCED_FACE('',(#199),#217,.F.);
#199 = FACE_BOUND('',#200,.F.);
#200 = EDGE_LOOP('',(#201,#202,#203,#211));
#201 = ORIENTED_EDGE('',*,*,#47,.T.);
#202 = ORIENTED_EDGE('',*,*,#172,.T.);
#203 = ORIENTED_EDGE('',*,*,#204,.F.);
#204 = EDGE_CURVE('',#205,#173,#207,.T.);
#205 = VERTEX_POINT('',#206);
#206 = CARTESIAN_POINT('',(-18.8,23.,14.7));
#207 = LINE('',#208,#209);
#208 = CARTESIAN_POINT('',(-20.,23.,14.7));
#209 = VECTOR('',#210,1.);
#210 = DIRECTION('',(1.,-7.401486830834E-16,-4.903485025428E-16));
#211 = ORIENTED_EDGE('',*,*,#212,.F.);
#212 = EDGE_CURVE('',#48,#205,#213,.T.);
#213 = LINE('',#214,#215);
#214 = CARTESIAN_POINT('',(-18.8,23.,-7.083222897108E-15));
#215 = VECTOR('',#216,1.);
#216 = DIRECTION('',(-3.885780586188E-16,-1.387778780781E-16,1.));
#217 = PLANE('',#218);
#218 = AXIS2_PLACEMENT_3D('',#219,#220,#221);
#219 = CARTESIAN_POINT('',(-20.,23.,-8.604228440845E-15));
#220 = DIRECTION('',(3.145631903105E-16,-1.,5.643633708511E-16));
#221 = DIRECTION('',(-7.401486830834E-16,-4.903485025428E-16,1.));
#222 = ADVANCED_FACE('',(#223,#256),#322,.F.);
#223 = FACE_BOUND('',#224,.F.);
#224 = EDGE_LOOP('',(#225,#235,#241,#242,#250));
#225 = ORIENTED_EDGE('',*,*,#226,.T.);
#226 = EDGE_CURVE('',#227,#229,#231,.T.);
#227 = VERTEX_POINT('',#228);
#228 = CARTESIAN_POINT('',(-19.30717967697,-9.895453501482,14.7));
#229 = VERTEX_POINT('',#230);
#230 = CARTESIAN_POINT('',(-1.2,-9.895453501482,14.7));
#231 = LINE('',#232,#233);
#232 = CARTESIAN_POINT('',(1.,-9.895453501482,14.7));
#233 = VECTOR('',#234,1.);
#234 = DIRECTION('',(1.,-2.590520390792E-16,-9.251858538543E-17));
#235 = ORIENTED_EDGE('',*,*,#236,.T.);
#236 = EDGE_CURVE('',#229,#72,#237,.T.);
#237 = LINE('',#238,#239);
#238 = CARTESIAN_POINT('',(-1.2,-9.895453501482,14.7));
#239 = VECTOR('',#240,1.);
#240 = DIRECTION('',(1.387778780781E-16,-1.,3.885780586188E-16));
#241 = ORIENTED_EDGE('',*,*,#69,.F.);
#242 = ORIENTED_EDGE('',*,*,#243,.F.);
#243 = EDGE_CURVE('',#244,#70,#246,.T.);
#244 = VERTEX_POINT('',#245);
#245 = CARTESIAN_POINT('',(-19.30717967697,-22.70717967697,14.7));
#246 = LINE('',#247,#248);
#247 = CARTESIAN_POINT('',(-29.50929214352,-16.8169872981,14.7));
#248 = VECTOR('',#249,1.);
#249 = DIRECTION('',(0.866025403784,-0.5,2.027876411888E-16));
#250 = ORIENTED_EDGE('',*,*,#251,.F.);
#251 = EDGE_CURVE('',#227,#244,#252,.T.);
#252 = LINE('',#253,#254);
#253 = CARTESIAN_POINT('',(-19.30717967697,-9.895453501482,14.7));
#254 = VECTOR('',#255,1.);
#255 = DIRECTION('',(1.387778780781E-16,-1.,3.885780586188E-16));
#256 = FACE_BOUND('',#257,.F.);
#257 = EDGE_LOOP('',(#258,#268,#276,#284,#292,#300,#308,#316));
#258 = ORIENTED_EDGE('',*,*,#259,.F.);
#259 = EDGE_CURVE('',#260,#262,#264,.T.);
#260 = VERTEX_POINT('',#261);
#261 = CARTESIAN_POINT('',(-8.25,-17.22487373415,14.7));
#262 = VERTEX_POINT('',#263);
#263 = CARTESIAN_POINT('',(-9.275126265847,-18.25,14.7));
#264 = LINE('',#265,#266);
#265 = CARTESIAN_POINT('',(-8.25,-17.22487373415,14.7));
#266 = VECTOR('',#267,1.);
#267 = DIRECTION('',(-0.707106781187,-0.707106781187,1.177569344013E-15)
  );
#268 = ORIENTED_EDGE('',*,*,#269,.F.);
#269 = EDGE_CURVE('',#270,#260,#272,.T.);
#270 = VERTEX_POINT('',#271);
#271 = CARTESIAN_POINT('',(-8.25,-15.77512626584,14.7));
#272 = LINE('',#273,#274);
#273 = CARTESIAN_POINT('',(-8.25,-15.77512626584,14.7));
#274 = VECTOR('',#275,1.);
#275 = DIRECTION('',(6.198745220824E-16,-1.,7.864079757762E-16));
#276 = ORIENTED_EDGE('',*,*,#277,.F.);
#277 = EDGE_CURVE('',#278,#270,#280,.T.);
#278 = VERTEX_POINT('',#279);
#279 = CARTESIAN_POINT('',(-9.275126265847,-14.75,14.7));
#280 = LINE('',#281,#282);
#281 = CARTESIAN_POINT('',(-9.275126265847,-14.75,14.7));
#282 = VECTOR('',#283,1.);
#283 = DIRECTION('',(0.707106781187,-0.707106781187,-6.542051911182E-17)
  );
#284 = ORIENTED_EDGE('',*,*,#285,.F.);
#285 = EDGE_CURVE('',#286,#278,#288,.T.);
#286 = VERTEX_POINT('',#287);
#287 = CARTESIAN_POINT('',(-10.72487373415,-14.75,14.7));
#288 = LINE('',#289,#290);
#289 = CARTESIAN_POINT('',(-10.72487373415,-14.75,14.7));
#290 = VECTOR('',#291,1.);
#291 = DIRECTION('',(1.,-4.348373513115E-16,-8.789265611616E-16));
#292 = ORIENTED_EDGE('',*,*,#293,.F.);
#293 = EDGE_CURVE('',#294,#286,#296,.T.);
#294 = VERTEX_POINT('',#295);
#295 = CARTESIAN_POINT('',(-11.75,-15.77512626584,14.7));
#296 = LINE('',#297,#298);
#297 = CARTESIAN_POINT('',(-11.75,-15.77512626584,14.7));
#298 = VECTOR('',#299,1.);
#299 = DIRECTION('',(0.707106781187,0.707106781187,-1.177569344013E-15)
  );
#300 = ORIENTED_EDGE('',*,*,#301,.F.);
#301 = EDGE_CURVE('',#302,#294,#304,.T.);
#302 = VERTEX_POINT('',#303);
#303 = CARTESIAN_POINT('',(-11.75,-17.22487373415,14.7));
#304 = LINE('',#305,#306);
#305 = CARTESIAN_POINT('',(-11.75,-17.22487373415,14.7));
#306 = VECTOR('',#307,1.);
#307 = DIRECTION('',(-6.198745220824E-16,1.,-7.864079757762E-16));
#308 = ORIENTED_EDGE('',*,*,#309,.F.);
#309 = EDGE_CURVE('',#310,#302,#312,.T.);
#310 = VERTEX_POINT('',#311);
#311 = CARTESIAN_POINT('',(-10.72487373415,-18.25,14.7));
#312 = LINE('',#313,#314);
#313 = CARTESIAN_POINT('',(-10.72487373415,-18.25,14.7));
#314 = VECTOR('',#315,1.);
#315 = DIRECTION('',(-0.707106781187,0.707106781187,6.542051911182E-17)
  );
#316 = ORIENTED_EDGE('',*,*,#317,.F.);
#317 = EDGE_CURVE('',#262,#310,#318,.T.);
#318 = LINE('',#319,#320);
#319 = CARTESIAN_POINT('',(-9.275126265847,-18.25,14.7));
#320 = VECTOR('',#321,1.);
#321 = DIRECTION('',(-1.,4.348373513115E-16,8.789265611616E-16));
#322 = PLANE('',#323);
#323 = AXIS2_PLACEMENT_3D('',#324,#325,#326);
#324 = CARTESIAN_POINT('',(-20.,23.,14.7));
#325 = DIRECTION('',(5.643633708511E-16,3.145631903105E-16,-1.));
#326 = DIRECTION('',(4.903485025428E-16,-1.,7.401486830834E-16));
#327 = ADVANCED_FACE('',(#328),#355,.F.);
#328 = FACE_BOUND('',#329,.T.);
#329 = EDGE_LOOP('',(#330,#338,#346,#353,#354));
#330 = ORIENTED_EDGE('',*,*,#331,.F.);
#331 = EDGE_CURVE('',#332,#80,#334,.T.);
#332 = VERTEX_POINT('',#333);
#333 = CARTESIAN_POINT('',(-7.105427357601E-15,-21.8,14.007179676972));
#334 = LINE('',#335,#336);
#335 = CARTESIAN_POINT('',(2.080804468897,-18.19594093925,
    12.805826656724));
#336 = VECTOR('',#337,1.);
#337 = DIRECTION('',(-0.480384461415,-0.832050294338,0.277350098113));
#338 = ORIENTED_EDGE('',*,*,#339,.F.);
#339 = EDGE_CURVE('',#340,#332,#342,.T.);
#340 = VERTEX_POINT('',#341);
#341 = CARTESIAN_POINT('',(1.7763568394E-15,-10.54619126519,
    14.007179676972));
#342 = LINE('',#343,#344);
#343 = CARTESIAN_POINT('',(1.7763568394E-15,-9.895453501482,
    14.007179676972));
#344 = VECTOR('',#345,1.);
#345 = DIRECTION('',(1.387778780781E-16,-1.,3.885780586188E-16));
#346 = ORIENTED_EDGE('',*,*,#347,.F.);
#347 = EDGE_CURVE('',#229,#340,#348,.T.);
#348 = PARABOLA('',#349,2.4);
#349 = AXIS2_PLACEMENT_3D('',#350,#351,#352);
#350 = CARTESIAN_POINT('',(-10.0334591186,-1.030770847671E-14,19.8));
#351 = DIRECTION('',(-0.5,2.170327657626E-17,-0.866025403784));
#352 = DIRECTION('',(0.866025403784,1.727772831056E-16,-0.5));
#353 = ORIENTED_EDGE('',*,*,#236,.T.);
#354 = ORIENTED_EDGE('',*,*,#79,.F.);
#355 = PLANE('',#356);
#356 = AXIS2_PLACEMENT_3D('',#357,#358,#359);
#357 = CARTESIAN_POINT('',(-0.6,-9.895453501482,14.353589838486));
#358 = DIRECTION('',(-0.5,2.170327657626E-17,-0.866025403784));
#359 = DIRECTION('',(7.502746478808E-17,1.,-1.825634184482E-17));
#360 = ADVANCED_FACE('',(#361),#380,.T.);
#361 = FACE_BOUND('',#362,.F.);
#362 = EDGE_LOOP('',(#363,#371,#372,#373,#374));
#363 = ORIENTED_EDGE('',*,*,#364,.T.);
#364 = EDGE_CURVE('',#365,#244,#367,.T.);
#365 = VERTEX_POINT('',#366);
#366 = CARTESIAN_POINT('',(-20.,-22.30717967697,13.5));
#367 = LINE('',#368,#369);
#368 = CARTESIAN_POINT('',(-20.33482444231,-22.11386869507,
    12.920067054296));
#369 = VECTOR('',#370,1.);
#370 = DIRECTION('',(0.480384461415,-0.277350098113,0.832050294338));
#371 = ORIENTED_EDGE('',*,*,#243,.T.);
#372 = ORIENTED_EDGE('',*,*,#94,.T.);
#373 = ORIENTED_EDGE('',*,*,#139,.T.);
#374 = ORIENTED_EDGE('',*,*,#375,.F.);
#375 = EDGE_CURVE('',#365,#140,#376,.T.);
#376 = LINE('',#377,#378);
#377 = CARTESIAN_POINT('',(-20.,-22.30717967697,14.7));
#378 = VECTOR('',#379,1.);
#379 = DIRECTION('',(3.885780586188E-16,1.387778780781E-16,-1.));
#380 = PLANE('',#381);
#381 = AXIS2_PLACEMENT_3D('',#382,#383,#384);
#382 = CARTESIAN_POINT('',(-19.4,-22.65358983848,14.7));
#383 = DIRECTION('',(-0.5,-0.866025403784,-3.860675153182E-18));
#384 = DIRECTION('',(-2.332712975912E-16,1.302213227806E-16,1.));
#385 = ADVANCED_FACE('',(#386),#397,.F.);
#386 = FACE_BOUND('',#387,.F.);
#387 = EDGE_LOOP('',(#388,#389,#395,#396));
#388 = ORIENTED_EDGE('',*,*,#331,.F.);
#389 = ORIENTED_EDGE('',*,*,#390,.T.);
#390 = EDGE_CURVE('',#332,#109,#391,.T.);
#391 = LINE('',#392,#393);
#392 = CARTESIAN_POINT('',(-5.329070518201E-15,-21.8,14.7));
#393 = VECTOR('',#394,1.);
#394 = DIRECTION('',(3.885780586188E-16,1.387778780781E-16,-1.));
#395 = ORIENTED_EDGE('',*,*,#108,.T.);
#396 = ORIENTED_EDGE('',*,*,#87,.F.);
#397 = PLANE('',#398);
#398 = AXIS2_PLACEMENT_3D('',#399,#400,#401);
#399 = CARTESIAN_POINT('',(-0.346410161514,-22.4,14.7));
#400 = DIRECTION('',(-0.866025403784,0.5,-2.870846715061E-17));
#401 = DIRECTION('',(1.820993604603E-16,2.579884100419E-16,-1.));
#402 = ADVANCED_FACE('',(#403),#424,.T.);
#403 = FACE_BOUND('',#404,.T.);
#404 = EDGE_LOOP('',(#405,#406,#407,#415,#422,#423));
#405 = ORIENTED_EDGE('',*,*,#116,.T.);
#406 = ORIENTED_EDGE('',*,*,#188,.T.);
#407 = ORIENTED_EDGE('',*,*,#408,.T.);
#408 = EDGE_CURVE('',#181,#409,#411,.T.);
#409 = VERTEX_POINT('',#410);
#410 = CARTESIAN_POINT('',(0.,10.546191265198,14.007179676972));
#411 = LINE('',#412,#413);
#412 = CARTESIAN_POINT('',(1.59872115546E-14,23.,14.007179676972));
#413 = VECTOR('',#414,1.);
#414 = DIRECTION('',(1.387778780781E-16,-1.,3.885780586188E-16));
#415 = ORIENTED_EDGE('',*,*,#416,.F.);
#416 = EDGE_CURVE('',#340,#409,#417,.T.);
#417 = CIRCLE('',#418,10.592820323028);
#418 = AXIS2_PLACEMENT_3D('',#419,#420,#421);
#419 = CARTESIAN_POINT('',(0.,-8.410402004462E-15,15.));
#420 = DIRECTION('',(1.,1.387778780781E-16,3.885780586188E-16));
#421 = DIRECTION('',(1.504892380952E-16,-0.999540757725,
    -3.030303030303E-02));
#422 = ORIENTED_EDGE('',*,*,#339,.T.);
#423 = ORIENTED_EDGE('',*,*,#390,.T.);
#424 = PLANE('',#425);
#425 = AXIS2_PLACEMENT_3D('',#426,#427,#428);
#426 = CARTESIAN_POINT('',(1.135480598435E-14,1.297022163843E-15,7.35));
#427 = DIRECTION('',(1.,-9.159339953158E-16,-6.661338147751E-16));
#428 = DIRECTION('',(-9.159339953158E-16,-6.661338147751E-16,1.));
#429 = ADVANCED_FACE('',(#430),#465,.F.);
#430 = FACE_BOUND('',#431,.F.);
#431 = EDGE_LOOP('',(#432,#433,#441,#449,#458,#464));
#432 = ORIENTED_EDGE('',*,*,#156,.T.);
#433 = ORIENTED_EDGE('',*,*,#434,.T.);
#434 = EDGE_CURVE('',#149,#435,#437,.T.);
#435 = VERTEX_POINT('',#436);
#436 = CARTESIAN_POINT('',(-20.,22.307179676972,13.5));
#437 = LINE('',#438,#439);
#438 = CARTESIAN_POINT('',(-20.,22.307179676972,-7.64566470177E-15));
#439 = VECTOR('',#440,1.);
#440 = DIRECTION('',(-3.885780586188E-16,-1.387778780781E-16,1.));
#441 = ORIENTED_EDGE('',*,*,#442,.T.);
#442 = EDGE_CURVE('',#435,#443,#445,.T.);
#443 = VERTEX_POINT('',#444);
#444 = CARTESIAN_POINT('',(-20.,10.998181667894,13.5));
#445 = LINE('',#446,#447);
#446 = CARTESIAN_POINT('',(-20.,23.,13.5));
#447 = VECTOR('',#448,1.);
#448 = DIRECTION('',(1.387778780781E-16,-1.,3.885780586188E-16));
#449 = ORIENTED_EDGE('',*,*,#450,.F.);
#450 = EDGE_CURVE('',#451,#443,#453,.T.);
#451 = VERTEX_POINT('',#452);
#452 = CARTESIAN_POINT('',(-20.,-10.99818166789,13.5));
#453 = CIRCLE('',#454,11.1);
#454 = AXIS2_PLACEMENT_3D('',#455,#456,#457);
#455 = CARTESIAN_POINT('',(-20.,-1.118595956603E-14,15.));
#456 = DIRECTION('',(1.,1.387778780781E-16,3.885780586188E-16));
#457 = DIRECTION('',(1.504892380952E-16,-0.999540757725,
    -3.030303030303E-02));
#458 = ORIENTED_EDGE('',*,*,#459,.T.);
#459 = EDGE_CURVE('',#451,#365,#460,.T.);
#460 = LINE('',#461,#462);
#461 = CARTESIAN_POINT('',(-20.,-9.895453501482,13.5));
#462 = VECTOR('',#463,1.);
#463 = DIRECTION('',(1.387778780781E-16,-1.,3.885780586188E-16));
#464 = ORIENTED_EDGE('',*,*,#375,.T.);
#465 = PLANE('',#466);
#466 = AXIS2_PLACEMENT_3D('',#467,#468,#469);
#467 = CARTESIAN_POINT('',(-20.,9.068583336219E-15,7.35));
#468 = DIRECTION('',(1.,-9.159339953158E-16,-6.661338147751E-16));
#469 = DIRECTION('',(-9.159339953158E-16,-6.661338147751E-16,1.));
#470 = ADVANCED_FACE('',(#471),#490,.T.);
#471 = FACE_BOUND('',#472,.F.);
#472 = EDGE_LOOP('',(#473,#481,#482,#483,#484));
#473 = ORIENTED_EDGE('',*,*,#474,.F.);
#474 = EDGE_CURVE('',#435,#475,#477,.T.);
#475 = VERTEX_POINT('',#476);
#476 = CARTESIAN_POINT('',(-19.30717967697,22.707179676972,14.7));
#477 = LINE('',#478,#479);
#478 = CARTESIAN_POINT('',(-22.39965906801,20.921735868091,
    9.343668573356));
#479 = VECTOR('',#480,1.);
#480 = DIRECTION('',(0.480384461415,0.277350098113,0.832050294338));
#481 = ORIENTED_EDGE('',*,*,#434,.F.);
#482 = ORIENTED_EDGE('',*,*,#148,.F.);
#483 = ORIENTED_EDGE('',*,*,#212,.T.);
#484 = ORIENTED_EDGE('',*,*,#485,.F.);
#485 = EDGE_CURVE('',#475,#205,#486,.T.);
#486 = LINE('',#487,#488);
#487 = CARTESIAN_POINT('',(-19.55,22.566987298108,14.7));
#488 = VECTOR('',#489,1.);
#489 = DIRECTION('',(0.866025403784,0.5,1.657802070347E-16));
#490 = PLANE('',#491);
#491 = AXIS2_PLACEMENT_3D('',#492,#493,#494);
#492 = CARTESIAN_POINT('',(-19.4,22.653589838486,-7.364443799439E-15));
#493 = DIRECTION('',(-0.5,0.866025403784,3.860675153182E-18));
#494 = DIRECTION('',(3.49595790337E-16,2.062971473365E-16,-1.));
#495 = ADVANCED_FACE('',(#496),#515,.F.);
#496 = FACE_BOUND('',#497,.T.);
#497 = EDGE_LOOP('',(#498,#499,#507,#514));
#498 = ORIENTED_EDGE('',*,*,#180,.F.);
#499 = ORIENTED_EDGE('',*,*,#500,.T.);
#500 = EDGE_CURVE('',#173,#501,#503,.T.);
#501 = VERTEX_POINT('',#502);
#502 = CARTESIAN_POINT('',(-1.2,9.895453501482,14.7));
#503 = LINE('',#504,#505);
#504 = CARTESIAN_POINT('',(-1.2,23.,14.7));
#505 = VECTOR('',#506,1.);
#506 = DIRECTION('',(1.387778780781E-16,-1.,3.885780586188E-16));
#507 = ORIENTED_EDGE('',*,*,#508,.T.);
#508 = EDGE_CURVE('',#501,#409,#509,.T.);
#509 = PARABOLA('',#510,2.4);
#510 = AXIS2_PLACEMENT_3D('',#511,#512,#513);
#511 = CARTESIAN_POINT('',(-10.0334591186,-1.166664322775E-14,19.8));
#512 = DIRECTION('',(0.5,-2.668849466786E-16,0.866025403784));
#513 = DIRECTION('',(0.866025403784,3.143329863395E-16,-0.5));
#514 = ORIENTED_EDGE('',*,*,#408,.F.);
#515 = PLANE('',#516);
#516 = AXIS2_PLACEMENT_3D('',#517,#518,#519);
#517 = CARTESIAN_POINT('',(-0.6,23.,14.353589838486));
#518 = DIRECTION('',(-0.5,2.668849466786E-16,-0.866025403784));
#519 = DIRECTION('',(1.976182998392E-16,1.,1.940772130061E-16));
#520 = ADVANCED_FACE('',(#521,#540),#606,.F.);
#521 = FACE_BOUND('',#522,.F.);
#522 = EDGE_LOOP('',(#523,#524,#525,#533,#539));
#523 = ORIENTED_EDGE('',*,*,#204,.T.);
#524 = ORIENTED_EDGE('',*,*,#500,.T.);
#525 = ORIENTED_EDGE('',*,*,#526,.F.);
#526 = EDGE_CURVE('',#527,#501,#529,.T.);
#527 = VERTEX_POINT('',#528);
#528 = CARTESIAN_POINT('',(-19.30717967697,9.895453501482,14.7));
#529 = LINE('',#530,#531);
#530 = CARTESIAN_POINT('',(1.,9.895453501482,14.7));
#531 = VECTOR('',#532,1.);
#532 = DIRECTION('',(1.,-2.590520390792E-16,-9.251858538543E-17));
#533 = ORIENTED_EDGE('',*,*,#534,.F.);
#534 = EDGE_CURVE('',#475,#527,#535,.T.);
#535 = LINE('',#536,#537);
#536 = CARTESIAN_POINT('',(-19.30717967697,23.,14.7));
#537 = VECTOR('',#538,1.);
#538 = DIRECTION('',(1.387778780781E-16,-1.,3.885780586188E-16));
#539 = ORIENTED_EDGE('',*,*,#485,.T.);
#540 = FACE_BOUND('',#541,.F.);
#541 = EDGE_LOOP('',(#542,#552,#560,#568,#576,#584,#592,#600));
#542 = ORIENTED_EDGE('',*,*,#543,.T.);
#543 = EDGE_CURVE('',#544,#546,#548,.T.);
#544 = VERTEX_POINT('',#545);
#545 = CARTESIAN_POINT('',(-8.25,15.775126265847,14.7));
#546 = VERTEX_POINT('',#547);
#547 = CARTESIAN_POINT('',(-8.25,17.224873734153,14.7));
#548 = LINE('',#549,#550);
#549 = CARTESIAN_POINT('',(-8.25,15.775126265847,14.7));
#550 = VECTOR('',#551,1.);
#551 = DIRECTION('',(-2.22044604925E-16,1.,-3.053113317719E-16));
#552 = ORIENTED_EDGE('',*,*,#553,.T.);
#553 = EDGE_CURVE('',#546,#554,#556,.T.);
#554 = VERTEX_POINT('',#555);
#555 = CARTESIAN_POINT('',(-9.275126265847,18.25,14.7));
#556 = LINE('',#557,#558);
#557 = CARTESIAN_POINT('',(-8.25,17.224873734153,14.7));
#558 = VECTOR('',#559,1.);
#559 = DIRECTION('',(-0.707106781187,0.707106781187,-5.887846720064E-17)
  );
#560 = ORIENTED_EDGE('',*,*,#561,.T.);
#561 = EDGE_CURVE('',#554,#562,#564,.T.);
#562 = VERTEX_POINT('',#563);
#563 = CARTESIAN_POINT('',(-10.72487373415,18.25,14.7));
#564 = LINE('',#565,#566);
#565 = CARTESIAN_POINT('',(-9.275126265847,18.25,14.7));
#566 = VECTOR('',#567,1.);
#567 = DIRECTION('',(-1.,3.053113317719E-16,2.22044604925E-16));
#568 = ORIENTED_EDGE('',*,*,#569,.T.);
#569 = EDGE_CURVE('',#562,#570,#572,.T.);
#570 = VERTEX_POINT('',#571);
#571 = CARTESIAN_POINT('',(-11.75,17.224873734153,14.7));
#572 = LINE('',#573,#574);
#573 = CARTESIAN_POINT('',(-10.72487373415,18.25,14.7));
#574 = VECTOR('',#575,1.);
#575 = DIRECTION('',(-0.707106781187,-0.707106781187,3.728969589374E-16)
  );
#576 = ORIENTED_EDGE('',*,*,#577,.T.);
#577 = EDGE_CURVE('',#570,#578,#580,.T.);
#578 = VERTEX_POINT('',#579);
#579 = CARTESIAN_POINT('',(-11.75,15.775126265847,14.7));
#580 = LINE('',#581,#582);
#581 = CARTESIAN_POINT('',(-11.75,17.224873734153,14.7));
#582 = VECTOR('',#583,1.);
#583 = DIRECTION('',(2.22044604925E-16,-1.,3.053113317719E-16));
#584 = ORIENTED_EDGE('',*,*,#585,.T.);
#585 = EDGE_CURVE('',#578,#586,#588,.T.);
#586 = VERTEX_POINT('',#587);
#587 = CARTESIAN_POINT('',(-10.72487373415,14.75,14.7));
#588 = LINE('',#589,#590);
#589 = CARTESIAN_POINT('',(-11.75,15.775126265847,14.7));
#590 = VECTOR('',#591,1.);
#591 = DIRECTION('',(0.707106781187,-0.707106781187,5.887846720064E-17)
  );
#592 = ORIENTED_EDGE('',*,*,#593,.T.);
#593 = EDGE_CURVE('',#586,#594,#596,.T.);
#594 = VERTEX_POINT('',#595);
#595 = CARTESIAN_POINT('',(-9.275126265847,14.75,14.7));
#596 = LINE('',#597,#598);
#597 = CARTESIAN_POINT('',(-10.72487373415,14.75,14.7));
#598 = VECTOR('',#599,1.);
#599 = DIRECTION('',(1.,-3.053113317719E-16,-2.22044604925E-16));
#600 = ORIENTED_EDGE('',*,*,#601,.T.);
#601 = EDGE_CURVE('',#594,#544,#602,.T.);
#602 = LINE('',#603,#604);
#603 = CARTESIAN_POINT('',(-9.275126265847,14.75,14.7));
#604 = VECTOR('',#605,1.);
#605 = DIRECTION('',(0.707106781187,0.707106781187,-3.728969589374E-16)
  );
#606 = PLANE('',#607);
#607 = AXIS2_PLACEMENT_3D('',#608,#609,#610);
#608 = CARTESIAN_POINT('',(-20.,23.,14.7));
#609 = DIRECTION('',(5.643633708511E-16,3.145631903105E-16,-1.));
#610 = DIRECTION('',(4.903485025428E-16,-1.,7.401486830834E-16));
#611 = ADVANCED_FACE('',(#612),#630,.F.);
#612 = FACE_BOUND('',#613,.F.);
#613 = EDGE_LOOP('',(#614,#615,#622,#623));
#614 = ORIENTED_EDGE('',*,*,#226,.F.);
#615 = ORIENTED_EDGE('',*,*,#616,.T.);
#616 = EDGE_CURVE('',#227,#527,#617,.T.);
#617 = CIRCLE('',#618,9.9);
#618 = AXIS2_PLACEMENT_3D('',#619,#620,#621);
#619 = CARTESIAN_POINT('',(-19.30717967697,-1.108981143171E-14,15.));
#620 = DIRECTION('',(1.,1.387778780781E-16,3.885780586188E-16));
#621 = DIRECTION('',(1.504892380952E-16,-0.999540757725,
    -3.030303030303E-02));
#622 = ORIENTED_EDGE('',*,*,#526,.T.);
#623 = ORIENTED_EDGE('',*,*,#624,.F.);
#624 = EDGE_CURVE('',#229,#501,#625,.T.);
#625 = CIRCLE('',#626,9.9);
#626 = AXIS2_PLACEMENT_3D('',#627,#628,#629);
#627 = CARTESIAN_POINT('',(-1.2,-8.576935458156E-15,15.));
#628 = DIRECTION('',(1.,1.387778780781E-16,3.885780586188E-16));
#629 = DIRECTION('',(1.504892380952E-16,-0.999540757725,
    -3.030303030303E-02));
#630 = CYLINDRICAL_SURFACE('',#631,9.9);
#631 = AXIS2_PLACEMENT_3D('',#632,#633,#634);
#632 = CARTESIAN_POINT('',(1.,-7.04991620637E-15,15.));
#633 = DIRECTION('',(1.,-2.590520390792E-16,-9.251858538543E-17));
#634 = DIRECTION('',(-2.683038976177E-16,1.,-4.348373513115E-16));
#635 = ADVANCED_FACE('',(#636),#648,.T.);
#636 = FACE_BOUND('',#637,.T.);
#637 = EDGE_LOOP('',(#638,#645,#646,#647));
#638 = ORIENTED_EDGE('',*,*,#639,.F.);
#639 = EDGE_CURVE('',#451,#227,#640,.T.);
#640 = PARABOLA('',#641,4.156921938165);
#641 = AXIS2_PLACEMENT_3D('',#642,#643,#644);
#642 = CARTESIAN_POINT('',(-16.3626933041,-5.064097149857E-15,19.8));
#643 = DIRECTION('',(0.866025403784,-4.649278228294E-16,-0.5));
#644 = DIRECTION('',(-0.5,-1.082834367149E-15,-0.866025403784));
#645 = ORIENTED_EDGE('',*,*,#459,.T.);
#646 = ORIENTED_EDGE('',*,*,#364,.T.);
#647 = ORIENTED_EDGE('',*,*,#251,.F.);
#648 = PLANE('',#649);
#649 = AXIS2_PLACEMENT_3D('',#650,#651,#652);
#650 = CARTESIAN_POINT('',(-19.65358983848,-9.895453501482,14.1));
#651 = DIRECTION('',(-0.866025403784,4.649278228294E-16,0.5));
#652 = DIRECTION('',(-1.996856009184E-16,-1.,5.839900393283E-16));
#653 = ADVANCED_FACE('',(#654),#679,.F.);
#654 = FACE_BOUND('',#655,.T.);
#655 = EDGE_LOOP('',(#656,#664,#672,#678));
#656 = ORIENTED_EDGE('',*,*,#657,.T.);
#657 = EDGE_CURVE('',#260,#658,#660,.T.);
#658 = VERTEX_POINT('',#659);
#659 = CARTESIAN_POINT('',(-8.25,-17.22487373415,2.7));
#660 = LINE('',#661,#662);
#661 = CARTESIAN_POINT('',(-8.25,-17.22487373415,14.7));
#662 = VECTOR('',#663,1.);
#663 = DIRECTION('',(5.273559366969E-16,-8.326672684689E-17,-1.));
#664 = ORIENTED_EDGE('',*,*,#665,.T.);
#665 = EDGE_CURVE('',#658,#666,#668,.T.);
#666 = VERTEX_POINT('',#667);
#667 = CARTESIAN_POINT('',(-9.275126265847,-18.25,2.7));
#668 = LINE('',#669,#670);
#669 = CARTESIAN_POINT('',(-8.25,-17.22487373415,2.7));
#670 = VECTOR('',#671,1.);
#671 = DIRECTION('',(-0.707106781187,-0.707106781187,1.177569344013E-15)
  );
#672 = ORIENTED_EDGE('',*,*,#673,.F.);
#673 = EDGE_CURVE('',#262,#666,#674,.T.);
#674 = LINE('',#675,#676);
#675 = CARTESIAN_POINT('',(-9.275126265847,-18.25,14.7));
#676 = VECTOR('',#677,1.);
#677 = DIRECTION('',(5.273559366969E-16,-8.326672684689E-17,-1.));
#678 = ORIENTED_EDGE('',*,*,#259,.F.);
#679 = PLANE('',#680);
#680 = AXIS2_PLACEMENT_3D('',#681,#682,#683);
#681 = CARTESIAN_POINT('',(-8.25,-17.22487373415,14.7));
#682 = DIRECTION('',(0.707106781187,-0.707106781187,1.831774535131E-16)
  );
#683 = DIRECTION('',(0.707106781187,0.707106781187,-6.80373398763E-16));
#684 = ADVANCED_FACE('',(#685),#703,.F.);
#685 = FACE_BOUND('',#686,.T.);
#686 = EDGE_LOOP('',(#687,#688,#696,#702));
#687 = ORIENTED_EDGE('',*,*,#673,.T.);
#688 = ORIENTED_EDGE('',*,*,#689,.T.);
#689 = EDGE_CURVE('',#666,#690,#692,.T.);
#690 = VERTEX_POINT('',#691);
#691 = CARTESIAN_POINT('',(-10.72487373415,-18.25,2.7));
#692 = LINE('',#693,#694);
#693 = CARTESIAN_POINT('',(-9.275126265847,-18.25,2.7));
#694 = VECTOR('',#695,1.);
#695 = DIRECTION('',(-1.,4.348373513115E-16,8.789265611616E-16));
#696 = ORIENTED_EDGE('',*,*,#697,.F.);
#697 = EDGE_CURVE('',#310,#690,#698,.T.);
#698 = LINE('',#699,#700);
#699 = CARTESIAN_POINT('',(-10.72487373415,-18.25,14.7));
#700 = VECTOR('',#701,1.);
#701 = DIRECTION('',(5.273559366969E-16,-8.326672684689E-17,-1.));
#702 = ORIENTED_EDGE('',*,*,#317,.F.);
#703 = PLANE('',#704);
#704 = AXIS2_PLACEMENT_3D('',#705,#706,#707);
#705 = CARTESIAN_POINT('',(-9.275126265847,-18.25,14.7));
#706 = DIRECTION('',(4.440892098501E-16,-1.,6.106226635438E-16));
#707 = DIRECTION('',(1.,-8.326672684689E-17,-5.273559366969E-16));
#708 = ADVANCED_FACE('',(#709),#727,.F.);
#709 = FACE_BOUND('',#710,.T.);
#710 = EDGE_LOOP('',(#711,#712,#720,#726));
#711 = ORIENTED_EDGE('',*,*,#697,.T.);
#712 = ORIENTED_EDGE('',*,*,#713,.T.);
#713 = EDGE_CURVE('',#690,#714,#716,.T.);
#714 = VERTEX_POINT('',#715);
#715 = CARTESIAN_POINT('',(-11.75,-17.22487373415,2.7));
#716 = LINE('',#717,#718);
#717 = CARTESIAN_POINT('',(-10.72487373415,-18.25,2.7));
#718 = VECTOR('',#719,1.);
#719 = DIRECTION('',(-0.707106781187,0.707106781187,6.542051911182E-17)
  );
#720 = ORIENTED_EDGE('',*,*,#721,.F.);
#721 = EDGE_CURVE('',#302,#714,#722,.T.);
#722 = LINE('',#723,#724);
#723 = CARTESIAN_POINT('',(-11.75,-17.22487373415,14.7));
#724 = VECTOR('',#725,1.);
#725 = DIRECTION('',(5.273559366969E-16,-8.326672684689E-17,-1.));
#726 = ORIENTED_EDGE('',*,*,#309,.F.);
#727 = PLANE('',#728);
#728 = AXIS2_PLACEMENT_3D('',#729,#730,#731);
#729 = CARTESIAN_POINT('',(-10.72487373415,-18.25,14.7));
#730 = DIRECTION('',(-0.707106781187,-0.707106781187,6.80373398763E-16)
  );
#731 = DIRECTION('',(0.707106781187,-0.707106781187,-6.542051911182E-17)
  );
#732 = ADVANCED_FACE('',(#733),#751,.F.);
#733 = FACE_BOUND('',#734,.T.);
#734 = EDGE_LOOP('',(#735,#736,#744,#750));
#735 = ORIENTED_EDGE('',*,*,#721,.T.);
#736 = ORIENTED_EDGE('',*,*,#737,.T.);
#737 = EDGE_CURVE('',#714,#738,#740,.T.);
#738 = VERTEX_POINT('',#739);
#739 = CARTESIAN_POINT('',(-11.75,-15.77512626584,2.7));
#740 = LINE('',#741,#742);
#741 = CARTESIAN_POINT('',(-11.75,-17.22487373415,2.7));
#742 = VECTOR('',#743,1.);
#743 = DIRECTION('',(-6.198745220824E-16,1.,-7.864079757762E-16));
#744 = ORIENTED_EDGE('',*,*,#745,.F.);
#745 = EDGE_CURVE('',#294,#738,#746,.T.);
#746 = LINE('',#747,#748);
#747 = CARTESIAN_POINT('',(-11.75,-15.77512626584,14.7));
#748 = VECTOR('',#749,1.);
#749 = DIRECTION('',(5.273559366969E-16,-8.326672684689E-17,-1.));
#750 = ORIENTED_EDGE('',*,*,#301,.F.);
#751 = PLANE('',#752);
#752 = AXIS2_PLACEMENT_3D('',#753,#754,#755);
#753 = CARTESIAN_POINT('',(-11.75,-17.22487373415,14.7));
#754 = DIRECTION('',(-1.,2.590520390792E-16,3.515706244646E-16));
#755 = DIRECTION('',(2.683038976177E-16,-1.,4.348373513115E-16));
#756 = ADVANCED_FACE('',(#757),#775,.F.);
#757 = FACE_BOUND('',#758,.T.);
#758 = EDGE_LOOP('',(#759,#760,#768,#774));
#759 = ORIENTED_EDGE('',*,*,#745,.T.);
#760 = ORIENTED_EDGE('',*,*,#761,.T.);
#761 = EDGE_CURVE('',#738,#762,#764,.T.);
#762 = VERTEX_POINT('',#763);
#763 = CARTESIAN_POINT('',(-10.72487373415,-14.75,2.7));
#764 = LINE('',#765,#766);
#765 = CARTESIAN_POINT('',(-11.75,-15.77512626584,2.7));
#766 = VECTOR('',#767,1.);
#767 = DIRECTION('',(0.707106781187,0.707106781187,-1.177569344013E-15)
  );
#768 = ORIENTED_EDGE('',*,*,#769,.F.);
#769 = EDGE_CURVE('',#286,#762,#770,.T.);
#770 = LINE('',#771,#772);
#771 = CARTESIAN_POINT('',(-10.72487373415,-14.75,14.7));
#772 = VECTOR('',#773,1.);
#773 = DIRECTION('',(5.273559366969E-16,-8.326672684689E-17,-1.));
#774 = ORIENTED_EDGE('',*,*,#293,.F.);
#775 = PLANE('',#776);
#776 = AXIS2_PLACEMENT_3D('',#777,#778,#779);
#777 = CARTESIAN_POINT('',(-11.75,-15.77512626584,14.7));
#778 = DIRECTION('',(-0.707106781187,0.707106781187,-1.831774535131E-16)
  );
#779 = DIRECTION('',(-0.707106781187,-0.707106781187,6.80373398763E-16)
  );
#780 = ADVANCED_FACE('',(#781),#799,.F.);
#781 = FACE_BOUND('',#782,.T.);
#782 = EDGE_LOOP('',(#783,#784,#792,#798));
#783 = ORIENTED_EDGE('',*,*,#769,.T.);
#784 = ORIENTED_EDGE('',*,*,#785,.T.);
#785 = EDGE_CURVE('',#762,#786,#788,.T.);
#786 = VERTEX_POINT('',#787);
#787 = CARTESIAN_POINT('',(-9.275126265847,-14.75,2.7));
#788 = LINE('',#789,#790);
#789 = CARTESIAN_POINT('',(-10.72487373415,-14.75,2.7));
#790 = VECTOR('',#791,1.);
#791 = DIRECTION('',(1.,-4.348373513115E-16,-8.789265611616E-16));
#792 = ORIENTED_EDGE('',*,*,#793,.F.);
#793 = EDGE_CURVE('',#278,#786,#794,.T.);
#794 = LINE('',#795,#796);
#795 = CARTESIAN_POINT('',(-9.275126265847,-14.75,14.7));
#796 = VECTOR('',#797,1.);
#797 = DIRECTION('',(5.273559366969E-16,-8.326672684689E-17,-1.));
#798 = ORIENTED_EDGE('',*,*,#285,.F.);
#799 = PLANE('',#800);
#800 = AXIS2_PLACEMENT_3D('',#801,#802,#803);
#801 = CARTESIAN_POINT('',(-10.72487373415,-14.75,14.7));
#802 = DIRECTION('',(-4.440892098501E-16,1.,-6.106226635438E-16));
#803 = DIRECTION('',(-1.,8.326672684689E-17,5.273559366969E-16));
#804 = ADVANCED_FACE('',(#805),#823,.F.);
#805 = FACE_BOUND('',#806,.T.);
#806 = EDGE_LOOP('',(#807,#808,#816,#822));
#807 = ORIENTED_EDGE('',*,*,#793,.T.);
#808 = ORIENTED_EDGE('',*,*,#809,.T.);
#809 = EDGE_CURVE('',#786,#810,#812,.T.);
#810 = VERTEX_POINT('',#811);
#811 = CARTESIAN_POINT('',(-8.25,-15.77512626584,2.7));
#812 = LINE('',#813,#814);
#813 = CARTESIAN_POINT('',(-9.275126265847,-14.75,2.7));
#814 = VECTOR('',#815,1.);
#815 = DIRECTION('',(0.707106781187,-0.707106781187,-6.542051911182E-17)
  );
#816 = ORIENTED_EDGE('',*,*,#817,.F.);
#817 = EDGE_CURVE('',#270,#810,#818,.T.);
#818 = LINE('',#819,#820);
#819 = CARTESIAN_POINT('',(-8.25,-15.77512626584,14.7));
#820 = VECTOR('',#821,1.);
#821 = DIRECTION('',(5.273559366969E-16,-8.326672684689E-17,-1.));
#822 = ORIENTED_EDGE('',*,*,#277,.F.);
#823 = PLANE('',#824);
#824 = AXIS2_PLACEMENT_3D('',#825,#826,#827);
#825 = CARTESIAN_POINT('',(-9.275126265847,-14.75,14.7));
#826 = DIRECTION('',(0.707106781187,0.707106781187,-6.80373398763E-16));
#827 = DIRECTION('',(-0.707106781187,0.707106781187,6.542051911182E-17)
  );
#828 = ADVANCED_FACE('',(#829),#840,.F.);
#829 = FACE_BOUND('',#830,.T.);
#830 = EDGE_LOOP('',(#831,#832,#838,#839));
#831 = ORIENTED_EDGE('',*,*,#817,.T.);
#832 = ORIENTED_EDGE('',*,*,#833,.T.);
#833 = EDGE_CURVE('',#810,#658,#834,.T.);
#834 = LINE('',#835,#836);
#835 = CARTESIAN_POINT('',(-8.25,-15.77512626584,2.7));
#836 = VECTOR('',#837,1.);
#837 = DIRECTION('',(6.198745220824E-16,-1.,7.864079757762E-16));
#838 = ORIENTED_EDGE('',*,*,#657,.F.);
#839 = ORIENTED_EDGE('',*,*,#269,.F.);
#840 = PLANE('',#841);
#841 = AXIS2_PLACEMENT_3D('',#842,#843,#844);
#842 = CARTESIAN_POINT('',(-8.25,-15.77512626584,14.7));
#843 = DIRECTION('',(1.,-2.590520390792E-16,-3.515706244646E-16));
#844 = DIRECTION('',(-2.683038976177E-16,1.,-4.348373513115E-16));
#845 = ADVANCED_FACE('',(#846),#852,.F.);
#846 = FACE_BOUND('',#847,.F.);
#847 = EDGE_LOOP('',(#848,#849,#850,#851));
#848 = ORIENTED_EDGE('',*,*,#347,.F.);
#849 = ORIENTED_EDGE('',*,*,#624,.T.);
#850 = ORIENTED_EDGE('',*,*,#508,.T.);
#851 = ORIENTED_EDGE('',*,*,#416,.F.);
#852 = CONICAL_SURFACE('',#853,9.9,0.523598775598);
#853 = AXIS2_PLACEMENT_3D('',#854,#855,#856);
#854 = CARTESIAN_POINT('',(-1.2,-8.576935458156E-15,15.));
#855 = DIRECTION('',(1.,1.387778780781E-16,3.885780586188E-16));
#856 = DIRECTION('',(1.504892380952E-16,-0.999540757725,
    -3.030303030303E-02));
#857 = ADVANCED_FACE('',(#858),#870,.T.);
#858 = FACE_BOUND('',#859,.T.);
#859 = EDGE_LOOP('',(#860,#861,#862,#869));
#860 = ORIENTED_EDGE('',*,*,#474,.F.);
#861 = ORIENTED_EDGE('',*,*,#442,.T.);
#862 = ORIENTED_EDGE('',*,*,#863,.T.);
#863 = EDGE_CURVE('',#443,#527,#864,.T.);
#864 = PARABOLA('',#865,4.156921938165);
#865 = AXIS2_PLACEMENT_3D('',#866,#867,#868);
#866 = CARTESIAN_POINT('',(-16.3626933041,-6.547127975099E-15,19.8));
#867 = DIRECTION('',(-0.866025403784,3.104454452001E-16,0.5));
#868 = DIRECTION('',(-0.5,-8.152630402212E-16,-0.866025403784));
#869 = ORIENTED_EDGE('',*,*,#534,.F.);
#870 = PLANE('',#871);
#871 = AXIS2_PLACEMENT_3D('',#872,#873,#874);
#872 = CARTESIAN_POINT('',(-19.65358983848,23.,14.1));
#873 = DIRECTION('',(-0.866025403784,3.104454452001E-16,0.5));
#874 = DIRECTION('',(-6.589993745434E-17,-1.,5.067488505136E-16));
#875 = ADVANCED_FACE('',(#876),#882,.F.);
#876 = FACE_BOUND('',#877,.F.);
#877 = EDGE_LOOP('',(#878,#879,#880,#881));
#878 = ORIENTED_EDGE('',*,*,#639,.F.);
#879 = ORIENTED_EDGE('',*,*,#450,.T.);
#880 = ORIENTED_EDGE('',*,*,#863,.T.);
#881 = ORIENTED_EDGE('',*,*,#616,.F.);
#882 = CONICAL_SURFACE('',#883,9.9,1.047197551197);
#883 = AXIS2_PLACEMENT_3D('',#884,#885,#886);
#884 = CARTESIAN_POINT('',(-19.30717967697,-1.108981143171E-14,15.));
#885 = DIRECTION('',(-1.,-1.387778780781E-16,-3.885780586188E-16));
#886 = DIRECTION('',(1.504892380952E-16,-0.999540757725,
    -3.030303030303E-02));
#887 = ADVANCED_FACE('',(#888),#913,.F.);
#888 = FACE_BOUND('',#889,.F.);
#889 = EDGE_LOOP('',(#890,#898,#906,#912));
#890 = ORIENTED_EDGE('',*,*,#891,.T.);
#891 = EDGE_CURVE('',#544,#892,#894,.T.);
#892 = VERTEX_POINT('',#893);
#893 = CARTESIAN_POINT('',(-8.25,15.775126265847,2.7));
#894 = LINE('',#895,#896);
#895 = CARTESIAN_POINT('',(-8.25,15.775126265847,14.7));
#896 = VECTOR('',#897,1.);
#897 = DIRECTION('',(1.295260195396E-16,4.625929269271E-17,-1.));
#898 = ORIENTED_EDGE('',*,*,#899,.T.);
#899 = EDGE_CURVE('',#892,#900,#902,.T.);
#900 = VERTEX_POINT('',#901);
#901 = CARTESIAN_POINT('',(-8.25,17.224873734153,2.7));
#902 = LINE('',#903,#904);
#903 = CARTESIAN_POINT('',(-8.25,15.775126265847,2.7));
#904 = VECTOR('',#905,1.);
#905 = DIRECTION('',(-2.22044604925E-16,1.,-3.053113317719E-16));
#906 = ORIENTED_EDGE('',*,*,#907,.F.);
#907 = EDGE_CURVE('',#546,#900,#908,.T.);
#908 = LINE('',#909,#910);
#909 = CARTESIAN_POINT('',(-8.25,17.224873734153,14.7));
#910 = VECTOR('',#911,1.);
#911 = DIRECTION('',(1.295260195396E-16,4.625929269271E-17,-1.));
#912 = ORIENTED_EDGE('',*,*,#543,.F.);
#913 = PLANE('',#914);
#914 = AXIS2_PLACEMENT_3D('',#915,#916,#917);
#915 = CARTESIAN_POINT('',(-8.25,15.775126265847,14.7));
#916 = DIRECTION('',(1.,4.625929269271E-17,1.295260195396E-16));
#917 = DIRECTION('',(-4.625929269271E-17,1.,-1.295260195396E-16));
#918 = ADVANCED_FACE('',(#919),#937,.F.);
#919 = FACE_BOUND('',#920,.F.);
#920 = EDGE_LOOP('',(#921,#929,#935,#936));
#921 = ORIENTED_EDGE('',*,*,#922,.T.);
#922 = EDGE_CURVE('',#594,#923,#925,.T.);
#923 = VERTEX_POINT('',#924);
#924 = CARTESIAN_POINT('',(-9.275126265847,14.75,2.7));
#925 = LINE('',#926,#927);
#926 = CARTESIAN_POINT('',(-9.275126265847,14.75,14.7));
#927 = VECTOR('',#928,1.);
#928 = DIRECTION('',(1.295260195396E-16,4.625929269271E-17,-1.));
#929 = ORIENTED_EDGE('',*,*,#930,.T.);
#930 = EDGE_CURVE('',#923,#892,#931,.T.);
#931 = LINE('',#932,#933);
#932 = CARTESIAN_POINT('',(-9.275126265847,14.75,2.7));
#933 = VECTOR('',#934,1.);
#934 = DIRECTION('',(0.707106781187,0.707106781187,-3.728969589374E-16)
  );
#935 = ORIENTED_EDGE('',*,*,#891,.F.);
#936 = ORIENTED_EDGE('',*,*,#601,.F.);
#937 = PLANE('',#938);
#938 = AXIS2_PLACEMENT_3D('',#939,#940,#941);
#939 = CARTESIAN_POINT('',(-9.275126265847,14.75,14.7));
#940 = DIRECTION('',(0.707106781187,-0.707106781187,5.887846720064E-17)
  );
#941 = DIRECTION('',(0.707106781187,0.707106781187,-1.242989863125E-16)
  );
#942 = ADVANCED_FACE('',(#943),#961,.F.);
#943 = FACE_BOUND('',#944,.F.);
#944 = EDGE_LOOP('',(#945,#953,#959,#960));
#945 = ORIENTED_EDGE('',*,*,#946,.T.);
#946 = EDGE_CURVE('',#586,#947,#949,.T.);
#947 = VERTEX_POINT('',#948);
#948 = CARTESIAN_POINT('',(-10.72487373415,14.75,2.7));
#949 = LINE('',#950,#951);
#950 = CARTESIAN_POINT('',(-10.72487373415,14.75,14.7));
#951 = VECTOR('',#952,1.);
#952 = DIRECTION('',(1.295260195396E-16,4.625929269271E-17,-1.));
#953 = ORIENTED_EDGE('',*,*,#954,.T.);
#954 = EDGE_CURVE('',#947,#923,#955,.T.);
#955 = LINE('',#956,#957);
#956 = CARTESIAN_POINT('',(-10.72487373415,14.75,2.7));
#957 = VECTOR('',#958,1.);
#958 = DIRECTION('',(1.,-3.053113317719E-16,-2.22044604925E-16));
#959 = ORIENTED_EDGE('',*,*,#922,.F.);
#960 = ORIENTED_EDGE('',*,*,#593,.F.);
#961 = PLANE('',#962);
#962 = AXIS2_PLACEMENT_3D('',#963,#964,#965);
#963 = CARTESIAN_POINT('',(-10.72487373415,14.75,14.7));
#964 = DIRECTION('',(-1.295260195396E-16,-1.,-4.625929269271E-17));
#965 = DIRECTION('',(1.,-1.295260195396E-16,-4.625929269271E-17));
#966 = ADVANCED_FACE('',(#967),#985,.F.);
#967 = FACE_BOUND('',#968,.F.);
#968 = EDGE_LOOP('',(#969,#977,#983,#984));
#969 = ORIENTED_EDGE('',*,*,#970,.T.);
#970 = EDGE_CURVE('',#578,#971,#973,.T.);
#971 = VERTEX_POINT('',#972);
#972 = CARTESIAN_POINT('',(-11.75,15.775126265847,2.7));
#973 = LINE('',#974,#975);
#974 = CARTESIAN_POINT('',(-11.75,15.775126265847,14.7));
#975 = VECTOR('',#976,1.);
#976 = DIRECTION('',(1.295260195396E-16,4.625929269271E-17,-1.));
#977 = ORIENTED_EDGE('',*,*,#978,.T.);
#978 = EDGE_CURVE('',#971,#947,#979,.T.);
#979 = LINE('',#980,#981);
#980 = CARTESIAN_POINT('',(-11.75,15.775126265847,2.7));
#981 = VECTOR('',#982,1.);
#982 = DIRECTION('',(0.707106781187,-0.707106781187,5.887846720064E-17)
  );
#983 = ORIENTED_EDGE('',*,*,#946,.F.);
#984 = ORIENTED_EDGE('',*,*,#585,.F.);
#985 = PLANE('',#986);
#986 = AXIS2_PLACEMENT_3D('',#987,#988,#989);
#987 = CARTESIAN_POINT('',(-11.75,15.775126265847,14.7));
#988 = DIRECTION('',(-0.707106781187,-0.707106781187,-1.242989863125E-16
    ));
#989 = DIRECTION('',(0.707106781187,-0.707106781187,5.887846720064E-17)
  );
#990 = ADVANCED_FACE('',(#991),#1009,.F.);
#991 = FACE_BOUND('',#992,.F.);
#992 = EDGE_LOOP('',(#993,#1001,#1007,#1008));
#993 = ORIENTED_EDGE('',*,*,#994,.T.);
#994 = EDGE_CURVE('',#570,#995,#997,.T.);
#995 = VERTEX_POINT('',#996);
#996 = CARTESIAN_POINT('',(-11.75,17.224873734153,2.7));
#997 = LINE('',#998,#999);
#998 = CARTESIAN_POINT('',(-11.75,17.224873734153,14.7));
#999 = VECTOR('',#1000,1.);
#1000 = DIRECTION('',(1.295260195396E-16,4.625929269271E-17,-1.));
#1001 = ORIENTED_EDGE('',*,*,#1002,.T.);
#1002 = EDGE_CURVE('',#995,#971,#1003,.T.);
#1003 = LINE('',#1004,#1005);
#1004 = CARTESIAN_POINT('',(-11.75,17.224873734153,2.7));
#1005 = VECTOR('',#1006,1.);
#1006 = DIRECTION('',(2.22044604925E-16,-1.,3.053113317719E-16));
#1007 = ORIENTED_EDGE('',*,*,#970,.F.);
#1008 = ORIENTED_EDGE('',*,*,#577,.F.);
#1009 = PLANE('',#1010);
#1010 = AXIS2_PLACEMENT_3D('',#1011,#1012,#1013);
#1011 = CARTESIAN_POINT('',(-11.75,17.224873734153,14.7));
#1012 = DIRECTION('',(-1.,-4.625929269271E-17,-1.295260195396E-16));
#1013 = DIRECTION('',(4.625929269271E-17,-1.,1.295260195396E-16));
#1014 = ADVANCED_FACE('',(#1015),#1033,.F.);
#1015 = FACE_BOUND('',#1016,.F.);
#1016 = EDGE_LOOP('',(#1017,#1025,#1031,#1032));
#1017 = ORIENTED_EDGE('',*,*,#1018,.T.);
#1018 = EDGE_CURVE('',#562,#1019,#1021,.T.);
#1019 = VERTEX_POINT('',#1020);
#1020 = CARTESIAN_POINT('',(-10.72487373415,18.25,2.7));
#1021 = LINE('',#1022,#1023);
#1022 = CARTESIAN_POINT('',(-10.72487373415,18.25,14.7));
#1023 = VECTOR('',#1024,1.);
#1024 = DIRECTION('',(1.295260195396E-16,4.625929269271E-17,-1.));
#1025 = ORIENTED_EDGE('',*,*,#1026,.T.);
#1026 = EDGE_CURVE('',#1019,#995,#1027,.T.);
#1027 = LINE('',#1028,#1029);
#1028 = CARTESIAN_POINT('',(-10.72487373415,18.25,2.7));
#1029 = VECTOR('',#1030,1.);
#1030 = DIRECTION('',(-0.707106781187,-0.707106781187,3.728969589374E-16
    ));
#1031 = ORIENTED_EDGE('',*,*,#994,.F.);
#1032 = ORIENTED_EDGE('',*,*,#569,.F.);
#1033 = PLANE('',#1034);
#1034 = AXIS2_PLACEMENT_3D('',#1035,#1036,#1037);
#1035 = CARTESIAN_POINT('',(-10.72487373415,18.25,14.7));
#1036 = DIRECTION('',(-0.707106781187,0.707106781187,-5.887846720064E-17
    ));
#1037 = DIRECTION('',(-0.707106781187,-0.707106781187,1.242989863125E-16
    ));
#1038 = ADVANCED_FACE('',(#1039),#1057,.F.);
#1039 = FACE_BOUND('',#1040,.F.);
#1040 = EDGE_LOOP('',(#1041,#1049,#1055,#1056));
#1041 = ORIENTED_EDGE('',*,*,#1042,.T.);
#1042 = EDGE_CURVE('',#554,#1043,#1045,.T.);
#1043 = VERTEX_POINT('',#1044);
#1044 = CARTESIAN_POINT('',(-9.275126265847,18.25,2.7));
#1045 = LINE('',#1046,#1047);
#1046 = CARTESIAN_POINT('',(-9.275126265847,18.25,14.7));
#1047 = VECTOR('',#1048,1.);
#1048 = DIRECTION('',(1.295260195396E-16,4.625929269271E-17,-1.));
#1049 = ORIENTED_EDGE('',*,*,#1050,.T.);
#1050 = EDGE_CURVE('',#1043,#1019,#1051,.T.);
#1051 = LINE('',#1052,#1053);
#1052 = CARTESIAN_POINT('',(-9.275126265847,18.25,2.7));
#1053 = VECTOR('',#1054,1.);
#1054 = DIRECTION('',(-1.,3.053113317719E-16,2.22044604925E-16));
#1055 = ORIENTED_EDGE('',*,*,#1018,.F.);
#1056 = ORIENTED_EDGE('',*,*,#561,.F.);
#1057 = PLANE('',#1058);
#1058 = AXIS2_PLACEMENT_3D('',#1059,#1060,#1061);
#1059 = CARTESIAN_POINT('',(-9.275126265847,18.25,14.7));
#1060 = DIRECTION('',(1.295260195396E-16,1.,4.625929269271E-17));
#1061 = DIRECTION('',(-1.,1.295260195396E-16,4.625929269271E-17));
#1062 = ADVANCED_FACE('',(#1063),#1074,.F.);
#1063 = FACE_BOUND('',#1064,.F.);
#1064 = EDGE_LOOP('',(#1065,#1066,#1072,#1073));
#1065 = ORIENTED_EDGE('',*,*,#907,.T.);
#1066 = ORIENTED_EDGE('',*,*,#1067,.T.);
#1067 = EDGE_CURVE('',#900,#1043,#1068,.T.);
#1068 = LINE('',#1069,#1070);
#1069 = CARTESIAN_POINT('',(-8.25,17.224873734153,2.7));
#1070 = VECTOR('',#1071,1.);
#1071 = DIRECTION('',(-0.707106781187,0.707106781187,-5.887846720064E-17
    ));
#1072 = ORIENTED_EDGE('',*,*,#1042,.F.);
#1073 = ORIENTED_EDGE('',*,*,#553,.F.);
#1074 = PLANE('',#1075);
#1075 = AXIS2_PLACEMENT_3D('',#1076,#1077,#1078);
#1076 = CARTESIAN_POINT('',(-8.25,17.224873734153,14.7));
#1077 = DIRECTION('',(0.707106781187,0.707106781187,1.242989863125E-16)
  );
#1078 = DIRECTION('',(-0.707106781187,0.707106781187,-5.887846720064E-17
    ));
#1079 = ADVANCED_FACE('',(#1080),#1090,.T.);
#1080 = FACE_BOUND('',#1081,.F.);
#1081 = EDGE_LOOP('',(#1082,#1083,#1084,#1085,#1086,#1087,#1088,#1089));
#1082 = ORIENTED_EDGE('',*,*,#665,.T.);
#1083 = ORIENTED_EDGE('',*,*,#689,.T.);
#1084 = ORIENTED_EDGE('',*,*,#713,.T.);
#1085 = ORIENTED_EDGE('',*,*,#737,.T.);
#1086 = ORIENTED_EDGE('',*,*,#761,.T.);
#1087 = ORIENTED_EDGE('',*,*,#785,.T.);
#1088 = ORIENTED_EDGE('',*,*,#809,.T.);
#1089 = ORIENTED_EDGE('',*,*,#833,.T.);
#1090 = PLANE('',#1091);
#1091 = AXIS2_PLACEMENT_3D('',#1092,#1093,#1094);
#1092 = CARTESIAN_POINT('',(-10.,-16.5,2.7));
#1093 = DIRECTION('',(-8.789265611616E-16,-2.683038976177E-16,1.));
#1094 = DIRECTION('',(-1.,4.348373513115E-16,8.789265611616E-16));
#1095 = ADVANCED_FACE('',(#1096),#1106,.T.);
#1096 = FACE_BOUND('',#1097,.T.);
#1097 = EDGE_LOOP('',(#1098,#1099,#1100,#1101,#1102,#1103,#1104,#1105));
#1098 = ORIENTED_EDGE('',*,*,#1067,.T.);
#1099 = ORIENTED_EDGE('',*,*,#1050,.T.);
#1100 = ORIENTED_EDGE('',*,*,#1026,.T.);
#1101 = ORIENTED_EDGE('',*,*,#1002,.T.);
#1102 = ORIENTED_EDGE('',*,*,#978,.T.);
#1103 = ORIENTED_EDGE('',*,*,#954,.T.);
#1104 = ORIENTED_EDGE('',*,*,#930,.T.);
#1105 = ORIENTED_EDGE('',*,*,#899,.T.);
#1106 = PLANE('',#1107);
#1107 = AXIS2_PLACEMENT_3D('',#1108,#1109,#1110);
#1108 = CARTESIAN_POINT('',(-10.,16.5,2.7));
#1109 = DIRECTION('',(-3.053113317719E-16,-2.22044604925E-16,1.));
#1110 = DIRECTION('',(1.,-3.053113317719E-16,-2.22044604925E-16));
#1111 = ( GEOMETRIC_REPRESENTATION_CONTEXT(3) 
GLOBAL_UNCERTAINTY_ASSIGNED_CONTEXT((#1115)) 
GLOBAL_UNIT_ASSIGNED_CONTEXT((#1112,#1113,#1114)) REPRESENTATION_CONTEXT
('Context #1','3D Context with UNIT and UNCERTAINTY') );
#1112 = ( LENGTH_UNIT() NAMED_UNIT(*) SI_UNIT(.MILLI.,.METRE.) );
#1113 = ( NAMED_UNIT(*) PLANE_ANGLE_UNIT() SI_UNIT($,.RADIAN.) );
#1114 = ( NAMED_UNIT(*) SI_UNIT($,.STERADIAN.) SOLID_ANGLE_UNIT() );
#1115 = UNCERTAINTY_MEASURE_WITH_UNIT(LENGTH_MEASURE(2.E-05),#1112,
  'distance_accuracy_value','confusion accuracy');
#1116 = PRODUCT_RELATED_PRODUCT_CATEGORY('part',$,(#7));
ENDSEC;
END-ISO-10303-21;
