ISO-10303-21;
HEADER;
FILE_DESCRIPTION(('FreeCAD Model'),'2;1');
FILE_NAME('Open CASCADE Shape Model','2026-10-09T13:15:56',('FreeCAD'),(
    'FreeCAD'),'Open CASCADE STEP processor 8.0','FreeCAD','Unknown');
FILE_SCHEMA(('AUTOMOTIVE_DESIGN { 1 0 10303 214 1 1 1 1 }'));
ENDSEC;
DATA;
#1 = APPLICATION_PROTOCOL_DEFINITION('international standard',
  'automotive_design',2000,#2);
#2 = APPLICATION_CONTEXT(
  'core data for automotive mechanical design processes');
#3 = SHAPE_DEFINITION_REPRESENTATION(#4,#10);
#4 = PRODUCT_DEFINITION_SHAPE('','',#5);
#5 = PRODUCT_DEFINITION('design','',#6,#9);
#6 = PRODUCT_DEFINITION_FORMATION('','',#7);
#7 = PRODUCT('Open CASCADE STEP translator 8.0 2',
  'Open CASCADE STEP translator 8.0 2','',(#8));
#8 = PRODUCT_CONTEXT('',#2,'mechanical');
#9 = PRODUCT_DEFINITION_CONTEXT('part definition',#2,'design');
#10 = ADVANCED_BREP_SHAPE_REPRESENTATION('',(#11,#15),#1565);
#11 = AXIS2_PLACEMENT_3D('',#12,#13,#14);
#12 = CARTESIAN_POINT('',(0.,0.,0.));
#13 = DIRECTION('',(0.,0.,1.));
#14 = DIRECTION('',(1.,0.,-0.));
#15 = MANIFOLD_SOLID_BREP('',#16);
#16 = CLOSED_SHELL('',(#17,#60,#91,#134,#165,#269,#301,#333,#350,#391,
    #425,#459,#493,#527,#561,#595,#622,#656,#690,#723,#756,#773,#813,
    #844,#955,#979,#1011,#1043,#1060,#1101,#1135,#1169,#1203,#1237,#1271
    ,#1305,#1332,#1365,#1398,#1415,#1455,#1477,#1499,#1516,#1533,#1551)
  );
#17 = ADVANCED_FACE('',(#18),#55,.F.);
#18 = FACE_BOUND('',#19,.F.);
#19 = EDGE_LOOP('',(#20,#31,#40,#48));
#20 = ORIENTED_EDGE('',*,*,#21,.F.);
#21 = EDGE_CURVE('',#22,#24,#26,.T.);
#22 = VERTEX_POINT('',#23);
#23 = CARTESIAN_POINT('',(-20.,10.998181667894,16.5));
#24 = VERTEX_POINT('',#25);
#25 = CARTESIAN_POINT('',(-19.30717967697,9.895453501482,15.3));
#26 = PARABOLA('',#27,4.156921938165);
#27 = AXIS2_PLACEMENT_3D('',#28,#29,#30);
#28 = CARTESIAN_POINT('',(-16.3626933041,1.317E-14,10.2));
#29 = DIRECTION('',(0.866025403784,-4.6E-16,0.5));
#30 = DIRECTION('',(-0.5,-1.07E-15,0.866025403784));
#31 = ORIENTED_EDGE('',*,*,#32,.T.);
#32 = EDGE_CURVE('',#22,#33,#35,.T.);
#33 = VERTEX_POINT('',#34);
#34 = CARTESIAN_POINT('',(-20.,1.E-15,26.1));
#35 = CIRCLE('',#36,11.1);
#36 = AXIS2_PLACEMENT_3D('',#37,#38,#39);
#37 = CARTESIAN_POINT('',(-20.,7.11E-15,15.));
#38 = DIRECTION('',(1.,1.4E-16,3.9E-16));
#39 = DIRECTION('',(-1.517538878998E-16,0.999540757725,
    3.030303030303E-02));
#40 = ORIENTED_EDGE('',*,*,#41,.T.);
#41 = EDGE_CURVE('',#33,#42,#44,.T.);
#42 = VERTEX_POINT('',#43);
#43 = CARTESIAN_POINT('',(-19.30717967697,1.E-15,24.9));
#44 = LINE('',#45,#46);
#45 = CARTESIAN_POINT('',(-13.59141201199,7.99E-15,15.));
#46 = VECTOR('',#47,1.);
#47 = DIRECTION('',(0.5,-2.E-16,-0.866025403784));
#48 = ORIENTED_EDGE('',*,*,#49,.F.);
#49 = EDGE_CURVE('',#24,#42,#50,.T.);
#50 = CIRCLE('',#51,9.9);
#51 = AXIS2_PLACEMENT_3D('',#52,#53,#54);
#52 = CARTESIAN_POINT('',(-19.30717967697,7.2E-15,15.));
#53 = DIRECTION('',(1.,1.4E-16,3.9E-16));
#54 = DIRECTION('',(-1.517538878998E-16,0.999540757725,
    3.030303030303E-02));
#55 = CONICAL_SURFACE('',#56,9.9,1.047197551197);
#56 = AXIS2_PLACEMENT_3D('',#57,#58,#59);
#57 = CARTESIAN_POINT('',(-19.30717967697,7.2E-15,15.));
#58 = DIRECTION('',(-1.,-1.4E-16,-3.9E-16));
#59 = DIRECTION('',(-1.517538878998E-16,0.999540757725,
    3.030303030303E-02));
#60 = ADVANCED_FACE('',(#61),#86,.T.);
#61 = FACE_BOUND('',#62,.T.);
#62 = EDGE_LOOP('',(#63,#64,#72,#80));
#63 = ORIENTED_EDGE('',*,*,#21,.F.);
#64 = ORIENTED_EDGE('',*,*,#65,.T.);
#65 = EDGE_CURVE('',#22,#66,#68,.T.);
#66 = VERTEX_POINT('',#67);
#67 = CARTESIAN_POINT('',(-20.,22.307179676972,16.5));
#68 = LINE('',#69,#70);
#69 = CARTESIAN_POINT('',(-20.,9.895453501482,16.5));
#70 = VECTOR('',#71,1.);
#71 = DIRECTION('',(-1.4E-16,1.,-3.9E-16));
#72 = ORIENTED_EDGE('',*,*,#73,.T.);
#73 = EDGE_CURVE('',#66,#74,#76,.T.);
#74 = VERTEX_POINT('',#75);
#75 = CARTESIAN_POINT('',(-19.30717967697,22.707179676972,15.3));
#76 = LINE('',#77,#78);
#77 = CARTESIAN_POINT('',(-20.33482444231,22.113868695071,
    17.079932945704));
#78 = VECTOR('',#79,1.);
#79 = DIRECTION('',(0.480384461415,0.277350098113,-0.832050294338));
#80 = ORIENTED_EDGE('',*,*,#81,.F.);
#81 = EDGE_CURVE('',#24,#74,#82,.T.);
#82 = LINE('',#83,#84);
#83 = CARTESIAN_POINT('',(-19.30717967697,9.895453501482,15.3));
#84 = VECTOR('',#85,1.);
#85 = DIRECTION('',(-1.4E-16,1.,-3.9E-16));
#86 = PLANE('',#87);
#87 = AXIS2_PLACEMENT_3D('',#88,#89,#90);
#88 = CARTESIAN_POINT('',(-19.65358983848,9.895453501482,15.9));
#89 = DIRECTION('',(-0.866025403784,4.6E-16,-0.5));
#90 = DIRECTION('',(5.308716857408E-16,1.,5.032679971238E-19));
#91 = ADVANCED_FACE('',(#92),#129,.F.);
#92 = FACE_BOUND('',#93,.T.);
#93 = EDGE_LOOP('',(#94,#105,#114,#122));
#94 = ORIENTED_EDGE('',*,*,#95,.F.);
#95 = EDGE_CURVE('',#96,#98,#100,.T.);
#96 = VERTEX_POINT('',#97);
#97 = CARTESIAN_POINT('',(-2.E-15,10.998181667894,16.5));
#98 = VERTEX_POINT('',#99);
#99 = CARTESIAN_POINT('',(-0.692820323028,9.895453501482,15.3));
#100 = PARABOLA('',#101,4.156921938165);
#101 = AXIS2_PLACEMENT_3D('',#102,#103,#104);
#102 = CARTESIAN_POINT('',(-3.637306695895,4.54E-15,10.2));
#103 = DIRECTION('',(0.866025403784,-4.6E-16,-0.5));
#104 = DIRECTION('',(0.5,1.08E-15,0.866025403784));
#105 = ORIENTED_EDGE('',*,*,#106,.T.);
#106 = EDGE_CURVE('',#96,#107,#109,.T.);
#107 = VERTEX_POINT('',#108);
#108 = CARTESIAN_POINT('',(-4.E-15,2.E-15,26.1));
#109 = CIRCLE('',#110,11.1);
#110 = AXIS2_PLACEMENT_3D('',#111,#112,#113);
#111 = CARTESIAN_POINT('',(0.,1.066E-14,15.));
#112 = DIRECTION('',(1.,1.4E-16,3.9E-16));
#113 = DIRECTION('',(-1.517538878998E-16,0.999540757725,
    3.030303030303E-02));
#114 = ORIENTED_EDGE('',*,*,#115,.T.);
#115 = EDGE_CURVE('',#107,#116,#118,.T.);
#116 = VERTEX_POINT('',#117);
#117 = CARTESIAN_POINT('',(-0.692820323028,2.E-15,24.9));
#118 = LINE('',#119,#120);
#119 = CARTESIAN_POINT('',(-6.408587988005,9.77E-15,15.));
#120 = VECTOR('',#121,1.);
#121 = DIRECTION('',(-0.5,-1.7E-16,-0.866025403784));
#122 = ORIENTED_EDGE('',*,*,#123,.F.);
#123 = EDGE_CURVE('',#98,#116,#124,.T.);
#124 = CIRCLE('',#125,9.9);
#125 = AXIS2_PLACEMENT_3D('',#126,#127,#128);
#126 = CARTESIAN_POINT('',(-0.692820323028,1.056E-14,15.));
#127 = DIRECTION('',(1.,1.4E-16,3.9E-16));
#128 = DIRECTION('',(-1.517538878998E-16,0.999540757725,
    3.030303030303E-02));
#129 = CONICAL_SURFACE('',#130,9.9,1.047197551197);
#130 = AXIS2_PLACEMENT_3D('',#131,#132,#133);
#131 = CARTESIAN_POINT('',(-0.692820323028,1.056E-14,15.));
#132 = DIRECTION('',(1.,1.4E-16,3.9E-16));
#133 = DIRECTION('',(-1.517538878998E-16,0.999540757725,
    3.030303030303E-02));
#134 = ADVANCED_FACE('',(#135),#160,.F.);
#135 = FACE_BOUND('',#136,.F.);
#136 = EDGE_LOOP('',(#137,#138,#146,#154));
#137 = ORIENTED_EDGE('',*,*,#95,.F.);
#138 = ORIENTED_EDGE('',*,*,#139,.T.);
#139 = EDGE_CURVE('',#96,#140,#142,.T.);
#140 = VERTEX_POINT('',#141);
#141 = CARTESIAN_POINT('',(-7.E-15,22.307179676972,16.5));
#142 = LINE('',#143,#144);
#143 = CARTESIAN_POINT('',(-8.88E-15,9.895453501482,16.5));
#144 = VECTOR('',#145,1.);
#145 = DIRECTION('',(-1.4E-16,1.,-3.9E-16));
#146 = ORIENTED_EDGE('',*,*,#147,.T.);
#147 = EDGE_CURVE('',#140,#148,#150,.T.);
#148 = VERTEX_POINT('',#149);
#149 = CARTESIAN_POINT('',(-0.692820323028,22.707179676972,15.3));
#150 = LINE('',#151,#152);
#151 = CARTESIAN_POINT('',(0.334824442314,22.113868695071,
    17.079932945704));
#152 = VECTOR('',#153,1.);
#153 = DIRECTION('',(-0.480384461415,0.277350098113,-0.832050294338));
#154 = ORIENTED_EDGE('',*,*,#155,.F.);
#155 = EDGE_CURVE('',#98,#148,#156,.T.);
#156 = LINE('',#157,#158);
#157 = CARTESIAN_POINT('',(-0.692820323028,9.895453501482,15.3));
#158 = VECTOR('',#159,1.);
#159 = DIRECTION('',(-1.4E-16,1.,-3.9E-16));
#160 = PLANE('',#161);
#161 = AXIS2_PLACEMENT_3D('',#162,#163,#164);
#162 = CARTESIAN_POINT('',(-0.346410161514,9.895453501482,15.9));
#163 = DIRECTION('',(-0.866025403784,4.6E-16,0.5));
#164 = DIRECTION('',(1.972243186434E-16,1.,-5.783974596216E-16));
#165 = ADVANCED_FACE('',(#166,#198),#264,.F.);
#166 = FACE_BOUND('',#167,.F.);
#167 = EDGE_LOOP('',(#168,#174,#175,#183,#191,#197));
#168 = ORIENTED_EDGE('',*,*,#169,.T.);
#169 = EDGE_CURVE('',#24,#98,#170,.T.);
#170 = LINE('',#171,#172);
#171 = CARTESIAN_POINT('',(-20.,9.895453501482,15.3));
#172 = VECTOR('',#173,1.);
#173 = DIRECTION('',(1.,-4.8E-16,-4.E-16));
#174 = ORIENTED_EDGE('',*,*,#155,.T.);
#175 = ORIENTED_EDGE('',*,*,#176,.T.);
#176 = EDGE_CURVE('',#148,#177,#179,.T.);
#177 = VERTEX_POINT('',#178);
#178 = CARTESIAN_POINT('',(-1.2,23.,15.3));
#179 = LINE('',#180,#181);
#180 = CARTESIAN_POINT('',(-5.112782456802,25.259046004715,15.3));
#181 = VECTOR('',#182,1.);
#182 = DIRECTION('',(-0.866025403784,0.5,-2.E-16));
#183 = ORIENTED_EDGE('',*,*,#184,.F.);
#184 = EDGE_CURVE('',#185,#177,#187,.T.);
#185 = VERTEX_POINT('',#186);
#186 = CARTESIAN_POINT('',(-18.8,23.,15.3));
#187 = LINE('',#188,#189);
#188 = CARTESIAN_POINT('',(-20.,23.,15.3));
#189 = VECTOR('',#190,1.);
#190 = DIRECTION('',(1.,-4.8E-16,-4.E-16));
#191 = ORIENTED_EDGE('',*,*,#192,.F.);
#192 = EDGE_CURVE('',#74,#185,#193,.T.);
#193 = LINE('',#194,#195);
#194 = CARTESIAN_POINT('',(-22.38721754319,20.928918985793,15.3));
#195 = VECTOR('',#196,1.);
#196 = DIRECTION('',(0.866025403784,0.5,1.7E-16));
#197 = ORIENTED_EDGE('',*,*,#81,.F.);
#198 = FACE_BOUND('',#199,.F.);
#199 = EDGE_LOOP('',(#200,#210,#218,#226,#234,#242,#250,#258));
#200 = ORIENTED_EDGE('',*,*,#201,.F.);
#201 = EDGE_CURVE('',#202,#204,#206,.T.);
#202 = VERTEX_POINT('',#203);
#203 = CARTESIAN_POINT('',(-7.75,15.431980515339,15.3));
#204 = VERTEX_POINT('',#205);
#205 = CARTESIAN_POINT('',(-9.068019484661,16.75,15.3));
#206 = LINE('',#207,#208);
#207 = CARTESIAN_POINT('',(-9.428368246536,17.110348761875,15.3));
#208 = VECTOR('',#209,1.);
#209 = DIRECTION('',(-0.707106781187,0.707106781187,-1.8E-16));
#210 = ORIENTED_EDGE('',*,*,#211,.F.);
#211 = EDGE_CURVE('',#212,#202,#214,.T.);
#212 = VERTEX_POINT('',#213);
#213 = CARTESIAN_POINT('',(-7.75,13.568019484661,15.3));
#214 = LINE('',#215,#216);
#215 = CARTESIAN_POINT('',(-7.75,11.731736493071,15.3));
#216 = VECTOR('',#217,1.);
#217 = DIRECTION('',(-9.E-17,1.,-2.1E-16));
#218 = ORIENTED_EDGE('',*,*,#219,.F.);
#219 = EDGE_CURVE('',#220,#212,#222,.T.);
#220 = VERTEX_POINT('',#221);
#221 = CARTESIAN_POINT('',(-9.068019484661,12.25,15.3));
#222 = LINE('',#223,#224);
#223 = CARTESIAN_POINT('',(-12.38965123812,8.928368246536,15.3));
#224 = VECTOR('',#225,1.);
#225 = DIRECTION('',(0.707106781187,0.707106781187,-1.2E-16));
#226 = ORIENTED_EDGE('',*,*,#227,.F.);
#227 = EDGE_CURVE('',#228,#220,#230,.T.);
#228 = VERTEX_POINT('',#229);
#229 = CARTESIAN_POINT('',(-10.93198051533,12.25,15.3));
#230 = LINE('',#231,#232);
#231 = CARTESIAN_POINT('',(-15.46599025767,12.25,15.3));
#232 = VECTOR('',#233,1.);
#233 = DIRECTION('',(1.,-2.6E-16,4.E-17));
#234 = ORIENTED_EDGE('',*,*,#235,.F.);
#235 = EDGE_CURVE('',#236,#228,#238,.T.);
#236 = VERTEX_POINT('',#237);
#237 = CARTESIAN_POINT('',(-12.25,13.568019484661,15.3));
#238 = LINE('',#239,#240);
#239 = CARTESIAN_POINT('',(-13.2693585042,14.587377988866,15.3));
#240 = VECTOR('',#241,1.);
#241 = DIRECTION('',(0.707106781187,-0.707106781187,1.8E-16));
#242 = ORIENTED_EDGE('',*,*,#243,.F.);
#243 = EDGE_CURVE('',#244,#236,#246,.T.);
#244 = VERTEX_POINT('',#245);
#245 = CARTESIAN_POINT('',(-12.25,15.431980515339,15.3));
#246 = LINE('',#247,#248);
#247 = CARTESIAN_POINT('',(-12.25,12.663717008411,15.3));
#248 = VECTOR('',#249,1.);
#249 = DIRECTION('',(9.E-17,-1.,2.1E-16));
#250 = ORIENTED_EDGE('',*,*,#251,.F.);
#251 = EDGE_CURVE('',#252,#244,#254,.T.);
#252 = VERTEX_POINT('',#253);
#253 = CARTESIAN_POINT('',(-10.93198051533,16.75,15.3));
#254 = LINE('',#255,#256);
#255 = CARTESIAN_POINT('',(-14.91262201113,12.769358504205,15.3));
#256 = VECTOR('',#257,1.);
#257 = DIRECTION('',(-0.707106781187,-0.707106781187,1.2E-16));
#258 = ORIENTED_EDGE('',*,*,#259,.F.);
#259 = EDGE_CURVE('',#204,#252,#260,.T.);
#260 = LINE('',#261,#262);
#261 = CARTESIAN_POINT('',(-14.53400974233,16.75,15.3));
#262 = VECTOR('',#263,1.);
#263 = DIRECTION('',(-1.,2.6E-16,-4.E-17));
#264 = PLANE('',#265);
#265 = AXIS2_PLACEMENT_3D('',#266,#267,#268);
#266 = CARTESIAN_POINT('',(-20.,9.895453501482,15.3));
#267 = DIRECTION('',(-3.1E-16,-2.2E-16,1.));
#268 = DIRECTION('',(-4.E-16,1.,2.2E-16));
#269 = ADVANCED_FACE('',(#270),#296,.F.);
#270 = FACE_BOUND('',#271,.T.);
#271 = EDGE_LOOP('',(#272,#273,#274,#282,#290));
#272 = ORIENTED_EDGE('',*,*,#147,.T.);
#273 = ORIENTED_EDGE('',*,*,#176,.T.);
#274 = ORIENTED_EDGE('',*,*,#275,.T.);
#275 = EDGE_CURVE('',#177,#276,#278,.T.);
#276 = VERTEX_POINT('',#277);
#277 = CARTESIAN_POINT('',(-1.2,23.,26.4));
#278 = LINE('',#279,#280);
#279 = CARTESIAN_POINT('',(-1.2,23.,15.3));
#280 = VECTOR('',#281,1.);
#281 = DIRECTION('',(-3.9E-16,-1.4E-16,1.));
#282 = ORIENTED_EDGE('',*,*,#283,.T.);
#283 = EDGE_CURVE('',#276,#284,#286,.T.);
#284 = VERTEX_POINT('',#285);
#285 = CARTESIAN_POINT('',(-5.E-15,22.307179676972,26.4));
#286 = LINE('',#287,#288);
#287 = CARTESIAN_POINT('',(-0.6,22.653589838486,26.4));
#288 = VECTOR('',#289,1.);
#289 = DIRECTION('',(0.866025403784,-0.5,2.7E-16));
#290 = ORIENTED_EDGE('',*,*,#291,.F.);
#291 = EDGE_CURVE('',#140,#284,#292,.T.);
#292 = LINE('',#293,#294);
#293 = CARTESIAN_POINT('',(-3.55E-15,22.307179676972,15.3));
#294 = VECTOR('',#295,1.);
#295 = DIRECTION('',(-3.9E-16,-1.4E-16,1.));
#296 = PLANE('',#297);
#297 = AXIS2_PLACEMENT_3D('',#298,#299,#300);
#298 = CARTESIAN_POINT('',(-0.6,22.653589838486,15.3));
#299 = DIRECTION('',(-0.5,-0.866025403784,-0.));
#300 = DIRECTION('',(2.28791651246E-16,-1.320929214352E-16,-1.));
#301 = ADVANCED_FACE('',(#302),#328,.T.);
#302 = FACE_BOUND('',#303,.F.);
#303 = EDGE_LOOP('',(#304,#305,#306,#314,#322));
#304 = ORIENTED_EDGE('',*,*,#73,.T.);
#305 = ORIENTED_EDGE('',*,*,#192,.T.);
#306 = ORIENTED_EDGE('',*,*,#307,.T.);
#307 = EDGE_CURVE('',#185,#308,#310,.T.);
#308 = VERTEX_POINT('',#309);
#309 = CARTESIAN_POINT('',(-18.8,23.,26.4));
#310 = LINE('',#311,#312);
#311 = CARTESIAN_POINT('',(-18.8,23.,15.3));
#312 = VECTOR('',#313,1.);
#313 = DIRECTION('',(-3.9E-16,-1.4E-16,1.));
#314 = ORIENTED_EDGE('',*,*,#315,.T.);
#315 = EDGE_CURVE('',#308,#316,#318,.T.);
#316 = VERTEX_POINT('',#317);
#317 = CARTESIAN_POINT('',(-20.,22.307179676972,26.4));
#318 = LINE('',#319,#320);
#319 = CARTESIAN_POINT('',(-19.4,22.653589838486,26.4));
#320 = VECTOR('',#321,1.);
#321 = DIRECTION('',(-0.866025403784,-0.5,-4.1E-16));
#322 = ORIENTED_EDGE('',*,*,#323,.F.);
#323 = EDGE_CURVE('',#66,#316,#324,.T.);
#324 = LINE('',#325,#326);
#325 = CARTESIAN_POINT('',(-20.,22.307179676972,15.3));
#326 = VECTOR('',#327,1.);
#327 = DIRECTION('',(-3.9E-16,-1.4E-16,1.));
#328 = PLANE('',#329);
#329 = AXIS2_PLACEMENT_3D('',#330,#331,#332);
#330 = CARTESIAN_POINT('',(-19.4,22.653589838486,15.3));
#331 = DIRECTION('',(-0.5,0.866025403784,0.));
#332 = DIRECTION('',(3.534326673974E-16,2.040544456623E-16,-1.));
#333 = ADVANCED_FACE('',(#334),#345,.F.);
#334 = FACE_BOUND('',#335,.F.);
#335 = EDGE_LOOP('',(#336,#337,#338,#344));
#336 = ORIENTED_EDGE('',*,*,#184,.T.);
#337 = ORIENTED_EDGE('',*,*,#275,.T.);
#338 = ORIENTED_EDGE('',*,*,#339,.F.);
#339 = EDGE_CURVE('',#308,#276,#340,.T.);
#340 = LINE('',#341,#342);
#341 = CARTESIAN_POINT('',(-20.,23.,26.4));
#342 = VECTOR('',#343,1.);
#343 = DIRECTION('',(1.,-4.8E-16,-4.E-16));
#344 = ORIENTED_EDGE('',*,*,#307,.F.);
#345 = PLANE('',#346);
#346 = AXIS2_PLACEMENT_3D('',#347,#348,#349);
#347 = CARTESIAN_POINT('',(-20.,23.,15.3));
#348 = DIRECTION('',(2.2E-16,-1.,3.1E-16));
#349 = DIRECTION('',(-4.8E-16,3.1E-16,1.));
#350 = ADVANCED_FACE('',(#351),#386,.T.);
#351 = FACE_BOUND('',#352,.T.);
#352 = EDGE_LOOP('',(#353,#364,#373,#379,#380));
#353 = ORIENTED_EDGE('',*,*,#354,.F.);
#354 = EDGE_CURVE('',#355,#357,#359,.T.);
#355 = VERTEX_POINT('',#356);
#356 = CARTESIAN_POINT('',(-8.40900974233,16.09099025767,25.35));
#357 = VERTEX_POINT('',#358);
#358 = CARTESIAN_POINT('',(-7.75,15.431980515339,25.535382450658));
#359 = HYPERBOLA('',#360,2.25,2.25);
#360 = AXIS2_PLACEMENT_3D('',#361,#362,#363);
#361 = CARTESIAN_POINT('',(-8.40900974233,16.09099025767,23.1));
#362 = DIRECTION('',(0.707106781187,0.707106781187,1.381738446394E-33));
#363 = DIRECTION('',(-4.E-17,4.E-17,1.));
#364 = ORIENTED_EDGE('',*,*,#365,.F.);
#365 = EDGE_CURVE('',#366,#355,#368,.T.);
#366 = VERTEX_POINT('',#367);
#367 = CARTESIAN_POINT('',(-9.068019484661,16.75,25.535382450658));
#368 = HYPERBOLA('',#369,2.25,2.25);
#369 = AXIS2_PLACEMENT_3D('',#370,#371,#372);
#370 = CARTESIAN_POINT('',(-8.40900974233,16.09099025767,23.1));
#371 = DIRECTION('',(0.707106781187,0.707106781187,1.381738446394E-33));
#372 = DIRECTION('',(-4.E-17,4.E-17,1.));
#373 = ORIENTED_EDGE('',*,*,#374,.T.);
#374 = EDGE_CURVE('',#366,#204,#375,.T.);
#375 = LINE('',#376,#377);
#376 = CARTESIAN_POINT('',(-9.068019484661,16.75,27.9));
#377 = VECTOR('',#378,1.);
#378 = DIRECTION('',(3.1E-16,2.2E-16,-1.));
#379 = ORIENTED_EDGE('',*,*,#201,.F.);
#380 = ORIENTED_EDGE('',*,*,#381,.F.);
#381 = EDGE_CURVE('',#357,#202,#382,.T.);
#382 = LINE('',#383,#384);
#383 = CARTESIAN_POINT('',(-7.75,15.431980515339,27.9));
#384 = VECTOR('',#385,1.);
#385 = DIRECTION('',(3.1E-16,2.2E-16,-1.));
#386 = PLANE('',#387);
#387 = AXIS2_PLACEMENT_3D('',#388,#389,#390);
#388 = CARTESIAN_POINT('',(-8.40900974233,16.09099025767,20.418121086298
    ));
#389 = DIRECTION('',(-0.707106781187,-0.707106781187,-2.9E-16));
#390 = DIRECTION('',(-0.707106781187,0.707106781187,-1.120452952991E-32)
  );
#391 = ADVANCED_FACE('',(#392),#420,.T.);
#392 = FACE_BOUND('',#393,.T.);
#393 = EDGE_LOOP('',(#394,#403,#412,#418,#419));
#394 = ORIENTED_EDGE('',*,*,#395,.F.);
#395 = EDGE_CURVE('',#396,#366,#398,.T.);
#396 = VERTEX_POINT('',#397);
#397 = CARTESIAN_POINT('',(-10.,16.75,25.35));
#398 = HYPERBOLA('',#399,2.25,2.25);
#399 = AXIS2_PLACEMENT_3D('',#400,#401,#402);
#400 = CARTESIAN_POINT('',(-10.,16.75,23.1));
#401 = DIRECTION('',(8.E-17,1.,-8.E-17));
#402 = DIRECTION('',(-1.3E-16,8.E-17,1.));
#403 = ORIENTED_EDGE('',*,*,#404,.F.);
#404 = EDGE_CURVE('',#405,#396,#407,.T.);
#405 = VERTEX_POINT('',#406);
#406 = CARTESIAN_POINT('',(-10.93198051533,16.75,25.535382450658));
#407 = HYPERBOLA('',#408,2.25,2.25);
#408 = AXIS2_PLACEMENT_3D('',#409,#410,#411);
#409 = CARTESIAN_POINT('',(-10.,16.75,23.1));
#410 = DIRECTION('',(8.E-17,1.,-8.E-17));
#411 = DIRECTION('',(-1.3E-16,8.E-17,1.));
#412 = ORIENTED_EDGE('',*,*,#413,.T.);
#413 = EDGE_CURVE('',#405,#252,#414,.T.);
#414 = LINE('',#415,#416);
#415 = CARTESIAN_POINT('',(-10.93198051533,16.75,27.9));
#416 = VECTOR('',#417,1.);
#417 = DIRECTION('',(3.1E-16,2.2E-16,-1.));
#418 = ORIENTED_EDGE('',*,*,#259,.F.);
#419 = ORIENTED_EDGE('',*,*,#374,.F.);
#420 = PLANE('',#421);
#421 = AXIS2_PLACEMENT_3D('',#422,#423,#424);
#422 = CARTESIAN_POINT('',(-10.,16.75,20.418121086298));
#423 = DIRECTION('',(-0.,-1.,-0.));
#424 = DIRECTION('',(-1.,0.,0.));
#425 = ADVANCED_FACE('',(#426),#454,.T.);
#426 = FACE_BOUND('',#427,.T.);
#427 = EDGE_LOOP('',(#428,#437,#446,#452,#453));
#428 = ORIENTED_EDGE('',*,*,#429,.F.);
#429 = EDGE_CURVE('',#430,#405,#432,.T.);
#430 = VERTEX_POINT('',#431);
#431 = CARTESIAN_POINT('',(-11.59099025767,16.09099025767,25.35));
#432 = HYPERBOLA('',#433,2.25,2.25);
#433 = AXIS2_PLACEMENT_3D('',#434,#435,#436);
#434 = CARTESIAN_POINT('',(-11.59099025767,16.09099025767,23.1));
#435 = DIRECTION('',(-0.707106781187,0.707106781187,-1.2E-16));
#436 = DIRECTION('',(-1.698528137424E-16,-1.471862576142E-19,1.));
#437 = ORIENTED_EDGE('',*,*,#438,.F.);
#438 = EDGE_CURVE('',#439,#430,#441,.T.);
#439 = VERTEX_POINT('',#440);
#440 = CARTESIAN_POINT('',(-12.25,15.431980515339,25.535382450658));
#441 = HYPERBOLA('',#442,2.25,2.25);
#442 = AXIS2_PLACEMENT_3D('',#443,#444,#445);
#443 = CARTESIAN_POINT('',(-11.59099025767,16.09099025767,23.1));
#444 = DIRECTION('',(-0.707106781187,0.707106781187,-1.2E-16));
#445 = DIRECTION('',(-1.698528137424E-16,-1.471862576142E-19,1.));
#446 = ORIENTED_EDGE('',*,*,#447,.T.);
#447 = EDGE_CURVE('',#439,#244,#448,.T.);
#448 = LINE('',#449,#450);
#449 = CARTESIAN_POINT('',(-12.25,15.431980515339,27.9));
#450 = VECTOR('',#451,1.);
#451 = DIRECTION('',(3.1E-16,2.2E-16,-1.));
#452 = ORIENTED_EDGE('',*,*,#251,.F.);
#453 = ORIENTED_EDGE('',*,*,#413,.F.);
#454 = PLANE('',#455);
#455 = AXIS2_PLACEMENT_3D('',#456,#457,#458);
#456 = CARTESIAN_POINT('',(-11.59099025767,16.09099025767,
    20.418121086298));
#457 = DIRECTION('',(0.707106781187,-0.707106781187,0.));
#458 = DIRECTION('',(-0.707106781187,-0.707106781187,0.));
#459 = ADVANCED_FACE('',(#460),#488,.T.);
#460 = FACE_BOUND('',#461,.T.);
#461 = EDGE_LOOP('',(#462,#471,#480,#486,#487));
#462 = ORIENTED_EDGE('',*,*,#463,.F.);
#463 = EDGE_CURVE('',#464,#439,#466,.T.);
#464 = VERTEX_POINT('',#465);
#465 = CARTESIAN_POINT('',(-12.25,14.5,25.35));
#466 = HYPERBOLA('',#467,2.25,2.25);
#467 = AXIS2_PLACEMENT_3D('',#468,#469,#470);
#468 = CARTESIAN_POINT('',(-12.25,14.5,23.1));
#469 = DIRECTION('',(-1.,8.E-17,-8.E-17));
#470 = DIRECTION('',(-8.E-17,-5.E-17,1.));
#471 = ORIENTED_EDGE('',*,*,#472,.F.);
#472 = EDGE_CURVE('',#473,#464,#475,.T.);
#473 = VERTEX_POINT('',#474);
#474 = CARTESIAN_POINT('',(-12.25,13.568019484661,25.535382450658));
#475 = HYPERBOLA('',#476,2.25,2.25);
#476 = AXIS2_PLACEMENT_3D('',#477,#478,#479);
#477 = CARTESIAN_POINT('',(-12.25,14.5,23.1));
#478 = DIRECTION('',(-1.,8.E-17,-8.E-17));
#479 = DIRECTION('',(-8.E-17,-5.E-17,1.));
#480 = ORIENTED_EDGE('',*,*,#481,.T.);
#481 = EDGE_CURVE('',#473,#236,#482,.T.);
#482 = LINE('',#483,#484);
#483 = CARTESIAN_POINT('',(-12.25,13.568019484661,27.9));
#484 = VECTOR('',#485,1.);
#485 = DIRECTION('',(3.1E-16,2.2E-16,-1.));
#486 = ORIENTED_EDGE('',*,*,#243,.F.);
#487 = ORIENTED_EDGE('',*,*,#447,.F.);
#488 = PLANE('',#489);
#489 = AXIS2_PLACEMENT_3D('',#490,#491,#492);
#490 = CARTESIAN_POINT('',(-12.25,14.5,20.418121086298));
#491 = DIRECTION('',(1.,0.,2.8E-16));
#492 = DIRECTION('',(-2.8E-16,0.,1.));
#493 = ADVANCED_FACE('',(#494),#522,.T.);
#494 = FACE_BOUND('',#495,.T.);
#495 = EDGE_LOOP('',(#496,#505,#514,#520,#521));
#496 = ORIENTED_EDGE('',*,*,#497,.F.);
#497 = EDGE_CURVE('',#498,#473,#500,.T.);
#498 = VERTEX_POINT('',#499);
#499 = CARTESIAN_POINT('',(-11.59099025767,12.90900974233,25.35));
#500 = HYPERBOLA('',#501,2.25,2.25);
#501 = AXIS2_PLACEMENT_3D('',#502,#503,#504);
#502 = CARTESIAN_POINT('',(-11.59099025767,12.90900974233,23.1));
#503 = DIRECTION('',(-0.707106781187,-0.707106781187,-1.381738446394E-33
    ));
#504 = DIRECTION('',(-4.E-17,4.E-17,1.));
#505 = ORIENTED_EDGE('',*,*,#506,.F.);
#506 = EDGE_CURVE('',#507,#498,#509,.T.);
#507 = VERTEX_POINT('',#508);
#508 = CARTESIAN_POINT('',(-10.93198051533,12.25,25.535382450658));
#509 = HYPERBOLA('',#510,2.25,2.25);
#510 = AXIS2_PLACEMENT_3D('',#511,#512,#513);
#511 = CARTESIAN_POINT('',(-11.59099025767,12.90900974233,23.1));
#512 = DIRECTION('',(-0.707106781187,-0.707106781187,-1.381738446394E-33
    ));
#513 = DIRECTION('',(-4.E-17,4.E-17,1.));
#514 = ORIENTED_EDGE('',*,*,#515,.T.);
#515 = EDGE_CURVE('',#507,#228,#516,.T.);
#516 = LINE('',#517,#518);
#517 = CARTESIAN_POINT('',(-10.93198051533,12.25,27.9));
#518 = VECTOR('',#519,1.);
#519 = DIRECTION('',(3.1E-16,2.2E-16,-1.));
#520 = ORIENTED_EDGE('',*,*,#235,.F.);
#521 = ORIENTED_EDGE('',*,*,#481,.F.);
#522 = PLANE('',#523);
#523 = AXIS2_PLACEMENT_3D('',#524,#525,#526);
#524 = CARTESIAN_POINT('',(-11.59099025767,12.90900974233,
    20.418121086298));
#525 = DIRECTION('',(0.707106781187,0.707106781187,2.1E-16));
#526 = DIRECTION('',(0.707106781187,-0.707106781187,1.039645147956E-32)
  );
#527 = ADVANCED_FACE('',(#528),#556,.T.);
#528 = FACE_BOUND('',#529,.T.);
#529 = EDGE_LOOP('',(#530,#539,#548,#554,#555));
#530 = ORIENTED_EDGE('',*,*,#531,.F.);
#531 = EDGE_CURVE('',#532,#507,#534,.T.);
#532 = VERTEX_POINT('',#533);
#533 = CARTESIAN_POINT('',(-10.00000007742,12.25,25.35));
#534 = HYPERBOLA('',#535,2.25,2.25);
#535 = AXIS2_PLACEMENT_3D('',#536,#537,#538);
#536 = CARTESIAN_POINT('',(-10.,12.25,23.1));
#537 = DIRECTION('',(-8.E-17,-1.,8.E-17));
#538 = DIRECTION('',(-1.3E-16,8.E-17,1.));
#539 = ORIENTED_EDGE('',*,*,#540,.F.);
#540 = EDGE_CURVE('',#541,#532,#543,.T.);
#541 = VERTEX_POINT('',#542);
#542 = CARTESIAN_POINT('',(-9.068019484661,12.25,25.535382450658));
#543 = HYPERBOLA('',#544,2.25,2.25);
#544 = AXIS2_PLACEMENT_3D('',#545,#546,#547);
#545 = CARTESIAN_POINT('',(-10.,12.25,23.1));
#546 = DIRECTION('',(-8.E-17,-1.,8.E-17));
#547 = DIRECTION('',(-1.3E-16,8.E-17,1.));
#548 = ORIENTED_EDGE('',*,*,#549,.T.);
#549 = EDGE_CURVE('',#541,#220,#550,.T.);
#550 = LINE('',#551,#552);
#551 = CARTESIAN_POINT('',(-9.068019484661,12.25,27.9));
#552 = VECTOR('',#553,1.);
#553 = DIRECTION('',(3.1E-16,2.2E-16,-1.));
#554 = ORIENTED_EDGE('',*,*,#227,.F.);
#555 = ORIENTED_EDGE('',*,*,#515,.F.);
#556 = PLANE('',#557);
#557 = AXIS2_PLACEMENT_3D('',#558,#559,#560);
#558 = CARTESIAN_POINT('',(-9.999999999988,12.25,20.418121086298));
#559 = DIRECTION('',(0.,1.,0.));
#560 = DIRECTION('',(1.,0.,0.));
#561 = ADVANCED_FACE('',(#562),#590,.T.);
#562 = FACE_BOUND('',#563,.T.);
#563 = EDGE_LOOP('',(#564,#573,#582,#588,#589));
#564 = ORIENTED_EDGE('',*,*,#565,.F.);
#565 = EDGE_CURVE('',#566,#541,#568,.T.);
#566 = VERTEX_POINT('',#567);
#567 = CARTESIAN_POINT('',(-8.40900974233,12.90900974233,25.35));
#568 = HYPERBOLA('',#569,2.25,2.25);
#569 = AXIS2_PLACEMENT_3D('',#570,#571,#572);
#570 = CARTESIAN_POINT('',(-8.40900974233,12.90900974233,23.1));
#571 = DIRECTION('',(0.707106781187,-0.707106781187,1.2E-16));
#572 = DIRECTION('',(-1.698528137424E-16,-1.471862576144E-19,1.));
#573 = ORIENTED_EDGE('',*,*,#574,.F.);
#574 = EDGE_CURVE('',#575,#566,#577,.T.);
#575 = VERTEX_POINT('',#576);
#576 = CARTESIAN_POINT('',(-7.75,13.568019484661,25.535382450658));
#577 = HYPERBOLA('',#578,2.25,2.25);
#578 = AXIS2_PLACEMENT_3D('',#579,#580,#581);
#579 = CARTESIAN_POINT('',(-8.40900974233,12.90900974233,23.1));
#580 = DIRECTION('',(0.707106781187,-0.707106781187,1.2E-16));
#581 = DIRECTION('',(-1.698528137424E-16,-1.471862576144E-19,1.));
#582 = ORIENTED_EDGE('',*,*,#583,.T.);
#583 = EDGE_CURVE('',#575,#212,#584,.T.);
#584 = LINE('',#585,#586);
#585 = CARTESIAN_POINT('',(-7.75,13.568019484661,27.9));
#586 = VECTOR('',#587,1.);
#587 = DIRECTION('',(3.1E-16,2.2E-16,-1.));
#588 = ORIENTED_EDGE('',*,*,#219,.F.);
#589 = ORIENTED_EDGE('',*,*,#549,.F.);
#590 = PLANE('',#591);
#591 = AXIS2_PLACEMENT_3D('',#592,#593,#594);
#592 = CARTESIAN_POINT('',(-8.409009742321,12.90900974234,
    20.418121086298));
#593 = DIRECTION('',(-0.707106781187,0.707106781187,-1.8E-16));
#594 = DIRECTION('',(-0.707106781187,-0.707106781187,-3.290117675726E-33
    ));
#595 = ADVANCED_FACE('',(#596),#617,.T.);
#596 = FACE_BOUND('',#597,.T.);
#597 = EDGE_LOOP('',(#598,#607,#614,#615,#616));
#598 = ORIENTED_EDGE('',*,*,#599,.F.);
#599 = EDGE_CURVE('',#600,#575,#602,.T.);
#600 = VERTEX_POINT('',#601);
#601 = CARTESIAN_POINT('',(-7.75,14.50000011051,25.35));
#602 = HYPERBOLA('',#603,2.25,2.25);
#603 = AXIS2_PLACEMENT_3D('',#604,#605,#606);
#604 = CARTESIAN_POINT('',(-7.75,14.5,23.1));
#605 = DIRECTION('',(1.,-8.E-17,8.E-17));
#606 = DIRECTION('',(-8.E-17,-5.E-17,1.));
#607 = ORIENTED_EDGE('',*,*,#608,.F.);
#608 = EDGE_CURVE('',#357,#600,#609,.T.);
#609 = HYPERBOLA('',#610,2.25,2.25);
#610 = AXIS2_PLACEMENT_3D('',#611,#612,#613);
#611 = CARTESIAN_POINT('',(-7.75,14.5,23.1));
#612 = DIRECTION('',(1.,-8.E-17,8.E-17));
#613 = DIRECTION('',(-8.E-17,-5.E-17,1.));
#614 = ORIENTED_EDGE('',*,*,#381,.T.);
#615 = ORIENTED_EDGE('',*,*,#211,.F.);
#616 = ORIENTED_EDGE('',*,*,#583,.F.);
#617 = PLANE('',#618);
#618 = AXIS2_PLACEMENT_3D('',#619,#620,#621);
#619 = CARTESIAN_POINT('',(-7.75,14.500000000017,20.418121086298));
#620 = DIRECTION('',(-1.,-0.,-2.7E-16));
#621 = DIRECTION('',(2.7E-16,0.,-1.));
#622 = ADVANCED_FACE('',(#623),#651,.F.);
#623 = FACE_BOUND('',#624,.F.);
#624 = EDGE_LOOP('',(#625,#636,#643,#644));
#625 = ORIENTED_EDGE('',*,*,#626,.F.);
#626 = EDGE_CURVE('',#627,#629,#631,.T.);
#627 = VERTEX_POINT('',#628);
#628 = CARTESIAN_POINT('',(0.,-10.99818166789,16.5));
#629 = VERTEX_POINT('',#630);
#630 = CARTESIAN_POINT('',(-0.692820323028,-9.895453501482,15.3));
#631 = PARABOLA('',#632,4.156921938165);
#632 = AXIS2_PLACEMENT_3D('',#633,#634,#635);
#633 = CARTESIAN_POINT('',(-3.637306695895,-4.82E-15,10.2));
#634 = DIRECTION('',(-0.866025403784,-4.2E-16,0.5));
#635 = DIRECTION('',(0.5,-8.1E-16,0.866025403784));
#636 = ORIENTED_EDGE('',*,*,#637,.T.);
#637 = EDGE_CURVE('',#627,#107,#638,.T.);
#638 = CIRCLE('',#639,11.1);
#639 = AXIS2_PLACEMENT_3D('',#640,#641,#642);
#640 = CARTESIAN_POINT('',(0.,-9.36E-15,15.));
#641 = DIRECTION('',(-1.,5.E-17,-3.9E-16));
#642 = DIRECTION('',(-6.179521970446E-17,-0.999540757725,
    3.030303030303E-02));
#643 = ORIENTED_EDGE('',*,*,#115,.T.);
#644 = ORIENTED_EDGE('',*,*,#645,.F.);
#645 = EDGE_CURVE('',#629,#116,#646,.T.);
#646 = CIRCLE('',#647,9.9);
#647 = AXIS2_PLACEMENT_3D('',#648,#649,#650);
#648 = CARTESIAN_POINT('',(-0.692820323028,-9.33E-15,15.));
#649 = DIRECTION('',(-1.,5.E-17,-3.9E-16));
#650 = DIRECTION('',(-6.179521970446E-17,-0.999540757725,
    3.030303030303E-02));
#651 = CONICAL_SURFACE('',#652,9.9,1.047197551197);
#652 = AXIS2_PLACEMENT_3D('',#653,#654,#655);
#653 = CARTESIAN_POINT('',(-0.692820323028,-9.33E-15,15.));
#654 = DIRECTION('',(1.,-5.E-17,3.9E-16));
#655 = DIRECTION('',(-6.179521970446E-17,-0.999540757725,
    3.030303030303E-02));
#656 = ADVANCED_FACE('',(#657),#685,.F.);
#657 = FACE_BOUND('',#658,.T.);
#658 = EDGE_LOOP('',(#659,#670,#677,#678));
#659 = ORIENTED_EDGE('',*,*,#660,.F.);
#660 = EDGE_CURVE('',#661,#663,#665,.T.);
#661 = VERTEX_POINT('',#662);
#662 = CARTESIAN_POINT('',(-20.,-10.99818166789,16.5));
#663 = VERTEX_POINT('',#664);
#664 = CARTESIAN_POINT('',(-19.30717967697,-9.895453501482,15.3));
#665 = PARABOLA('',#666,4.156921938165);
#666 = AXIS2_PLACEMENT_3D('',#667,#668,#669);
#667 = CARTESIAN_POINT('',(-16.3626933041,-1.463E-14,10.2));
#668 = DIRECTION('',(-0.866025403784,-6.7E-16,-0.5));
#669 = DIRECTION('',(-0.5,1.25E-15,0.866025403784));
#670 = ORIENTED_EDGE('',*,*,#671,.T.);
#671 = EDGE_CURVE('',#661,#33,#672,.T.);
#672 = CIRCLE('',#673,11.1);
#673 = AXIS2_PLACEMENT_3D('',#674,#675,#676);
#674 = CARTESIAN_POINT('',(-20.,-7.66E-15,15.));
#675 = DIRECTION('',(-1.,5.E-17,-3.9E-16));
#676 = DIRECTION('',(-6.179521970446E-17,-0.999540757725,
    3.030303030303E-02));
#677 = ORIENTED_EDGE('',*,*,#41,.T.);
#678 = ORIENTED_EDGE('',*,*,#679,.F.);
#679 = EDGE_CURVE('',#663,#42,#680,.T.);
#680 = CIRCLE('',#681,9.9);
#681 = AXIS2_PLACEMENT_3D('',#682,#683,#684);
#682 = CARTESIAN_POINT('',(-19.30717967697,-7.69E-15,15.));
#683 = DIRECTION('',(-1.,5.E-17,-3.9E-16));
#684 = DIRECTION('',(-6.179521970446E-17,-0.999540757725,
    3.030303030303E-02));
#685 = CONICAL_SURFACE('',#686,9.9,1.047197551197);
#686 = AXIS2_PLACEMENT_3D('',#687,#688,#689);
#687 = CARTESIAN_POINT('',(-19.30717967697,-7.69E-15,15.));
#688 = DIRECTION('',(-1.,5.E-17,-3.9E-16));
#689 = DIRECTION('',(-6.179521970446E-17,-0.999540757725,
    3.030303030303E-02));
#690 = ADVANCED_FACE('',(#691),#718,.T.);
#691 = FACE_BOUND('',#692,.T.);
#692 = EDGE_LOOP('',(#693,#694,#703,#711));
#693 = ORIENTED_EDGE('',*,*,#283,.F.);
#694 = ORIENTED_EDGE('',*,*,#695,.T.);
#695 = EDGE_CURVE('',#276,#696,#698,.T.);
#696 = VERTEX_POINT('',#697);
#697 = CARTESIAN_POINT('',(-1.2,21.5,27.9));
#698 = CIRCLE('',#699,1.5);
#699 = AXIS2_PLACEMENT_3D('',#700,#701,#702);
#700 = CARTESIAN_POINT('',(-1.2,21.5,26.4));
#701 = DIRECTION('',(1.,1.4E-16,3.9E-16));
#702 = DIRECTION('',(-1.4E-16,1.,0.));
#703 = ORIENTED_EDGE('',*,*,#704,.T.);
#704 = EDGE_CURVE('',#696,#705,#707,.T.);
#705 = VERTEX_POINT('',#706);
#706 = CARTESIAN_POINT('',(-9.E-15,21.5,27.207179676972));
#707 = LINE('',#708,#709);
#708 = CARTESIAN_POINT('',(-1.2,21.5,27.9));
#709 = VECTOR('',#710,1.);
#710 = DIRECTION('',(0.866025403784,9.E-17,-0.5));
#711 = ORIENTED_EDGE('',*,*,#712,.F.);
#712 = EDGE_CURVE('',#284,#705,#713,.T.);
#713 = CIRCLE('',#714,0.807179676972);
#714 = AXIS2_PLACEMENT_3D('',#715,#716,#717);
#715 = CARTESIAN_POINT('',(-8.88E-15,21.5,26.4));
#716 = DIRECTION('',(1.,1.4E-16,3.9E-16));
#717 = DIRECTION('',(-1.4E-16,1.,0.));
#718 = CONICAL_SURFACE('',#719,1.5,0.523598775598);
#719 = AXIS2_PLACEMENT_3D('',#720,#721,#722);
#720 = CARTESIAN_POINT('',(-1.2,21.5,26.4));
#721 = DIRECTION('',(-1.,-1.4E-16,-3.9E-16));
#722 = DIRECTION('',(-1.4E-16,1.,0.));
#723 = ADVANCED_FACE('',(#724),#751,.T.);
#724 = FACE_BOUND('',#725,.F.);
#725 = EDGE_LOOP('',(#726,#727,#736,#744));
#726 = ORIENTED_EDGE('',*,*,#315,.F.);
#727 = ORIENTED_EDGE('',*,*,#728,.T.);
#728 = EDGE_CURVE('',#308,#729,#731,.T.);
#729 = VERTEX_POINT('',#730);
#730 = CARTESIAN_POINT('',(-18.8,21.5,27.9));
#731 = CIRCLE('',#732,1.5);
#732 = AXIS2_PLACEMENT_3D('',#733,#734,#735);
#733 = CARTESIAN_POINT('',(-18.8,21.5,26.4));
#734 = DIRECTION('',(1.,1.4E-16,3.9E-16));
#735 = DIRECTION('',(-1.4E-16,1.,4.74E-15));
#736 = ORIENTED_EDGE('',*,*,#737,.T.);
#737 = EDGE_CURVE('',#729,#738,#740,.T.);
#738 = VERTEX_POINT('',#739);
#739 = CARTESIAN_POINT('',(-20.,21.5,27.207179676972));
#740 = LINE('',#741,#742);
#741 = CARTESIAN_POINT('',(-18.8,21.5,27.9));
#742 = VECTOR('',#743,1.);
#743 = DIRECTION('',(-0.866025403784,2.22E-15,-0.5));
#744 = ORIENTED_EDGE('',*,*,#745,.F.);
#745 = EDGE_CURVE('',#316,#738,#746,.T.);
#746 = CIRCLE('',#747,0.807179676972);
#747 = AXIS2_PLACEMENT_3D('',#748,#749,#750);
#748 = CARTESIAN_POINT('',(-20.,21.5,26.4));
#749 = DIRECTION('',(1.,1.4E-16,3.9E-16));
#750 = DIRECTION('',(-1.4E-16,1.,4.74E-15));
#751 = CONICAL_SURFACE('',#752,1.5,0.523598775598);
#752 = AXIS2_PLACEMENT_3D('',#753,#754,#755);
#753 = CARTESIAN_POINT('',(-18.8,21.5,26.4));
#754 = DIRECTION('',(1.,1.4E-16,3.9E-16));
#755 = DIRECTION('',(-1.4E-16,1.,4.74E-15));
#756 = ADVANCED_FACE('',(#757),#768,.T.);
#757 = FACE_BOUND('',#758,.F.);
#758 = EDGE_LOOP('',(#759,#760,#761,#767));
#759 = ORIENTED_EDGE('',*,*,#339,.T.);
#760 = ORIENTED_EDGE('',*,*,#695,.T.);
#761 = ORIENTED_EDGE('',*,*,#762,.F.);
#762 = EDGE_CURVE('',#729,#696,#763,.T.);
#763 = LINE('',#764,#765);
#764 = CARTESIAN_POINT('',(-20.,21.5,27.9));
#765 = VECTOR('',#766,1.);
#766 = DIRECTION('',(1.,-4.8E-16,-4.E-16));
#767 = ORIENTED_EDGE('',*,*,#728,.F.);
#768 = CYLINDRICAL_SURFACE('',#769,1.5);
#769 = AXIS2_PLACEMENT_3D('',#770,#771,#772);
#770 = CARTESIAN_POINT('',(-20.,21.5,26.4));
#771 = DIRECTION('',(-1.,3.1E-16,2.2E-16));
#772 = DIRECTION('',(3.1E-16,1.,-4.8E-16));
#773 = ADVANCED_FACE('',(#774),#808,.F.);
#774 = FACE_BOUND('',#775,.T.);
#775 = EDGE_LOOP('',(#776,#784,#791,#792,#793,#794,#795,#796,#797,#798,
    #799,#800,#801,#802,#803,#804,#805,#806,#807));
#776 = ORIENTED_EDGE('',*,*,#777,.F.);
#777 = EDGE_CURVE('',#778,#396,#780,.T.);
#778 = VERTEX_POINT('',#779);
#779 = CARTESIAN_POINT('',(-10.,19.3,27.9));
#780 = LINE('',#781,#782);
#781 = CARTESIAN_POINT('',(-10.,19.3,27.9));
#782 = VECTOR('',#783,1.);
#783 = DIRECTION('',(9.E-17,-0.707106781187,-0.707106781187));
#784 = ORIENTED_EDGE('',*,*,#785,.T.);
#785 = EDGE_CURVE('',#778,#778,#786,.T.);
#786 = CIRCLE('',#787,4.8);
#787 = AXIS2_PLACEMENT_3D('',#788,#789,#790);
#788 = CARTESIAN_POINT('',(-10.,14.5,27.9));
#789 = DIRECTION('',(-1.3E-16,-5.E-17,1.));
#790 = DIRECTION('',(-1.443063283607E-49,1.,5.E-17));
#791 = ORIENTED_EDGE('',*,*,#777,.T.);
#792 = ORIENTED_EDGE('',*,*,#395,.T.);
#793 = ORIENTED_EDGE('',*,*,#365,.T.);
#794 = ORIENTED_EDGE('',*,*,#354,.T.);
#795 = ORIENTED_EDGE('',*,*,#608,.T.);
#796 = ORIENTED_EDGE('',*,*,#599,.T.);
#797 = ORIENTED_EDGE('',*,*,#574,.T.);
#798 = ORIENTED_EDGE('',*,*,#565,.T.);
#799 = ORIENTED_EDGE('',*,*,#540,.T.);
#800 = ORIENTED_EDGE('',*,*,#531,.T.);
#801 = ORIENTED_EDGE('',*,*,#506,.T.);
#802 = ORIENTED_EDGE('',*,*,#497,.T.);
#803 = ORIENTED_EDGE('',*,*,#472,.T.);
#804 = ORIENTED_EDGE('',*,*,#463,.T.);
#805 = ORIENTED_EDGE('',*,*,#438,.T.);
#806 = ORIENTED_EDGE('',*,*,#429,.T.);
#807 = ORIENTED_EDGE('',*,*,#404,.T.);
#808 = CONICAL_SURFACE('',#809,4.8,0.785398163397);
#809 = AXIS2_PLACEMENT_3D('',#810,#811,#812);
#810 = CARTESIAN_POINT('',(-10.,14.5,27.9));
#811 = DIRECTION('',(-1.3E-16,-5.E-17,1.));
#812 = DIRECTION('',(-1.443063283607E-49,1.,5.E-17));
#813 = ADVANCED_FACE('',(#814),#839,.F.);
#814 = FACE_BOUND('',#815,.T.);
#815 = EDGE_LOOP('',(#816,#817,#825,#833));
#816 = ORIENTED_EDGE('',*,*,#626,.F.);
#817 = ORIENTED_EDGE('',*,*,#818,.T.);
#818 = EDGE_CURVE('',#627,#819,#821,.T.);
#819 = VERTEX_POINT('',#820);
#820 = CARTESIAN_POINT('',(-5.E-15,-22.30717967697,16.5));
#821 = LINE('',#822,#823);
#822 = CARTESIAN_POINT('',(-7.11E-15,-9.895453501482,16.5));
#823 = VECTOR('',#824,1.);
#824 = DIRECTION('',(-5.E-17,-1.,-1.3E-16));
#825 = ORIENTED_EDGE('',*,*,#826,.T.);
#826 = EDGE_CURVE('',#819,#827,#829,.T.);
#827 = VERTEX_POINT('',#828);
#828 = CARTESIAN_POINT('',(-0.692820323028,-22.70717967697,15.3));
#829 = LINE('',#830,#831);
#830 = CARTESIAN_POINT('',(0.334824442314,-22.11386869507,
    17.079932945704));
#831 = VECTOR('',#832,1.);
#832 = DIRECTION('',(-0.480384461415,-0.277350098113,-0.832050294338));
#833 = ORIENTED_EDGE('',*,*,#834,.F.);
#834 = EDGE_CURVE('',#629,#827,#835,.T.);
#835 = LINE('',#836,#837);
#836 = CARTESIAN_POINT('',(-0.692820323028,-9.895453501482,15.3));
#837 = VECTOR('',#838,1.);
#838 = DIRECTION('',(-5.E-17,-1.,-1.3E-16));
#839 = PLANE('',#840);
#840 = AXIS2_PLACEMENT_3D('',#841,#842,#843);
#841 = CARTESIAN_POINT('',(-0.346410161514,-9.895453501482,15.9));
#842 = DIRECTION('',(-0.866025403784,-4.2E-16,0.5));
#843 = DIRECTION('',(-2.97666604984E-16,1.,3.244263164513E-16));
#844 = ADVANCED_FACE('',(#845,#884),#950,.F.);
#845 = FACE_BOUND('',#846,.T.);
#846 = EDGE_LOOP('',(#847,#853,#854,#862,#870,#878));
#847 = ORIENTED_EDGE('',*,*,#848,.T.);
#848 = EDGE_CURVE('',#663,#629,#849,.T.);
#849 = LINE('',#850,#851);
#850 = CARTESIAN_POINT('',(-20.,-9.895453501482,15.3));
#851 = VECTOR('',#852,1.);
#852 = DIRECTION('',(1.,4.E-17,-7.5E-16));
#853 = ORIENTED_EDGE('',*,*,#834,.T.);
#854 = ORIENTED_EDGE('',*,*,#855,.T.);
#855 = EDGE_CURVE('',#827,#856,#858,.T.);
#856 = VERTEX_POINT('',#857);
#857 = CARTESIAN_POINT('',(-1.2,-23.,15.3));
#858 = LINE('',#859,#860);
#859 = CARTESIAN_POINT('',(-5.112782456802,-25.25904600471,15.3));
#860 = VECTOR('',#861,1.);
#861 = DIRECTION('',(-0.866025403784,-0.5,-7.E-17));
#862 = ORIENTED_EDGE('',*,*,#863,.F.);
#863 = EDGE_CURVE('',#864,#856,#866,.T.);
#864 = VERTEX_POINT('',#865);
#865 = CARTESIAN_POINT('',(-18.8,-23.,15.3));
#866 = LINE('',#867,#868);
#867 = CARTESIAN_POINT('',(-20.,-23.,15.3));
#868 = VECTOR('',#869,1.);
#869 = DIRECTION('',(1.,4.E-17,-7.5E-16));
#870 = ORIENTED_EDGE('',*,*,#871,.F.);
#871 = EDGE_CURVE('',#872,#864,#874,.T.);
#872 = VERTEX_POINT('',#873);
#873 = CARTESIAN_POINT('',(-19.30717967697,-22.70717967697,15.3));
#874 = LINE('',#875,#876);
#875 = CARTESIAN_POINT('',(-22.38721754319,-20.92891898579,15.3));
#876 = VECTOR('',#877,1.);
#877 = DIRECTION('',(0.866025403784,-0.5,3.E-16));
#878 = ORIENTED_EDGE('',*,*,#879,.F.);
#879 = EDGE_CURVE('',#663,#872,#880,.T.);
#880 = LINE('',#881,#882);
#881 = CARTESIAN_POINT('',(-19.30717967697,-9.895453501482,15.3));
#882 = VECTOR('',#883,1.);
#883 = DIRECTION('',(-5.E-17,-1.,-1.3E-16));
#884 = FACE_BOUND('',#885,.T.);
#885 = EDGE_LOOP('',(#886,#896,#904,#912,#920,#928,#936,#944));
#886 = ORIENTED_EDGE('',*,*,#887,.F.);
#887 = EDGE_CURVE('',#888,#890,#892,.T.);
#888 = VERTEX_POINT('',#889);
#889 = CARTESIAN_POINT('',(-7.75,-15.43198051533,15.3));
#890 = VERTEX_POINT('',#891);
#891 = CARTESIAN_POINT('',(-9.068019484661,-16.75,15.3));
#892 = LINE('',#893,#894);
#893 = CARTESIAN_POINT('',(-9.428368246536,-17.11034876187,15.3));
#894 = VECTOR('',#895,1.);
#895 = DIRECTION('',(-0.707106781187,-0.707106781187,1.E-17));
#896 = ORIENTED_EDGE('',*,*,#897,.F.);
#897 = EDGE_CURVE('',#898,#888,#900,.T.);
#898 = VERTEX_POINT('',#899);
#899 = CARTESIAN_POINT('',(-7.75,-13.56801948466,15.3));
#900 = LINE('',#901,#902);
#901 = CARTESIAN_POINT('',(-7.75,-11.73173649307,15.3));
#902 = VECTOR('',#903,1.);
#903 = DIRECTION('',(0.,-1.,5.E-17));
#904 = ORIENTED_EDGE('',*,*,#905,.F.);
#905 = EDGE_CURVE('',#906,#898,#908,.T.);
#906 = VERTEX_POINT('',#907);
#907 = CARTESIAN_POINT('',(-9.068019484661,-12.25,15.3));
#908 = LINE('',#909,#910);
#909 = CARTESIAN_POINT('',(-12.38965123812,-8.928368246536,15.3));
#910 = VECTOR('',#911,1.);
#911 = DIRECTION('',(0.707106781187,-0.707106781187,6.E-17));
#912 = ORIENTED_EDGE('',*,*,#913,.F.);
#913 = EDGE_CURVE('',#914,#906,#916,.T.);
#914 = VERTEX_POINT('',#915);
#915 = CARTESIAN_POINT('',(-10.93198051533,-12.25,15.3));
#916 = LINE('',#917,#918);
#917 = CARTESIAN_POINT('',(-15.46599025767,-12.25,15.3));
#918 = VECTOR('',#919,1.);
#919 = DIRECTION('',(1.,3.5E-16,4.E-17));
#920 = ORIENTED_EDGE('',*,*,#921,.F.);
#921 = EDGE_CURVE('',#922,#914,#924,.T.);
#922 = VERTEX_POINT('',#923);
#923 = CARTESIAN_POINT('',(-12.25,-13.56801948466,15.3));
#924 = LINE('',#925,#926);
#925 = CARTESIAN_POINT('',(-13.2693585042,-14.58737798886,15.3));
#926 = VECTOR('',#927,1.);
#927 = DIRECTION('',(0.707106781187,0.707106781187,-1.E-17));
#928 = ORIENTED_EDGE('',*,*,#929,.F.);
#929 = EDGE_CURVE('',#930,#922,#932,.T.);
#930 = VERTEX_POINT('',#931);
#931 = CARTESIAN_POINT('',(-12.25,-15.43198051533,15.3));
#932 = LINE('',#933,#934);
#933 = CARTESIAN_POINT('',(-12.25,-12.66371700841,15.3));
#934 = VECTOR('',#935,1.);
#935 = DIRECTION('',(0.,1.,-5.E-17));
#936 = ORIENTED_EDGE('',*,*,#937,.F.);
#937 = EDGE_CURVE('',#938,#930,#940,.T.);
#938 = VERTEX_POINT('',#939);
#939 = CARTESIAN_POINT('',(-10.93198051533,-16.75,15.3));
#940 = LINE('',#941,#942);
#941 = CARTESIAN_POINT('',(-14.91262201113,-12.7693585042,15.3));
#942 = VECTOR('',#943,1.);
#943 = DIRECTION('',(-0.707106781187,0.707106781187,-6.E-17));
#944 = ORIENTED_EDGE('',*,*,#945,.F.);
#945 = EDGE_CURVE('',#890,#938,#946,.T.);
#946 = LINE('',#947,#948);
#947 = CARTESIAN_POINT('',(-14.53400974233,-16.75,15.3));
#948 = VECTOR('',#949,1.);
#949 = DIRECTION('',(-1.,-3.5E-16,-4.E-17));
#950 = PLANE('',#951);
#951 = AXIS2_PLACEMENT_3D('',#952,#953,#954);
#952 = CARTESIAN_POINT('',(-20.,-9.895453501482,15.3));
#953 = DIRECTION('',(-6.6E-16,-3.9E-16,1.));
#954 = DIRECTION('',(-5.6E-16,1.,3.9E-16));
#955 = ADVANCED_FACE('',(#956),#974,.T.);
#956 = FACE_BOUND('',#957,.F.);
#957 = EDGE_LOOP('',(#958,#959,#967,#973));
#958 = ORIENTED_EDGE('',*,*,#660,.F.);
#959 = ORIENTED_EDGE('',*,*,#960,.T.);
#960 = EDGE_CURVE('',#661,#961,#963,.T.);
#961 = VERTEX_POINT('',#962);
#962 = CARTESIAN_POINT('',(-20.,-22.30717967697,16.5));
#963 = LINE('',#964,#965);
#964 = CARTESIAN_POINT('',(-20.,-9.895453501482,16.5));
#965 = VECTOR('',#966,1.);
#966 = DIRECTION('',(-5.E-17,-1.,-1.3E-16));
#967 = ORIENTED_EDGE('',*,*,#968,.T.);
#968 = EDGE_CURVE('',#961,#872,#969,.T.);
#969 = LINE('',#970,#971);
#970 = CARTESIAN_POINT('',(-20.33482444231,-22.11386869507,
    17.079932945704));
#971 = VECTOR('',#972,1.);
#972 = DIRECTION('',(0.480384461415,-0.277350098113,-0.832050294338));
#973 = ORIENTED_EDGE('',*,*,#879,.F.);
#974 = PLANE('',#975);
#975 = AXIS2_PLACEMENT_3D('',#976,#977,#978);
#976 = CARTESIAN_POINT('',(-19.65358983848,-9.895453501482,15.9));
#977 = DIRECTION('',(-0.866025403784,-6.7E-16,-0.5));
#978 = DIRECTION('',(-6.226537180436E-16,1.,-2.615321248268E-16));
#979 = ADVANCED_FACE('',(#980),#1006,.F.);
#980 = FACE_BOUND('',#981,.F.);
#981 = EDGE_LOOP('',(#982,#983,#984,#992,#1000));
#982 = ORIENTED_EDGE('',*,*,#826,.T.);
#983 = ORIENTED_EDGE('',*,*,#855,.T.);
#984 = ORIENTED_EDGE('',*,*,#985,.T.);
#985 = EDGE_CURVE('',#856,#986,#988,.T.);
#986 = VERTEX_POINT('',#987);
#987 = CARTESIAN_POINT('',(-1.2,-23.,26.4));
#988 = LINE('',#989,#990);
#989 = CARTESIAN_POINT('',(-1.2,-23.,15.3));
#990 = VECTOR('',#991,1.);
#991 = DIRECTION('',(-3.9E-16,4.E-16,1.));
#992 = ORIENTED_EDGE('',*,*,#993,.T.);
#993 = EDGE_CURVE('',#986,#994,#996,.T.);
#994 = VERTEX_POINT('',#995);
#995 = CARTESIAN_POINT('',(-4.E-15,-22.30717967697,26.4));
#996 = LINE('',#997,#998);
#997 = CARTESIAN_POINT('',(-0.6,-22.65358983848,26.4));
#998 = VECTOR('',#999,1.);
#999 = DIRECTION('',(0.866025403784,0.5,1.4E-16));
#1000 = ORIENTED_EDGE('',*,*,#1001,.F.);
#1001 = EDGE_CURVE('',#819,#994,#1002,.T.);
#1002 = LINE('',#1003,#1004);
#1003 = CARTESIAN_POINT('',(-1.78E-15,-22.30717967697,15.3));
#1004 = VECTOR('',#1005,1.);
#1005 = DIRECTION('',(-3.9E-16,4.E-16,1.));
#1006 = PLANE('',#1007);
#1007 = AXIS2_PLACEMENT_3D('',#1008,#1009,#1010);
#1008 = CARTESIAN_POINT('',(-0.6,-22.65358983848,15.3));
#1009 = DIRECTION('',(-0.5,0.866025403784,-2.3E-16));
#1010 = DIRECTION('',(-2.31208348754E-16,1.320929214352E-16,1.));
#1011 = ADVANCED_FACE('',(#1012),#1038,.T.);
#1012 = FACE_BOUND('',#1013,.T.);
#1013 = EDGE_LOOP('',(#1014,#1015,#1016,#1024,#1032));
#1014 = ORIENTED_EDGE('',*,*,#968,.T.);
#1015 = ORIENTED_EDGE('',*,*,#871,.T.);
#1016 = ORIENTED_EDGE('',*,*,#1017,.T.);
#1017 = EDGE_CURVE('',#864,#1018,#1020,.T.);
#1018 = VERTEX_POINT('',#1019);
#1019 = CARTESIAN_POINT('',(-18.8,-23.,26.4));
#1020 = LINE('',#1021,#1022);
#1021 = CARTESIAN_POINT('',(-18.8,-23.,15.3));
#1022 = VECTOR('',#1023,1.);
#1023 = DIRECTION('',(-3.9E-16,4.E-16,1.));
#1024 = ORIENTED_EDGE('',*,*,#1025,.T.);
#1025 = EDGE_CURVE('',#1018,#1026,#1028,.T.);
#1026 = VERTEX_POINT('',#1027);
#1027 = CARTESIAN_POINT('',(-20.,-22.30717967697,26.4));
#1028 = LINE('',#1029,#1030);
#1029 = CARTESIAN_POINT('',(-19.4,-22.65358983848,26.4));
#1030 = VECTOR('',#1031,1.);
#1031 = DIRECTION('',(-0.866025403784,0.5,-5.4E-16));
#1032 = ORIENTED_EDGE('',*,*,#1033,.F.);
#1033 = EDGE_CURVE('',#961,#1026,#1034,.T.);
#1034 = LINE('',#1035,#1036);
#1035 = CARTESIAN_POINT('',(-20.,-22.30717967697,15.3));
#1036 = VECTOR('',#1037,1.);
#1037 = DIRECTION('',(-3.9E-16,4.E-16,1.));
#1038 = PLANE('',#1039);
#1039 = AXIS2_PLACEMENT_3D('',#1040,#1041,#1042);
#1040 = CARTESIAN_POINT('',(-19.4,-22.65358983848,15.3));
#1041 = DIRECTION('',(-0.5,-0.866025403784,2.3E-16));
#1042 = DIRECTION('',(-3.510159698893E-16,4.682402885327E-16,1.));
#1043 = ADVANCED_FACE('',(#1044),#1055,.F.);
#1044 = FACE_BOUND('',#1045,.T.);
#1045 = EDGE_LOOP('',(#1046,#1047,#1048,#1054));
#1046 = ORIENTED_EDGE('',*,*,#863,.T.);
#1047 = ORIENTED_EDGE('',*,*,#985,.T.);
#1048 = ORIENTED_EDGE('',*,*,#1049,.F.);
#1049 = EDGE_CURVE('',#1018,#986,#1050,.T.);
#1050 = LINE('',#1051,#1052);
#1051 = CARTESIAN_POINT('',(-20.,-23.,26.4));
#1052 = VECTOR('',#1053,1.);
#1053 = DIRECTION('',(1.,4.E-17,-7.5E-16));
#1054 = ORIENTED_EDGE('',*,*,#1017,.F.);
#1055 = PLANE('',#1056);
#1056 = AXIS2_PLACEMENT_3D('',#1057,#1058,#1059);
#1057 = CARTESIAN_POINT('',(-20.,-23.,15.3));
#1058 = DIRECTION('',(-7.4E-16,1.,-4.9E-16));
#1059 = DIRECTION('',(8.3E-16,-4.9E-16,-1.));
#1060 = ADVANCED_FACE('',(#1061),#1096,.T.);
#1061 = FACE_BOUND('',#1062,.F.);
#1062 = EDGE_LOOP('',(#1063,#1074,#1083,#1089,#1090));
#1063 = ORIENTED_EDGE('',*,*,#1064,.F.);
#1064 = EDGE_CURVE('',#1065,#1067,#1069,.T.);
#1065 = VERTEX_POINT('',#1066);
#1066 = CARTESIAN_POINT('',(-8.40900974233,-16.09099025767,25.35));
#1067 = VERTEX_POINT('',#1068);
#1068 = CARTESIAN_POINT('',(-7.75,-15.43198051533,25.535382450658));
#1069 = HYPERBOLA('',#1070,2.25,2.25);
#1070 = AXIS2_PLACEMENT_3D('',#1071,#1072,#1073);
#1071 = CARTESIAN_POINT('',(-8.40900974233,-16.09099025767,23.1));
#1072 = DIRECTION('',(-0.707106781187,0.707106781187,-1.8E-16));
#1073 = DIRECTION('',(-3.727922061358E-17,2.172792206136E-16,1.));
#1074 = ORIENTED_EDGE('',*,*,#1075,.F.);
#1075 = EDGE_CURVE('',#1076,#1065,#1078,.T.);
#1076 = VERTEX_POINT('',#1077);
#1077 = CARTESIAN_POINT('',(-9.068019484661,-16.75,25.535382450658));
#1078 = HYPERBOLA('',#1079,2.25,2.25);
#1079 = AXIS2_PLACEMENT_3D('',#1080,#1081,#1082);
#1080 = CARTESIAN_POINT('',(-8.40900974233,-16.09099025767,23.1));
#1081 = DIRECTION('',(-0.707106781187,0.707106781187,-1.8E-16));
#1082 = DIRECTION('',(-3.727922061358E-17,2.172792206136E-16,1.));
#1083 = ORIENTED_EDGE('',*,*,#1084,.T.);
#1084 = EDGE_CURVE('',#1076,#890,#1085,.T.);
#1085 = LINE('',#1086,#1087);
#1086 = CARTESIAN_POINT('',(-9.068019484661,-16.75,27.9));
#1087 = VECTOR('',#1088,1.);
#1088 = DIRECTION('',(4.8E-16,-5.E-17,-1.));
#1089 = ORIENTED_EDGE('',*,*,#887,.F.);
#1090 = ORIENTED_EDGE('',*,*,#1091,.F.);
#1091 = EDGE_CURVE('',#1067,#888,#1092,.T.);
#1092 = LINE('',#1093,#1094);
#1093 = CARTESIAN_POINT('',(-7.75,-15.43198051533,27.9));
#1094 = VECTOR('',#1095,1.);
#1095 = DIRECTION('',(4.8E-16,-5.E-17,-1.));
#1096 = PLANE('',#1097);
#1097 = AXIS2_PLACEMENT_3D('',#1098,#1099,#1100);
#1098 = CARTESIAN_POINT('',(-8.40900974233,-16.09099025767,
    20.418121086298));
#1099 = DIRECTION('',(-0.707106781187,0.707106781187,-4.7E-16));
#1100 = DIRECTION('',(0.707106781187,0.707106781187,-1.8E-16));
#1101 = ADVANCED_FACE('',(#1102),#1130,.T.);
#1102 = FACE_BOUND('',#1103,.F.);
#1103 = EDGE_LOOP('',(#1104,#1113,#1122,#1128,#1129));
#1104 = ORIENTED_EDGE('',*,*,#1105,.F.);
#1105 = EDGE_CURVE('',#1106,#1076,#1108,.T.);
#1106 = VERTEX_POINT('',#1107);
#1107 = CARTESIAN_POINT('',(-10.,-16.75,25.35));
#1108 = HYPERBOLA('',#1109,2.25,2.25);
#1109 = AXIS2_PLACEMENT_3D('',#1110,#1111,#1112);
#1110 = CARTESIAN_POINT('',(-10.,-16.75,23.1));
#1111 = DIRECTION('',(-1.8E-16,1.,-1.8E-16));
#1112 = DIRECTION('',(-1.3E-16,1.8E-16,1.));
#1113 = ORIENTED_EDGE('',*,*,#1114,.F.);
#1114 = EDGE_CURVE('',#1115,#1106,#1117,.T.);
#1115 = VERTEX_POINT('',#1116);
#1116 = CARTESIAN_POINT('',(-10.93198051533,-16.75,25.535382450658));
#1117 = HYPERBOLA('',#1118,2.25,2.25);
#1118 = AXIS2_PLACEMENT_3D('',#1119,#1120,#1121);
#1119 = CARTESIAN_POINT('',(-10.,-16.75,23.1));
#1120 = DIRECTION('',(-1.8E-16,1.,-1.8E-16));
#1121 = DIRECTION('',(-1.3E-16,1.8E-16,1.));
#1122 = ORIENTED_EDGE('',*,*,#1123,.T.);
#1123 = EDGE_CURVE('',#1115,#938,#1124,.T.);
#1124 = LINE('',#1125,#1126);
#1125 = CARTESIAN_POINT('',(-10.93198051533,-16.75,27.9));
#1126 = VECTOR('',#1127,1.);
#1127 = DIRECTION('',(4.8E-16,-5.E-17,-1.));
#1128 = ORIENTED_EDGE('',*,*,#945,.F.);
#1129 = ORIENTED_EDGE('',*,*,#1084,.F.);
#1130 = PLANE('',#1131);
#1131 = AXIS2_PLACEMENT_3D('',#1132,#1133,#1134);
#1132 = CARTESIAN_POINT('',(-10.,-16.75,20.418121086298));
#1133 = DIRECTION('',(-9.E-17,1.,-2.6E-16));
#1134 = DIRECTION('',(1.,9.E-17,-4.259355092334E-49));
#1135 = ADVANCED_FACE('',(#1136),#1164,.T.);
#1136 = FACE_BOUND('',#1137,.F.);
#1137 = EDGE_LOOP('',(#1138,#1147,#1156,#1162,#1163));
#1138 = ORIENTED_EDGE('',*,*,#1139,.F.);
#1139 = EDGE_CURVE('',#1140,#1115,#1142,.T.);
#1140 = VERTEX_POINT('',#1141);
#1141 = CARTESIAN_POINT('',(-11.59099025767,-16.09099025767,25.35));
#1142 = HYPERBOLA('',#1143,2.25,2.25);
#1143 = AXIS2_PLACEMENT_3D('',#1144,#1145,#1146);
#1144 = CARTESIAN_POINT('',(-11.59099025767,-16.09099025767,23.1));
#1145 = DIRECTION('',(0.707106781187,0.707106781187,-7.E-17));
#1146 = DIRECTION('',(-1.655025253169E-16,2.644974746831E-16,1.));
#1147 = ORIENTED_EDGE('',*,*,#1148,.F.);
#1148 = EDGE_CURVE('',#1149,#1140,#1151,.T.);
#1149 = VERTEX_POINT('',#1150);
#1150 = CARTESIAN_POINT('',(-12.25,-15.43198051533,25.535382450658));
#1151 = HYPERBOLA('',#1152,2.25,2.25);
#1152 = AXIS2_PLACEMENT_3D('',#1153,#1154,#1155);
#1153 = CARTESIAN_POINT('',(-11.59099025767,-16.09099025767,23.1));
#1154 = DIRECTION('',(0.707106781187,0.707106781187,-7.E-17));
#1155 = DIRECTION('',(-1.655025253169E-16,2.644974746831E-16,1.));
#1156 = ORIENTED_EDGE('',*,*,#1157,.T.);
#1157 = EDGE_CURVE('',#1149,#930,#1158,.T.);
#1158 = LINE('',#1159,#1160);
#1159 = CARTESIAN_POINT('',(-12.25,-15.43198051533,27.9));
#1160 = VECTOR('',#1161,1.);
#1161 = DIRECTION('',(4.8E-16,-5.E-17,-1.));
#1162 = ORIENTED_EDGE('',*,*,#937,.F.);
#1163 = ORIENTED_EDGE('',*,*,#1123,.F.);
#1164 = PLANE('',#1165);
#1165 = AXIS2_PLACEMENT_3D('',#1166,#1167,#1168);
#1166 = CARTESIAN_POINT('',(-11.59099025767,-16.09099025767,
    20.418121086298));
#1167 = DIRECTION('',(0.707106781187,0.707106781187,-1.8E-16));
#1168 = DIRECTION('',(0.707106781187,-0.707106781187,1.8E-16));
#1169 = ADVANCED_FACE('',(#1170),#1198,.T.);
#1170 = FACE_BOUND('',#1171,.F.);
#1171 = EDGE_LOOP('',(#1172,#1181,#1190,#1196,#1197));
#1172 = ORIENTED_EDGE('',*,*,#1173,.F.);
#1173 = EDGE_CURVE('',#1174,#1149,#1176,.T.);
#1174 = VERTEX_POINT('',#1175);
#1175 = CARTESIAN_POINT('',(-12.25,-14.5,25.35));
#1176 = HYPERBOLA('',#1177,2.25,2.25);
#1177 = AXIS2_PLACEMENT_3D('',#1178,#1179,#1180);
#1178 = CARTESIAN_POINT('',(-12.25,-14.5,23.1));
#1179 = DIRECTION('',(1.,1.8E-16,8.E-17));
#1180 = DIRECTION('',(-8.E-17,3.1E-16,1.));
#1181 = ORIENTED_EDGE('',*,*,#1182,.F.);
#1182 = EDGE_CURVE('',#1183,#1174,#1185,.T.);
#1183 = VERTEX_POINT('',#1184);
#1184 = CARTESIAN_POINT('',(-12.25,-13.56801948466,25.535382450658));
#1185 = HYPERBOLA('',#1186,2.25,2.25);
#1186 = AXIS2_PLACEMENT_3D('',#1187,#1188,#1189);
#1187 = CARTESIAN_POINT('',(-12.25,-14.5,23.1));
#1188 = DIRECTION('',(1.,1.8E-16,8.E-17));
#1189 = DIRECTION('',(-8.E-17,3.1E-16,1.));
#1190 = ORIENTED_EDGE('',*,*,#1191,.T.);
#1191 = EDGE_CURVE('',#1183,#922,#1192,.T.);
#1192 = LINE('',#1193,#1194);
#1193 = CARTESIAN_POINT('',(-12.25,-13.56801948466,27.9));
#1194 = VECTOR('',#1195,1.);
#1195 = DIRECTION('',(4.8E-16,-5.E-17,-1.));
#1196 = ORIENTED_EDGE('',*,*,#929,.F.);
#1197 = ORIENTED_EDGE('',*,*,#1157,.F.);
#1198 = PLANE('',#1199);
#1199 = AXIS2_PLACEMENT_3D('',#1200,#1201,#1202);
#1200 = CARTESIAN_POINT('',(-12.25,-14.5,20.418121086298));
#1201 = DIRECTION('',(1.,9.E-17,2.8E-16));
#1202 = DIRECTION('',(2.8E-16,-2.6E-16,-1.));
#1203 = ADVANCED_FACE('',(#1204),#1232,.T.);
#1204 = FACE_BOUND('',#1205,.F.);
#1205 = EDGE_LOOP('',(#1206,#1215,#1224,#1230,#1231));
#1206 = ORIENTED_EDGE('',*,*,#1207,.F.);
#1207 = EDGE_CURVE('',#1208,#1183,#1210,.T.);
#1208 = VERTEX_POINT('',#1209);
#1209 = CARTESIAN_POINT('',(-11.59099025767,-12.90900974233,25.35));
#1210 = HYPERBOLA('',#1211,2.25,2.25);
#1211 = AXIS2_PLACEMENT_3D('',#1212,#1213,#1214);
#1212 = CARTESIAN_POINT('',(-11.59099025767,-12.90900974233,23.1));
#1213 = DIRECTION('',(0.707106781187,-0.707106781187,1.8E-16));
#1214 = DIRECTION('',(-3.727922061358E-17,2.172792206136E-16,1.));
#1215 = ORIENTED_EDGE('',*,*,#1216,.F.);
#1216 = EDGE_CURVE('',#1217,#1208,#1219,.T.);
#1217 = VERTEX_POINT('',#1218);
#1218 = CARTESIAN_POINT('',(-10.93198051533,-12.25,25.535382450658));
#1219 = HYPERBOLA('',#1220,2.25,2.25);
#1220 = AXIS2_PLACEMENT_3D('',#1221,#1222,#1223);
#1221 = CARTESIAN_POINT('',(-11.59099025767,-12.90900974233,23.1));
#1222 = DIRECTION('',(0.707106781187,-0.707106781187,1.8E-16));
#1223 = DIRECTION('',(-3.727922061358E-17,2.172792206136E-16,1.));
#1224 = ORIENTED_EDGE('',*,*,#1225,.T.);
#1225 = EDGE_CURVE('',#1217,#914,#1226,.T.);
#1226 = LINE('',#1227,#1228);
#1227 = CARTESIAN_POINT('',(-10.93198051533,-12.25,27.9));
#1228 = VECTOR('',#1229,1.);
#1229 = DIRECTION('',(4.8E-16,-5.E-17,-1.));
#1230 = ORIENTED_EDGE('',*,*,#921,.F.);
#1231 = ORIENTED_EDGE('',*,*,#1191,.F.);
#1232 = PLANE('',#1233);
#1233 = AXIS2_PLACEMENT_3D('',#1234,#1235,#1236);
#1234 = CARTESIAN_POINT('',(-11.59099025767,-12.90900974233,
    20.418121086298));
#1235 = DIRECTION('',(0.707106781187,-0.707106781187,3.9E-16));
#1236 = DIRECTION('',(-0.707106781187,-0.707106781187,1.8E-16));
#1237 = ADVANCED_FACE('',(#1238),#1266,.T.);
#1238 = FACE_BOUND('',#1239,.F.);
#1239 = EDGE_LOOP('',(#1240,#1249,#1258,#1264,#1265));
#1240 = ORIENTED_EDGE('',*,*,#1241,.F.);
#1241 = EDGE_CURVE('',#1242,#1217,#1244,.T.);
#1242 = VERTEX_POINT('',#1243);
#1243 = CARTESIAN_POINT('',(-10.00000007742,-12.25,25.35));
#1244 = HYPERBOLA('',#1245,2.25,2.25);
#1245 = AXIS2_PLACEMENT_3D('',#1246,#1247,#1248);
#1246 = CARTESIAN_POINT('',(-10.,-12.25,23.1));
#1247 = DIRECTION('',(1.8E-16,-1.,1.8E-16));
#1248 = DIRECTION('',(-1.3E-16,1.8E-16,1.));
#1249 = ORIENTED_EDGE('',*,*,#1250,.F.);
#1250 = EDGE_CURVE('',#1251,#1242,#1253,.T.);
#1251 = VERTEX_POINT('',#1252);
#1252 = CARTESIAN_POINT('',(-9.068019484661,-12.25,25.535382450658));
#1253 = HYPERBOLA('',#1254,2.25,2.25);
#1254 = AXIS2_PLACEMENT_3D('',#1255,#1256,#1257);
#1255 = CARTESIAN_POINT('',(-10.,-12.25,23.1));
#1256 = DIRECTION('',(1.8E-16,-1.,1.8E-16));
#1257 = DIRECTION('',(-1.3E-16,1.8E-16,1.));
#1258 = ORIENTED_EDGE('',*,*,#1259,.T.);
#1259 = EDGE_CURVE('',#1251,#906,#1260,.T.);
#1260 = LINE('',#1261,#1262);
#1261 = CARTESIAN_POINT('',(-9.068019484661,-12.25,27.9));
#1262 = VECTOR('',#1263,1.);
#1263 = DIRECTION('',(4.8E-16,-5.E-17,-1.));
#1264 = ORIENTED_EDGE('',*,*,#913,.F.);
#1265 = ORIENTED_EDGE('',*,*,#1225,.F.);
#1266 = PLANE('',#1267);
#1267 = AXIS2_PLACEMENT_3D('',#1268,#1269,#1270);
#1268 = CARTESIAN_POINT('',(-9.999999999988,-12.25,20.418121086298));
#1269 = DIRECTION('',(9.E-17,-1.,2.6E-16));
#1270 = DIRECTION('',(-1.,-9.E-17,4.259355092334E-49));
#1271 = ADVANCED_FACE('',(#1272),#1300,.T.);
#1272 = FACE_BOUND('',#1273,.F.);
#1273 = EDGE_LOOP('',(#1274,#1283,#1292,#1298,#1299));
#1274 = ORIENTED_EDGE('',*,*,#1275,.F.);
#1275 = EDGE_CURVE('',#1276,#1251,#1278,.T.);
#1276 = VERTEX_POINT('',#1277);
#1277 = CARTESIAN_POINT('',(-8.40900974233,-12.90900974233,25.35));
#1278 = HYPERBOLA('',#1279,2.25,2.25);
#1279 = AXIS2_PLACEMENT_3D('',#1280,#1281,#1282);
#1280 = CARTESIAN_POINT('',(-8.40900974233,-12.90900974233,23.1));
#1281 = DIRECTION('',(-0.707106781187,-0.707106781187,7.E-17));
#1282 = DIRECTION('',(-1.655025253169E-16,2.644974746831E-16,1.));
#1283 = ORIENTED_EDGE('',*,*,#1284,.F.);
#1284 = EDGE_CURVE('',#1285,#1276,#1287,.T.);
#1285 = VERTEX_POINT('',#1286);
#1286 = CARTESIAN_POINT('',(-7.75,-13.56801948466,25.535382450658));
#1287 = HYPERBOLA('',#1288,2.25,2.25);
#1288 = AXIS2_PLACEMENT_3D('',#1289,#1290,#1291);
#1289 = CARTESIAN_POINT('',(-8.40900974233,-12.90900974233,23.1));
#1290 = DIRECTION('',(-0.707106781187,-0.707106781187,7.E-17));
#1291 = DIRECTION('',(-1.655025253169E-16,2.644974746831E-16,1.));
#1292 = ORIENTED_EDGE('',*,*,#1293,.T.);
#1293 = EDGE_CURVE('',#1285,#898,#1294,.T.);
#1294 = LINE('',#1295,#1296);
#1295 = CARTESIAN_POINT('',(-7.75,-13.56801948466,27.9));
#1296 = VECTOR('',#1297,1.);
#1297 = DIRECTION('',(4.8E-16,-5.E-17,-1.));
#1298 = ORIENTED_EDGE('',*,*,#905,.F.);
#1299 = ORIENTED_EDGE('',*,*,#1259,.F.);
#1300 = PLANE('',#1301);
#1301 = AXIS2_PLACEMENT_3D('',#1302,#1303,#1304);
#1302 = CARTESIAN_POINT('',(-8.409009742321,-12.90900974234,
    20.418121086298));
#1303 = DIRECTION('',(-0.707106781187,-0.707106781187,-0.));
#1304 = DIRECTION('',(0.707106781187,-0.707106781187,1.8E-16));
#1305 = ADVANCED_FACE('',(#1306),#1327,.T.);
#1306 = FACE_BOUND('',#1307,.F.);
#1307 = EDGE_LOOP('',(#1308,#1317,#1324,#1325,#1326));
#1308 = ORIENTED_EDGE('',*,*,#1309,.F.);
#1309 = EDGE_CURVE('',#1310,#1285,#1312,.T.);
#1310 = VERTEX_POINT('',#1311);
#1311 = CARTESIAN_POINT('',(-7.75,-14.50000011051,25.35));
#1312 = HYPERBOLA('',#1313,2.25,2.25);
#1313 = AXIS2_PLACEMENT_3D('',#1314,#1315,#1316);
#1314 = CARTESIAN_POINT('',(-7.75,-14.5,23.1));
#1315 = DIRECTION('',(-1.,-1.8E-16,-8.E-17));
#1316 = DIRECTION('',(-8.E-17,3.1E-16,1.));
#1317 = ORIENTED_EDGE('',*,*,#1318,.F.);
#1318 = EDGE_CURVE('',#1067,#1310,#1319,.T.);
#1319 = HYPERBOLA('',#1320,2.25,2.25);
#1320 = AXIS2_PLACEMENT_3D('',#1321,#1322,#1323);
#1321 = CARTESIAN_POINT('',(-7.75,-14.5,23.1));
#1322 = DIRECTION('',(-1.,-1.8E-16,-8.E-17));
#1323 = DIRECTION('',(-8.E-17,3.1E-16,1.));
#1324 = ORIENTED_EDGE('',*,*,#1091,.T.);
#1325 = ORIENTED_EDGE('',*,*,#897,.F.);
#1326 = ORIENTED_EDGE('',*,*,#1293,.F.);
#1327 = PLANE('',#1328);
#1328 = AXIS2_PLACEMENT_3D('',#1329,#1330,#1331);
#1329 = CARTESIAN_POINT('',(-7.75,-14.50000000001,20.418121086298));
#1330 = DIRECTION('',(-1.,-9.E-17,-2.7E-16));
#1331 = DIRECTION('',(-2.7E-16,2.6E-16,1.));
#1332 = ADVANCED_FACE('',(#1333),#1360,.T.);
#1333 = FACE_BOUND('',#1334,.F.);
#1334 = EDGE_LOOP('',(#1335,#1336,#1345,#1353));
#1335 = ORIENTED_EDGE('',*,*,#993,.F.);
#1336 = ORIENTED_EDGE('',*,*,#1337,.T.);
#1337 = EDGE_CURVE('',#986,#1338,#1340,.T.);
#1338 = VERTEX_POINT('',#1339);
#1339 = CARTESIAN_POINT('',(-1.2,-21.5,27.9));
#1340 = CIRCLE('',#1341,1.5);
#1341 = AXIS2_PLACEMENT_3D('',#1342,#1343,#1344);
#1342 = CARTESIAN_POINT('',(-1.2,-21.5,26.4));
#1343 = DIRECTION('',(-1.,5.E-17,-3.9E-16));
#1344 = DIRECTION('',(-5.E-17,-1.,2.6E-16));
#1345 = ORIENTED_EDGE('',*,*,#1346,.T.);
#1346 = EDGE_CURVE('',#1338,#1347,#1349,.T.);
#1347 = VERTEX_POINT('',#1348);
#1348 = CARTESIAN_POINT('',(-7.E-15,-21.5,27.207179676972));
#1349 = LINE('',#1350,#1351);
#1350 = CARTESIAN_POINT('',(-1.2,-21.5,27.9));
#1351 = VECTOR('',#1352,1.);
#1352 = DIRECTION('',(0.866025403784,-1.4E-16,-0.5));
#1353 = ORIENTED_EDGE('',*,*,#1354,.F.);
#1354 = EDGE_CURVE('',#994,#1347,#1355,.T.);
#1355 = CIRCLE('',#1356,0.807179676972);
#1356 = AXIS2_PLACEMENT_3D('',#1357,#1358,#1359);
#1357 = CARTESIAN_POINT('',(-7.11E-15,-21.5,26.4));
#1358 = DIRECTION('',(-1.,5.E-17,-3.9E-16));
#1359 = DIRECTION('',(-5.E-17,-1.,2.6E-16));
#1360 = CONICAL_SURFACE('',#1361,1.5,0.523598775598);
#1361 = AXIS2_PLACEMENT_3D('',#1362,#1363,#1364);
#1362 = CARTESIAN_POINT('',(-1.2,-21.5,26.4));
#1363 = DIRECTION('',(-1.,5.E-17,-3.9E-16));
#1364 = DIRECTION('',(-5.E-17,-1.,2.6E-16));
#1365 = ADVANCED_FACE('',(#1366),#1393,.T.);
#1366 = FACE_BOUND('',#1367,.T.);
#1367 = EDGE_LOOP('',(#1368,#1369,#1378,#1386));
#1368 = ORIENTED_EDGE('',*,*,#1025,.F.);
#1369 = ORIENTED_EDGE('',*,*,#1370,.T.);
#1370 = EDGE_CURVE('',#1018,#1371,#1373,.T.);
#1371 = VERTEX_POINT('',#1372);
#1372 = CARTESIAN_POINT('',(-18.8,-21.5,27.9));
#1373 = CIRCLE('',#1374,1.5);
#1374 = AXIS2_PLACEMENT_3D('',#1375,#1376,#1377);
#1375 = CARTESIAN_POINT('',(-18.8,-21.5,26.4));
#1376 = DIRECTION('',(-1.,5.E-17,-3.9E-16));
#1377 = DIRECTION('',(-5.E-17,-1.,5.E-15));
#1378 = ORIENTED_EDGE('',*,*,#1379,.T.);
#1379 = EDGE_CURVE('',#1371,#1380,#1382,.T.);
#1380 = VERTEX_POINT('',#1381);
#1381 = CARTESIAN_POINT('',(-20.,-21.5,27.207179676972));
#1382 = LINE('',#1383,#1384);
#1383 = CARTESIAN_POINT('',(-18.8,-21.5,27.9));
#1384 = VECTOR('',#1385,1.);
#1385 = DIRECTION('',(-0.866025403784,-2.43E-15,-0.5));
#1386 = ORIENTED_EDGE('',*,*,#1387,.F.);
#1387 = EDGE_CURVE('',#1026,#1380,#1388,.T.);
#1388 = CIRCLE('',#1389,0.807179676972);
#1389 = AXIS2_PLACEMENT_3D('',#1390,#1391,#1392);
#1390 = CARTESIAN_POINT('',(-20.,-21.5,26.4));
#1391 = DIRECTION('',(-1.,5.E-17,-3.9E-16));
#1392 = DIRECTION('',(-5.E-17,-1.,5.E-15));
#1393 = CONICAL_SURFACE('',#1394,1.5,0.523598775598);
#1394 = AXIS2_PLACEMENT_3D('',#1395,#1396,#1397);
#1395 = CARTESIAN_POINT('',(-18.8,-21.5,26.4));
#1396 = DIRECTION('',(1.,-5.E-17,3.9E-16));
#1397 = DIRECTION('',(-5.E-17,-1.,5.E-15));
#1398 = ADVANCED_FACE('',(#1399),#1410,.T.);
#1399 = FACE_BOUND('',#1400,.T.);
#1400 = EDGE_LOOP('',(#1401,#1402,#1403,#1409));
#1401 = ORIENTED_EDGE('',*,*,#1049,.T.);
#1402 = ORIENTED_EDGE('',*,*,#1337,.T.);
#1403 = ORIENTED_EDGE('',*,*,#1404,.F.);
#1404 = EDGE_CURVE('',#1371,#1338,#1405,.T.);
#1405 = LINE('',#1406,#1407);
#1406 = CARTESIAN_POINT('',(-20.,-21.5,27.9));
#1407 = VECTOR('',#1408,1.);
#1408 = DIRECTION('',(1.,4.E-17,-7.5E-16));
#1409 = ORIENTED_EDGE('',*,*,#1370,.F.);
#1410 = CYLINDRICAL_SURFACE('',#1411,1.5);
#1411 = AXIS2_PLACEMENT_3D('',#1412,#1413,#1414);
#1412 = CARTESIAN_POINT('',(-20.,-21.5,26.4));
#1413 = DIRECTION('',(-1.,1.4E-16,5.7E-16));
#1414 = DIRECTION('',(-1.4E-16,-1.,3.1E-16));
#1415 = ADVANCED_FACE('',(#1416),#1450,.F.);
#1416 = FACE_BOUND('',#1417,.F.);
#1417 = EDGE_LOOP('',(#1418,#1426,#1433,#1434,#1435,#1436,#1437,#1438,
    #1439,#1440,#1441,#1442,#1443,#1444,#1445,#1446,#1447,#1448,#1449));
#1418 = ORIENTED_EDGE('',*,*,#1419,.F.);
#1419 = EDGE_CURVE('',#1420,#1106,#1422,.T.);
#1420 = VERTEX_POINT('',#1421);
#1421 = CARTESIAN_POINT('',(-10.,-19.3,27.9));
#1422 = LINE('',#1423,#1424);
#1423 = CARTESIAN_POINT('',(-10.,-19.3,27.9));
#1424 = VECTOR('',#1425,1.);
#1425 = DIRECTION('',(3.E-17,0.707106781187,-0.707106781187));
#1426 = ORIENTED_EDGE('',*,*,#1427,.T.);
#1427 = EDGE_CURVE('',#1420,#1420,#1428,.T.);
#1428 = CIRCLE('',#1429,4.8);
#1429 = AXIS2_PLACEMENT_3D('',#1430,#1431,#1432);
#1430 = CARTESIAN_POINT('',(-10.,-14.5,27.9));
#1431 = DIRECTION('',(1.3E-16,-3.1E-16,-1.));
#1432 = DIRECTION('',(9.E-17,-1.,3.1E-16));
#1433 = ORIENTED_EDGE('',*,*,#1419,.T.);
#1434 = ORIENTED_EDGE('',*,*,#1105,.T.);
#1435 = ORIENTED_EDGE('',*,*,#1075,.T.);
#1436 = ORIENTED_EDGE('',*,*,#1064,.T.);
#1437 = ORIENTED_EDGE('',*,*,#1318,.T.);
#1438 = ORIENTED_EDGE('',*,*,#1309,.T.);
#1439 = ORIENTED_EDGE('',*,*,#1284,.T.);
#1440 = ORIENTED_EDGE('',*,*,#1275,.T.);
#1441 = ORIENTED_EDGE('',*,*,#1250,.T.);
#1442 = ORIENTED_EDGE('',*,*,#1241,.T.);
#1443 = ORIENTED_EDGE('',*,*,#1216,.T.);
#1444 = ORIENTED_EDGE('',*,*,#1207,.T.);
#1445 = ORIENTED_EDGE('',*,*,#1182,.T.);
#1446 = ORIENTED_EDGE('',*,*,#1173,.T.);
#1447 = ORIENTED_EDGE('',*,*,#1148,.T.);
#1448 = ORIENTED_EDGE('',*,*,#1139,.T.);
#1449 = ORIENTED_EDGE('',*,*,#1114,.T.);
#1450 = CONICAL_SURFACE('',#1451,4.8,0.785398163397);
#1451 = AXIS2_PLACEMENT_3D('',#1452,#1453,#1454);
#1452 = CARTESIAN_POINT('',(-10.,-14.5,27.9));
#1453 = DIRECTION('',(-1.3E-16,3.1E-16,1.));
#1454 = DIRECTION('',(9.E-17,-1.,3.1E-16));
#1455 = ADVANCED_FACE('',(#1456),#1472,.T.);
#1456 = FACE_BOUND('',#1457,.T.);
#1457 = EDGE_LOOP('',(#1458,#1464,#1465,#1466,#1467,#1468,#1469,#1470,
    #1471));
#1458 = ORIENTED_EDGE('',*,*,#1459,.T.);
#1459 = EDGE_CURVE('',#705,#1347,#1460,.T.);
#1460 = LINE('',#1461,#1462);
#1461 = CARTESIAN_POINT('',(-1.78E-15,21.5,27.207179676972));
#1462 = VECTOR('',#1463,1.);
#1463 = DIRECTION('',(1.4E-16,-1.,3.9E-16));
#1464 = ORIENTED_EDGE('',*,*,#1354,.F.);
#1465 = ORIENTED_EDGE('',*,*,#1001,.F.);
#1466 = ORIENTED_EDGE('',*,*,#818,.F.);
#1467 = ORIENTED_EDGE('',*,*,#637,.T.);
#1468 = ORIENTED_EDGE('',*,*,#106,.F.);
#1469 = ORIENTED_EDGE('',*,*,#139,.T.);
#1470 = ORIENTED_EDGE('',*,*,#291,.T.);
#1471 = ORIENTED_EDGE('',*,*,#712,.T.);
#1472 = PLANE('',#1473);
#1473 = AXIS2_PLACEMENT_3D('',#1474,#1475,#1476);
#1474 = CARTESIAN_POINT('',(-3.55E-15,2.21E-15,22.980882167135));
#1475 = DIRECTION('',(1.,0.,-4.5E-16));
#1476 = DIRECTION('',(4.5E-16,0.,1.));
#1477 = ADVANCED_FACE('',(#1478),#1494,.T.);
#1478 = FACE_BOUND('',#1479,.T.);
#1479 = EDGE_LOOP('',(#1480,#1481,#1482,#1483,#1484,#1485,#1486,#1487,
    #1488));
#1480 = ORIENTED_EDGE('',*,*,#745,.F.);
#1481 = ORIENTED_EDGE('',*,*,#323,.F.);
#1482 = ORIENTED_EDGE('',*,*,#65,.F.);
#1483 = ORIENTED_EDGE('',*,*,#32,.T.);
#1484 = ORIENTED_EDGE('',*,*,#671,.F.);
#1485 = ORIENTED_EDGE('',*,*,#960,.T.);
#1486 = ORIENTED_EDGE('',*,*,#1033,.T.);
#1487 = ORIENTED_EDGE('',*,*,#1387,.T.);
#1488 = ORIENTED_EDGE('',*,*,#1489,.T.);
#1489 = EDGE_CURVE('',#1380,#738,#1490,.T.);
#1490 = LINE('',#1491,#1492);
#1491 = CARTESIAN_POINT('',(-20.,-21.5,27.207179676972));
#1492 = VECTOR('',#1493,1.);
#1493 = DIRECTION('',(5.E-17,1.,1.3E-16));
#1494 = PLANE('',#1495);
#1495 = AXIS2_PLACEMENT_3D('',#1496,#1497,#1498);
#1496 = CARTESIAN_POINT('',(-20.,4.E-16,22.980882167135));
#1497 = DIRECTION('',(-1.,0.,4.3E-16));
#1498 = DIRECTION('',(-4.3E-16,0.,-1.));
#1499 = ADVANCED_FACE('',(#1500),#1511,.T.);
#1500 = FACE_BOUND('',#1501,.T.);
#1501 = EDGE_LOOP('',(#1502,#1503,#1509,#1510));
#1502 = ORIENTED_EDGE('',*,*,#704,.F.);
#1503 = ORIENTED_EDGE('',*,*,#1504,.T.);
#1504 = EDGE_CURVE('',#696,#1338,#1505,.T.);
#1505 = LINE('',#1506,#1507);
#1506 = CARTESIAN_POINT('',(-1.2,21.5,27.9));
#1507 = VECTOR('',#1508,1.);
#1508 = DIRECTION('',(1.4E-16,-1.,3.9E-16));
#1509 = ORIENTED_EDGE('',*,*,#1346,.T.);
#1510 = ORIENTED_EDGE('',*,*,#1459,.F.);
#1511 = PLANE('',#1512);
#1512 = AXIS2_PLACEMENT_3D('',#1513,#1514,#1515);
#1513 = CARTESIAN_POINT('',(-0.6,2.02E-15,27.553589838486));
#1514 = DIRECTION('',(0.5,1.6E-16,0.866025403784));
#1515 = DIRECTION('',(0.866025403784,-6.751002030431E-33,-0.5));
#1516 = ADVANCED_FACE('',(#1517),#1528,.T.);
#1517 = FACE_BOUND('',#1518,.T.);
#1518 = EDGE_LOOP('',(#1519,#1520,#1521,#1522));
#1519 = ORIENTED_EDGE('',*,*,#737,.T.);
#1520 = ORIENTED_EDGE('',*,*,#1489,.F.);
#1521 = ORIENTED_EDGE('',*,*,#1379,.F.);
#1522 = ORIENTED_EDGE('',*,*,#1523,.T.);
#1523 = EDGE_CURVE('',#1371,#729,#1524,.T.);
#1524 = LINE('',#1525,#1526);
#1525 = CARTESIAN_POINT('',(-18.8,-21.5,27.9));
#1526 = VECTOR('',#1527,1.);
#1527 = DIRECTION('',(5.E-17,1.,1.3E-16));
#1528 = PLANE('',#1529);
#1529 = AXIS2_PLACEMENT_3D('',#1530,#1531,#1532);
#1530 = CARTESIAN_POINT('',(-19.4,1.6E-15,27.553589838486));
#1531 = DIRECTION('',(-0.5,1.2E-16,0.866025403784));
#1532 = DIRECTION('',(0.866025403784,-1.099724299216E-33,0.5));
#1533 = ADVANCED_FACE('',(#1534,#1540,#1543),#1546,.T.);
#1534 = FACE_BOUND('',#1535,.T.);
#1535 = EDGE_LOOP('',(#1536,#1537,#1538,#1539));
#1536 = ORIENTED_EDGE('',*,*,#762,.F.);
#1537 = ORIENTED_EDGE('',*,*,#1523,.F.);
#1538 = ORIENTED_EDGE('',*,*,#1404,.T.);
#1539 = ORIENTED_EDGE('',*,*,#1504,.F.);
#1540 = FACE_BOUND('',#1541,.T.);
#1541 = EDGE_LOOP('',(#1542));
#1542 = ORIENTED_EDGE('',*,*,#785,.F.);
#1543 = FACE_BOUND('',#1544,.T.);
#1544 = EDGE_LOOP('',(#1545));
#1545 = ORIENTED_EDGE('',*,*,#1427,.T.);
#1546 = PLANE('',#1547);
#1547 = AXIS2_PLACEMENT_3D('',#1548,#1549,#1550);
#1548 = CARTESIAN_POINT('',(-10.,-1.57E-15,27.9));
#1549 = DIRECTION('',(-2.3E-16,5.4E-16,1.));
#1550 = DIRECTION('',(-6.653321343671E-48,1.,-5.4E-16));
#1551 = ADVANCED_FACE('',(#1552),#1560,.F.);
#1552 = FACE_BOUND('',#1553,.T.);
#1553 = EDGE_LOOP('',(#1554,#1555,#1556,#1557,#1558,#1559));
#1554 = ORIENTED_EDGE('',*,*,#679,.T.);
#1555 = ORIENTED_EDGE('',*,*,#49,.F.);
#1556 = ORIENTED_EDGE('',*,*,#169,.T.);
#1557 = ORIENTED_EDGE('',*,*,#123,.T.);
#1558 = ORIENTED_EDGE('',*,*,#645,.F.);
#1559 = ORIENTED_EDGE('',*,*,#848,.F.);
#1560 = CYLINDRICAL_SURFACE('',#1561,9.9);
#1561 = AXIS2_PLACEMENT_3D('',#1562,#1563,#1564);
#1562 = CARTESIAN_POINT('',(-20.,1.8E-15,15.));
#1563 = DIRECTION('',(-1.,2.1E-16,-4.E-17));
#1564 = DIRECTION('',(2.1E-16,1.,-3.9E-16));
#1565 = ( GEOMETRIC_REPRESENTATION_CONTEXT(3) 
GLOBAL_UNCERTAINTY_ASSIGNED_CONTEXT((#1569)) 
GLOBAL_UNIT_ASSIGNED_CONTEXT((#1566,#1567,#1568)) REPRESENTATION_CONTEXT
('Context #1','3D Context with UNIT and UNCERTAINTY') );
#1566 = ( LENGTH_UNIT() NAMED_UNIT(*) SI_UNIT(.MILLI.,.METRE.) );
#1567 = ( NAMED_UNIT(*) PLANE_ANGLE_UNIT() SI_UNIT($,.RADIAN.) );
#1568 = ( NAMED_UNIT(*) SI_UNIT($,.STERADIAN.) SOLID_ANGLE_UNIT() );
#1569 = UNCERTAINTY_MEASURE_WITH_UNIT(LENGTH_MEASURE(1.E-05),#1566,
  'distance_accuracy_value','confusion accuracy');
#1570 = PRODUCT_RELATED_PRODUCT_CATEGORY('part',$,(#7));
ENDSEC;
END-ISO-10303-21;
